<?xml version="1.0" encoding="UTF-8"?><svg id="Layer_2" xmlns="http://www.w3.org/2000/svg" viewBox="0 0 56.15 56.15"><defs><style>.cls-1{stroke-width:0px;}</style></defs><g id="Layer_4"><path class="cls-1" d="m8.66,22.67h2.36l3.44,6.55h.27v-6.55h1.75v9.45h-2.36l-3.44-6.55h-.27v6.55h-1.76v-9.45Z"/><path class="cls-1" d="m25.2,31.04h-.07c-.18.23-.41.43-.68.61-.47.31-1.13.61-2.09.61-2.55,0-4.59-2.01-4.59-4.86s2.04-4.86,4.59-4.86,3.93,1.89,4.25,3.38h-1.82c-.41-.88-1.16-1.69-2.43-1.69-1.62,0-2.84,1.23-2.84,3.17s1.21,3.17,2.84,3.17c1.75,0,2.57-1.42,2.57-2.03v-.07h-2.36v-1.35h4.12v5h-1.35l-.13-1.08Z"/><path class="cls-1" d="m28.17,22.67h6.28v1.62h-4.52v2.29h4.19v1.62h-4.19v3.92h-1.76v-9.45Z"/><path class="cls-1" d="m34.79,22.67h1.96l1.62,6.62h.27l1.69-6.62h2.03l1.69,6.62h.27l1.62-6.62h1.96l-2.36,9.45h-2.43l-1.62-6.48h-.27l-1.62,6.48h-2.43l-2.36-9.45Z"/><path class="cls-1" d="m50.11,56.15H6.04c-3.33,0-6.04-2.71-6.04-6.04V6.04C0,2.71,2.71,0,6.04,0h44.07c3.33,0,6.04,2.71,6.04,6.04v44.07c0,3.33-2.71,6.04-6.04,6.04ZM6.04,2c-2.23,0-4.04,1.81-4.04,4.04v44.07c0,2.23,1.81,4.04,4.04,4.04h44.07c2.23,0,4.04-1.81,4.04-4.04V6.04c0-2.23-1.81-4.04-4.04-4.04H6.04Z"/><path class="cls-1" d="m45.14,50.23c-.28,0-.5-.22-.5-.5s.22-.5.5-.5h.99c.28,0,.52.22.52.5s-.2.5-.48.5v-.5l-.03.5h-1.01Zm-2.98,0h-.99c-.28,0-.5-.22-.5-.5s.22-.5.5-.5h.99c.28,0,.5.22.5.5s-.22.5-.5.5Zm-3.98,0h-1c-.28,0-.5-.22-.5-.5s.22-.5.5-.5h1c.28,0,.5.22.5.5s-.22.5-.5.5Zm-3.98,0h-.99c-.28,0-.5-.22-.5-.5s.22-.5.5-.5h.99c.28,0,.5.22.5.5s-.22.5-.5.5Zm-3.98,0h-.99c-.28,0-.5-.22-.5-.5s.22-.5.5-.5h.99c.28,0,.5.22.5.5s-.22.5-.5.5Zm-3.98,0h-.99c-.28,0-.5-.22-.5-.5s.22-.5.5-.5h.99c.28,0,.5.22.5.5s-.22.5-.5.5Zm-3.98,0h-.99c-.28,0-.5-.22-.5-.5s.22-.5.5-.5h.99c.28,0,.5.22.5.5s-.22.5-.5.5Zm-3.98,0h-1c-.28,0-.5-.22-.5-.5s.22-.5.5-.5h1c.28,0,.5.22.5.5s-.22.5-.5.5Zm-3.98,0h-1c-.28,0-.5-.22-.5-.5s.22-.5.5-.5h1c.28,0,.5.22.5.5s-.22.5-.5.5Zm-3.98,0h-.32c-.25,0-.51-.02-.76-.07-.27-.05-.45-.31-.4-.58.05-.27.31-.45.58-.4.19.04.38.05.58.05h.32c.28,0,.5.22.5.5s-.22.5-.5.5Zm38.48-1.2c-.12,0-.24-.04-.33-.13-.21-.18-.22-.5-.04-.71.19-.21.35-.45.48-.71.12-.25.42-.35.67-.23.25.12.35.42.23.67-.17.34-.38.65-.63.94-.1.11-.24.17-.37.17Zm-41.86-.5c-.17,0-.33-.08-.42-.24-.2-.32-.35-.67-.46-1.03-.08-.27.08-.54.34-.62.27-.08.54.08.62.34.08.27.19.53.35.78.15.23.07.54-.16.69-.08.05-.17.08-.26.08Zm42.78-3.25c-.28,0-.5-.22-.5-.5v-.99c0-.28.22-.5.5-.5s.5.22.5.5v.99c0,.28-.22.5-.5.5Zm-43.32-.63c-.28,0-.5-.22-.5-.5v-.99c0-.28.22-.5.5-.5s.5.22.5.5v.99c0,.28-.22.5-.5.5Zm43.32-3.35c-.28,0-.5-.22-.5-.5v-.99c0-.28.22-.5.5-.5s.5.22.5.5v.99c0,.28-.22.5-.5.5Zm-43.32-.63c-.28,0-.5-.22-.5-.5v-.99c0-.28.22-.5.5-.5s.5.22.5.5v.99c0,.28-.22.5-.5.5Zm43.32-3.35c-.28,0-.5-.22-.5-.5v-.99c0-.28.22-.5.5-.5s.5.22.5.5v.99c0,.28-.22.5-.5.5Zm-43.32-.63c-.28,0-.5-.22-.5-.5v-.99c0-.28.22-.5.5-.5s.5.22.5.5v.99c0,.28-.22.5-.5.5Zm43.32-3.35c-.28,0-.5-.22-.5-.5v-.99c0-.28.22-.5.5-.5s.5.22.5.5v.99c0,.28-.22.5-.5.5Zm-43.32-.63c-.28,0-.5-.22-.5-.5v-.99c0-.28.22-.5.5-.5s.5.22.5.5v.99c0,.28-.22.5-.5.5Zm43.32-3.35c-.28,0-.5-.22-.5-.5v-.99c0-.28.22-.5.5-.5s.5.22.5.5v.99c0,.28-.22.5-.5.5Zm-43.32-.63c-.28,0-.5-.22-.5-.5v-.99c0-.28.22-.5.5-.5s.5.22.5.5v.99c0,.28-.22.5-.5.5Zm43.32-3.35c-.28,0-.5-.22-.5-.5v-.99c0-.28.22-.5.5-.5s.5.22.5.5v.99c0,.28-.22.5-.5.5Zm-43.32-.63c-.28,0-.5-.22-.5-.5v-.99c0-.28.22-.5.5-.5s.5.22.5.5v.99c0,.28-.22.5-.5.5Zm43.32-3.35c-.28,0-.5-.22-.5-.5v-.99c0-.28.22-.5.5-.5s.5.22.5.5v.99c0,.28-.22.5-.5.5Zm-43.32-.63c-.28,0-.5-.22-.5-.5v-.99c0-.28.22-.5.5-.5s.5.22.5.5v.99c0,.28-.22.5-.5.5Zm43.32-3.35c-.28,0-.5-.22-.5-.5v-.99c0-.28.22-.5.5-.5s.5.22.5.5v.99c0,.28-.22.5-.5.5Zm-43.32-.63c-.28,0-.5-.22-.5-.5v-.99c0-.28.22-.5.5-.5s.5.22.5.5v.99c0,.28-.22.5-.5.5Zm43.32-3.35c-.28,0-.5-.22-.5-.5v-.99c0-.28.22-.5.5-.5s.5.22.5.5v.99c0,.28-.22.5-.5.5Zm-43.32-.63c-.28,0-.5-.22-.5-.5v-.99c0-.28.22-.5.5-.5s.5.22.5.5v.99c0,.28-.22.5-.5.5Zm43.18-3.33c-.22,0-.42-.14-.48-.36-.08-.28-.2-.54-.35-.78-.15-.23-.08-.54.16-.69.23-.15.54-.08.69.16.2.32.36.66.46,1.03.08.27-.07.54-.34.62-.05.01-.1.02-.14.02Zm-42.8-.59c-.08,0-.15-.02-.22-.05-.25-.12-.35-.42-.23-.67.17-.34.38-.65.64-.93.19-.2.5-.22.71-.03.2.19.22.5.03.71-.19.21-.35.45-.48.7-.09.18-.26.28-.45.28Zm40-1.94s-.06,0-.09,0c-.18-.03-.37-.05-.56-.05h-.34c-.28,0-.5-.22-.5-.5s.22-.5.5-.5h.34c.25,0,.5.02.74.07.27.05.45.31.4.58-.04.24-.25.41-.49.41Zm-3.97-.06h-.99c-.28,0-.5-.22-.5-.5s.22-.5.5-.5h.99c.28,0,.5.22.5.5s-.22.5-.5.5Zm-3.98,0h-1c-.28,0-.5-.22-.5-.5s.22-.5.5-.5h1c.28,0,.5.22.5.5s-.22.5-.5.5Zm-3.98,0h-.99c-.28,0-.5-.22-.5-.5s.22-.5.5-.5h.99c.28,0,.5.22.5.5s-.22.5-.5.5Zm-3.98,0h-.99c-.28,0-.5-.22-.5-.5s.22-.5.5-.5h.99c.28,0,.5.22.5.5s-.22.5-.5.5Zm-3.98,0h-.99c-.28,0-.5-.22-.5-.5s.22-.5.5-.5h.99c.28,0,.5.22.5.5s-.22.5-.5.5Zm-3.98,0h-.99c-.28,0-.5-.22-.5-.5s.22-.5.5-.5h.99c.28,0,.5.22.5.5s-.22.5-.5.5Zm-3.98,0h-1c-.28,0-.5-.22-.5-.5s.22-.5.5-.5h1c.28,0,.5.22.5.5s-.22.5-.5.5Zm-3.98,0h-1c-.28,0-.5-.22-.5-.5s.22-.5.5-.5h1c.28,0,.5.22.5.5s-.22.5-.5.5Zm-3.98,0h-.97c-.28,0-.51-.22-.51-.5s.21-.5.49-.5h.99c.28,0,.5.22.5.5s-.22.5-.5.5Z"/></g></svg>