<?xml version="1.0" encoding="utf-8"?>
<!-- Generator: Adobe Illustrator 24.0.3, SVG Export Plug-In . SVG Version: 6.00 Build 0)  -->
<svg version="1.1" id="Layer_1" xmlns="http://www.w3.org/2000/svg" xmlns:xlink="http://www.w3.org/1999/xlink" x="0px" y="0px"
	 viewBox="0 0 93.4 26.3" style="enable-background:new 0 0 93.4 26.3;" xml:space="preserve">
<title>PA-220</title>
<g id="Layer_2_1_">
	<g id="Layer_2-2">
		<g>
			<polygon points="44.1,7.5 44.1,5.8 40.9,5.8 40.9,7.5 40.1,7.5 40.1,10.7 44.9,10.7 44.9,7.5 			"/>
		</g>
		<g>
			<polygon points="40.9,18.9 40.9,20.5 44.1,20.5 44.1,18.9 44.9,18.9 44.9,15.6 40.1,15.6 40.1,18.9 			"/>
		</g>
		<g>
			<polygon points="36.6,7.5 36.6,5.8 33.4,5.8 33.4,7.5 32.6,7.5 32.6,10.7 37.4,10.7 37.4,7.5 			"/>
		</g>
		<g>
			<polygon points="33.4,18.9 33.4,20.5 36.6,20.5 36.6,18.9 37.4,18.9 37.4,15.6 32.6,15.6 32.6,18.9 			"/>
		</g>
		<g>
			<polygon points="30.8,7.5 30.8,5.8 27.6,5.8 27.6,7.5 26.8,7.5 26.8,10.7 31.6,10.7 31.6,7.5 			"/>
		</g>
		<g>
			<polygon points="27.6,18.9 27.6,20.5 30.8,20.5 30.8,18.9 31.6,18.9 31.6,15.6 26.8,15.6 26.8,18.9 			"/>
		</g>
		<g>
			<polygon points="25,7.5 25,5.8 21.8,5.8 21.8,7.5 20.9,7.5 20.9,10.7 25.8,10.7 25.8,7.5 			"/>
		</g>
		<g>
			<polygon points="21.8,18.9 21.8,20.5 25,20.5 25,18.9 25.8,18.9 25.8,15.6 20.9,15.6 20.9,18.9 			"/>
		</g>
		<g>
			<polygon points="19.2,7.5 19.2,5.8 15.9,5.8 15.9,7.5 15.1,7.5 15.1,10.7 20,10.7 20,7.5 			"/>
		</g>
		<g>
			<polygon points="15.9,18.9 15.9,20.5 19.2,20.5 19.2,18.9 20,18.9 20,15.6 15.1,15.6 15.1,18.9 			"/>
		</g>
		<g>
			<path d="M93.4,26.3H0V0h93.4V26.3z M1.4,24.9H92V1.4H1.4V24.9z"/>
		</g>
		<g>
			<path d="M1.2,2.5L0.1,1.9V0.7L1.2,0l1.1,0.6v1.2L1.2,2.5z M0.4,1.8l0.8,0.5L2,1.8V0.8L1.2,0.3L0.4,0.8V1.8z"/>
		</g>
		<g>
			<path d="M3.7,2.5L2.6,1.9V0.7L3.7,0l1.1,0.6v1.2L3.7,2.5z M2.9,1.8l0.8,0.5l0.8-0.5V0.8L3.7,0.3L2.9,0.8V1.8z"/>
		</g>
		<g>
			<path d="M6.1,2.5L5.1,1.9V0.7L6.1,0l1.1,0.6v1.2L6.1,2.5z M5.3,1.8l0.8,0.5L7,1.8V0.8L6.1,0.3L5.3,0.8V1.8z"/>
		</g>
		<g>
			<path d="M8.6,2.5L7.5,1.9V0.7L8.6,0l1.1,0.6v1.2L8.6,2.5z M7.8,1.8l0.8,0.5l0.8-0.5V0.8L8.6,0.3L7.8,0.8V1.8z"/>
		</g>
		<g>
			<path d="M11.1,2.5L10,1.9V0.7L11.1,0l1.1,0.6v1.2L11.1,2.5z M10.2,1.8l0.8,0.5l0.8-0.5V0.8l-0.8-0.5l-0.8,0.5V1.8z"/>
		</g>
		<g>
			<path d="M13.5,2.5l-1.1-0.6V0.7L13.5,0l1.1,0.6v1.2L13.5,2.5z M12.7,1.8l0.8,0.5l0.8-0.5V0.8l-0.8-0.5l-0.8,0.5V1.8z"/>
		</g>
		<g>
			<path d="M16,2.5l-1.1-0.6V0.7L16,0L17,0.7v1.2L16,2.5z M15.2,1.8L16,2.2l0.8-0.5V0.8L16,0.3l-0.8,0.5V1.8z"/>
		</g>
		<g>
			<path d="M18.4,2.5l-1.1-0.6V0.7L18.4,0l1.1,0.6v1.2L18.4,2.5z M17.6,1.8l0.8,0.5l0.8-0.5V0.8l-0.8-0.5l-0.8,0.5V1.8z"/>
		</g>
		<g>
			<path d="M20.9,2.5l-1.1-0.6V0.7L20.9,0L22,0.7v1.2L20.9,2.5z M20.1,1.8l0.8,0.5l0.8-0.5V0.8l-0.8-0.5l-0.8,0.5V1.8z"/>
		</g>
		<g>
			<path d="M23.4,2.5l-1.1-0.6V0.7L23.4,0l1.1,0.6v1.2L23.4,2.5z M22.5,1.8l0.8,0.5l0.8-0.5V0.8l-0.8-0.5l-0.8,0.5V1.8z"/>
		</g>
		<g>
			<path d="M25.8,2.5l-1.1-0.6V0.7L25.8,0l1.1,0.6v1.2L25.8,2.5z M25,1.8l0.8,0.5l0.8-0.5V0.8l-0.8-0.5L25,0.8V1.8z"/>
		</g>
		<g>
			<path d="M28.3,2.5l-1.1-0.6V0.7L28.3,0l1.1,0.6v1.2L28.3,2.5z M27.4,1.8l0.8,0.5l0.8-0.5V0.8l-0.8-0.5l-0.8,0.5V1.8z"/>
		</g>
		<g>
			<path d="M30.7,2.5l-1.1-0.6V0.7L30.7,0l1.1,0.6v1.2L30.7,2.5z M29.9,1.8l0.8,0.5l0.8-0.5V0.8l-0.8-0.5l-0.8,0.5V1.8z"/>
		</g>
		<g>
			<path d="M33.2,2.5l-1.1-0.6V0.7L33.2,0l1.1,0.6v1.2L33.2,2.5z M32.4,1.8l0.8,0.5L34,1.8V0.8l-0.8-0.5l-0.8,0.5V1.8z"/>
		</g>
		<g>
			<path d="M35.7,2.5l-1.1-0.6V0.7L35.7,0l1.1,0.6v1.2L35.7,2.5z M34.8,1.8l0.8,0.5l0.8-0.5V0.8l-0.8-0.5l-0.8,0.5V1.8z"/>
		</g>
		<g>
			<path d="M38.1,2.5L37,1.9V0.7L38.1,0l1.1,0.6v1.2L38.1,2.5z M37.3,1.8l0.8,0.5l0.8-0.5V0.8l-0.8-0.5l-0.8,0.5V1.8z"/>
		</g>
		<g>
			<path d="M40.6,2.5l-1.1-0.6V0.7L40.6,0l1.1,0.6v1.2L40.6,2.5z M39.7,1.8l0.8,0.5l0.8-0.5V0.8l-0.8-0.5l-0.8,0.5V1.8z"/>
		</g>
		<g>
			<path d="M43,2.5L42,1.9V0.7L43,0l1.1,0.6v1.2L43,2.5z M42.2,1.8L43,2.2l0.8-0.5V0.8L43,0.3l-0.8,0.5V1.8z"/>
		</g>
		<g>
			<path d="M45.5,2.5l-1.1-0.6V0.7L45.5,0l1.1,0.6v1.2L45.5,2.5z M44.7,1.8l0.8,0.5l0.8-0.5V0.8l-0.8-0.5l-0.8,0.5V1.8z"/>
		</g>
		<g>
			<path d="M47.9,2.5l-1.1-0.6V0.7L47.9,0L49,0.7v1.2L47.9,2.5z M47.1,1.8l0.8,0.5l0.8-0.5V0.8l-0.8-0.5l-0.8,0.5V1.8z"/>
		</g>
		<g>
			<path d="M50.4,2.5l-1.1-0.6V0.7L50.4,0l1.1,0.6v1.2L50.4,2.5z M49.6,1.8l0.8,0.5l0.8-0.5V0.8l-0.8-0.5l-0.8,0.5V1.8z"/>
		</g>
		<g>
			<path d="M52.9,2.5l-1.1-0.6V0.7L52.9,0l1.1,0.6v1.2L52.9,2.5z M52,1.8l0.8,0.5l0.8-0.5V0.8l-0.8-0.5L52,0.8V1.8z"/>
		</g>
		<g>
			<path d="M55.3,2.5l-1.1-0.6V0.7L55.3,0l1.1,0.6v1.2L55.3,2.5z M54.5,1.8l0.8,0.5l0.8-0.5V0.8l-0.8-0.5l-0.8,0.5V1.8z"/>
		</g>
		<g>
			<path d="M57.8,2.5l-1.1-0.6V0.7L57.8,0l1.1,0.6v1.2L57.8,2.5z M57,1.8l0.8,0.5l0.8-0.5V0.8l-0.8-0.5L57,0.8V1.8z"/>
		</g>
		<g>
			<path d="M60.2,2.5l-1.1-0.6V0.7L60.2,0l1.1,0.6v1.2L60.2,2.5z M59.4,1.8l0.8,0.5l0.8-0.5V0.8l-0.8-0.5l-0.8,0.5V1.8z"/>
		</g>
		<g>
			<path d="M62.7,2.5l-1.1-0.6V0.7L62.7,0l1.1,0.6v1.2L62.7,2.5z M61.9,1.8l0.8,0.5l0.8-0.5V0.8l-0.8-0.5l-0.8,0.5V1.8z"/>
		</g>
		<g>
			<path d="M65.2,2.5l-1.1-0.6V0.7L65.2,0l1.1,0.6v1.2L65.2,2.5z M64.3,1.8l0.8,0.5L66,1.8V0.8l-0.8-0.5l-0.8,0.5V1.8z"/>
		</g>
		<g>
			<path d="M67.6,2.5l-1.1-0.6V0.7L67.6,0l1.1,0.6v1.2L67.6,2.5z M66.8,1.8l0.8,0.5l0.8-0.5V0.8l-0.8-0.5l-0.8,0.5V1.8z"/>
		</g>
		<g>
			<path d="M70.1,2.5L69,1.9V0.7L70.1,0l1.1,0.6v1.2L70.1,2.5z M69.2,1.8l0.8,0.5l0.8-0.5V0.8l-0.8-0.5l-0.8,0.5V1.8z"/>
		</g>
		<g>
			<path d="M72.5,2.5l-1.1-0.6V0.7L72.5,0l1.1,0.6v1.2L72.5,2.5z M71.7,1.8l0.8,0.5l0.8-0.5V0.8l-0.8-0.5l-0.8,0.5V1.8z"/>
		</g>
		<g>
			<path d="M75,2.5l-1.1-0.6V0.7L75,0l1.1,0.6v1.2L75,2.5z M74.2,1.8L75,2.2l0.8-0.5V0.8L75,0.3l-0.8,0.5V1.8z"/>
		</g>
		<g>
			<path d="M77.5,2.5l-1.1-0.6V0.7L77.5,0l1.1,0.6v1.2L77.5,2.5z M76.6,1.8l0.8,0.5l0.8-0.5V0.8l-0.8-0.5l-0.8,0.5V1.8z"/>
		</g>
		<g>
			<path d="M79.9,2.5l-1.1-0.6V0.7L79.9,0L81,0.7v1.2L79.9,2.5z M79.1,1.8l0.8,0.5l0.8-0.5V0.8l-0.8-0.5l-0.8,0.5V1.8z"/>
		</g>
		<g>
			<path d="M82.4,2.5l-1.1-0.6V0.7L82.4,0l1.1,0.6v1.2L82.4,2.5z M81.5,1.8l0.8,0.5l0.8-0.5V0.8l-0.8-0.5l-0.8,0.5V1.8z"/>
		</g>
		<g>
			<path d="M84.8,2.5l-1.1-0.6V0.7L84.8,0l1.1,0.6v1.2L84.8,2.5z M84,1.8l0.8,0.5l0.8-0.5V0.8l-0.8-0.5L84,0.8V1.8z"/>
		</g>
		<g>
			<path d="M87.3,2.5l-1.1-0.6V0.7L87.3,0l1.1,0.6v1.2L87.3,2.5z M86.5,1.8l0.8,0.5l0.8-0.5V0.8l-0.8-0.5l-0.8,0.5V1.8z"/>
		</g>
		<g>
			<path d="M89.7,2.5l-1.1-0.6V0.7L89.7,0l1.1,0.6v1.2L89.7,2.5z M88.9,1.8l0.8,0.5l0.8-0.5V0.8l-0.8-0.5l-0.8,0.5V1.8z"/>
		</g>
		<g>
			<path d="M92.2,2.5l-1.1-0.6V0.7L92.2,0l1.1,0.6v1.2L92.2,2.5z M91.4,1.8l0.8,0.5L93,1.8V0.8l-0.8-0.5l-0.8,0.5V1.8z"/>
		</g>
		<g>
			<path d="M2.5,4.5L1.4,3.9V2.7L2.5,2l1.1,0.6v1.2L2.5,4.5z M1.6,3.8l0.8,0.5l0.8-0.5V2.8L2.5,2.3L1.6,2.8V3.8z"/>
		</g>
		<g>
			<path d="M4.9,4.5L3.8,3.9V2.7L4.9,2L6,2.7v1.2L4.9,4.5z M4.1,3.8l0.8,0.5l0.8-0.5V2.8L4.9,2.3L4.1,2.8V3.8z"/>
		</g>
		<g>
			<path d="M7.4,4.5L6.3,3.9V2.7L7.4,2l1.1,0.6v1.2L7.4,4.5z M6.5,3.8l0.8,0.5l0.8-0.5V2.8L7.4,2.3L6.5,2.8V3.8z"/>
		</g>
		<g>
			<path d="M9.8,4.5L8.8,3.9V2.7L9.8,2l1.1,0.6v1.2L9.8,4.5z M9,3.8l0.8,0.5l0.8-0.5V2.8L9.8,2.3L9,2.8V3.8z"/>
		</g>
		<g>
			<path d="M12.3,4.5l-1.1-0.6V2.7L12.3,2l1.1,0.6v1.2L12.3,4.5z M11.5,3.8l0.8,0.5l0.8-0.5V2.8l-0.8-0.5l-0.8,0.5V3.8z"/>
		</g>
		<g>
			<path d="M15.8,4l-1.1-0.5L13.7,4V2.7L14.8,2l1.1,0.6V4z M13.9,2.8v0.8l0.8-0.4l0.8,0.4V2.8l-0.8-0.5L13.9,2.8z"/>
		</g>
		<g>
			<path d="M16.1,4V2.7L17.2,2l1.1,0.6V4l-1.1-0.5L16.1,4z M17.2,3.2L18,3.6V2.8l-0.8-0.5l-0.8,0.5v0.8L17.2,3.2z"/>
		</g>
		<g>
			<path d="M20.7,4l-1.1-0.5L18.6,4V2.7L19.7,2l1.1,0.6V4z M18.8,2.8v0.8l0.8-0.4l0.8,0.4V2.8l-0.8-0.5L18.8,2.8z"/>
		</g>
		<g>
			<path d="M23.2,4l-1.1-0.5L21,4V2.7L22.1,2l1.1,0.6V4z M21.3,2.8v0.8l0.8-0.4l0.8,0.4V2.8l-0.8-0.5L21.3,2.8z"/>
		</g>
		<g>
			<path d="M25.7,4l-1.1-0.5L23.5,4V2.7L24.6,2l1.1,0.6V4z M23.8,2.8v0.8l0.8-0.4l0.8,0.4V2.8l-0.8-0.5L23.8,2.8z"/>
		</g>
		<g>
			<path d="M28.1,4L27,3.5L26,4V2.7L27,2l1.1,0.6V4z M27,3.2l0.8,0.4V2.8L27,2.3l-0.8,0.5v0.8L27,3.2z"/>
		</g>
		<g>
			<path d="M30.6,4l-1.1-0.5L28.4,4V2.7L29.5,2l1.1,0.6V4z M29.5,3.2l0.8,0.4V2.8l-0.8-0.5l-0.8,0.5v0.8L29.5,3.2z"/>
		</g>
		<g>
			<path d="M33,4L32,3.5L30.9,4V2.7L32,2L33,2.7V4z M32,3.2l0.8,0.4V2.8L32,2.3l-0.8,0.5v0.8L32,3.2z"/>
		</g>
		<g>
			<path d="M33.3,4V2.7L34.4,2l1.1,0.6V4l-1.1-0.5L33.3,4z M34.4,3.2l0.8,0.4V2.8l-0.8-0.5l-0.8,0.5v0.8L34.4,3.2z"/>
		</g>
		<g>
			<path d="M37.9,4l-1.1-0.5L35.8,4V2.7L36.9,2l1.1,0.6V4z M36.1,2.8v0.8l0.8-0.4l0.8,0.4V2.8l-0.8-0.5L36.1,2.8z"/>
		</g>
		<g>
			<path d="M40.4,4l-1.1-0.5L38.3,4V2.7L39.3,2l1.1,0.6V4z M38.5,2.8v0.8l0.8-0.4l0.8,0.4V2.8l-0.8-0.5L38.5,2.8z"/>
		</g>
		<g>
			<path d="M40.7,4V2.7L41.8,2l1.1,0.6V4l-1.1-0.5L40.7,4z M41.8,3.2l0.8,0.4V2.8l-0.8-0.5L41,2.8v0.8L41.8,3.2z"/>
		</g>
		<g>
			<path d="M45.3,4l-1.1-0.5L43.2,4V2.7L44.2,2l1.1,0.6V4z M44.2,3.2l0.8,0.4V2.8l-0.8-0.5l-0.8,0.5v0.8L44.2,3.2z"/>
		</g>
		<g>
			<path d="M47.8,4l-1.1-0.5L45.6,4V2.7L46.7,2l1.1,0.6V4z M46.7,3.2l0.8,0.4V2.8l-0.8-0.5l-0.8,0.5v0.8L46.7,3.2z"/>
		</g>
		<g>
			<path d="M50.2,4l-1.1-0.5L48.1,4V2.7L49.2,2l1.1,0.6V4z M49.2,3.2L50,3.6V2.8l-0.8-0.5l-0.8,0.5v0.8L49.2,3.2z"/>
		</g>
		<g>
			<path d="M52.7,4l-1.1-0.5L50.6,4V2.7L51.6,2l1.1,0.6V4z M51.6,3.2l0.8,0.4V2.8l-0.8-0.5l-0.8,0.5v0.8L51.6,3.2z"/>
		</g>
		<g>
			<path d="M55.2,4l-1.1-0.5L53,4V2.7L54.1,2l1.1,0.6V4z M54.1,3.2l0.8,0.4V2.8l-0.8-0.5l-0.8,0.5v0.8L54.1,3.2z"/>
		</g>
		<g>
			<path d="M57.6,4l-1.1-0.5L55.5,4V2.7L56.5,2l1.1,0.6V4z M55.7,2.8v0.8l0.8-0.4l0.8,0.4V2.8l-0.8-0.5L55.7,2.8z"/>
		</g>
		<g>
			<path d="M60.1,4L59,3.5L57.9,4V2.7L59,2l1.1,0.6V4z M58.2,2.8v0.8L59,3.2l0.8,0.4V2.8L59,2.3L58.2,2.8z"/>
		</g>
		<g>
			<path d="M62.5,4l-1.1-0.5L60.4,4V2.7L61.5,2l1.1,0.6V4z M60.6,2.8v0.8l0.8-0.4l0.8,0.4V2.8l-0.8-0.5L60.6,2.8z"/>
		</g>
		<g>
			<path d="M62.9,4V2.7L63.9,2L65,2.7V4l-1.1-0.5L62.9,4z M63.9,3.2l0.8,0.4V2.8l-0.8-0.5l-0.8,0.5v0.8L63.9,3.2z"/>
		</g>
		<g>
			<path d="M65.3,4V2.7L66.4,2l1.1,0.6V4l-1.1-0.5L65.3,4z M66.4,3.2l0.8,0.4V2.8l-0.8-0.5l-0.8,0.5v0.8L66.4,3.2z"/>
		</g>
		<g>
			<path d="M69.9,4l-1.1-0.5L67.8,4V2.7L68.8,2l1.1,0.6V4z M68.8,3.2l0.8,0.4V2.8l-0.8-0.5L68,2.8v0.8L68.8,3.2z"/>
		</g>
		<g>
			<path d="M72.4,4l-1.1-0.5L70.2,4V2.7L71.3,2l1.1,0.6V4z M71.3,3.2l0.8,0.4V2.8l-0.8-0.5l-0.8,0.5v0.8L71.3,3.2z"/>
		</g>
		<g>
			<path d="M74.8,4l-1.1-0.5L72.7,4V2.7L73.8,2l1.1,0.6V4z M73.8,3.2l0.8,0.4V2.8l-0.8-0.5l-0.8,0.5v0.8L73.8,3.2z"/>
		</g>
		<g>
			<path d="M77.3,4l-1.1-0.5L75.1,4V2.7L76.2,2l1.1,0.6V4z M76.2,3.2L77,3.6V2.8l-0.8-0.5l-0.8,0.5v0.8L76.2,3.2z"/>
		</g>
		<g>
			<path d="M77.6,4V2.7L78.7,2l1.1,0.6V4l-1.1-0.5L77.6,4z M78.7,3.2l0.8,0.4V2.8l-0.8-0.5l-0.8,0.5v0.8L78.7,3.2z"/>
		</g>
		<g>
			<path d="M81.1,4.5l-1.1-0.6V2.7L81.1,2l1.1,0.6v1.2L81.1,4.5z M80.3,3.8l0.8,0.5L82,3.8V2.8l-0.8-0.5l-0.8,0.5V3.8z"/>
		</g>
		<g>
			<path d="M83.6,4.5l-1.1-0.6V2.7L83.6,2l1.1,0.6v1.2L83.6,4.5z M82.8,3.8l0.8,0.5l0.8-0.5V2.8l-0.8-0.5l-0.8,0.5V3.8z"/>
		</g>
		<g>
			<path d="M86,4.5L85,3.9V2.7L86,2l1.1,0.6v1.2L86,4.5z M85.2,3.8L86,4.2l0.8-0.5V2.8L86,2.3l-0.8,0.5V3.8z"/>
		</g>
		<g>
			<path d="M88.5,4.5l-1.1-0.6V2.7L88.5,2l1.1,0.6v1.2L88.5,4.5z M87.7,3.8l0.8,0.5l0.8-0.5V2.8l-0.8-0.5l-0.8,0.5V3.8z"/>
		</g>
		<g>
			<path d="M91,4.5l-1.1-0.6V2.7L91,2L92,2.7v1.2L91,4.5z M90.1,3.8L91,4.2l0.8-0.5V2.8L91,2.3l-0.8,0.5V3.8z"/>
		</g>
		<g>
			<path d="M1.2,6.5L0.1,5.9V4.7L1.2,4l1.1,0.6v1.2L1.2,6.5z M0.4,5.8l0.8,0.5L2,5.8V4.8L1.2,4.3L0.4,4.8V5.8z"/>
		</g>
		<g>
			<path d="M3.7,6.5L2.6,5.9V4.7L3.7,4l1.1,0.6v1.2L3.7,6.5z M2.9,5.8l0.8,0.5l0.8-0.5V4.8L3.7,4.3L2.9,4.8V5.8z"/>
		</g>
		<g>
			<path d="M6.1,6.5L5.1,5.9V4.7L6.1,4l1.1,0.6v1.2L6.1,6.5z M5.3,5.8l0.8,0.5L7,5.8V4.8L6.1,4.3L5.3,4.8V5.8z"/>
		</g>
		<g>
			<path d="M8.6,6.5L7.5,5.9V4.7L8.6,4l1.1,0.6v1.2L8.6,6.5z M7.8,5.8l0.8,0.5l0.8-0.5V4.8L8.6,4.3L7.8,4.8V5.8z"/>
		</g>
		<g>
			<path d="M11.1,6.5L10,5.9V4.7L11.1,4l1.1,0.6v1.2L11.1,6.5z M10.2,5.8l0.8,0.5l0.8-0.5V4.8l-0.8-0.5l-0.8,0.5V5.8z"/>
		</g>
		<g>
			<path d="M82.4,6.5l-1.1-0.6V4.7L82.4,4l1.1,0.6v1.2L82.4,6.5z M81.5,5.8l0.8,0.5l0.8-0.5V4.8l-0.8-0.5l-0.8,0.5V5.8z"/>
		</g>
		<g>
			<path d="M84.8,6.5l-1.1-0.6V4.7L84.8,4l1.1,0.6v1.2L84.8,6.5z M84,5.8l0.8,0.5l0.8-0.5V4.8l-0.8-0.5L84,4.8V5.8z"/>
		</g>
		<g>
			<path d="M87.3,6.5l-1.1-0.6V4.7L87.3,4l1.1,0.6v1.2L87.3,6.5z M86.5,5.8l0.8,0.5l0.8-0.5V4.8l-0.8-0.5l-0.8,0.5V5.8z"/>
		</g>
		<g>
			<path d="M89.7,6.5l-1.1-0.6V4.7L89.7,4l1.1,0.6v1.2L89.7,6.5z M88.9,5.8l0.8,0.5l0.8-0.5V4.8l-0.8-0.5l-0.8,0.5V5.8z"/>
		</g>
		<g>
			<path d="M92.2,6.5l-1.1-0.6V4.7L92.2,4l1.1,0.6v1.2L92.2,6.5z M91.4,5.8l0.8,0.5L93,5.8V4.8l-0.8-0.5l-0.8,0.5V5.8z"/>
		</g>
		<g>
			<path d="M2.5,8.5L1.4,7.9V6.7L2.5,6l1.1,0.6v1.2L2.5,8.5z M1.6,7.8l0.8,0.5l0.8-0.5V6.8L2.5,6.3L1.6,6.8V7.8z"/>
		</g>
		<g>
			<path d="M4.9,8.5L3.8,7.9V6.7L4.9,6L6,6.7v1.2L4.9,8.5z M4.1,7.8l0.8,0.5l0.8-0.5V6.8L4.9,6.3L4.1,6.8V7.8z"/>
		</g>
		<g>
			<path d="M7.4,8.5L6.3,7.9V6.7L7.4,6l1.1,0.6v1.2L7.4,8.5z M6.5,7.8l0.8,0.5l0.8-0.5V6.8L7.4,6.3L6.5,6.8V7.8z"/>
		</g>
		<g>
			<path d="M9.8,8.5L8.8,7.9V6.7L9.8,6l1.1,0.6v1.2L9.8,8.5z M9,7.8l0.8,0.5l0.8-0.5V6.8L9.8,6.3L9,6.8V7.8z"/>
		</g>
		<g>
			<path d="M12.4,8.6l-1.2-0.7V6.7L12.4,6l-0.1,0.8l0,1.1L12.4,8.6z M11.5,7.8l0.7,0.4l0-0.3V6.7l0-0.3l-0.7,0.4V7.8z"/>
		</g>
		<g>
			<path d="M81,8.6l0.1-0.8l0-1.1L81,6l1.2,0.7v1.2L81,8.6z M81.3,6.4l0,0.3l0,1.1l0,0.3L82,7.8V6.8L81.3,6.4z"/>
		</g>
		<g>
			<path d="M83.6,8.5l-1.1-0.6V6.7L83.6,6l1.1,0.6v1.2L83.6,8.5z M82.8,7.8l0.8,0.5l0.8-0.5V6.8l-0.8-0.5l-0.8,0.5V7.8z"/>
		</g>
		<g>
			<path d="M86,8.5L85,7.9V6.7L86,6l1.1,0.6v1.2L86,8.5z M85.2,7.8L86,8.2l0.8-0.5V6.8L86,6.3l-0.8,0.5V7.8z"/>
		</g>
		<g>
			<path d="M88.5,8.5l-1.1-0.6V6.7L88.5,6l1.1,0.6v1.2L88.5,8.5z M87.7,7.8l0.8,0.5l0.8-0.5V6.8l-0.8-0.5l-0.8,0.5V7.8z"/>
		</g>
		<g>
			<path d="M91,8.5l-1.1-0.6V6.7L91,6L92,6.7v1.2L91,8.5z M90.1,7.8L91,8.2l0.8-0.5V6.8L91,6.3l-0.8,0.5V7.8z"/>
		</g>
		<g>
			<path d="M1.2,10.5L0.1,9.9V8.7L1.2,8l1.1,0.6v1.2L1.2,10.5z M0.4,9.8l0.8,0.5L2,9.8v-1L1.2,8.3L0.4,8.8V9.8z"/>
		</g>
		<g>
			<path d="M3.7,10.5L2.6,9.9V8.7L3.7,8l1.1,0.6v1.2L3.7,10.5z M2.9,9.8l0.8,0.5l0.8-0.5v-1L3.7,8.3L2.9,8.8V9.8z"/>
		</g>
		<g>
			<path d="M6.1,10.5L5.1,9.9V8.7L6.1,8l1.1,0.6v1.2L6.1,10.5z M5.3,9.8l0.8,0.5L7,9.8v-1L6.1,8.3L5.3,8.8V9.8z"/>
		</g>
		<g>
			<path d="M8.6,10.5L7.5,9.9V8.7L8.6,8l1.1,0.6v1.2L8.6,10.5z M7.8,9.8l0.8,0.5l0.8-0.5v-1L8.6,8.3L7.8,8.8V9.8z"/>
		</g>
		<g>
			<path d="M11.1,10.5L10,9.9V8.7L11.1,8l1.1,0.6v1.2L11.1,10.5z M10.2,9.8l0.8,0.5l0.8-0.5v-1l-0.8-0.5l-0.8,0.5V9.8z"/>
		</g>
		<g>
			<path d="M82.4,10.5l-1.1-0.6V8.7L82.4,8l1.1,0.6v1.2L82.4,10.5z M81.5,9.8l0.8,0.5l0.8-0.5v-1l-0.8-0.5l-0.8,0.5V9.8z"/>
		</g>
		<g>
			<path d="M84.8,10.5l-1.1-0.6V8.7L84.8,8l1.1,0.6v1.2L84.8,10.5z M84,9.8l0.8,0.5l0.8-0.5v-1l-0.8-0.5L84,8.8V9.8z"/>
		</g>
		<g>
			<path d="M87.3,10.5l-1.1-0.6V8.7L87.3,8l1.1,0.6v1.2L87.3,10.5z M86.5,9.8l0.8,0.5l0.8-0.5v-1l-0.8-0.5l-0.8,0.5V9.8z"/>
		</g>
		<g>
			<path d="M89.7,10.5l-1.1-0.6V8.7L89.7,8l1.1,0.6v1.2L89.7,10.5z M88.9,9.8l0.8,0.5l0.8-0.5v-1l-0.8-0.5l-0.8,0.5V9.8z"/>
		</g>
		<g>
			<path d="M92.2,10.5l-1.1-0.6V8.7L92.2,8l1.1,0.6v1.2L92.2,10.5z M91.4,9.8l0.8,0.5L93,9.8v-1l-0.8-0.5l-0.8,0.5V9.8z"/>
		</g>
		<g>
			<path d="M2.5,12.5l-1.1-0.6v-1.2L2.5,10l1.1,0.6v1.2L2.5,12.5z M1.6,11.8l0.8,0.5l0.8-0.5v-1l-0.8-0.5l-0.8,0.5V11.8z"/>
		</g>
		<g>
			<path d="M4.9,12.5l-1.1-0.6v-1.2L4.9,10L6,10.7v1.2L4.9,12.5z M4.1,11.8l0.8,0.5l0.8-0.5v-1l-0.8-0.5l-0.8,0.5V11.8z"/>
		</g>
		<g>
			<path d="M7.4,12.5l-1.1-0.6v-1.2L7.4,10l1.1,0.6v1.2L7.4,12.5z M6.5,11.8l0.8,0.5l0.8-0.5v-1l-0.8-0.5l-0.8,0.5V11.8z"/>
		</g>
		<g>
			<path d="M9.8,12.5l-1.1-0.6v-1.2L9.8,10l1.1,0.6v1.2L9.8,12.5z M9,11.8l0.8,0.5l0.8-0.5v-1l-0.8-0.5L9,10.8V11.8z"/>
		</g>
		<g>
			<path d="M12.4,12.6l-1.2-0.7v-1.2l1.2-0.7l-0.1,0.8l0,1.1L12.4,12.6z M11.5,11.8l0.7,0.4l0-0.3v-1.1l0-0.3l-0.7,0.4V11.8z"/>
		</g>
		<g>
			<path d="M81,12.6l0.1-0.8l0-1.1L81,10l1.2,0.7v1.2L81,12.6z M81.3,10.4l0,0.3l0,1.1l0,0.3l0.7-0.4v-1L81.3,10.4z"/>
		</g>
		<g>
			<path d="M83.6,12.5l-1.1-0.6v-1.2l1.1-0.6l1.1,0.6v1.2L83.6,12.5z M82.8,11.8l0.8,0.5l0.8-0.5v-1l-0.8-0.5l-0.8,0.5V11.8z"/>
		</g>
		<g>
			<path d="M86,12.5L85,11.9v-1.2L86,10l1.1,0.6v1.2L86,12.5z M85.2,11.8l0.8,0.5l0.8-0.5v-1L86,10.3l-0.8,0.5V11.8z"/>
		</g>
		<g>
			<path d="M88.5,12.5l-1.1-0.6v-1.2l1.1-0.6l1.1,0.6v1.2L88.5,12.5z M87.7,11.8l0.8,0.5l0.8-0.5v-1l-0.8-0.5l-0.8,0.5V11.8z"/>
		</g>
		<g>
			<path d="M91,12.5l-1.1-0.6v-1.2L91,10l1.1,0.6v1.2L91,12.5z M90.1,11.8l0.8,0.5l0.8-0.5v-1L91,10.3l-0.8,0.5V11.8z"/>
		</g>
		<g>
			<path d="M1.2,14.5l-1.1-0.6v-1.2L1.2,12l1.1,0.6v1.2L1.2,14.5z M0.4,13.8l0.8,0.5L2,13.8v-1l-0.8-0.5l-0.8,0.5V13.8z"/>
		</g>
		<g>
			<path d="M3.7,14.5l-1.1-0.6v-1.2L3.7,12l1.1,0.6v1.2L3.7,14.5z M2.9,13.8l0.8,0.5l0.8-0.5v-1l-0.8-0.5l-0.8,0.5V13.8z"/>
		</g>
		<g>
			<path d="M6.1,14.5l-1.1-0.6v-1.2L6.1,12l1.1,0.6v1.2L6.1,14.5z M5.3,13.8l0.8,0.5L7,13.8v-1l-0.8-0.5l-0.8,0.5V13.8z"/>
		</g>
		<g>
			<path d="M8.6,14.5l-1.1-0.6v-1.2L8.6,12l1.1,0.6v1.2L8.6,14.5z M7.8,13.8l0.8,0.5l0.8-0.5v-1l-0.8-0.5l-0.8,0.5V13.8z"/>
		</g>
		<g>
			<path d="M11.1,14.5L10,13.9v-1.2l1.1-0.6l1.1,0.6v1.2L11.1,14.5z M10.2,13.8l0.8,0.5l0.8-0.5v-1l-0.8-0.5l-0.8,0.5V13.8z"/>
		</g>
		<g>
			<path d="M82.4,14.5l-1.1-0.6v-1.2l1.1-0.6l1.1,0.6v1.2L82.4,14.5z M81.5,13.8l0.8,0.5l0.8-0.5v-1l-0.8-0.5l-0.8,0.5V13.8z"/>
		</g>
		<g>
			<path d="M84.8,14.5l-1.1-0.6v-1.2l1.1-0.6l1.1,0.6v1.2L84.8,14.5z M84,13.8l0.8,0.5l0.8-0.5v-1l-0.8-0.5L84,12.8V13.8z"/>
		</g>
		<g>
			<path d="M87.3,14.5l-1.1-0.6v-1.2l1.1-0.6l1.1,0.6v1.2L87.3,14.5z M86.5,13.8l0.8,0.5l0.8-0.5v-1l-0.8-0.5l-0.8,0.5V13.8z"/>
		</g>
		<g>
			<path d="M89.7,14.5l-1.1-0.6v-1.2l1.1-0.6l1.1,0.6v1.2L89.7,14.5z M88.9,13.8l0.8,0.5l0.8-0.5v-1l-0.8-0.5l-0.8,0.5V13.8z"/>
		</g>
		<g>
			<path d="M92.2,14.5l-1.1-0.6v-1.2l1.1-0.6l1.1,0.6v1.2L92.2,14.5z M91.4,13.8l0.8,0.5l0.8-0.5v-1l-0.8-0.5l-0.8,0.5V13.8z"/>
		</g>
		<g>
			<path d="M2.5,16.5l-1.1-0.6v-1.2L2.5,14l1.1,0.6v1.2L2.5,16.5z M1.6,15.8l0.8,0.5l0.8-0.5v-1l-0.8-0.5l-0.8,0.5V15.8z"/>
		</g>
		<g>
			<path d="M4.9,16.5l-1.1-0.6v-1.2L4.9,14L6,14.7v1.2L4.9,16.5z M4.1,15.8l0.8,0.5l0.8-0.5v-1l-0.8-0.5l-0.8,0.5V15.8z"/>
		</g>
		<g>
			<path d="M7.4,16.5l-1.1-0.6v-1.2L7.4,14l1.1,0.6v1.2L7.4,16.5z M6.5,15.8l0.8,0.5l0.8-0.5v-1l-0.8-0.5l-0.8,0.5V15.8z"/>
		</g>
		<g>
			<path d="M9.8,16.5l-1.1-0.6v-1.2L9.8,14l1.1,0.6v1.2L9.8,16.5z M9,15.8l0.8,0.5l0.8-0.5v-1l-0.8-0.5L9,14.8V15.8z"/>
		</g>
		<g>
			<path d="M12.4,16.6l-1.2-0.7v-1.2l1.2-0.7l-0.1,0.8l0,1.1L12.4,16.6z M11.5,15.8l0.7,0.4l0-0.3v-1.1l0-0.3l-0.7,0.4V15.8z"/>
		</g>
		<g>
			<path d="M81,16.6l0.1-0.8l0-1.1L81,14l1.2,0.7v1.2L81,16.6z M81.3,14.4l0,0.3l0,1.1l0,0.3l0.7-0.4v-1L81.3,14.4z"/>
		</g>
		<g>
			<path d="M83.6,16.5l-1.1-0.6v-1.2l1.1-0.6l1.1,0.6v1.2L83.6,16.5z M82.8,15.8l0.8,0.5l0.8-0.5v-1l-0.8-0.5l-0.8,0.5V15.8z"/>
		</g>
		<g>
			<path d="M86,16.5L85,15.9v-1.2L86,14l1.1,0.6v1.2L86,16.5z M85.2,15.8l0.8,0.5l0.8-0.5v-1L86,14.3l-0.8,0.5V15.8z"/>
		</g>
		<g>
			<path d="M88.5,16.5l-1.1-0.6v-1.2l1.1-0.6l1.1,0.6v1.2L88.5,16.5z M87.7,15.8l0.8,0.5l0.8-0.5v-1l-0.8-0.5l-0.8,0.5V15.8z"/>
		</g>
		<g>
			<path d="M91,16.5l-1.1-0.6v-1.2L91,14l1.1,0.6v1.2L91,16.5z M90.1,15.8l0.8,0.5l0.8-0.5v-1L91,14.3l-0.8,0.5V15.8z"/>
		</g>
		<g>
			<path d="M1.2,18.5l-1.1-0.6v-1.2L1.2,16l1.1,0.6v1.2L1.2,18.5z M0.4,17.8l0.8,0.5L2,17.8v-1l-0.8-0.5l-0.8,0.5V17.8z"/>
		</g>
		<g>
			<path d="M3.7,18.5l-1.1-0.6v-1.2L3.7,16l1.1,0.6v1.2L3.7,18.5z M2.9,17.8l0.8,0.5l0.8-0.5v-1l-0.8-0.5l-0.8,0.5V17.8z"/>
		</g>
		<g>
			<path d="M6.1,18.5l-1.1-0.6v-1.2L6.1,16l1.1,0.6v1.2L6.1,18.5z M5.3,17.8l0.8,0.5L7,17.8v-1l-0.8-0.5l-0.8,0.5V17.8z"/>
		</g>
		<g>
			<path d="M8.6,18.5l-1.1-0.6v-1.2L8.6,16l1.1,0.6v1.2L8.6,18.5z M7.8,17.8l0.8,0.5l0.8-0.5v-1l-0.8-0.5l-0.8,0.5V17.8z"/>
		</g>
		<g>
			<path d="M11.1,18.5L10,17.9v-1.2l1.1-0.6l1.1,0.6v1.2L11.1,18.5z M10.2,17.8l0.8,0.5l0.8-0.5v-1l-0.8-0.5l-0.8,0.5V17.8z"/>
		</g>
		<g>
			<path d="M82.4,18.5l-1.1-0.6v-1.2l1.1-0.6l1.1,0.6v1.2L82.4,18.5z M81.5,17.8l0.8,0.5l0.8-0.5v-1l-0.8-0.5l-0.8,0.5V17.8z"/>
		</g>
		<g>
			<path d="M84.8,18.5l-1.1-0.6v-1.2l1.1-0.6l1.1,0.6v1.2L84.8,18.5z M84,17.8l0.8,0.5l0.8-0.5v-1l-0.8-0.5L84,16.8V17.8z"/>
		</g>
		<g>
			<path d="M87.3,18.5l-1.1-0.6v-1.2l1.1-0.6l1.1,0.6v1.2L87.3,18.5z M86.5,17.8l0.8,0.5l0.8-0.5v-1l-0.8-0.5l-0.8,0.5V17.8z"/>
		</g>
		<g>
			<path d="M89.7,18.5l-1.1-0.6v-1.2l1.1-0.6l1.1,0.6v1.2L89.7,18.5z M88.9,17.8l0.8,0.5l0.8-0.5v-1l-0.8-0.5l-0.8,0.5V17.8z"/>
		</g>
		<g>
			<path d="M92.2,18.5l-1.1-0.6v-1.2l1.1-0.6l1.1,0.6v1.2L92.2,18.5z M91.4,17.8l0.8,0.5l0.8-0.5v-1l-0.8-0.5l-0.8,0.5V17.8z"/>
		</g>
		<g>
			<path d="M2.5,20.5l-1.1-0.6v-1.2L2.5,18l1.1,0.6v1.2L2.5,20.5z M1.6,19.8l0.8,0.5l0.8-0.5v-1l-0.8-0.5l-0.8,0.5V19.8z"/>
		</g>
		<g>
			<path d="M4.9,20.5l-1.1-0.6v-1.2L4.9,18L6,18.7v1.2L4.9,20.5z M4.1,19.8l0.8,0.5l0.8-0.5v-1l-0.8-0.5l-0.8,0.5V19.8z"/>
		</g>
		<g>
			<path d="M7.4,20.5l-1.1-0.6v-1.2L7.4,18l1.1,0.6v1.2L7.4,20.5z M6.5,19.8l0.8,0.5l0.8-0.5v-1l-0.8-0.5l-0.8,0.5V19.8z"/>
		</g>
		<g>
			<path d="M9.8,20.5l-1.1-0.6v-1.2L9.8,18l1.1,0.6v1.2L9.8,20.5z M9,19.8l0.8,0.5l0.8-0.5v-1l-0.8-0.5L9,18.8V19.8z"/>
		</g>
		<g>
			<path d="M12.4,20.6l-1.2-0.7v-1.2l1.2-0.7l-0.1,0.8l0,1.1L12.4,20.6z M11.5,19.8l0.7,0.4l0-0.3v-1.1l0-0.3l-0.7,0.4V19.8z"/>
		</g>
		<g>
			<path d="M81,20.6l0.1-0.8l0-1.1L81,18l1.2,0.7v1.2L81,20.6z M81.3,18.4l0,0.3l0,1.1l0,0.3l0.7-0.4v-1L81.3,18.4z"/>
		</g>
		<g>
			<path d="M83.6,20.5l-1.1-0.6v-1.2l1.1-0.6l1.1,0.6v1.2L83.6,20.5z M82.8,19.8l0.8,0.5l0.8-0.5v-1l-0.8-0.5l-0.8,0.5V19.8z"/>
		</g>
		<g>
			<path d="M86,20.5L85,19.9v-1.2L86,18l1.1,0.6v1.2L86,20.5z M85.2,19.8l0.8,0.5l0.8-0.5v-1L86,18.3l-0.8,0.5V19.8z"/>
		</g>
		<g>
			<path d="M88.5,20.5l-1.1-0.6v-1.2l1.1-0.6l1.1,0.6v1.2L88.5,20.5z M87.7,19.8l0.8,0.5l0.8-0.5v-1l-0.8-0.5l-0.8,0.5V19.8z"/>
		</g>
		<g>
			<path d="M91,20.5l-1.1-0.6v-1.2L91,18l1.1,0.6v1.2L91,20.5z M90.1,19.8l0.8,0.5l0.8-0.5v-1L91,18.3l-0.8,0.5V19.8z"/>
		</g>
		<g>
			<path d="M1.2,22.5l-1.1-0.6v-1.2L1.2,20l1.1,0.6v1.2L1.2,22.5z M0.4,21.8l0.8,0.5L2,21.8v-1l-0.8-0.5l-0.8,0.5V21.8z"/>
		</g>
		<g>
			<path d="M3.7,22.5l-1.1-0.6v-1.2L3.7,20l1.1,0.6v1.2L3.7,22.5z M2.9,21.8l0.8,0.5l0.8-0.5v-1l-0.8-0.5l-0.8,0.5V21.8z"/>
		</g>
		<g>
			<path d="M6.1,22.5l-1.1-0.6v-1.2L6.1,20l1.1,0.6v1.2L6.1,22.5z M5.3,21.8l0.8,0.5L7,21.8v-1l-0.8-0.5l-0.8,0.5V21.8z"/>
		</g>
		<g>
			<path d="M8.6,22.5l-1.1-0.6v-1.2L8.6,20l1.1,0.6v1.2L8.6,22.5z M7.8,21.8l0.8,0.5l0.8-0.5v-1l-0.8-0.5l-0.8,0.5V21.8z"/>
		</g>
		<g>
			<path d="M11.1,22.5L10,21.9v-1.2l1.1-0.6l1.1,0.6v1.2L11.1,22.5z M10.2,21.8l0.8,0.5l0.8-0.5v-1l-0.8-0.5l-0.8,0.5V21.8z"/>
		</g>
		<g>
			<path d="M82.4,22.5l-1.1-0.6v-1.2l1.1-0.6l1.1,0.6v1.2L82.4,22.5z M81.5,21.8l0.8,0.5l0.8-0.5v-1l-0.8-0.5l-0.8,0.5V21.8z"/>
		</g>
		<g>
			<path d="M84.8,22.5l-1.1-0.6v-1.2l1.1-0.6l1.1,0.6v1.2L84.8,22.5z M84,21.8l0.8,0.5l0.8-0.5v-1l-0.8-0.5L84,20.8V21.8z"/>
		</g>
		<g>
			<path d="M87.3,22.5l-1.1-0.6v-1.2l1.1-0.6l1.1,0.6v1.2L87.3,22.5z M86.5,21.8l0.8,0.5l0.8-0.5v-1l-0.8-0.5l-0.8,0.5V21.8z"/>
		</g>
		<g>
			<path d="M89.7,22.5l-1.1-0.6v-1.2l1.1-0.6l1.1,0.6v1.2L89.7,22.5z M88.9,21.8l0.8,0.5l0.8-0.5v-1l-0.8-0.5l-0.8,0.5V21.8z"/>
		</g>
		<g>
			<path d="M92.2,22.5l-1.1-0.6v-1.2l1.1-0.6l1.1,0.6v1.2L92.2,22.5z M91.4,21.8l0.8,0.5l0.8-0.5v-1l-0.8-0.5l-0.8,0.5V21.8z"/>
		</g>
		<g>
			<path d="M2.5,24.5l-1.1-0.6v-1.2L2.5,22l1.1,0.6v1.2L2.5,24.5z M1.6,23.8l0.8,0.5l0.8-0.5v-1l-0.8-0.5l-0.8,0.5V23.8z"/>
		</g>
		<g>
			<path d="M4.9,24.5l-1.1-0.6v-1.2L4.9,22L6,22.7v1.2L4.9,24.5z M4.1,23.8l0.8,0.5l0.8-0.5v-1l-0.8-0.5l-0.8,0.5V23.8z"/>
		</g>
		<g>
			<path d="M7.4,24.5l-1.1-0.6v-1.2L7.4,22l1.1,0.6v1.2L7.4,24.5z M6.5,23.8l0.8,0.5l0.8-0.5v-1l-0.8-0.5l-0.8,0.5V23.8z"/>
		</g>
		<g>
			<path d="M9.8,24.5l-1.1-0.6v-1.2L9.8,22l1.1,0.6v1.2L9.8,24.5z M9,23.8l0.8,0.5l0.8-0.5v-1l-0.8-0.5L9,22.8V23.8z"/>
		</g>
		<g>
			<path d="M12.3,24.5l-1.1-0.6v-1.2l1.1-0.6l1.1,0.6v1.2L12.3,24.5z M11.5,23.8l0.8,0.5l0.8-0.5v-1l-0.8-0.5l-0.8,0.5V23.8z"/>
		</g>
		<g>
			<path d="M14.8,24.5l-1.1-0.6v-1.2l1.1-0.6l1.1,0.6v1.2L14.8,24.5z M13.9,23.8l0.8,0.5l0.8-0.5v-1l-0.8-0.5l-0.8,0.5V23.8z"/>
		</g>
		<g>
			<path d="M17.2,24.5l-1.1-0.6v-1.2l1.1-0.6l1.1,0.6v1.2L17.2,24.5z M16.4,23.8l0.8,0.5l0.8-0.5v-1l-0.8-0.5l-0.8,0.5V23.8z"/>
		</g>
		<g>
			<path d="M19.7,24.5l-1.1-0.6v-1.2l1.1-0.6l1.1,0.6v1.2L19.7,24.5z M18.8,23.8l0.8,0.5l0.8-0.5v-1l-0.8-0.5l-0.8,0.5V23.8z"/>
		</g>
		<g>
			<path d="M22.1,24.5L21,23.9v-1.2l1.1-0.6l1.1,0.6v1.2L22.1,24.5z M21.3,23.8l0.8,0.5l0.8-0.5v-1l-0.8-0.5l-0.8,0.5V23.8z"/>
		</g>
		<g>
			<path d="M24.6,24.5l-1.1-0.6v-1.2l1.1-0.6l1.1,0.6v1.2L24.6,24.5z M23.8,23.8l0.8,0.5l0.8-0.5v-1l-0.8-0.5l-0.8,0.5V23.8z"/>
		</g>
		<g>
			<path d="M27,24.5L26,23.9v-1.2L27,22l1.1,0.6v1.2L27,24.5z M26.2,23.8l0.8,0.5l0.8-0.5v-1L27,22.3l-0.8,0.5V23.8z"/>
		</g>
		<g>
			<path d="M29.5,24.5l-1.1-0.6v-1.2l1.1-0.6l1.1,0.6v1.2L29.5,24.5z M28.7,23.8l0.8,0.5l0.8-0.5v-1l-0.8-0.5l-0.8,0.5V23.8z"/>
		</g>
		<g>
			<path d="M32,24.5l-1.1-0.6v-1.2L32,22l1.1,0.6v1.2L32,24.5z M31.1,23.8l0.8,0.5l0.8-0.5v-1L32,22.3l-0.8,0.5V23.8z"/>
		</g>
		<g>
			<path d="M34.4,24.5l-1.1-0.6v-1.2l1.1-0.6l1.1,0.6v1.2L34.4,24.5z M33.6,23.8l0.8,0.5l0.8-0.5v-1l-0.8-0.5l-0.8,0.5V23.8z"/>
		</g>
		<g>
			<path d="M36.9,24.5l-1.1-0.6v-1.2l1.1-0.6l1.1,0.6v1.2L36.9,24.5z M36.1,23.8l0.8,0.5l0.8-0.5v-1l-0.8-0.5l-0.8,0.5V23.8z"/>
		</g>
		<g>
			<path d="M39.3,24.5l-1.1-0.6v-1.2l1.1-0.6l1.1,0.6v1.2L39.3,24.5z M38.5,23.8l0.8,0.5l0.8-0.5v-1l-0.8-0.5l-0.8,0.5V23.8z"/>
		</g>
		<g>
			<path d="M41.8,24.5l-1.1-0.6v-1.2l1.1-0.6l1.1,0.6v1.2L41.8,24.5z M41,23.8l0.8,0.5l0.8-0.5v-1l-0.8-0.5L41,22.8V23.8z"/>
		</g>
		<g>
			<path d="M44.2,24.5l-1.1-0.6v-1.2l1.1-0.6l1.1,0.6v1.2L44.2,24.5z M43.4,23.8l0.8,0.5l0.8-0.5v-1l-0.8-0.5l-0.8,0.5V23.8z"/>
		</g>
		<g>
			<path d="M46.7,24.5l-1.1-0.6v-1.2l1.1-0.6l1.1,0.6v1.2L46.7,24.5z M45.9,23.8l0.8,0.5l0.8-0.5v-1l-0.8-0.5l-0.8,0.5V23.8z"/>
		</g>
		<g>
			<path d="M49.2,24.5l-1.1-0.6v-1.2l1.1-0.6l1.1,0.6v1.2L49.2,24.5z M48.3,23.8l0.8,0.5l0.8-0.5v-1l-0.8-0.5l-0.8,0.5V23.8z"/>
		</g>
		<g>
			<path d="M51.6,24.5l-1.1-0.6v-1.2l1.1-0.6l1.1,0.6v1.2L51.6,24.5z M50.8,23.8l0.8,0.5l0.8-0.5v-1l-0.8-0.5l-0.8,0.5V23.8z"/>
		</g>
		<g>
			<path d="M54.1,24.5L53,23.9v-1.2l1.1-0.6l1.1,0.6v1.2L54.1,24.5z M53.3,23.8l0.8,0.5l0.8-0.5v-1l-0.8-0.5l-0.8,0.5V23.8z"/>
		</g>
		<g>
			<path d="M56.5,24.5l-1.1-0.6v-1.2l1.1-0.6l1.1,0.6v1.2L56.5,24.5z M55.7,23.8l0.8,0.5l0.8-0.5v-1l-0.8-0.5l-0.8,0.5V23.8z"/>
		</g>
		<g>
			<path d="M59,24.5l-1.1-0.6v-1.2L59,22l1.1,0.6v1.2L59,24.5z M58.2,23.8l0.8,0.5l0.8-0.5v-1L59,22.3l-0.8,0.5V23.8z"/>
		</g>
		<g>
			<path d="M61.5,24.5l-1.1-0.6v-1.2l1.1-0.6l1.1,0.6v1.2L61.5,24.5z M60.6,23.8l0.8,0.5l0.8-0.5v-1l-0.8-0.5l-0.8,0.5V23.8z"/>
		</g>
		<g>
			<path d="M63.9,24.5l-1.1-0.6v-1.2l1.1-0.6l1.1,0.6v1.2L63.9,24.5z M63.1,23.8l0.8,0.5l0.8-0.5v-1l-0.8-0.5l-0.8,0.5V23.8z"/>
		</g>
		<g>
			<path d="M66.4,24.5l-1.1-0.6v-1.2l1.1-0.6l1.1,0.6v1.2L66.4,24.5z M65.6,23.8l0.8,0.5l0.8-0.5v-1l-0.8-0.5l-0.8,0.5V23.8z"/>
		</g>
		<g>
			<path d="M68.8,24.5l-1.1-0.6v-1.2l1.1-0.6l1.1,0.6v1.2L68.8,24.5z M68,23.8l0.8,0.5l0.8-0.5v-1l-0.8-0.5L68,22.8V23.8z"/>
		</g>
		<g>
			<path d="M71.3,24.5l-1.1-0.6v-1.2l1.1-0.6l1.1,0.6v1.2L71.3,24.5z M70.5,23.8l0.8,0.5l0.8-0.5v-1l-0.8-0.5l-0.8,0.5V23.8z"/>
		</g>
		<g>
			<path d="M73.8,24.5l-1.1-0.6v-1.2l1.1-0.6l1.1,0.6v1.2L73.8,24.5z M72.9,23.8l0.8,0.5l0.8-0.5v-1l-0.8-0.5l-0.8,0.5V23.8z"/>
		</g>
		<g>
			<path d="M76.2,24.5l-1.1-0.6v-1.2l1.1-0.6l1.1,0.6v1.2L76.2,24.5z M75.4,23.8l0.8,0.5l0.8-0.5v-1l-0.8-0.5l-0.8,0.5V23.8z"/>
		</g>
		<g>
			<path d="M78.7,24.5l-1.1-0.6v-1.2l1.1-0.6l1.1,0.6v1.2L78.7,24.5z M77.9,23.8l0.8,0.5l0.8-0.5v-1l-0.8-0.5l-0.8,0.5V23.8z"/>
		</g>
		<g>
			<path d="M81.1,24.5l-1.1-0.6v-1.2l1.1-0.6l1.1,0.6v1.2L81.1,24.5z M80.3,23.8l0.8,0.5l0.8-0.5v-1l-0.8-0.5l-0.8,0.5V23.8z"/>
		</g>
		<g>
			<path d="M83.6,24.5l-1.1-0.6v-1.2l1.1-0.6l1.1,0.6v1.2L83.6,24.5z M82.8,23.8l0.8,0.5l0.8-0.5v-1l-0.8-0.5l-0.8,0.5V23.8z"/>
		</g>
		<g>
			<path d="M86,24.5L85,23.9v-1.2L86,22l1.1,0.6v1.2L86,24.5z M85.2,23.8l0.8,0.5l0.8-0.5v-1L86,22.3l-0.8,0.5V23.8z"/>
		</g>
		<g>
			<path d="M88.5,24.5l-1.1-0.6v-1.2l1.1-0.6l1.1,0.6v1.2L88.5,24.5z M87.7,23.8l0.8,0.5l0.8-0.5v-1l-0.8-0.5l-0.8,0.5V23.8z"/>
		</g>
		<g>
			<path d="M91,24.5l-1.1-0.6v-1.2L91,22l1.1,0.6v1.2L91,24.5z M90.1,23.8l0.8,0.5l0.8-0.5v-1L91,22.3l-0.8,0.5V23.8z"/>
		</g>
		<g>
			<polygon points="2.3,25.8 2,25.8 2,24.8 1.2,24.3 0.4,24.8 0.4,25.8 0.1,25.8 0.1,24.7 1.2,24 2.3,24.7 			"/>
		</g>
		<g>
			<polygon points="4.8,25.8 4.5,25.8 4.5,24.8 3.7,24.3 2.9,24.8 2.9,25.8 2.6,25.8 2.6,24.7 3.7,24 4.8,24.7 			"/>
		</g>
		<g>
			<polygon points="7.2,25.8 7,25.8 7,24.8 6.1,24.3 5.3,24.8 5.3,25.8 5.1,25.8 5.1,24.7 6.1,24 7.2,24.7 			"/>
		</g>
		<g>
			<polygon points="9.7,25.8 9.4,25.8 9.4,24.8 8.6,24.3 7.8,24.8 7.8,25.8 7.5,25.8 7.5,24.7 8.6,24 9.7,24.7 			"/>
		</g>
		<g>
			<polygon points="12.1,25.8 11.9,25.8 11.9,24.8 11.1,24.3 10.2,24.8 10.2,25.8 10,25.8 10,24.7 11.1,24 12.1,24.7 			"/>
		</g>
		<g>
			<polygon points="14.6,25.8 14.3,25.8 14.3,24.8 13.5,24.3 12.7,24.8 12.7,25.8 12.4,25.8 12.4,24.7 13.5,24 14.6,24.7 			"/>
		</g>
		<g>
			<polygon points="17,25.8 16.8,25.8 16.8,24.8 16,24.3 15.2,24.8 15.2,25.8 14.9,25.8 14.9,24.7 16,24 17,24.7 			"/>
		</g>
		<g>
			<polygon points="19.5,25.8 19.3,25.8 19.3,24.8 18.4,24.3 17.6,24.8 17.6,25.8 17.4,25.8 17.4,24.7 18.4,24 19.5,24.7 			"/>
		</g>
		<g>
			<polygon points="22,25.8 21.7,25.8 21.7,24.8 20.9,24.3 20.1,24.8 20.1,25.8 19.8,25.8 19.8,24.7 20.9,24 22,24.7 			"/>
		</g>
		<g>
			<polygon points="24.4,25.8 24.2,25.8 24.2,24.8 23.4,24.3 22.5,24.8 22.5,25.8 22.3,25.8 22.3,24.7 23.4,24 24.4,24.7 			"/>
		</g>
		<g>
			<polygon points="26.9,25.8 26.6,25.8 26.6,24.8 25.8,24.3 25,24.8 25,25.8 24.7,25.8 24.7,24.7 25.8,24 26.9,24.7 			"/>
		</g>
		<g>
			<polygon points="29.3,25.8 29.1,25.8 29.1,24.8 28.3,24.3 27.4,24.8 27.4,25.8 27.2,25.8 27.2,24.7 28.3,24 29.3,24.7 			"/>
		</g>
		<g>
			<polygon points="31.8,25.8 31.6,25.8 31.6,24.8 30.7,24.3 29.9,24.8 29.9,25.8 29.7,25.8 29.7,24.7 30.7,24 31.8,24.7 			"/>
		</g>
		<g>
			<polygon points="34.3,25.8 34,25.8 34,24.8 33.2,24.3 32.4,24.8 32.4,25.8 32.1,25.8 32.1,24.7 33.2,24 34.3,24.7 			"/>
		</g>
		<g>
			<polygon points="36.7,25.8 36.5,25.8 36.5,24.8 35.6,24.3 34.8,24.8 34.8,25.8 34.6,25.8 34.6,24.7 35.7,24 36.7,24.7 			"/>
		</g>
		<g>
			<polygon points="39.2,25.8 38.9,25.8 38.9,24.8 38.1,24.3 37.3,24.8 37.3,25.8 37,25.8 37,24.7 38.1,24 39.2,24.7 			"/>
		</g>
		<g>
			<polygon points="41.6,25.8 41.4,25.8 41.4,24.8 40.6,24.3 39.7,24.8 39.7,25.8 39.5,25.8 39.5,24.7 40.6,24 41.6,24.7 			"/>
		</g>
		<g>
			<polygon points="44.1,25.8 43.8,25.8 43.8,24.8 43,24.3 42.2,24.8 42.2,25.8 42,25.8 42,24.7 43,24 44.1,24.7 			"/>
		</g>
		<g>
			<polygon points="46.6,25.8 46.3,25.8 46.3,24.8 45.5,24.3 44.7,24.8 44.7,25.8 44.4,25.8 44.4,24.7 45.5,24 46.6,24.7 			"/>
		</g>
		<g>
			<polygon points="49,25.8 48.8,25.8 48.8,24.8 47.9,24.3 47.1,24.8 47.1,25.8 46.9,25.8 46.9,24.7 47.9,24 49,24.7 			"/>
		</g>
		<g>
			<polygon points="51.5,25.8 51.2,25.8 51.2,24.8 50.4,24.3 49.6,24.8 49.6,25.8 49.3,25.8 49.3,24.7 50.4,24 51.5,24.7 			"/>
		</g>
		<g>
			<polygon points="53.9,25.8 53.7,25.8 53.7,24.8 52.9,24.3 52,24.8 52,25.8 51.8,25.8 51.8,24.7 52.9,24 53.9,24.7 			"/>
		</g>
		<g>
			<polygon points="56.4,25.8 56.1,25.8 56.1,24.8 55.3,24.3 54.5,24.8 54.5,25.8 54.2,25.8 54.2,24.7 55.3,24 56.4,24.7 			"/>
		</g>
		<g>
			<polygon points="58.8,25.8 58.6,25.8 58.6,24.8 57.8,24.3 57,24.8 57,25.8 56.7,25.8 56.7,24.7 57.8,24 58.8,24.7 			"/>
		</g>
		<g>
			<polygon points="61.3,25.8 61.1,25.8 61.1,24.8 60.2,24.3 59.4,24.8 59.4,25.8 59.2,25.8 59.2,24.7 60.2,24 61.3,24.7 			"/>
		</g>
		<g>
			<polygon points="63.8,25.8 63.5,25.8 63.5,24.8 62.7,24.3 61.9,24.8 61.9,25.8 61.6,25.8 61.6,24.7 62.7,24 63.8,24.7 			"/>
		</g>
		<g>
			<polygon points="66.2,25.8 66,25.8 66,24.8 65.2,24.3 64.3,24.8 64.3,25.8 64.1,25.8 64.1,24.7 65.2,24 66.2,24.7 			"/>
		</g>
		<g>
			<polygon points="68.7,25.8 68.4,25.8 68.4,24.8 67.6,24.3 66.8,24.8 66.8,25.8 66.5,25.8 66.5,24.7 67.6,24 68.7,24.7 			"/>
		</g>
		<g>
			<polygon points="71.1,25.8 70.9,25.8 70.9,24.8 70.1,24.3 69.2,24.8 69.2,25.8 69,25.8 69,24.7 70.1,24 71.1,24.7 			"/>
		</g>
		<g>
			<polygon points="73.6,25.8 73.4,25.8 73.4,24.8 72.5,24.3 71.7,24.8 71.7,25.8 71.5,25.8 71.5,24.7 72.5,24 73.6,24.7 			"/>
		</g>
		<g>
			<polygon points="76.1,25.8 75.8,25.8 75.8,24.8 75,24.3 74.2,24.8 74.2,25.8 73.9,25.8 73.9,24.7 75,24 76.1,24.7 			"/>
		</g>
		<g>
			<polygon points="78.5,25.8 78.3,25.8 78.3,24.8 77.5,24.3 76.6,24.8 76.6,25.8 76.4,25.8 76.4,24.7 77.5,24 78.5,24.7 			"/>
		</g>
		<g>
			<polygon points="81,25.8 80.7,25.8 80.7,24.8 79.9,24.3 79.1,24.8 79.1,25.8 78.8,25.8 78.8,24.7 79.9,24 81,24.7 			"/>
		</g>
		<g>
			<polygon points="83.4,25.8 83.2,25.8 83.2,24.8 82.4,24.3 81.5,24.8 81.5,25.8 81.3,25.8 81.3,24.7 82.4,24 83.4,24.7 			"/>
		</g>
		<g>
			<polygon points="85.9,25.8 85.6,25.8 85.6,24.8 84.8,24.3 84,24.8 84,25.8 83.8,25.8 83.8,24.7 84.8,24 85.9,24.7 			"/>
		</g>
		<g>
			<polygon points="88.4,25.8 88.1,25.8 88.1,24.8 87.3,24.3 86.5,24.8 86.5,25.8 86.2,25.8 86.2,24.7 87.3,24 88.4,24.7 			"/>
		</g>
		<g>
			<polygon points="90.8,25.8 90.6,25.8 90.6,24.8 89.7,24.3 88.9,24.8 88.9,25.8 88.7,25.8 88.7,24.7 89.7,24 90.8,24.7 			"/>
		</g>
		<g>
			<polygon points="93.3,25.8 93,25.8 93,24.8 92.2,24.3 91.4,24.8 91.4,25.8 91.1,25.8 91.1,24.7 92.2,24 93.3,24.7 			"/>
		</g>
		<g>
			<path d="M81.4,23.1H11.9v-20h69.5V23.1z M12.9,22.1h67.5v-18H12.9V22.1z"/>
		</g>
		<g>
			<path d="M52,20.5l-3.3,0l-1.2-0.6v-2.1h5.7v2.1L52,20.5z M49,19.7h2.8l0.7-0.3v-0.9h-4.2v0.9L49,19.7z"/>
		</g>
		<g>
			<path d="M62.5,20.5h-7.8v-4.8h7.8V20.5z M55.5,19.7h6.2v-3.2h-6.2V19.7z"/>
		</g>
		<g>
			<polygon points="56,17.1 56,17.6 56,18.1 61.2,18.1 61.2,17.6 61.2,17.1 			"/>
		</g>
		<g>
			<circle cx="68.2" cy="18.6" r="0.8"/>
		</g>
		<g>
			<circle cx="70.6" cy="18.6" r="0.8"/>
		</g>
		<g>
			<circle cx="72.9" cy="18.6" r="0.8"/>
		</g>
		<g>
			<circle cx="75.3" cy="18.6" r="0.8"/>
		</g>
		<g>
			<circle cx="77.7" cy="18.6" r="0.8"/>
		</g>
		<g>
			<rect x="55.6" y="5.8" width="6" height="1"/>
		</g>
		<g>
			<polygon points="76.5,7.1 75.2,5.8 73.9,7.1 74.6,7.8 71.4,11 72.6,12.3 73.9,11 73.3,10.4 			"/>
		</g>
		<g>
			<rect x="69.4" y="7.2" transform="matrix(0.7071 -0.7071 0.7071 0.7071 15.2705 53.0706)" width="4.6" height="1.8"/>
		</g>
		<g>
			<rect x="73.9" y="9.1" transform="matrix(0.7071 -0.7071 0.7071 0.7071 15.2168 56.8063)" width="4.6" height="1.8"/>
		</g>
	</g>
</g>
</svg>
