<?xml version="1.0" encoding="utf-8"?>
<!-- Generator: Adobe Illustrator 26.0.3, SVG Export Plug-In . SVG Version: 6.00 Build 0)  -->
<svg version="1.1" id="Layer_1" xmlns="http://www.w3.org/2000/svg" xmlns:xlink="http://www.w3.org/1999/xlink" x="0px" y="0px"
	 viewBox="0 0 119.8 18.4" style="enable-background:new 0 0 119.8 18.4;" xml:space="preserve">
<g id="Layer_2_00000076577446781840470310000007685203269665202086_">
	<g id="Layer_4">
		<g>
			<path d="M119.8,18.4H0V0h119.8V18.4z M1.4,17h116.9V1.4H1.4V17z"/>
		</g>
		<g>
			<polygon points="20.1,9.7 20.1,8.5 17.8,8.5 17.8,9.7 17.2,9.7 17.2,11.9 20.6,11.9 20.6,9.7 			"/>
		</g>
		<g>
			<polygon points="17.8,14.9 17.8,16 20.1,16 20.1,14.9 20.6,14.9 20.6,12.6 17.2,12.6 17.2,14.9 			"/>
		</g>
		<g>
			<polygon points="15.9,9.7 15.9,8.5 13.6,8.5 13.6,9.7 13,9.7 13,11.9 16.5,11.9 16.5,9.7 			"/>
		</g>
		<g>
			<polygon points="13.6,14.9 13.6,16 15.9,16 15.9,14.9 16.5,14.9 16.5,12.6 13,12.6 13,14.9 			"/>
		</g>
		<g>
			<polygon points="28.4,9.7 28.4,8.5 26.1,8.5 26.1,9.7 25.6,9.7 25.6,11.9 29,11.9 29,9.7 			"/>
		</g>
		<g>
			<polygon points="26.1,14.9 26.1,16 28.4,16 28.4,14.9 29,14.9 29,12.6 25.6,12.6 25.6,14.9 			"/>
		</g>
		<g>
			<polygon points="24.2,9.7 24.2,8.5 22,8.5 22,9.7 21.4,9.7 21.4,11.9 24.8,11.9 24.8,9.7 			"/>
		</g>
		<g>
			<polygon points="22,14.9 22,16 24.2,16 24.2,14.9 24.8,14.9 24.8,12.6 21.4,12.6 21.4,14.9 			"/>
		</g>
		<g>
			<polygon points="38,9.7 38,8.5 35.7,8.5 35.7,9.7 35.1,9.7 35.1,11.9 38.5,11.9 38.5,9.7 			"/>
		</g>
		<g>
			<polygon points="35.7,14.9 35.7,16 38,16 38,14.9 38.5,14.9 38.5,12.6 35.1,12.6 35.1,14.9 			"/>
		</g>
		<g>
			<polygon points="85.5,9.7 85.5,8.5 83.2,8.5 83.2,9.7 82.6,9.7 82.6,11.9 86,11.9 86,9.7 			"/>
		</g>
		<g>
			<polygon points="83.2,14.9 83.2,16 85.5,16 85.5,14.9 86,14.9 86,12.6 82.6,12.6 82.6,14.9 			"/>
		</g>
		<g>
			<polygon points="90.3,9.7 90.3,8.5 88.1,8.5 88.1,9.7 87.5,9.7 87.5,11.9 90.9,11.9 90.9,9.7 			"/>
		</g>
		<g>
			<polygon points="88.1,14.9 88.1,16 90.3,16 90.3,14.9 90.9,14.9 90.9,12.6 87.5,12.6 87.5,14.9 			"/>
		</g>
		<g>
			<polygon points="33.8,9.7 33.8,8.5 31.5,8.5 31.5,9.7 30.9,9.7 30.9,11.9 34.4,11.9 34.4,9.7 			"/>
		</g>
		<g>
			<polygon points="31.5,14.9 31.5,16 33.8,16 33.8,14.9 34.4,14.9 34.4,12.6 30.9,12.6 30.9,14.9 			"/>
		</g>
		<g>
			<rect x="40.6" y="8.5" width="3.5" height="3.4"/>
		</g>
		<g>
			<rect x="40.6" y="12.6" width="3.5" height="3.4"/>
		</g>
		<g>
			<rect x="44.6" y="8.5" width="3.5" height="3.4"/>
		</g>
		<g>
			<rect x="44.6" y="12.6" width="3.5" height="3.4"/>
		</g>
		<g>
			<rect x="48.6" y="8.5" width="3.5" height="3.4"/>
		</g>
		<g>
			<rect x="48.6" y="12.6" width="3.5" height="3.4"/>
		</g>
		<g>
			<rect x="52.6" y="8.5" width="3.5" height="3.4"/>
		</g>
		<g>
			<rect x="52.6" y="12.6" width="3.5" height="3.4"/>
		</g>
		<g>
			<rect x="56.7" y="8.5" width="3.5" height="3.4"/>
		</g>
		<g>
			<rect x="56.7" y="12.6" width="3.5" height="3.4"/>
		</g>
		<g>
			<rect x="62" y="12.7" width="4.5" height="3.3"/>
		</g>
		<g>
			<rect x="67.1" y="12.7" width="4.5" height="3.3"/>
		</g>
		<g>
			<path d="M76.9,12.7V16h4.5v-3.4H76.9z M80.2,15.6h-2.1v-0.9h2.1L80.2,15.6z"/>
		</g>
		<g>
			<rect x="62" y="8.6" width="4.5" height="3.3"/>
		</g>
		<g>
			<rect x="67.1" y="8.6" width="4.5" height="3.3"/>
		</g>
		<g>
			<path d="M18,7.2H2.5V2.7H18V7.2z M3,6.7h14.5V3.2H3V6.7z"/>
		</g>
		<g>
			<polygon points="11.6,3.9 11,3.3 10.4,3.9 10.7,4.2 9.2,5.7 9.8,6.3 10.4,5.7 10.1,5.4 			"/>
		</g>
		<g>
			<rect x="8.3" y="4" transform="matrix(0.7071 -0.7071 0.7071 0.7071 -0.3624 7.9152)" width="2.1" height="0.8"/>
		</g>
		<g>
			<rect x="10.4" y="4.9" transform="matrix(0.7071 -0.7071 0.7071 0.7071 -0.3814 9.6463)" width="2.1" height="0.8"/>
		</g>
		<g>
			<path d="M95.1,11.2v4.2h-1.9v-4.2H95.1 M95.7,10.7h-3V16h3V10.7z"/>
		</g>
		<g>
			<polygon points="94.8,11.8 94.6,11.8 94.3,11.8 94.3,14.8 94.6,14.8 94.8,14.8 			"/>
		</g>
		<g>
			<circle cx="103.5" cy="13.6" r="0.5"/>
		</g>
		<g>
			<circle cx="103.5" cy="15.2" r="0.5"/>
		</g>
		<g>
			<circle cx="103.5" cy="8.8" r="0.5"/>
		</g>
		<g>
			<circle cx="103.5" cy="10.4" r="0.5"/>
		</g>
		<g>
			<circle cx="103.5" cy="12" r="0.5"/>
		</g>
		<g>
			<circle cx="105.1" cy="13.6" r="0.5"/>
		</g>
		<g>
			<circle cx="105.1" cy="15.2" r="0.5"/>
		</g>
		<g>
			<circle cx="105.1" cy="10.4" r="0.5"/>
		</g>
		<g>
			<circle cx="105.1" cy="12" r="0.5"/>
		</g>
		<g>
			<path d="M100.4,15.9h-2.6c-0.7,0-1.3-0.6-1.3-1.3s0.6-1.3,1.3-1.3h2.6c0.7,0,1.3,0.6,1.3,1.3S101.1,15.9,100.4,15.9z M97.8,14.2
				c-0.3,0-0.5,0.2-0.5,0.5s0.2,0.5,0.5,0.5h2.6c0.3,0,0.5-0.2,0.5-0.5s-0.2-0.5-0.5-0.5H97.8z"/>
		</g>
		<g>
			<path d="M111.4,11.7l-1.1-0.6V9.7l1.1-0.7l1.1,0.7V11L111.4,11.7z M110.5,10.9l0.9,0.5l0.9-0.5v-1l-0.9-0.5l-0.9,0.5V10.9z"/>
		</g>
		<g>
			<path d="M111.4,16l-1.1-0.6V14l1.1-0.6l1.1,0.6v1.3L111.4,16z M110.5,15.2l0.9,0.5l0.9-0.5v-1l-0.9-0.5l-0.9,0.5V15.2z"/>
		</g>
		<g>
			<path d="M110.1,13.8l-1.1-0.7v-1.3l1.1-0.7l1.1,0.7v1.3L110.1,13.8z M109.2,13l0.9,0.5l0.9-0.5v-1l-0.9-0.5l-0.9,0.5V13z"/>
		</g>
		<g>
			<path d="M110.1,9.5l-1.1-0.6V7.6l1.1-0.6l1.1,0.6v1.3L110.1,9.5z M109.2,8.7l0.9,0.5l0.9-0.5v-1l-0.9-0.5l-0.9,0.5V8.7z"/>
		</g>
		<g>
			<path d="M113.9,11.7l-1.1-0.6V9.7l1.1-0.7l1.1,0.7V11L113.9,11.7z M113.1,10.9l0.9,0.5l0.9-0.5v-1l-0.9-0.5l-0.9,0.5V10.9z"/>
		</g>
		<g>
			<path d="M113.9,16l-1.1-0.6V14l1.1-0.6l1.1,0.6v1.3L113.9,16z M113.1,15.2l0.9,0.5l0.9-0.5v-1l-0.9-0.5l-0.9,0.5V15.2z"/>
		</g>
		<g>
			<path d="M115.2,13.8l-1.1-0.7v-1.3l1.1-0.7l1.1,0.7v1.3L115.2,13.8z M114.4,13l0.9,0.5l0.9-0.5v-1l-0.9-0.5l-0.9,0.5V13z"/>
		</g>
		<g>
			<path d="M115.2,9.5l-1.1-0.6V7.6l1.1-0.6l1.1,0.6v1.3L115.2,9.5z M114.4,8.7l0.9,0.5l0.9-0.5v-1l-0.9-0.5l-0.9,0.5V8.7z"/>
		</g>
		<g>
			<path d="M111.4,7.3l-1.1-0.6V5.4l1.1-0.6l1.1,0.6v1.3L111.4,7.3z M110.5,6.6l0.9,0.5l0.9-0.5v-1L111.4,5l-0.9,0.5V6.6z"/>
		</g>
		<g>
			<path d="M110.1,5.2l-1.1-0.6V3.2l1.1-0.6l1.1,0.6v1.3L110.1,5.2z M109.2,4.4l0.9,0.5l0.9-0.5v-1l-0.9-0.5l-0.9,0.5V4.4z"/>
		</g>
		<g>
			<path d="M113.9,7.3l-1.1-0.6V5.4l1.1-0.6l1.1,0.6v1.3L113.9,7.3z M113.1,6.6l0.9,0.5l0.9-0.5v-1L113.9,5l-0.9,0.5V6.6z"/>
		</g>
		<g>
			<path d="M115.2,5.2l-1.1-0.6V3.2l1.1-0.6l1.1,0.6v1.3L115.2,5.2z M114.4,4.4l0.9,0.5l0.9-0.5v-1l-0.9-0.5l-0.9,0.5V4.4z"/>
		</g>
		<g>
			<path d="M22,7.3l-1.1-0.7V5.3L22,4.7l1.1,0.7v1.3L22,7.3z M21.1,6.5L22,7l0.9-0.5v-1L22,5l-0.9,0.5V6.5z"/>
		</g>
		<g>
			<path d="M24.6,7.3l-1.1-0.7V5.3l1.1-0.7l1.1,0.7v1.3L24.6,7.3z M23.7,6.5L24.6,7l0.9-0.5v-1L24.6,5l-0.9,0.5V6.5z"/>
		</g>
		<g>
			<path d="M27.2,7.3l-1.1-0.7V5.3l1.1-0.7l1.1,0.7v1.3L27.2,7.3z M26.3,6.5L27.2,7l0.9-0.5v-1L27.2,5l-0.9,0.5V6.5z"/>
		</g>
		<g>
			<path d="M29.8,7.3l-1.1-0.7V5.3l1.1-0.7l1.1,0.7v1.3L29.8,7.3z M28.9,6.5L29.8,7l0.9-0.5v-1L29.8,5l-0.9,0.5V6.5z"/>
		</g>
		<g>
			<path d="M32.4,7.3l-1.1-0.7V5.3l1.1-0.7l1.1,0.7v1.3L32.4,7.3z M31.5,6.5L32.4,7l0.9-0.5v-1L32.4,5l-0.9,0.5V6.5z"/>
		</g>
		<g>
			<path d="M35,7.3l-1.1-0.7V5.3L35,4.7l1.1,0.7v1.3L35,7.3z M34.1,6.5L35,7l0.9-0.5v-1L35,5l-0.9,0.5V6.5z"/>
		</g>
		<g>
			<path d="M37.6,7.3l-1.1-0.7V5.3l1.1-0.7l1.1,0.7v1.3L37.6,7.3z M36.7,6.5L37.6,7l0.9-0.5v-1L37.6,5l-0.9,0.5V6.5z"/>
		</g>
		<g>
			<path d="M40.1,7.3L39,6.6V5.3l1.1-0.7l1.1,0.7v1.3L40.1,7.3z M39.3,6.5L40.1,7L41,6.5v-1L40.1,5l-0.9,0.5V6.5z"/>
		</g>
		<g>
			<path d="M42.7,7.3l-1.1-0.7V5.3l1.1-0.7l1.1,0.7v1.3L42.7,7.3z M41.9,6.5L42.7,7l0.9-0.5v-1L42.7,5l-0.9,0.5V6.5z"/>
		</g>
		<g>
			<path d="M45.3,7.3l-1.1-0.7V5.3l1.1-0.7l1.1,0.7v1.3L45.3,7.3z M44.5,6.5L45.3,7l0.9-0.5v-1L45.3,5l-0.9,0.5V6.5z"/>
		</g>
		<g>
			<path d="M47.9,7.3l-1.1-0.7V5.3l1.1-0.7L49,5.3v1.3L47.9,7.3z M47,6.5L47.9,7l0.9-0.5v-1L47.9,5L47,5.5V6.5z"/>
		</g>
		<g>
			<path d="M50.5,7.3l-1.1-0.7V5.3l1.1-0.7l1.1,0.7v1.3L50.5,7.3z M49.6,6.5L50.5,7l0.9-0.5v-1L50.5,5l-0.9,0.5V6.5z"/>
		</g>
		<g>
			<path d="M53.1,7.3L52,6.6V5.3l1.1-0.7l1.1,0.7v1.3L53.1,7.3z M52.2,6.5L53.1,7L54,6.5v-1L53.1,5l-0.9,0.5V6.5z"/>
		</g>
		<g>
			<path d="M55.7,7.3l-1.1-0.7V5.3l1.1-0.7l1.1,0.7v1.3L55.7,7.3z M54.8,6.5L55.7,7l0.9-0.5v-1L55.7,5l-0.9,0.5V6.5z"/>
		</g>
		<g>
			<path d="M58.3,7.3l-1.1-0.7V5.3l1.1-0.7l1.1,0.7v1.3L58.3,7.3z M57.4,6.5L58.3,7l0.9-0.5v-1L58.3,5l-0.9,0.5V6.5z"/>
		</g>
		<g>
			<path d="M60.9,7.3l-1.1-0.7V5.3l1.1-0.7L62,5.3v1.3L60.9,7.3z M60,6.5L60.9,7l0.9-0.5v-1L60.9,5L60,5.5V6.5z"/>
		</g>
		<g>
			<path d="M63.5,7.3l-1.1-0.7V5.3l1.1-0.7l1.1,0.7v1.3L63.5,7.3z M62.6,6.5L63.5,7l0.9-0.5v-1L63.5,5l-0.9,0.5V6.5z"/>
		</g>
		<g>
			<path d="M66,7.3l-1.1-0.7V5.3L66,4.7l1.1,0.7v1.3L66,7.3z M65.2,6.5L66,7l0.9-0.5v-1L66,5l-0.9,0.5V6.5z"/>
		</g>
		<g>
			<path d="M68.6,7.3l-1.1-0.7V5.3l1.1-0.7l1.1,0.7v1.3L68.6,7.3z M67.8,6.5L68.6,7l0.9-0.5v-1L68.6,5l-0.9,0.5V6.5z"/>
		</g>
		<g>
			<path d="M71.2,7.3l-1.1-0.7V5.3l1.1-0.7l1.1,0.7v1.3L71.2,7.3z M70.4,6.5L71.2,7l0.9-0.5v-1L71.2,5l-0.9,0.5V6.5z"/>
		</g>
		<g>
			<path d="M73.8,7.3l-1.1-0.7V5.3l1.1-0.7l1.1,0.7v1.3L73.8,7.3z M72.9,6.5L73.8,7l0.9-0.5v-1L73.8,5l-0.9,0.5V6.5z"/>
		</g>
		<g>
			<path d="M76.4,7.3l-1.1-0.7V5.3l1.1-0.7l1.1,0.7v1.3L76.4,7.3z M75.5,6.5L76.4,7l0.9-0.5v-1L76.4,5l-0.9,0.5V6.5z"/>
		</g>
		<g>
			<path d="M79,7.3l-1.1-0.7V5.3L79,4.7l1.1,0.7v1.3L79,7.3z M78.1,6.5L79,7l0.9-0.5v-1L79,5l-0.9,0.5V6.5z"/>
		</g>
		<g>
			<path d="M81.6,7.3l-1.1-0.7V5.3l1.1-0.7l1.1,0.7v1.3L81.6,7.3z M80.7,6.5L81.6,7l0.9-0.5v-1L81.6,5l-0.9,0.5V6.5z"/>
		</g>
		<g>
			<path d="M84.2,7.3l-1.1-0.7V5.3l1.1-0.7l1.1,0.7v1.3L84.2,7.3z M83.3,6.5L84.2,7l0.9-0.5v-1L84.2,5l-0.9,0.5V6.5z"/>
		</g>
		<g>
			<path d="M86.8,7.3l-1.1-0.7V5.3l1.1-0.7l1.1,0.7v1.3L86.8,7.3z M85.9,6.5L86.8,7l0.9-0.5v-1L86.8,5l-0.9,0.5V6.5z"/>
		</g>
		<g>
			<path d="M89.4,7.3l-1.1-0.7V5.3l1.1-0.7l1.1,0.7v1.3L89.4,7.3z M88.5,6.5L89.4,7l0.9-0.5v-1L89.4,5l-0.9,0.5V6.5z"/>
		</g>
		<g>
			<path d="M92,7.3l-1.1-0.7V5.3L92,4.7l1.1,0.7v1.3L92,7.3z M91.1,6.5L92,7l0.9-0.5v-1L92,5l-0.9,0.5V6.5z"/>
		</g>
		<g>
			<path d="M20.7,5.1l-1.1-0.7V3.2l1.1-0.7l1.1,0.7v1.3L20.7,5.1z M19.8,4.3l0.9,0.5l0.9-0.5v-1l-0.9-0.5l-0.9,0.5V4.3z"/>
		</g>
		<g>
			<path d="M23.3,5.1l-1.1-0.7V3.2l1.1-0.7l1.1,0.7v1.3L23.3,5.1z M22.4,4.3l0.9,0.5l0.9-0.5v-1l-0.9-0.5l-0.9,0.5V4.3z"/>
		</g>
		<g>
			<path d="M25.9,5.1l-1.1-0.7V3.2l1.1-0.7L27,3.2v1.3L25.9,5.1z M25,4.3l0.9,0.5l0.9-0.5v-1l-0.9-0.5L25,3.3V4.3z"/>
		</g>
		<g>
			<path d="M28.5,5.1l-1.1-0.7V3.2l1.1-0.7l1.1,0.7v1.3L28.5,5.1z M27.6,4.3l0.9,0.5l0.9-0.5v-1l-0.9-0.5l-0.9,0.5V4.3z"/>
		</g>
		<g>
			<path d="M31.1,5.1L30,4.5V3.2l1.1-0.7l1.1,0.7v1.3L31.1,5.1z M30.2,4.3l0.9,0.5L32,4.3v-1l-0.9-0.5l-0.9,0.5V4.3z"/>
		</g>
		<g>
			<path d="M33.7,5.1l-1.1-0.7V3.2l1.1-0.7l1.1,0.7v1.3L33.7,5.1z M32.8,4.3l0.9,0.5l0.9-0.5v-1l-0.9-0.5l-0.9,0.5V4.3z"/>
		</g>
		<g>
			<path d="M36.3,5.1l-1.1-0.7V3.2l1.1-0.7l1.1,0.7v1.3L36.3,5.1z M35.4,4.3l0.9,0.5l0.9-0.5v-1l-0.9-0.5l-0.9,0.5V4.3z"/>
		</g>
		<g>
			<path d="M38.9,5.1l-1.1-0.7V3.2l1.1-0.7L40,3.2v1.3L38.9,5.1z M38,4.3l0.9,0.5l0.9-0.5v-1l-0.9-0.5L38,3.3V4.3z"/>
		</g>
		<g>
			<path d="M41.4,5.1l-1.1-0.7V3.2l1.1-0.7l1.1,0.7v1.3L41.4,5.1z M40.6,4.3l0.9,0.5l0.9-0.5v-1l-0.9-0.5l-0.9,0.5V4.3z"/>
		</g>
		<g>
			<path d="M44,5.1l-1.1-0.7V3.2L44,2.5l1.1,0.7v1.3L44,5.1z M43.2,4.3L44,4.8l0.9-0.5v-1L44,2.8l-0.9,0.5V4.3z"/>
		</g>
		<g>
			<path d="M46.6,5.1l-1.1-0.7V3.2l1.1-0.7l1.1,0.7v1.3L46.6,5.1z M45.7,4.3l0.9,0.5l0.9-0.5v-1l-0.9-0.5l-0.9,0.5V4.3z"/>
		</g>
		<g>
			<path d="M49.2,5.1l-1.1-0.7V3.2l1.1-0.7l1.1,0.7v1.3L49.2,5.1z M48.3,4.3l0.9,0.5l0.9-0.5v-1l-0.9-0.5l-0.9,0.5V4.3z"/>
		</g>
		<g>
			<path d="M51.8,5.1l-1.1-0.7V3.2l1.1-0.7l1.1,0.7v1.3L51.8,5.1z M50.9,4.3l0.9,0.5l0.9-0.5v-1l-0.9-0.5l-0.9,0.5V4.3z"/>
		</g>
		<g>
			<path d="M54.4,5.1l-1.1-0.7V3.2l1.1-0.7l1.1,0.7v1.3L54.4,5.1z M53.5,4.3l0.9,0.5l0.9-0.5v-1l-0.9-0.5l-0.9,0.5V4.3z"/>
		</g>
		<g>
			<path d="M57,5.1l-1.1-0.7V3.2L57,2.5l1.1,0.7v1.3L57,5.1z M56.1,4.3L57,4.8l0.9-0.5v-1L57,2.8l-0.9,0.5V4.3z"/>
		</g>
		<g>
			<path d="M59.6,5.1l-1.1-0.7V3.2l1.1-0.7l1.1,0.7v1.3L59.6,5.1z M58.7,4.3l0.9,0.5l0.9-0.5v-1l-0.9-0.5l-0.9,0.5V4.3z"/>
		</g>
		<g>
			<path d="M62.2,5.1L61,4.5V3.2l1.1-0.7l1.1,0.7v1.3L62.2,5.1z M61.3,4.3l0.9,0.5L63,4.3v-1l-0.9-0.5l-0.9,0.5V4.3z"/>
		</g>
		<g>
			<path d="M64.8,5.1l-1.1-0.7V3.2l1.1-0.7l1.1,0.7v1.3L64.8,5.1z M63.9,4.3l0.9,0.5l0.9-0.5v-1l-0.9-0.5l-0.9,0.5V4.3z"/>
		</g>
		<g>
			<path d="M67.3,5.1l-1.1-0.7V3.2l1.1-0.7l1.1,0.7v1.3L67.3,5.1z M66.5,4.3l0.9,0.5l0.9-0.5v-1l-0.9-0.5l-0.9,0.5V4.3z"/>
		</g>
		<g>
			<path d="M69.9,5.1l-1.1-0.7V3.2l1.1-0.7l1.1,0.7v1.3L69.9,5.1z M69.1,4.3l0.9,0.5l0.9-0.5v-1l-0.9-0.5l-0.9,0.5V4.3z"/>
		</g>
		<g>
			<path d="M72.5,5.1l-1.1-0.7V3.2l1.1-0.7l1.1,0.7v1.3L72.5,5.1z M71.7,4.3l0.9,0.5l0.9-0.5v-1l-0.9-0.5l-0.9,0.5V4.3z"/>
		</g>
		<g>
			<path d="M75.1,5.1L74,4.5V3.2l1.1-0.7l1.1,0.7v1.3L75.1,5.1z M74.2,4.3l0.9,0.5L76,4.3v-1l-0.9-0.5l-0.9,0.5V4.3z"/>
		</g>
		<g>
			<path d="M77.7,5.1l-1.1-0.7V3.2l1.1-0.7l1.1,0.7v1.3L77.7,5.1z M76.8,4.3l0.9,0.5l0.9-0.5v-1l-0.9-0.5l-0.9,0.5V4.3z"/>
		</g>
		<g>
			<path d="M80.3,5.1l-1.1-0.7V3.2l1.1-0.7l1.1,0.7v1.3L80.3,5.1z M79.4,4.3l0.9,0.5l0.9-0.5v-1l-0.9-0.5l-0.9,0.5V4.3z"/>
		</g>
		<g>
			<path d="M82.9,5.1l-1.1-0.7V3.2l1.1-0.7L84,3.2v1.3L82.9,5.1z M82,4.3l0.9,0.5l0.9-0.5v-1l-0.9-0.5L82,3.3V4.3z"/>
		</g>
		<g>
			<path d="M85.5,5.1l-1.1-0.7V3.2l1.1-0.7l1.1,0.7v1.3L85.5,5.1z M84.6,4.3l0.9,0.5l0.9-0.5v-1l-0.9-0.5l-0.9,0.5V4.3z"/>
		</g>
		<g>
			<path d="M88.1,5.1l-1.1-0.7V3.2l1.1-0.7l1.1,0.7v1.3L88.1,5.1z M87.2,4.3l0.9,0.5l0.9-0.5v-1l-0.9-0.5l-0.9,0.5V4.3z"/>
		</g>
		<g>
			<path d="M90.7,5.1l-1.1-0.7V3.2l1.1-0.7l1.1,0.7v1.3L90.7,5.1z M89.8,4.3l0.9,0.5l0.9-0.5v-1l-0.9-0.5l-0.9,0.5V4.3z"/>
		</g>
		<g>
			<path d="M94.5,7.3l-1.1-0.7V5.3l1.1-0.7l1.1,0.7v1.3L94.5,7.3z M93.6,6.5L94.5,7l0.9-0.5v-1L94.5,5l-0.9,0.5V6.5z"/>
		</g>
		<g>
			<path d="M97.1,7.3L96,6.6V5.3l1.1-0.7l1.1,0.7v1.3L97.1,7.3z M96.2,6.5L97.1,7L98,6.5v-1L97.1,5l-0.9,0.5V6.5z"/>
		</g>
		<g>
			<path d="M99.7,7.3l-1.1-0.7V5.3l1.1-0.7l1.1,0.7v1.3L99.7,7.3z M98.8,6.5L99.7,7l0.9-0.5v-1L99.7,5l-0.9,0.5V6.5z"/>
		</g>
		<g>
			<path d="M102.3,7.3l-1.1-0.7V5.3l1.1-0.7l1.1,0.7v1.3L102.3,7.3z M101.4,6.5l0.9,0.5l0.9-0.5v-1L102.3,5l-0.9,0.5V6.5z"/>
		</g>
		<g>
			<path d="M104.9,7.3l-1.1-0.7V5.3l1.1-0.7l1.1,0.7v1.3L104.9,7.3z M104,6.5l0.9,0.5l0.9-0.5v-1L104.9,5L104,5.5V6.5z"/>
		</g>
		<g>
			<path d="M93.2,5.1l-1.1-0.7V3.2l1.1-0.7l1.1,0.7v1.3L93.2,5.1z M92.3,4.3l0.9,0.5l0.9-0.5v-1l-0.9-0.5l-0.9,0.5V4.3z"/>
		</g>
		<g>
			<path d="M95.8,5.1l-1.1-0.7V3.2l1.1-0.7l1.1,0.7v1.3L95.8,5.1z M94.9,4.3l0.9,0.5l0.9-0.5v-1l-0.9-0.5l-0.9,0.5V4.3z"/>
		</g>
		<g>
			<path d="M98.4,5.1l-1.1-0.7V3.2l1.1-0.7l1.1,0.7v1.3L98.4,5.1z M97.5,4.3l0.9,0.5l0.9-0.5v-1l-0.9-0.5l-0.9,0.5V4.3z"/>
		</g>
		<g>
			<path d="M101,5.1l-1.1-0.7V3.2l1.1-0.7l1.1,0.7v1.3L101,5.1z M100.1,4.3l0.9,0.5l0.9-0.5v-1L101,2.8l-0.9,0.5V4.3z"/>
		</g>
		<g>
			<path d="M103.6,5.1l-1.1-0.7V3.2l1.1-0.7l1.1,0.7v1.3L103.6,5.1z M102.7,4.3l0.9,0.5l0.9-0.5v-1l-0.9-0.5l-0.9,0.5V4.3z"/>
		</g>
		<g>
			<path d="M106.2,5.1L105,4.5V3.2l1.1-0.7l1.1,0.7v1.3L106.2,5.1z M105.3,4.3l0.9,0.5l0.9-0.5v-1l-0.9-0.5l-0.9,0.5V4.3z"/>
		</g>
		<g>
			<path d="M4.8,16.6L3.7,16v-1.3L4.8,14L6,14.7V16L4.8,16.6z M4,15.8l0.9,0.5l0.9-0.5v-1l-0.9-0.5L4,14.8V15.8z"/>
		</g>
		<g>
			<path d="M7.4,16.6L6.3,16v-1.3L7.4,14l1.1,0.7V16L7.4,16.6z M6.5,15.8l0.9,0.5l0.9-0.5v-1l-0.9-0.5l-0.9,0.5V15.8z"/>
		</g>
		<g>
			<path d="M10,16.6L8.9,16v-1.3L10,14l1.1,0.7V16L10,16.6z M9.1,15.8l0.9,0.5l0.9-0.5v-1L10,14.3l-0.9,0.5V15.8z"/>
		</g>
		<g>
			<polygon points="12.5,16.6 11.5,16 11.5,14.7 12.5,14 12.7,14.3 11.7,14.8 11.7,15.8 12.7,16.4 			"/>
		</g>
		<g>
			<polygon points="2.3,16.6 2.1,16.4 3.1,15.8 3.1,14.8 2.1,14.3 2.3,14 3.3,14.7 3.3,16 			"/>
		</g>
		<g>
			<path d="M4.8,12.3l-1.1-0.7v-1.3l1.1-0.7L6,10.4v1.3L4.8,12.3z M4,11.5L4.8,12l0.9-0.5v-1L4.8,10L4,10.5V11.5z"/>
		</g>
		<g>
			<path d="M7.4,12.3l-1.1-0.7v-1.3l1.1-0.7l1.1,0.7v1.3L7.4,12.3z M6.5,11.5L7.4,12l0.9-0.5v-1L7.4,10l-0.9,0.5V11.5z"/>
		</g>
		<g>
			<path d="M10,12.3l-1.1-0.7v-1.3L10,9.7l1.1,0.7v1.3L10,12.3z M9.1,11.5L10,12l0.9-0.5v-1L10,10l-0.9,0.5V11.5z"/>
		</g>
		<g>
			<polygon points="12.5,12.3 11.5,11.7 11.5,10.4 12.5,9.8 12.7,10 11.7,10.5 11.7,11.5 12.7,12.1 			"/>
		</g>
		<g>
			<path d="M6.1,14.4L5,13.8v-1.3l1.1-0.7l1.1,0.7v1.3L6.1,14.4z M5.2,13.6l0.9,0.5L7,13.6v-1l-0.9-0.5l-0.9,0.5V13.6z"/>
		</g>
		<g>
			<path d="M3.5,14.4l-1.1-0.7v-1.3l1.1-0.7l1.1,0.7v1.3L3.5,14.4z M2.7,13.6l0.9,0.5l0.9-0.5v-1l-0.9-0.5l-0.9,0.5V13.6z"/>
		</g>
		<g>
			<path d="M8.7,14.4l-1.1-0.7v-1.3l1.1-0.7l1.1,0.7v1.3L8.7,14.4z M7.8,13.6l0.9,0.5l0.9-0.5v-1l-0.9-0.5l-0.9,0.5V13.6z"/>
		</g>
		<g>
			<path d="M11.3,14.4l-1.1-0.7v-1.3l1.1-0.7l1.1,0.7v1.3L11.3,14.4z M10.4,13.6l0.9,0.5l0.9-0.5v-1l-0.9-0.5l-0.9,0.5V13.6z"/>
		</g>
		<g>
			<path d="M3.5,10.2L2.4,9.5V8.2l1.1-0.6l1.1,0.6v1.3L3.5,10.2z M2.7,9.4l0.9,0.5l0.9-0.5v-1L3.5,7.9L2.7,8.4V9.4z"/>
		</g>
		<g>
			<path d="M6.1,10.2L5,9.5V8.2l1.1-0.6l1.1,0.6v1.3L6.1,10.2z M5.2,9.4l0.9,0.5L7,9.4v-1L6.1,7.9L5.2,8.4V9.4z"/>
		</g>
		<g>
			<path d="M8.7,10.2L7.6,9.5V8.2l1.1-0.6l1.1,0.6v1.3L8.7,10.2z M7.8,9.4l0.9,0.5l0.9-0.5v-1L8.7,7.9L7.8,8.4V9.4z"/>
		</g>
		<g>
			<path d="M11.3,10.2l-1.1-0.6V8.2l1.1-0.6l1.1,0.6v1.3L11.3,10.2z M10.4,9.4l0.9,0.5l0.9-0.5v-1l-0.9-0.5l-0.9,0.5V9.4z"/>
		</g>
		<g>
			<polygon points="2.3,12.3 2.1,12.1 3.1,11.5 3.1,10.5 2.1,10 2.3,9.8 3.3,10.4 3.3,11.7 			"/>
		</g>
	</g>
</g>
</svg>
