<?xml version="1.0" encoding="UTF-8"?><svg id="Layer_2" xmlns="http://www.w3.org/2000/svg" viewBox="0 0 69.43 16.64"><defs><style>.cls-1{stroke-width:0px;}</style></defs><g id="Layer_4"><polygon class="cls-1" points="14.59 5.6 14.59 4.45 12.3 4.45 12.3 5.6 11.72 5.6 11.72 7.89 15.16 7.89 15.16 5.6 14.59 5.6"/><polygon class="cls-1" points="12.3 10.84 12.3 11.99 14.59 11.99 14.59 10.84 15.16 10.84 15.16 8.55 11.72 8.55 11.72 10.84 12.3 10.84"/><polygon class="cls-1" points="10.42 5.6 10.42 4.45 8.13 4.45 8.13 5.6 7.56 5.6 7.56 7.89 10.99 7.89 10.99 5.6 10.42 5.6"/><polygon class="cls-1" points="8.13 10.84 8.13 11.99 10.42 11.99 10.42 10.84 10.99 10.84 10.99 8.55 7.56 8.55 7.56 10.84 8.13 10.84"/><polygon class="cls-1" points="22.91 5.6 22.91 4.45 20.62 4.45 20.62 5.6 20.05 5.6 20.05 7.89 23.49 7.89 23.49 5.6 22.91 5.6"/><polygon class="cls-1" points="20.62 10.84 20.62 11.99 22.91 11.99 22.91 10.84 23.49 10.84 23.49 8.55 20.05 8.55 20.05 10.84 20.62 10.84"/><polygon class="cls-1" points="18.75 5.6 18.75 4.45 16.46 4.45 16.46 5.6 15.89 5.6 15.89 7.89 19.32 7.89 19.32 5.6 18.75 5.6"/><polygon class="cls-1" points="16.46 10.84 16.46 11.99 18.75 11.99 18.75 10.84 19.32 10.84 19.32 8.55 15.89 8.55 15.89 10.84 16.46 10.84"/><path class="cls-1" d="m55.79,11.42v1.85h-4.17v-1.85h4.17m.55-.55h-5.28v2.96h5.28v-2.96h0Z"/><polygon class="cls-1" points="52.2 11.69 52.2 11.98 52.2 12.26 55.2 12.26 55.2 11.98 55.2 11.69 52.2 11.69"/><path class="cls-1" d="m55.79,7.42v1.85h-4.17v-1.85h4.17m.55-.55h-5.28v2.96h5.28v-2.96h0Z"/><polygon class="cls-1" points="52.17 7.69 52.17 7.98 52.17 8.26 55.17 8.26 55.17 7.98 55.17 7.69 52.17 7.69"/><path class="cls-1" d="m66.43,16.64H3.01V0h63.42v16.64Zm-62.01-1.41h60.6V1.41H4.42v13.82Z"/><path class="cls-1" d="m69.43,16.64h-4.42V0h4.42v16.64Zm-3.01-1.41h1.6V1.41h-1.6v13.82Z"/><circle class="cls-1" cx="59.85" cy="8.49" r=".62"/><circle class="cls-1" cx="59.85" cy="10.35" r=".62"/><circle class="cls-1" cx="59.85" cy="12.21" r=".62"/><circle class="cls-1" cx="61.75" cy="8.49" r=".62"/><circle class="cls-1" cx="61.75" cy="10.35" r=".62"/><circle class="cls-1" cx="61.75" cy="12.21" r=".62"/><polygon class="cls-1" points="32.34 9.59 32.34 7.54 27.25 7.54 27.25 9.59 26.23 9.59 26.23 13.68 33.37 13.68 33.37 9.59 32.34 9.59"/><path class="cls-1" d="m38.94,13.68l-2.26-.04-1.2-.64v-2.07h4.75v2.13l-1.29.62Zm-1.99-.75h1.82l.71-.34v-.91h-3.25v.87l.72.38Z"/><polygon class="cls-1" points="47.46 8.61 47.46 7.06 44.36 7.06 44.36 8.61 43.59 8.61 43.59 11.71 48.24 11.71 48.24 8.61 47.46 8.61"/><rect class="cls-1" x="43.91" y="10.46" width="4" height="2"/><rect class="cls-1" x="42.91" y="10.71" width="6" height="1"/><rect class="cls-1" x="44.5" y="12.46" width="2.84" height="1"/><path class="cls-1" d="m4.42,16.64H0V0h4.42v16.64Zm-3.01-1.41h1.6V1.41h-1.6v13.82Z"/><polygon class="cls-1" points="45.65 3.22 45.05 2.63 44.46 3.22 44.75 3.52 43.26 5.01 43.86 5.61 44.45 5.01 44.16 4.72 45.65 3.22"/><rect class="cls-1" x="42.36" y="3.25" width="2.11" height=".84" transform="translate(10.12 31.77) rotate(-45)"/><rect class="cls-1" x="44.44" y="4.14" width="2.11" height=".84" transform="translate(10.1 33.51) rotate(-45)"/><path class="cls-1" d="m47.42,2.52h1.41c.59,0,1,.41,1,1.07s-.41,1.07-1,1.07h-.72v.91h-.7v-3.04Zm1.37,1.46c.2,0,.35-.15.35-.39s-.15-.39-.35-.39h-.67v.78h.67Z"/><path class="cls-1" d="m50.75,2.52h1l1.04,3.04h-.76l-.2-.61h-1.17l-.2.61h-.76l1.04-3.04Zm.89,1.83l-.35-1.09h-.09l-.35,1.09h.78Z"/><path class="cls-1" d="m52.99,4.02h1.5v.61h-1.5v-.61Z"/><path class="cls-1" d="m54.77,4.39l1.02-1.87h1.04v1.85h.33v.63h-.33v.57h-.7v-.57h-1.37v-.61Zm1.37-.02v-1.02h-.09l-.54,1v.02h.63Z"/><path class="cls-1" d="m57.32,4.39l1.02-1.87h1.04v1.85h.33v.63h-.33v.57h-.7v-.57h-1.37v-.61Zm1.37-.02v-1.02h-.09l-.54,1v.02h.63Z"/><path class="cls-1" d="m59.99,4.04c0-1,.57-1.57,1.28-1.57s1.28.57,1.28,1.57-.57,1.57-1.28,1.57-1.28-.57-1.28-1.57Zm1.87,0c0-.61-.29-.89-.59-.89s-.59.28-.59.89.28.89.59.89.59-.28.59-.89Z"/></g></svg>