<?xml version="1.0" encoding="utf-8"?>
<!-- Generator: Adobe Illustrator 25.2.1, SVG Export Plug-In . SVG Version: 6.00 Build 0)  -->
<svg version="1.1" id="Layer_1" xmlns="http://www.w3.org/2000/svg" xmlns:xlink="http://www.w3.org/1999/xlink" x="0px" y="0px"
	 viewBox="0 0 94.7 67.2" style="enable-background:new 0 0 94.7 67.2;" xml:space="preserve">
<g id="Layer_2_1_">
	<g id="Layer_4">
		<g>
			<polygon points="37.8,62.1 37.3,61.3 36.5,61.3 36,62.1 35.8,62 36.3,61.1 37.5,61.1 38,62 			"/>
		</g>
		<g>
			<path d="M37.5,60.8h-1.1l-0.6-1l0.6-1h1.1l0.6,1L37.5,60.8z M36.5,60.6h0.8l0.4-0.7l-0.4-0.7h-0.8l-0.4,0.7L36.5,60.6z"/>
		</g>
		<g>
			<path d="M37.5,58.6h-1.1l-0.6-1l0.6-1h1.1l0.6,1L37.5,58.6z M36.5,58.4h0.8l0.4-0.7l-0.4-0.7h-0.8l-0.4,0.7L36.5,58.4z"/>
		</g>
		<g>
			<path d="M37.5,56.4h-1.1l-0.6-1l0.6-1h1.1l0.6,1L37.5,56.4z M36.5,56.1h0.8l0.4-0.7l-0.4-0.7h-0.8l-0.4,0.7L36.5,56.1z"/>
		</g>
		<g>
			<path d="M37.5,54.2h-1.1l-0.6-1l0.6-1h1.1l0.6,1L37.5,54.2z M36.5,53.9h0.8l0.4-0.7l-0.4-0.7h-0.8l-0.4,0.7L36.5,53.9z"/>
		</g>
		<g>
			<path d="M37.5,51.9h-1.1l-0.6-1l0.6-1h1.1l0.6,1L37.5,51.9z M36.5,51.7h0.8l0.4-0.7l-0.4-0.7h-0.8L36.1,51L36.5,51.7z"/>
		</g>
		<g>
			<path d="M37.5,49.7h-1.1l-0.6-1l0.6-1h1.1l0.6,1L37.5,49.7z M36.5,49.5h0.8l0.4-0.7L37.3,48h-0.8l-0.4,0.7L36.5,49.5z"/>
		</g>
		<g>
			<path d="M37.5,47.5h-1.1l-0.6-1l0.6-1h1.1l0.6,1L37.5,47.5z M36.5,47.3h0.8l0.4-0.7l-0.4-0.7h-0.8l-0.4,0.7L36.5,47.3z"/>
		</g>
		<g>
			<path d="M37.5,45.3h-1.1l-0.6-1l0.6-1h1.1l0.6,1L37.5,45.3z M36.5,45h0.8l0.4-0.7l-0.4-0.7h-0.8l-0.4,0.7L36.5,45z"/>
		</g>
		<g>
			<path d="M37.5,43.1h-1.1l-0.6-1l0.6-1h1.1l0.6,1L37.5,43.1z M36.5,42.8h0.8l0.4-0.7l-0.4-0.7h-0.8l-0.4,0.7L36.5,42.8z"/>
		</g>
		<g>
			<path d="M37.5,40.8h-1.1l-0.6-1l0.6-1h1.1l0.6,1L37.5,40.8z M36.5,40.6h0.8l0.4-0.7l-0.4-0.7h-0.8l-0.4,0.7L36.5,40.6z"/>
		</g>
		<g>
			<path d="M37.5,38.6h-1.1l-0.6-1l0.6-1h1.1l0.6,1L37.5,38.6z M36.5,38.4h0.8l0.4-0.7l-0.4-0.7h-0.8l-0.4,0.7L36.5,38.4z"/>
		</g>
		<g>
			<path d="M37.5,36.4h-1.1l-0.6-1l0.6-1h1.1l0.6,1L37.5,36.4z M36.5,36.2h0.8l0.4-0.7l-0.4-0.7h-0.8l-0.4,0.7L36.5,36.2z"/>
		</g>
		<g>
			<path d="M37.5,34.2h-1.1l-0.6-1l0.6-1h1.1l0.6,1L37.5,34.2z M36.5,33.9h0.8l0.4-0.7l-0.4-0.7h-0.8l-0.4,0.7L36.5,33.9z"/>
		</g>
		<g>
			<path d="M37.5,32h-1.1l-0.6-1l0.6-1h1.1l0.6,1L37.5,32z M36.5,31.7h0.8l0.4-0.7l-0.4-0.7h-0.8L36.1,31L36.5,31.7z"/>
		</g>
		<g>
			<path d="M37.5,29.7h-1.1l-0.6-1l0.6-1h1.1l0.6,1L37.5,29.7z M36.5,29.5h0.8l0.4-0.7L37.3,28h-0.8l-0.4,0.7L36.5,29.5z"/>
		</g>
		<g>
			<path d="M37.5,27.5h-1.1l-0.6-1l0.6-1h1.1l0.6,1L37.5,27.5z M36.5,27.3h0.8l0.4-0.7l-0.4-0.7h-0.8l-0.4,0.7L36.5,27.3z"/>
		</g>
		<g>
			<path d="M39.3,57.5h-1.1l-0.6-1l0.6-1h1.1l0.6,1L39.3,57.5z M38.3,57.2h0.8l0.4-0.7l-0.4-0.7h-0.8l-0.4,0.7L38.3,57.2z"/>
		</g>
		<g>
			<path d="M39.3,55.3h-1.1l-0.6-1l0.6-1h1.1l0.6,1L39.3,55.3z M38.3,55h0.8l0.4-0.7l-0.4-0.7h-0.8l-0.4,0.7L38.3,55z"/>
		</g>
		<g>
			<path d="M39.3,53.1h-1.1l-0.6-1l0.6-1h1.1l0.6,1L39.3,53.1z M38.3,52.8h0.8l0.4-0.7l-0.4-0.7h-0.8l-0.4,0.7L38.3,52.8z"/>
		</g>
		<g>
			<path d="M39.3,50.8h-1.1l-0.6-1l0.6-1h1.1l0.6,1L39.3,50.8z M38.3,50.6h0.8l0.4-0.7l-0.4-0.7h-0.8l-0.4,0.7L38.3,50.6z"/>
		</g>
		<g>
			<path d="M39.3,48.6h-1.1l-0.6-1l0.6-1h1.1l0.6,1L39.3,48.6z M38.3,48.4h0.8l0.4-0.7l-0.4-0.7h-0.8l-0.4,0.7L38.3,48.4z"/>
		</g>
		<g>
			<path d="M39.3,46.4h-1.1l-0.6-1l0.6-1h1.1l0.6,1L39.3,46.4z M38.3,46.1h0.8l0.4-0.7l-0.4-0.7h-0.8l-0.4,0.7L38.3,46.1z"/>
		</g>
		<g>
			<path d="M39.3,44.2h-1.1l-0.6-1l0.6-1h1.1l0.6,1L39.3,44.2z M38.3,43.9h0.8l0.4-0.7l-0.4-0.7h-0.8l-0.4,0.7L38.3,43.9z"/>
		</g>
		<g>
			<path d="M39.3,42h-1.1l-0.6-1l0.6-1h1.1l0.6,1L39.3,42z M38.3,41.7h0.8l0.4-0.7l-0.4-0.7h-0.8L37.9,41L38.3,41.7z"/>
		</g>
		<g>
			<path d="M39.3,39.7h-1.1l-0.6-1l0.6-1h1.1l0.6,1L39.3,39.7z M38.3,39.5h0.8l0.4-0.7L39.1,38h-0.8l-0.4,0.7L38.3,39.5z"/>
		</g>
		<g>
			<path d="M39.3,37.5h-1.1l-0.6-1l0.6-1h1.1l0.6,1L39.3,37.5z M38.3,37.3h0.8l0.4-0.7l-0.4-0.7h-0.8l-0.4,0.7L38.3,37.3z"/>
		</g>
		<g>
			<path d="M39.3,35.3h-1.1l-0.6-1l0.6-1h1.1l0.6,1L39.3,35.3z M38.3,35h0.8l0.4-0.7l-0.4-0.7h-0.8l-0.4,0.7L38.3,35z"/>
		</g>
		<g>
			<path d="M39.3,33.1h-1.1l-0.6-1l0.6-1h1.1l0.6,1L39.3,33.1z M38.3,32.8h0.8l0.4-0.7l-0.4-0.7h-0.8l-0.4,0.7L38.3,32.8z"/>
		</g>
		<g>
			<path d="M39.3,30.9h-1.1l-0.6-1l0.6-1h1.1l0.6,1L39.3,30.9z M38.3,30.6h0.8l0.4-0.7l-0.4-0.7h-0.8l-0.4,0.7L38.3,30.6z"/>
		</g>
		<g>
			<path d="M39.3,28.6h-1.1l-0.6-1l0.6-1h1.1l0.6,1L39.3,28.6z M38.3,28.4h0.8l0.4-0.7l-0.4-0.7h-0.8l-0.4,0.7L38.3,28.4z"/>
		</g>
		<g>
			<path d="M39.3,26.4h-1.1l-0.6-1l0.6-1h1.1l0.6,1L39.3,26.4z M38.3,26.2h0.8l0.4-0.7l-0.4-0.7h-0.8l-0.4,0.7L38.3,26.2z"/>
		</g>
		<g>
			<polygon points="34.1,62.1 33.7,61.3 32.8,61.3 32.4,62.1 32.1,62 32.7,61.1 33.8,61.1 34.3,62 			"/>
		</g>
		<g>
			<path d="M33.8,60.8h-1.1l-0.6-1l0.6-1h1.1l0.6,1L33.8,60.8z M32.8,60.6h0.8l0.4-0.7l-0.4-0.7h-0.8l-0.4,0.7L32.8,60.6z"/>
		</g>
		<g>
			<path d="M33.8,58.6h-1.1l-0.6-1l0.6-1h1.1l0.6,1L33.8,58.6z M32.8,58.4h0.8l0.4-0.7l-0.4-0.7h-0.8l-0.4,0.7L32.8,58.4z"/>
		</g>
		<g>
			<path d="M33.8,56.4h-1.1l-0.6-1l0.6-1h1.1l0.6,1L33.8,56.4z M32.8,56.1h0.8l0.4-0.7l-0.4-0.7h-0.8l-0.4,0.7L32.8,56.1z"/>
		</g>
		<g>
			<path d="M33.8,54.2h-1.1l-0.6-1l0.6-1h1.1l0.6,1L33.8,54.2z M32.8,53.9h0.8l0.4-0.7l-0.4-0.7h-0.8l-0.4,0.7L32.8,53.9z"/>
		</g>
		<g>
			<path d="M33.8,51.9h-1.1l-0.6-1l0.6-1h1.1l0.6,1L33.8,51.9z M32.8,51.7h0.8l0.4-0.7l-0.4-0.7h-0.8L32.4,51L32.8,51.7z"/>
		</g>
		<g>
			<path d="M33.8,49.7h-1.1l-0.6-1l0.6-1h1.1l0.6,1L33.8,49.7z M32.8,49.5h0.8l0.4-0.7L33.7,48h-0.8l-0.4,0.7L32.8,49.5z"/>
		</g>
		<g>
			<path d="M33.8,47.5h-1.1l-0.6-1l0.6-1h1.1l0.6,1L33.8,47.5z M32.8,47.3h0.8l0.4-0.7l-0.4-0.7h-0.8l-0.4,0.7L32.8,47.3z"/>
		</g>
		<g>
			<path d="M33.8,45.3h-1.1l-0.6-1l0.6-1h1.1l0.6,1L33.8,45.3z M32.8,45h0.8l0.4-0.7l-0.4-0.7h-0.8l-0.4,0.7L32.8,45z"/>
		</g>
		<g>
			<path d="M33.8,43.1h-1.1l-0.6-1l0.6-1h1.1l0.6,1L33.8,43.1z M32.8,42.8h0.8l0.4-0.7l-0.4-0.7h-0.8l-0.4,0.7L32.8,42.8z"/>
		</g>
		<g>
			<path d="M33.8,40.8h-1.1l-0.6-1l0.6-1h1.1l0.6,1L33.8,40.8z M32.8,40.6h0.8l0.4-0.7l-0.4-0.7h-0.8l-0.4,0.7L32.8,40.6z"/>
		</g>
		<g>
			<path d="M35.6,61.9h-1.1l-0.6-1l0.6-1h1.1l0.6,1L35.6,61.9z M34.6,61.7h0.8l0.4-0.7l-0.4-0.7h-0.8L34.2,61L34.6,61.7z"/>
		</g>
		<g>
			<path d="M35.6,59.7h-1.1l-0.6-1l0.6-1h1.1l0.6,1L35.6,59.7z M34.6,59.5h0.8l0.4-0.7L35.5,58h-0.8l-0.4,0.7L34.6,59.5z"/>
		</g>
		<g>
			<path d="M35.6,57.5h-1.1l-0.6-1l0.6-1h1.1l0.6,1L35.6,57.5z M34.6,57.2h0.8l0.4-0.7l-0.4-0.7h-0.8l-0.4,0.7L34.6,57.2z"/>
		</g>
		<g>
			<path d="M35.6,55.3h-1.1l-0.6-1l0.6-1h1.1l0.6,1L35.6,55.3z M34.6,55h0.8l0.4-0.7l-0.4-0.7h-0.8l-0.4,0.7L34.6,55z"/>
		</g>
		<g>
			<path d="M35.6,53.1h-1.1l-0.6-1l0.6-1h1.1l0.6,1L35.6,53.1z M34.6,52.8h0.8l0.4-0.7l-0.4-0.7h-0.8l-0.4,0.7L34.6,52.8z"/>
		</g>
		<g>
			<path d="M35.6,50.8h-1.1l-0.6-1l0.6-1h1.1l0.6,1L35.6,50.8z M34.6,50.6h0.8l0.4-0.7l-0.4-0.7h-0.8l-0.4,0.7L34.6,50.6z"/>
		</g>
		<g>
			<path d="M35.6,48.6h-1.1l-0.6-1l0.6-1h1.1l0.6,1L35.6,48.6z M34.6,48.4h0.8l0.4-0.7l-0.4-0.7h-0.8l-0.4,0.7L34.6,48.4z"/>
		</g>
		<g>
			<path d="M35.6,46.4h-1.1l-0.6-1l0.6-1h1.1l0.6,1L35.6,46.4z M34.6,46.1h0.8l0.4-0.7l-0.4-0.7h-0.8l-0.4,0.7L34.6,46.1z"/>
		</g>
		<g>
			<path d="M35.6,44.2h-1.1l-0.6-1l0.6-1h1.1l0.6,1L35.6,44.2z M34.6,43.9h0.8l0.4-0.7l-0.4-0.7h-0.8l-0.4,0.7L34.6,43.9z"/>
		</g>
		<g>
			<path d="M35.6,42h-1.1l-0.6-1l0.6-1h1.1l0.6,1L35.6,42z M34.6,41.7h0.8l0.4-0.7l-0.4-0.7h-0.8L34.2,41L34.6,41.7z"/>
		</g>
		<g>
			<path d="M35.6,39.7h-1.1l-0.6-1l0.6-1h1.1l0.6,1L35.6,39.7z M34.6,39.5h0.8l0.4-0.7L35.5,38h-0.8l-0.4,0.7L34.6,39.5z"/>
		</g>
		<g>
			<path d="M32,57.5h-1.1l-0.6-1l0.6-1H32l0.6,1L32,57.5z M31,57.2h0.8l0.4-0.7l-0.4-0.7H31l-0.4,0.7L31,57.2z"/>
		</g>
		<g>
			<path d="M32,55.3h-1.1l-0.6-1l0.6-1H32l0.6,1L32,55.3z M31,55h0.8l0.4-0.7l-0.4-0.7H31l-0.4,0.7L31,55z"/>
		</g>
		<g>
			<path d="M32,53.1h-1.1l-0.6-1l0.6-1H32l0.6,1L32,53.1z M31,52.8h0.8l0.4-0.7l-0.4-0.7H31l-0.4,0.7L31,52.8z"/>
		</g>
		<g>
			<path d="M32,50.8h-1.1l-0.6-1l0.6-1H32l0.6,1L32,50.8z M31,50.6h0.8l0.4-0.7l-0.4-0.7H31l-0.4,0.7L31,50.6z"/>
		</g>
		<g>
			<path d="M32,48.6h-1.1l-0.6-1l0.6-1H32l0.6,1L32,48.6z M31,48.4h0.8l0.4-0.7l-0.4-0.7H31l-0.4,0.7L31,48.4z"/>
		</g>
		<g>
			<path d="M32,46.4h-1.1l-0.6-1l0.6-1H32l0.6,1L32,46.4z M31,46.1h0.8l0.4-0.7l-0.4-0.7H31l-0.4,0.7L31,46.1z"/>
		</g>
		<g>
			<path d="M32,44.2h-1.1l-0.6-1l0.6-1H32l0.6,1L32,44.2z M31,43.9h0.8l0.4-0.7l-0.4-0.7H31l-0.4,0.7L31,43.9z"/>
		</g>
		<g>
			<path d="M32,42h-1.1l-0.6-1l0.6-1H32l0.6,1L32,42z M31,41.7h0.8l0.4-0.7l-0.4-0.7H31L30.5,41L31,41.7z"/>
		</g>
		<g>
			<path d="M32,39.7h-1.1l-0.6-1l0.6-1H32l0.6,1L32,39.7z M31,39.5h0.8l0.4-0.7L31.8,38H31l-0.4,0.7L31,39.5z"/>
		</g>
		<g>
			<path d="M39.3,61.9h-1.1l-0.6-1l0.6-1h1.1l0.6,1L39.3,61.9z M38.3,61.7h0.8l0.4-0.7l-0.4-0.7h-0.8L37.9,61L38.3,61.7z"/>
		</g>
		<g>
			<path d="M39.3,59.7h-1.1l-0.6-1l0.6-1h1.1l0.6,1L39.3,59.7z M38.3,59.5h0.8l0.4-0.7L39.1,58h-0.8l-0.4,0.7L38.3,59.5z"/>
		</g>
		<g>
			<path d="M39.3,57.5h-1.1l-0.6-1l0.6-1h1.1l0.6,1L39.3,57.5z M38.3,57.2h0.8l0.4-0.7l-0.4-0.7h-0.8l-0.4,0.7L38.3,57.2z"/>
		</g>
		<g>
			<path d="M39.3,55.3h-1.1l-0.6-1l0.6-1h1.1l0.6,1L39.3,55.3z M38.3,55h0.8l0.4-0.7l-0.4-0.7h-0.8l-0.4,0.7L38.3,55z"/>
		</g>
		<g>
			<path d="M39.3,53.1h-1.1l-0.6-1l0.6-1h1.1l0.6,1L39.3,53.1z M38.3,52.8h0.8l0.4-0.7l-0.4-0.7h-0.8l-0.4,0.7L38.3,52.8z"/>
		</g>
		<g>
			<path d="M39.3,50.8h-1.1l-0.6-1l0.6-1h1.1l0.6,1L39.3,50.8z M38.3,50.6h0.8l0.4-0.7l-0.4-0.7h-0.8l-0.4,0.7L38.3,50.6z"/>
		</g>
		<g>
			<path d="M39.3,48.6h-1.1l-0.6-1l0.6-1h1.1l0.6,1L39.3,48.6z M38.3,48.4h0.8l0.4-0.7l-0.4-0.7h-0.8l-0.4,0.7L38.3,48.4z"/>
		</g>
		<g>
			<path d="M39.3,46.4h-1.1l-0.6-1l0.6-1h1.1l0.6,1L39.3,46.4z M38.3,46.1h0.8l0.4-0.7l-0.4-0.7h-0.8l-0.4,0.7L38.3,46.1z"/>
		</g>
		<g>
			<path d="M39.3,44.2h-1.1l-0.6-1l0.6-1h1.1l0.6,1L39.3,44.2z M38.3,43.9h0.8l0.4-0.7l-0.4-0.7h-0.8l-0.4,0.7L38.3,43.9z"/>
		</g>
		<g>
			<path d="M39.3,42h-1.1l-0.6-1l0.6-1h1.1l0.6,1L39.3,42z M38.3,41.7h0.8l0.4-0.7l-0.4-0.7h-0.8L37.9,41L38.3,41.7z"/>
		</g>
		<g>
			<path d="M39.3,39.7h-1.1l-0.6-1l0.6-1h1.1l0.6,1L39.3,39.7z M38.3,39.5h0.8l0.4-0.7L39.1,38h-0.8l-0.4,0.7L38.3,39.5z"/>
		</g>
		<g>
			<path d="M33.8,38.6h-1.1l-0.6-1l0.6-1h1.1l0.6,1L33.8,38.6z M32.8,38.3h0.8l0.4-0.7l-0.4-0.7h-0.8l-0.4,0.7L32.8,38.3z"/>
		</g>
		<g>
			<path d="M33.8,36.4h-1.1l-0.6-1l0.6-1h1.1l0.6,1L33.8,36.4z M32.8,36.1h0.8l0.4-0.7l-0.4-0.7h-0.8l-0.4,0.7L32.8,36.1z"/>
		</g>
		<g>
			<path d="M33.8,34.1h-1.1l-0.6-1l0.6-1h1.1l0.6,1L33.8,34.1z M32.8,33.9h0.8l0.4-0.7l-0.4-0.7h-0.8l-0.4,0.7L32.8,33.9z"/>
		</g>
		<g>
			<path d="M33.8,31.9h-1.1l-0.6-1l0.6-1h1.1l0.6,1L33.8,31.9z M32.8,31.7h0.8l0.4-0.7l-0.4-0.7h-0.8l-0.4,0.7L32.8,31.7z"/>
		</g>
		<g>
			<path d="M33.8,29.7h-1.1l-0.6-1l0.6-1h1.1l0.6,1L33.8,29.7z M32.8,29.4h0.8l0.4-0.7L33.7,28h-0.8l-0.4,0.7L32.8,29.4z"/>
		</g>
		<g>
			<path d="M35.6,37.5h-1.1l-0.6-1l0.6-1h1.1l0.6,1L35.6,37.5z M34.6,37.2h0.8l0.4-0.7l-0.4-0.7h-0.8l-0.4,0.7L34.6,37.2z"/>
		</g>
		<g>
			<path d="M35.6,35.2h-1.1l-0.6-1l0.6-1h1.1l0.6,1L35.6,35.2z M34.6,35h0.8l0.4-0.7l-0.4-0.7h-0.8l-0.4,0.7L34.6,35z"/>
		</g>
		<g>
			<path d="M35.6,33h-1.1l-0.6-1l0.6-1h1.1l0.6,1L35.6,33z M34.6,32.8h0.8l0.4-0.7l-0.4-0.7h-0.8L34.2,32L34.6,32.8z"/>
		</g>
		<g>
			<path d="M35.6,30.8h-1.1l-0.6-1l0.6-1h1.1l0.6,1L35.6,30.8z M34.6,30.6h0.8l0.4-0.7l-0.4-0.7h-0.8l-0.4,0.7L34.6,30.6z"/>
		</g>
		<g>
			<path d="M35.6,28.6h-1.1l-0.6-1l0.6-1h1.1l0.6,1L35.6,28.6z M34.6,28.3h0.8l0.4-0.7l-0.4-0.7h-0.8l-0.4,0.7L34.6,28.3z"/>
		</g>
		<g>
			<path d="M35.6,26.4h-1.1l-0.6-1l0.6-1h1.1l0.6,1L35.6,26.4z M34.6,26.1h0.8l0.4-0.7l-0.4-0.7h-0.8l-0.4,0.7L34.6,26.1z"/>
		</g>
		<g>
			<path d="M32,37.5h-1.1l-0.6-1l0.6-1H32l0.6,1L32,37.5z M31,37.2h0.8l0.4-0.7l-0.4-0.7H31l-0.4,0.7L31,37.2z"/>
		</g>
		<g>
			<path d="M32,35.2h-1.1l-0.6-1l0.6-1H32l0.6,1L32,35.2z M31,35h0.8l0.4-0.7l-0.4-0.7H31l-0.4,0.7L31,35z"/>
		</g>
		<g>
			<path d="M32,33h-1.1l-0.6-1l0.6-1H32l0.6,1L32,33z M31,32.8h0.8l0.4-0.7l-0.4-0.7H31L30.5,32L31,32.8z"/>
		</g>
		<g>
			<path d="M32,30.8h-1.1l-0.6-1l0.6-1H32l0.6,1L32,30.8z M31,30.6h0.8l0.4-0.7l-0.4-0.7H31l-0.4,0.7L31,30.6z"/>
		</g>
		<g>
			<path d="M37.5,25.3h-1.1l-0.6-1l0.6-1h1.1l0.6,1L37.5,25.3z M36.5,25.1h0.8l0.4-0.7l-0.4-0.7h-0.8l-0.4,0.7L36.5,25.1z"/>
		</g>
		<g>
			<path d="M37.5,23.1h-1.1l-0.6-1l0.6-1h1.1l0.6,1L37.5,23.1z M36.5,22.8h0.8l0.4-0.7l-0.4-0.7h-0.8l-0.4,0.7L36.5,22.8z"/>
		</g>
		<g>
			<path d="M37.5,20.9h-1.1l-0.6-1l0.6-1h1.1l0.6,1L37.5,20.9z M36.5,20.6h0.8l0.4-0.7l-0.4-0.7h-0.8l-0.4,0.7L36.5,20.6z"/>
		</g>
		<g>
			<path d="M37.5,18.6h-1.1l-0.6-1l0.6-1h1.1l0.6,1L37.5,18.6z M36.5,18.4h0.8l0.4-0.7l-0.4-0.7h-0.8l-0.4,0.7L36.5,18.4z"/>
		</g>
		<g>
			<path d="M37.5,16.4h-1.1l-0.6-1l0.6-1h1.1l0.6,1L37.5,16.4z M36.5,16.2h0.8l0.4-0.7l-0.4-0.7h-0.8l-0.4,0.7L36.5,16.2z"/>
		</g>
		<g>
			<polygon points="37.5,14.2 36.3,14.2 35.8,13.3 36,13.2 36.5,14 37.3,14 37.8,13.2 38,13.3 			"/>
		</g>
		<g>
			<path d="M39.3,24.1h-1.1l-0.6-1l0.6-1h1.1l0.6,1L39.3,24.1z M38.3,23.9h0.8l0.4-0.7l-0.4-0.7h-0.8l-0.4,0.7L38.3,23.9z"/>
		</g>
		<g>
			<path d="M39.3,21.9h-1.1l-0.6-1l0.6-1h1.1l0.6,1L39.3,21.9z M38.3,21.7h0.8l0.4-0.7l-0.4-0.7h-0.8l-0.4,0.7L38.3,21.7z"/>
		</g>
		<g>
			<path d="M39.3,19.7h-1.1l-0.6-1l0.6-1h1.1l0.6,1L39.3,19.7z M38.3,19.5h0.8l0.4-0.7L39.1,18h-0.8l-0.4,0.7L38.3,19.5z"/>
		</g>
		<g>
			<path d="M39.3,17.5h-1.1l-0.6-1l0.6-1h1.1l0.6,1L39.3,17.5z M38.3,17.2h0.8l0.4-0.7l-0.4-0.7h-0.8l-0.4,0.7L38.3,17.2z"/>
		</g>
		<g>
			<path d="M39.3,15.3h-1.1l-0.6-1l0.6-1h1.1l0.6,1L39.3,15.3z M38.3,15h0.8l0.4-0.7l-0.4-0.7h-0.8l-0.4,0.7L38.3,15z"/>
		</g>
		<g>
			<path d="M32,28.6h-1.1l-0.6-1l0.6-1H32l0.6,1L32,28.6z M31,28.3h0.8l0.4-0.7l-0.4-0.7H31l-0.4,0.7L31,28.3z"/>
		</g>
		<g>
			<path d="M33.8,27.5h-1.1l-0.6-1l0.6-1h1.1l0.6,1L33.8,27.5z M32.8,27.2h0.8l0.4-0.7l-0.4-0.7h-0.8l-0.4,0.7L32.8,27.2z"/>
		</g>
		<g>
			<path d="M33.8,25.3h-1.1l-0.6-1l0.6-1h1.1l0.6,1L33.8,25.3z M32.8,25h0.8l0.4-0.7l-0.4-0.7h-0.8l-0.4,0.7L32.8,25z"/>
		</g>
		<g>
			<path d="M33.8,23h-1.1l-0.6-1l0.6-1h1.1l0.6,1L33.8,23z M32.8,22.8h0.8l0.4-0.7l-0.4-0.7h-0.8l-0.4,0.7L32.8,22.8z"/>
		</g>
		<g>
			<path d="M33.8,20.8h-1.1l-0.6-1l0.6-1h1.1l0.6,1L33.8,20.8z M32.8,20.6h0.8l0.4-0.7l-0.4-0.7h-0.8l-0.4,0.7L32.8,20.6z"/>
		</g>
		<g>
			<path d="M33.8,18.6h-1.1l-0.6-1l0.6-1h1.1l0.6,1L33.8,18.6z M32.8,18.3h0.8l0.4-0.7l-0.4-0.7h-0.8l-0.4,0.7L32.8,18.3z"/>
		</g>
		<g>
			<path d="M33.8,16.4h-1.1l-0.6-1l0.6-1h1.1l0.6,1L33.8,16.4z M32.8,16.1h0.8l0.4-0.7l-0.4-0.7h-0.8l-0.4,0.7L32.8,16.1z"/>
		</g>
		<g>
			<polygon points="33.8,14.2 32.7,14.2 32.1,13.2 32.4,13.1 32.8,13.9 33.7,13.9 34.1,13.1 34.3,13.2 			"/>
		</g>
		<g>
			<path d="M35.6,24.1h-1.1l-0.6-1l0.6-1h1.1l0.6,1L35.6,24.1z M34.6,23.8h0.8l0.4-0.7l-0.4-0.7h-0.8l-0.4,0.7L34.6,23.8z"/>
		</g>
		<g>
			<path d="M35.6,21.9h-1.1l-0.6-1l0.6-1h1.1l0.6,1L35.6,21.9z M34.6,21.6h0.8l0.4-0.7l-0.4-0.7h-0.8l-0.4,0.7L34.6,21.6z"/>
		</g>
		<g>
			<path d="M35.6,19.6h-1.1l-0.6-1l0.6-1h1.1l0.6,1L35.6,19.6z M34.6,19.4h0.8l0.4-0.7l-0.4-0.7h-0.8l-0.4,0.7L34.6,19.4z"/>
		</g>
		<g>
			<path d="M35.6,17.4h-1.1l-0.6-1l0.6-1h1.1l0.6,1L35.6,17.4z M34.6,17.2h0.8l0.4-0.7l-0.4-0.7h-0.8l-0.4,0.7L34.6,17.2z"/>
		</g>
		<g>
			<path d="M35.6,15.2h-1.1l-0.6-1l0.6-1h1.1l0.6,1L35.6,15.2z M34.6,15h0.8l0.4-0.7l-0.4-0.7h-0.8l-0.4,0.7L34.6,15z"/>
		</g>
		<g>
			<path d="M32,26.3h-1.1l-0.6-1l0.6-1H32l0.6,1L32,26.3z M31,26.1h0.8l0.4-0.7l-0.4-0.7H31l-0.4,0.7L31,26.1z"/>
		</g>
		<g>
			<path d="M32,24.1h-1.1l-0.6-1l0.6-1H32l0.6,1L32,24.1z M31,23.8h0.8l0.4-0.7l-0.4-0.7H31l-0.4,0.7L31,23.8z"/>
		</g>
		<g>
			<path d="M32,21.9h-1.1l-0.6-1l0.6-1H32l0.6,1L32,21.9z M31,21.6h0.8l0.4-0.7l-0.4-0.7H31l-0.4,0.7L31,21.6z"/>
		</g>
		<g>
			<path d="M32,19.6h-1.1l-0.6-1l0.6-1H32l0.6,1L32,19.6z M31,19.4h0.8l0.4-0.7l-0.4-0.7H31l-0.4,0.7L31,19.4z"/>
		</g>
		<g>
			<polygon points="50,62.1 49.5,61.3 48.7,61.3 48.2,62.1 48,62 48.6,61.1 49.7,61.1 50.2,62 			"/>
		</g>
		<g>
			<path d="M49.7,60.8h-1.1l-0.6-1l0.6-1h1.1l0.6,1L49.7,60.8z M48.7,60.6h0.8l0.4-0.7l-0.4-0.7h-0.8l-0.4,0.7L48.7,60.6z"/>
		</g>
		<g>
			<path d="M49.7,58.6h-1.1l-0.6-1l0.6-1h1.1l0.6,1L49.7,58.6z M48.7,58.4h0.8l0.4-0.7l-0.4-0.7h-0.8l-0.4,0.7L48.7,58.4z"/>
		</g>
		<g>
			<path d="M49.7,56.4h-1.1l-0.6-1l0.6-1h1.1l0.6,1L49.7,56.4z M48.7,56.1h0.8l0.4-0.7l-0.4-0.7h-0.8l-0.4,0.7L48.7,56.1z"/>
		</g>
		<g>
			<path d="M49.7,54.2h-1.1l-0.6-1l0.6-1h1.1l0.6,1L49.7,54.2z M48.7,53.9h0.8l0.4-0.7l-0.4-0.7h-0.8l-0.4,0.7L48.7,53.9z"/>
		</g>
		<g>
			<path d="M49.7,51.9h-1.1L48,51l0.6-1h1.1l0.6,1L49.7,51.9z M48.7,51.7h0.8L50,51l-0.4-0.7h-0.8L48.3,51L48.7,51.7z"/>
		</g>
		<g>
			<path d="M49.7,49.7h-1.1l-0.6-1l0.6-1h1.1l0.6,1L49.7,49.7z M48.7,49.5h0.8l0.4-0.7L49.5,48h-0.8l-0.4,0.7L48.7,49.5z"/>
		</g>
		<g>
			<path d="M49.7,47.5h-1.1l-0.6-1l0.6-1h1.1l0.6,1L49.7,47.5z M48.7,47.3h0.8l0.4-0.7l-0.4-0.7h-0.8l-0.4,0.7L48.7,47.3z"/>
		</g>
		<g>
			<path d="M49.7,45.3h-1.1l-0.6-1l0.6-1h1.1l0.6,1L49.7,45.3z M48.7,45h0.8l0.4-0.7l-0.4-0.7h-0.8l-0.4,0.7L48.7,45z"/>
		</g>
		<g>
			<path d="M49.7,43.1h-1.1l-0.6-1l0.6-1h1.1l0.6,1L49.7,43.1z M48.7,42.8h0.8l0.4-0.7l-0.4-0.7h-0.8l-0.4,0.7L48.7,42.8z"/>
		</g>
		<g>
			<path d="M49.7,40.8h-1.1l-0.6-1l0.6-1h1.1l0.6,1L49.7,40.8z M48.7,40.6h0.8l0.4-0.7l-0.4-0.7h-0.8l-0.4,0.7L48.7,40.6z"/>
		</g>
		<g>
			<path d="M49.7,38.6h-1.1l-0.6-1l0.6-1h1.1l0.6,1L49.7,38.6z M48.7,38.4h0.8l0.4-0.7l-0.4-0.7h-0.8l-0.4,0.7L48.7,38.4z"/>
		</g>
		<g>
			<path d="M49.7,36.4h-1.1l-0.6-1l0.6-1h1.1l0.6,1L49.7,36.4z M48.7,36.2h0.8l0.4-0.7l-0.4-0.7h-0.8l-0.4,0.7L48.7,36.2z"/>
		</g>
		<g>
			<path d="M49.7,34.2h-1.1l-0.6-1l0.6-1h1.1l0.6,1L49.7,34.2z M48.7,33.9h0.8l0.4-0.7l-0.4-0.7h-0.8l-0.4,0.7L48.7,33.9z"/>
		</g>
		<g>
			<path d="M49.7,32h-1.1L48,31l0.6-1h1.1l0.6,1L49.7,32z M48.7,31.7h0.8L50,31l-0.4-0.7h-0.8L48.3,31L48.7,31.7z"/>
		</g>
		<g>
			<path d="M49.7,29.7h-1.1l-0.6-1l0.6-1h1.1l0.6,1L49.7,29.7z M48.7,29.5h0.8l0.4-0.7L49.5,28h-0.8l-0.4,0.7L48.7,29.5z"/>
		</g>
		<g>
			<path d="M49.7,27.5h-1.1l-0.6-1l0.6-1h1.1l0.6,1L49.7,27.5z M48.7,27.3h0.8l0.4-0.7l-0.4-0.7h-0.8l-0.4,0.7L48.7,27.3z"/>
		</g>
		<g>
			<path d="M51.5,57.5h-1.1l-0.6-1l0.6-1h1.1l0.6,1L51.5,57.5z M50.5,57.2h0.8l0.4-0.7l-0.4-0.7h-0.8l-0.4,0.7L50.5,57.2z"/>
		</g>
		<g>
			<path d="M51.5,55.3h-1.1l-0.6-1l0.6-1h1.1l0.6,1L51.5,55.3z M50.5,55h0.8l0.4-0.7l-0.4-0.7h-0.8l-0.4,0.7L50.5,55z"/>
		</g>
		<g>
			<path d="M51.5,53.1h-1.1l-0.6-1l0.6-1h1.1l0.6,1L51.5,53.1z M50.5,52.8h0.8l0.4-0.7l-0.4-0.7h-0.8l-0.4,0.7L50.5,52.8z"/>
		</g>
		<g>
			<path d="M51.5,50.8h-1.1l-0.6-1l0.6-1h1.1l0.6,1L51.5,50.8z M50.5,50.6h0.8l0.4-0.7l-0.4-0.7h-0.8l-0.4,0.7L50.5,50.6z"/>
		</g>
		<g>
			<path d="M51.5,48.6h-1.1l-0.6-1l0.6-1h1.1l0.6,1L51.5,48.6z M50.5,48.4h0.8l0.4-0.7l-0.4-0.7h-0.8l-0.4,0.7L50.5,48.4z"/>
		</g>
		<g>
			<path d="M51.5,46.4h-1.1l-0.6-1l0.6-1h1.1l0.6,1L51.5,46.4z M50.5,46.1h0.8l0.4-0.7l-0.4-0.7h-0.8l-0.4,0.7L50.5,46.1z"/>
		</g>
		<g>
			<path d="M51.5,44.2h-1.1l-0.6-1l0.6-1h1.1l0.6,1L51.5,44.2z M50.5,43.9h0.8l0.4-0.7l-0.4-0.7h-0.8l-0.4,0.7L50.5,43.9z"/>
		</g>
		<g>
			<path d="M51.5,42h-1.1l-0.6-1l0.6-1h1.1l0.6,1L51.5,42z M50.5,41.7h0.8l0.4-0.7l-0.4-0.7h-0.8L50.1,41L50.5,41.7z"/>
		</g>
		<g>
			<path d="M51.5,39.7h-1.1l-0.6-1l0.6-1h1.1l0.6,1L51.5,39.7z M50.5,39.5h0.8l0.4-0.7L51.4,38h-0.8l-0.4,0.7L50.5,39.5z"/>
		</g>
		<g>
			<path d="M51.5,37.5h-1.1l-0.6-1l0.6-1h1.1l0.6,1L51.5,37.5z M50.5,37.3h0.8l0.4-0.7l-0.4-0.7h-0.8l-0.4,0.7L50.5,37.3z"/>
		</g>
		<g>
			<path d="M51.5,35.3h-1.1l-0.6-1l0.6-1h1.1l0.6,1L51.5,35.3z M50.5,35h0.8l0.4-0.7l-0.4-0.7h-0.8l-0.4,0.7L50.5,35z"/>
		</g>
		<g>
			<path d="M51.5,33.1h-1.1l-0.6-1l0.6-1h1.1l0.6,1L51.5,33.1z M50.5,32.8h0.8l0.4-0.7l-0.4-0.7h-0.8l-0.4,0.7L50.5,32.8z"/>
		</g>
		<g>
			<path d="M51.5,30.9h-1.1l-0.6-1l0.6-1h1.1l0.6,1L51.5,30.9z M50.5,30.6h0.8l0.4-0.7l-0.4-0.7h-0.8l-0.4,0.7L50.5,30.6z"/>
		</g>
		<g>
			<path d="M51.5,28.6h-1.1l-0.6-1l0.6-1h1.1l0.6,1L51.5,28.6z M50.5,28.4h0.8l0.4-0.7l-0.4-0.7h-0.8l-0.4,0.7L50.5,28.4z"/>
		</g>
		<g>
			<path d="M51.5,26.4h-1.1l-0.6-1l0.6-1h1.1l0.6,1L51.5,26.4z M50.5,26.2h0.8l0.4-0.7l-0.4-0.7h-0.8l-0.4,0.7L50.5,26.2z"/>
		</g>
		<g>
			<polygon points="46.4,62.1 45.9,61.3 45.1,61.3 44.6,62.1 44.4,62 44.9,61.1 46,61.1 46.6,62 			"/>
		</g>
		<g>
			<path d="M46,60.8h-1.1l-0.6-1l0.6-1H46l0.6,1L46,60.8z M45.1,60.6h0.8l0.4-0.7l-0.4-0.7h-0.8l-0.4,0.7L45.1,60.6z"/>
		</g>
		<g>
			<path d="M46,58.6h-1.1l-0.6-1l0.6-1H46l0.6,1L46,58.6z M45.1,58.4h0.8l0.4-0.7l-0.4-0.7h-0.8l-0.4,0.7L45.1,58.4z"/>
		</g>
		<g>
			<path d="M46,56.4h-1.1l-0.6-1l0.6-1H46l0.6,1L46,56.4z M45.1,56.1h0.8l0.4-0.7l-0.4-0.7h-0.8l-0.4,0.7L45.1,56.1z"/>
		</g>
		<g>
			<path d="M46,54.2h-1.1l-0.6-1l0.6-1H46l0.6,1L46,54.2z M45.1,53.9h0.8l0.4-0.7l-0.4-0.7h-0.8l-0.4,0.7L45.1,53.9z"/>
		</g>
		<g>
			<path d="M46,51.9h-1.1l-0.6-1l0.6-1H46l0.6,1L46,51.9z M45.1,51.7h0.8l0.4-0.7l-0.4-0.7h-0.8L44.6,51L45.1,51.7z"/>
		</g>
		<g>
			<path d="M46,49.7h-1.1l-0.6-1l0.6-1H46l0.6,1L46,49.7z M45.1,49.5h0.8l0.4-0.7L45.9,48h-0.8l-0.4,0.7L45.1,49.5z"/>
		</g>
		<g>
			<path d="M46,47.5h-1.1l-0.6-1l0.6-1H46l0.6,1L46,47.5z M45.1,47.3h0.8l0.4-0.7l-0.4-0.7h-0.8l-0.4,0.7L45.1,47.3z"/>
		</g>
		<g>
			<path d="M46,45.3h-1.1l-0.6-1l0.6-1H46l0.6,1L46,45.3z M45.1,45h0.8l0.4-0.7l-0.4-0.7h-0.8l-0.4,0.7L45.1,45z"/>
		</g>
		<g>
			<path d="M46,43.1h-1.1l-0.6-1l0.6-1H46l0.6,1L46,43.1z M45.1,42.8h0.8l0.4-0.7l-0.4-0.7h-0.8l-0.4,0.7L45.1,42.8z"/>
		</g>
		<g>
			<path d="M46,40.8h-1.1l-0.6-1l0.6-1H46l0.6,1L46,40.8z M45.1,40.6h0.8l0.4-0.7l-0.4-0.7h-0.8l-0.4,0.7L45.1,40.6z"/>
		</g>
		<g>
			<path d="M47.8,61.9h-1.1l-0.6-1l0.6-1h1.1l0.6,1L47.8,61.9z M46.9,61.7h0.8l0.4-0.7l-0.4-0.7h-0.8L46.4,61L46.9,61.7z"/>
		</g>
		<g>
			<path d="M47.8,59.7h-1.1l-0.6-1l0.6-1h1.1l0.6,1L47.8,59.7z M46.9,59.5h0.8l0.4-0.7L47.7,58h-0.8l-0.4,0.7L46.9,59.5z"/>
		</g>
		<g>
			<path d="M47.8,57.5h-1.1l-0.6-1l0.6-1h1.1l0.6,1L47.8,57.5z M46.9,57.2h0.8l0.4-0.7l-0.4-0.7h-0.8l-0.4,0.7L46.9,57.2z"/>
		</g>
		<g>
			<path d="M47.8,55.3h-1.1l-0.6-1l0.6-1h1.1l0.6,1L47.8,55.3z M46.9,55h0.8l0.4-0.7l-0.4-0.7h-0.8l-0.4,0.7L46.9,55z"/>
		</g>
		<g>
			<path d="M47.8,53.1h-1.1l-0.6-1l0.6-1h1.1l0.6,1L47.8,53.1z M46.9,52.8h0.8l0.4-0.7l-0.4-0.7h-0.8l-0.4,0.7L46.9,52.8z"/>
		</g>
		<g>
			<path d="M47.8,50.8h-1.1l-0.6-1l0.6-1h1.1l0.6,1L47.8,50.8z M46.9,50.6h0.8l0.4-0.7l-0.4-0.7h-0.8l-0.4,0.7L46.9,50.6z"/>
		</g>
		<g>
			<path d="M47.8,48.6h-1.1l-0.6-1l0.6-1h1.1l0.6,1L47.8,48.6z M46.9,48.4h0.8l0.4-0.7l-0.4-0.7h-0.8l-0.4,0.7L46.9,48.4z"/>
		</g>
		<g>
			<path d="M47.8,46.4h-1.1l-0.6-1l0.6-1h1.1l0.6,1L47.8,46.4z M46.9,46.1h0.8l0.4-0.7l-0.4-0.7h-0.8l-0.4,0.7L46.9,46.1z"/>
		</g>
		<g>
			<path d="M47.8,44.2h-1.1l-0.6-1l0.6-1h1.1l0.6,1L47.8,44.2z M46.9,43.9h0.8l0.4-0.7l-0.4-0.7h-0.8l-0.4,0.7L46.9,43.9z"/>
		</g>
		<g>
			<path d="M47.8,42h-1.1l-0.6-1l0.6-1h1.1l0.6,1L47.8,42z M46.9,41.7h0.8l0.4-0.7l-0.4-0.7h-0.8L46.4,41L46.9,41.7z"/>
		</g>
		<g>
			<path d="M47.8,39.7h-1.1l-0.6-1l0.6-1h1.1l0.6,1L47.8,39.7z M46.9,39.5h0.8l0.4-0.7L47.7,38h-0.8l-0.4,0.7L46.9,39.5z"/>
		</g>
		<g>
			<path d="M44.2,57.5h-1.1l-0.6-1l0.6-1h1.1l0.6,1L44.2,57.5z M43.2,57.2H44l0.4-0.7L44,55.8h-0.8l-0.4,0.7L43.2,57.2z"/>
		</g>
		<g>
			<path d="M44.2,55.3h-1.1l-0.6-1l0.6-1h1.1l0.6,1L44.2,55.3z M43.2,55H44l0.4-0.7L44,53.6h-0.8l-0.4,0.7L43.2,55z"/>
		</g>
		<g>
			<path d="M44.2,53.1h-1.1l-0.6-1l0.6-1h1.1l0.6,1L44.2,53.1z M43.2,52.8H44l0.4-0.7L44,51.3h-0.8l-0.4,0.7L43.2,52.8z"/>
		</g>
		<g>
			<path d="M44.2,50.8h-1.1l-0.6-1l0.6-1h1.1l0.6,1L44.2,50.8z M43.2,50.6H44l0.4-0.7L44,49.1h-0.8l-0.4,0.7L43.2,50.6z"/>
		</g>
		<g>
			<path d="M44.2,48.6h-1.1l-0.6-1l0.6-1h1.1l0.6,1L44.2,48.6z M43.2,48.4H44l0.4-0.7L44,46.9h-0.8l-0.4,0.7L43.2,48.4z"/>
		</g>
		<g>
			<path d="M44.2,46.4h-1.1l-0.6-1l0.6-1h1.1l0.6,1L44.2,46.4z M43.2,46.1H44l0.4-0.7L44,44.7h-0.8l-0.4,0.7L43.2,46.1z"/>
		</g>
		<g>
			<path d="M44.2,44.2h-1.1l-0.6-1l0.6-1h1.1l0.6,1L44.2,44.2z M43.2,43.9H44l0.4-0.7L44,42.5h-0.8l-0.4,0.7L43.2,43.9z"/>
		</g>
		<g>
			<path d="M44.2,42h-1.1l-0.6-1l0.6-1h1.1l0.6,1L44.2,42z M43.2,41.7H44l0.4-0.7L44,40.2h-0.8L42.8,41L43.2,41.7z"/>
		</g>
		<g>
			<path d="M44.2,39.7h-1.1l-0.6-1l0.6-1h1.1l0.6,1L44.2,39.7z M43.2,39.5H44l0.4-0.7L44,38h-0.8l-0.4,0.7L43.2,39.5z"/>
		</g>
		<g>
			<path d="M51.5,61.9h-1.1l-0.6-1l0.6-1h1.1l0.6,1L51.5,61.9z M50.5,61.7h0.8l0.4-0.7l-0.4-0.7h-0.8L50.1,61L50.5,61.7z"/>
		</g>
		<g>
			<path d="M51.5,59.7h-1.1l-0.6-1l0.6-1h1.1l0.6,1L51.5,59.7z M50.5,59.5h0.8l0.4-0.7L51.4,58h-0.8l-0.4,0.7L50.5,59.5z"/>
		</g>
		<g>
			<path d="M51.5,57.5h-1.1l-0.6-1l0.6-1h1.1l0.6,1L51.5,57.5z M50.5,57.2h0.8l0.4-0.7l-0.4-0.7h-0.8l-0.4,0.7L50.5,57.2z"/>
		</g>
		<g>
			<path d="M51.5,55.3h-1.1l-0.6-1l0.6-1h1.1l0.6,1L51.5,55.3z M50.5,55h0.8l0.4-0.7l-0.4-0.7h-0.8l-0.4,0.7L50.5,55z"/>
		</g>
		<g>
			<path d="M51.5,53.1h-1.1l-0.6-1l0.6-1h1.1l0.6,1L51.5,53.1z M50.5,52.8h0.8l0.4-0.7l-0.4-0.7h-0.8l-0.4,0.7L50.5,52.8z"/>
		</g>
		<g>
			<path d="M51.5,50.8h-1.1l-0.6-1l0.6-1h1.1l0.6,1L51.5,50.8z M50.5,50.6h0.8l0.4-0.7l-0.4-0.7h-0.8l-0.4,0.7L50.5,50.6z"/>
		</g>
		<g>
			<path d="M51.5,48.6h-1.1l-0.6-1l0.6-1h1.1l0.6,1L51.5,48.6z M50.5,48.4h0.8l0.4-0.7l-0.4-0.7h-0.8l-0.4,0.7L50.5,48.4z"/>
		</g>
		<g>
			<path d="M51.5,46.4h-1.1l-0.6-1l0.6-1h1.1l0.6,1L51.5,46.4z M50.5,46.1h0.8l0.4-0.7l-0.4-0.7h-0.8l-0.4,0.7L50.5,46.1z"/>
		</g>
		<g>
			<path d="M51.5,44.2h-1.1l-0.6-1l0.6-1h1.1l0.6,1L51.5,44.2z M50.5,43.9h0.8l0.4-0.7l-0.4-0.7h-0.8l-0.4,0.7L50.5,43.9z"/>
		</g>
		<g>
			<path d="M51.5,42h-1.1l-0.6-1l0.6-1h1.1l0.6,1L51.5,42z M50.5,41.7h0.8l0.4-0.7l-0.4-0.7h-0.8L50.1,41L50.5,41.7z"/>
		</g>
		<g>
			<path d="M51.5,39.7h-1.1l-0.6-1l0.6-1h1.1l0.6,1L51.5,39.7z M50.5,39.5h0.8l0.4-0.7L51.4,38h-0.8l-0.4,0.7L50.5,39.5z"/>
		</g>
		<g>
			<path d="M46,38.6h-1.1l-0.6-1l0.6-1H46l0.6,1L46,38.6z M45.1,38.3h0.8l0.4-0.7l-0.4-0.7h-0.8l-0.4,0.7L45.1,38.3z"/>
		</g>
		<g>
			<path d="M46,36.4h-1.1l-0.6-1l0.6-1H46l0.6,1L46,36.4z M45.1,36.1h0.8l0.4-0.7l-0.4-0.7h-0.8l-0.4,0.7L45.1,36.1z"/>
		</g>
		<g>
			<path d="M46,34.1h-1.1l-0.6-1l0.6-1H46l0.6,1L46,34.1z M45.1,33.9h0.8l0.4-0.7l-0.4-0.7h-0.8l-0.4,0.7L45.1,33.9z"/>
		</g>
		<g>
			<path d="M46,31.9h-1.1l-0.6-1l0.6-1H46l0.6,1L46,31.9z M45.1,31.7h0.8l0.4-0.7l-0.4-0.7h-0.8l-0.4,0.7L45.1,31.7z"/>
		</g>
		<g>
			<path d="M46,29.7h-1.1l-0.6-1l0.6-1H46l0.6,1L46,29.7z M45.1,29.4h0.8l0.4-0.7L45.9,28h-0.8l-0.4,0.7L45.1,29.4z"/>
		</g>
		<g>
			<path d="M47.8,37.5h-1.1l-0.6-1l0.6-1h1.1l0.6,1L47.8,37.5z M46.9,37.2h0.8l0.4-0.7l-0.4-0.7h-0.8l-0.4,0.7L46.9,37.2z"/>
		</g>
		<g>
			<path d="M47.8,35.2h-1.1l-0.6-1l0.6-1h1.1l0.6,1L47.8,35.2z M46.9,35h0.8l0.4-0.7l-0.4-0.7h-0.8l-0.4,0.7L46.9,35z"/>
		</g>
		<g>
			<path d="M47.8,33h-1.1l-0.6-1l0.6-1h1.1l0.6,1L47.8,33z M46.9,32.8h0.8l0.4-0.7l-0.4-0.7h-0.8L46.4,32L46.9,32.8z"/>
		</g>
		<g>
			<path d="M47.8,30.8h-1.1l-0.6-1l0.6-1h1.1l0.6,1L47.8,30.8z M46.9,30.6h0.8l0.4-0.7l-0.4-0.7h-0.8l-0.4,0.7L46.9,30.6z"/>
		</g>
		<g>
			<path d="M47.8,28.6h-1.1l-0.6-1l0.6-1h1.1l0.6,1L47.8,28.6z M46.9,28.3h0.8l0.4-0.7l-0.4-0.7h-0.8l-0.4,0.7L46.9,28.3z"/>
		</g>
		<g>
			<path d="M47.8,26.4h-1.1l-0.6-1l0.6-1h1.1l0.6,1L47.8,26.4z M46.9,26.1h0.8l0.4-0.7l-0.4-0.7h-0.8l-0.4,0.7L46.9,26.1z"/>
		</g>
		<g>
			<path d="M44.2,37.5h-1.1l-0.6-1l0.6-1h1.1l0.6,1L44.2,37.5z M43.2,37.2H44l0.4-0.7L44,35.7h-0.8l-0.4,0.7L43.2,37.2z"/>
		</g>
		<g>
			<path d="M44.2,35.2h-1.1l-0.6-1l0.6-1h1.1l0.6,1L44.2,35.2z M43.2,35H44l0.4-0.7L44,33.5h-0.8l-0.4,0.7L43.2,35z"/>
		</g>
		<g>
			<path d="M44.2,33h-1.1l-0.6-1l0.6-1h1.1l0.6,1L44.2,33z M43.2,32.8H44l0.4-0.7L44,31.3h-0.8L42.8,32L43.2,32.8z"/>
		</g>
		<g>
			<path d="M44.2,30.8h-1.1l-0.6-1l0.6-1h1.1l0.6,1L44.2,30.8z M43.2,30.6H44l0.4-0.7L44,29.1h-0.8l-0.4,0.7L43.2,30.6z"/>
		</g>
		<g>
			<path d="M49.7,25.3h-1.1l-0.6-1l0.6-1h1.1l0.6,1L49.7,25.3z M48.7,25.1h0.8l0.4-0.7l-0.4-0.7h-0.8l-0.4,0.7L48.7,25.1z"/>
		</g>
		<g>
			<path d="M49.7,23.1h-1.1l-0.6-1l0.6-1h1.1l0.6,1L49.7,23.1z M48.7,22.8h0.8l0.4-0.7l-0.4-0.7h-0.8l-0.4,0.7L48.7,22.8z"/>
		</g>
		<g>
			<path d="M49.7,20.9h-1.1l-0.6-1l0.6-1h1.1l0.6,1L49.7,20.9z M48.7,20.6h0.8l0.4-0.7l-0.4-0.7h-0.8l-0.4,0.7L48.7,20.6z"/>
		</g>
		<g>
			<path d="M49.7,18.6h-1.1l-0.6-1l0.6-1h1.1l0.6,1L49.7,18.6z M48.7,18.4h0.8l0.4-0.7l-0.4-0.7h-0.8l-0.4,0.7L48.7,18.4z"/>
		</g>
		<g>
			<path d="M49.7,16.4h-1.1l-0.6-1l0.6-1h1.1l0.6,1L49.7,16.4z M48.7,16.2h0.8l0.4-0.7l-0.4-0.7h-0.8l-0.4,0.7L48.7,16.2z"/>
		</g>
		<g>
			<polygon points="49.7,14.2 48.6,14.2 48,13.3 48.2,13.2 48.7,14 49.5,14 50,13.2 50.2,13.3 			"/>
		</g>
		<g>
			<path d="M51.5,24.1h-1.1l-0.6-1l0.6-1h1.1l0.6,1L51.5,24.1z M50.5,23.9h0.8l0.4-0.7l-0.4-0.7h-0.8l-0.4,0.7L50.5,23.9z"/>
		</g>
		<g>
			<path d="M51.5,21.9h-1.1l-0.6-1l0.6-1h1.1l0.6,1L51.5,21.9z M50.5,21.7h0.8l0.4-0.7l-0.4-0.7h-0.8l-0.4,0.7L50.5,21.7z"/>
		</g>
		<g>
			<path d="M51.5,19.7h-1.1l-0.6-1l0.6-1h1.1l0.6,1L51.5,19.7z M50.5,19.5h0.8l0.4-0.7L51.4,18h-0.8l-0.4,0.7L50.5,19.5z"/>
		</g>
		<g>
			<path d="M51.5,17.5h-1.1l-0.6-1l0.6-1h1.1l0.6,1L51.5,17.5z M50.5,17.2h0.8l0.4-0.7l-0.4-0.7h-0.8l-0.4,0.7L50.5,17.2z"/>
		</g>
		<g>
			<path d="M51.5,15.3h-1.1l-0.6-1l0.6-1h1.1l0.6,1L51.5,15.3z M50.5,15h0.8l0.4-0.7l-0.4-0.7h-0.8l-0.4,0.7L50.5,15z"/>
		</g>
		<g>
			<path d="M44.2,28.6h-1.1l-0.6-1l0.6-1h1.1l0.6,1L44.2,28.6z M43.2,28.3H44l0.4-0.7L44,26.9h-0.8l-0.4,0.7L43.2,28.3z"/>
		</g>
		<g>
			<path d="M46,27.5h-1.1l-0.6-1l0.6-1H46l0.6,1L46,27.5z M45.1,27.2h0.8l0.4-0.7l-0.4-0.7h-0.8l-0.4,0.7L45.1,27.2z"/>
		</g>
		<g>
			<path d="M46,25.3h-1.1l-0.6-1l0.6-1H46l0.6,1L46,25.3z M45.1,25h0.8l0.4-0.7l-0.4-0.7h-0.8l-0.4,0.7L45.1,25z"/>
		</g>
		<g>
			<path d="M46,23h-1.1l-0.6-1l0.6-1H46l0.6,1L46,23z M45.1,22.8h0.8l0.4-0.7l-0.4-0.7h-0.8l-0.4,0.7L45.1,22.8z"/>
		</g>
		<g>
			<path d="M46,20.8h-1.1l-0.6-1l0.6-1H46l0.6,1L46,20.8z M45.1,20.6h0.8l0.4-0.7l-0.4-0.7h-0.8l-0.4,0.7L45.1,20.6z"/>
		</g>
		<g>
			<path d="M46,18.6h-1.1l-0.6-1l0.6-1H46l0.6,1L46,18.6z M45.1,18.3h0.8l0.4-0.7l-0.4-0.7h-0.8l-0.4,0.7L45.1,18.3z"/>
		</g>
		<g>
			<path d="M46,16.4h-1.1l-0.6-1l0.6-1H46l0.6,1L46,16.4z M45.1,16.1h0.8l0.4-0.7l-0.4-0.7h-0.8l-0.4,0.7L45.1,16.1z"/>
		</g>
		<g>
			<polygon points="46,14.2 44.9,14.2 44.4,13.2 44.6,13.1 45.1,13.9 45.9,13.9 46.4,13.1 46.6,13.2 			"/>
		</g>
		<g>
			<path d="M47.8,24.1h-1.1l-0.6-1l0.6-1h1.1l0.6,1L47.8,24.1z M46.9,23.8h0.8l0.4-0.7l-0.4-0.7h-0.8l-0.4,0.7L46.9,23.8z"/>
		</g>
		<g>
			<path d="M47.8,21.9h-1.1l-0.6-1l0.6-1h1.1l0.6,1L47.8,21.9z M46.9,21.6h0.8l0.4-0.7l-0.4-0.7h-0.8l-0.4,0.7L46.9,21.6z"/>
		</g>
		<g>
			<path d="M47.8,19.6h-1.1l-0.6-1l0.6-1h1.1l0.6,1L47.8,19.6z M46.9,19.4h0.8l0.4-0.7l-0.4-0.7h-0.8l-0.4,0.7L46.9,19.4z"/>
		</g>
		<g>
			<path d="M47.8,17.4h-1.1l-0.6-1l0.6-1h1.1l0.6,1L47.8,17.4z M46.9,17.2h0.8l0.4-0.7l-0.4-0.7h-0.8l-0.4,0.7L46.9,17.2z"/>
		</g>
		<g>
			<path d="M47.8,15.2h-1.1l-0.6-1l0.6-1h1.1l0.6,1L47.8,15.2z M46.9,15h0.8l0.4-0.7l-0.4-0.7h-0.8l-0.4,0.7L46.9,15z"/>
		</g>
		<g>
			<path d="M44.2,26.3h-1.1l-0.6-1l0.6-1h1.1l0.6,1L44.2,26.3z M43.2,26.1H44l0.4-0.7L44,24.6h-0.8l-0.4,0.7L43.2,26.1z"/>
		</g>
		<g>
			<path d="M44.2,24.1h-1.1l-0.6-1l0.6-1h1.1l0.6,1L44.2,24.1z M43.2,23.8H44l0.4-0.7L44,22.4h-0.8l-0.4,0.7L43.2,23.8z"/>
		</g>
		<g>
			<path d="M44.2,21.9h-1.1l-0.6-1l0.6-1h1.1l0.6,1L44.2,21.9z M43.2,21.6H44l0.4-0.7L44,20.2h-0.8l-0.4,0.7L43.2,21.6z"/>
		</g>
		<g>
			<path d="M44.2,19.6h-1.1l-0.6-1l0.6-1h1.1l0.6,1L44.2,19.6z M43.2,19.4H44l0.4-0.7L44,17.9h-0.8l-0.4,0.7L43.2,19.4z"/>
		</g>
		<g>
			<polygon points="62.3,62.1 61.8,61.3 60.9,61.3 60.5,62.1 60.3,62 60.8,61.1 61.9,61.1 62.5,62 			"/>
		</g>
		<g>
			<path d="M61.9,60.8h-1.1l-0.6-1l0.6-1h1.1l0.6,1L61.9,60.8z M60.9,60.6h0.8l0.4-0.7l-0.4-0.7h-0.8l-0.4,0.7L60.9,60.6z"/>
		</g>
		<g>
			<path d="M61.9,58.6h-1.1l-0.6-1l0.6-1h1.1l0.6,1L61.9,58.6z M60.9,58.4h0.8l0.4-0.7l-0.4-0.7h-0.8l-0.4,0.7L60.9,58.4z"/>
		</g>
		<g>
			<path d="M61.9,56.4h-1.1l-0.6-1l0.6-1h1.1l0.6,1L61.9,56.4z M60.9,56.1h0.8l0.4-0.7l-0.4-0.7h-0.8l-0.4,0.7L60.9,56.1z"/>
		</g>
		<g>
			<path d="M61.9,54.2h-1.1l-0.6-1l0.6-1h1.1l0.6,1L61.9,54.2z M60.9,53.9h0.8l0.4-0.7l-0.4-0.7h-0.8l-0.4,0.7L60.9,53.9z"/>
		</g>
		<g>
			<path d="M61.9,51.9h-1.1l-0.6-1l0.6-1h1.1l0.6,1L61.9,51.9z M60.9,51.7h0.8l0.4-0.7l-0.4-0.7h-0.8L60.5,51L60.9,51.7z"/>
		</g>
		<g>
			<path d="M61.9,49.7h-1.1l-0.6-1l0.6-1h1.1l0.6,1L61.9,49.7z M60.9,49.5h0.8l0.4-0.7L61.8,48h-0.8l-0.4,0.7L60.9,49.5z"/>
		</g>
		<g>
			<path d="M61.9,47.5h-1.1l-0.6-1l0.6-1h1.1l0.6,1L61.9,47.5z M60.9,47.3h0.8l0.4-0.7l-0.4-0.7h-0.8l-0.4,0.7L60.9,47.3z"/>
		</g>
		<g>
			<path d="M61.9,45.3h-1.1l-0.6-1l0.6-1h1.1l0.6,1L61.9,45.3z M60.9,45h0.8l0.4-0.7l-0.4-0.7h-0.8l-0.4,0.7L60.9,45z"/>
		</g>
		<g>
			<path d="M61.9,43.1h-1.1l-0.6-1l0.6-1h1.1l0.6,1L61.9,43.1z M60.9,42.8h0.8l0.4-0.7l-0.4-0.7h-0.8l-0.4,0.7L60.9,42.8z"/>
		</g>
		<g>
			<path d="M61.9,40.8h-1.1l-0.6-1l0.6-1h1.1l0.6,1L61.9,40.8z M60.9,40.6h0.8l0.4-0.7l-0.4-0.7h-0.8l-0.4,0.7L60.9,40.6z"/>
		</g>
		<g>
			<path d="M61.9,38.6h-1.1l-0.6-1l0.6-1h1.1l0.6,1L61.9,38.6z M60.9,38.4h0.8l0.4-0.7l-0.4-0.7h-0.8l-0.4,0.7L60.9,38.4z"/>
		</g>
		<g>
			<path d="M61.9,36.4h-1.1l-0.6-1l0.6-1h1.1l0.6,1L61.9,36.4z M60.9,36.2h0.8l0.4-0.7l-0.4-0.7h-0.8l-0.4,0.7L60.9,36.2z"/>
		</g>
		<g>
			<path d="M61.9,34.2h-1.1l-0.6-1l0.6-1h1.1l0.6,1L61.9,34.2z M60.9,33.9h0.8l0.4-0.7l-0.4-0.7h-0.8l-0.4,0.7L60.9,33.9z"/>
		</g>
		<g>
			<path d="M61.9,32h-1.1l-0.6-1l0.6-1h1.1l0.6,1L61.9,32z M60.9,31.7h0.8l0.4-0.7l-0.4-0.7h-0.8L60.5,31L60.9,31.7z"/>
		</g>
		<g>
			<path d="M61.9,29.7h-1.1l-0.6-1l0.6-1h1.1l0.6,1L61.9,29.7z M60.9,29.5h0.8l0.4-0.7L61.8,28h-0.8l-0.4,0.7L60.9,29.5z"/>
		</g>
		<g>
			<path d="M61.9,27.5h-1.1l-0.6-1l0.6-1h1.1l0.6,1L61.9,27.5z M60.9,27.3h0.8l0.4-0.7l-0.4-0.7h-0.8l-0.4,0.7L60.9,27.3z"/>
		</g>
		<g>
			<path d="M63.7,57.5h-1.1l-0.6-1l0.6-1h1.1l0.6,1L63.7,57.5z M62.8,57.2h0.8l0.4-0.7l-0.4-0.7h-0.8l-0.4,0.7L62.8,57.2z"/>
		</g>
		<g>
			<path d="M63.7,55.3h-1.1l-0.6-1l0.6-1h1.1l0.6,1L63.7,55.3z M62.8,55h0.8l0.4-0.7l-0.4-0.7h-0.8l-0.4,0.7L62.8,55z"/>
		</g>
		<g>
			<path d="M63.7,53.1h-1.1l-0.6-1l0.6-1h1.1l0.6,1L63.7,53.1z M62.8,52.8h0.8l0.4-0.7l-0.4-0.7h-0.8l-0.4,0.7L62.8,52.8z"/>
		</g>
		<g>
			<path d="M63.7,50.8h-1.1l-0.6-1l0.6-1h1.1l0.6,1L63.7,50.8z M62.8,50.6h0.8l0.4-0.7l-0.4-0.7h-0.8l-0.4,0.7L62.8,50.6z"/>
		</g>
		<g>
			<path d="M63.7,48.6h-1.1l-0.6-1l0.6-1h1.1l0.6,1L63.7,48.6z M62.8,48.4h0.8l0.4-0.7l-0.4-0.7h-0.8l-0.4,0.7L62.8,48.4z"/>
		</g>
		<g>
			<path d="M63.7,46.4h-1.1l-0.6-1l0.6-1h1.1l0.6,1L63.7,46.4z M62.8,46.1h0.8l0.4-0.7l-0.4-0.7h-0.8l-0.4,0.7L62.8,46.1z"/>
		</g>
		<g>
			<path d="M63.7,44.2h-1.1l-0.6-1l0.6-1h1.1l0.6,1L63.7,44.2z M62.8,43.9h0.8l0.4-0.7l-0.4-0.7h-0.8l-0.4,0.7L62.8,43.9z"/>
		</g>
		<g>
			<path d="M63.7,42h-1.1L62,41l0.6-1h1.1l0.6,1L63.7,42z M62.8,41.7h0.8L64,41l-0.4-0.7h-0.8L62.3,41L62.8,41.7z"/>
		</g>
		<g>
			<path d="M63.7,39.7h-1.1l-0.6-1l0.6-1h1.1l0.6,1L63.7,39.7z M62.8,39.5h0.8l0.4-0.7L63.6,38h-0.8l-0.4,0.7L62.8,39.5z"/>
		</g>
		<g>
			<path d="M63.7,37.5h-1.1l-0.6-1l0.6-1h1.1l0.6,1L63.7,37.5z M62.8,37.3h0.8l0.4-0.7l-0.4-0.7h-0.8l-0.4,0.7L62.8,37.3z"/>
		</g>
		<g>
			<path d="M63.7,35.3h-1.1l-0.6-1l0.6-1h1.1l0.6,1L63.7,35.3z M62.8,35h0.8l0.4-0.7l-0.4-0.7h-0.8l-0.4,0.7L62.8,35z"/>
		</g>
		<g>
			<path d="M63.7,33.1h-1.1l-0.6-1l0.6-1h1.1l0.6,1L63.7,33.1z M62.8,32.8h0.8l0.4-0.7l-0.4-0.7h-0.8l-0.4,0.7L62.8,32.8z"/>
		</g>
		<g>
			<path d="M63.7,30.9h-1.1l-0.6-1l0.6-1h1.1l0.6,1L63.7,30.9z M62.8,30.6h0.8l0.4-0.7l-0.4-0.7h-0.8l-0.4,0.7L62.8,30.6z"/>
		</g>
		<g>
			<path d="M63.7,28.6h-1.1l-0.6-1l0.6-1h1.1l0.6,1L63.7,28.6z M62.8,28.4h0.8l0.4-0.7l-0.4-0.7h-0.8l-0.4,0.7L62.8,28.4z"/>
		</g>
		<g>
			<path d="M63.7,26.4h-1.1l-0.6-1l0.6-1h1.1l0.6,1L63.7,26.4z M62.8,26.2h0.8l0.4-0.7l-0.4-0.7h-0.8l-0.4,0.7L62.8,26.2z"/>
		</g>
		<g>
			<polygon points="56.8,62.1 56.6,62 57.1,61.1 58.3,61.1 58.8,62 58.6,62.1 58.1,61.3 57.3,61.3 			"/>
		</g>
		<g>
			<path d="M58.3,60.8h-1.1l-0.6-1l0.6-1h1.1l0.6,1L58.3,60.8z M57.3,60.6h0.8l0.4-0.7l-0.4-0.7h-0.8l-0.4,0.7L57.3,60.6z"/>
		</g>
		<g>
			<path d="M58.3,58.6h-1.1l-0.6-1l0.6-1h1.1l0.6,1L58.3,58.6z M57.3,58.4h0.8l0.4-0.7l-0.4-0.7h-0.8l-0.4,0.7L57.3,58.4z"/>
		</g>
		<g>
			<path d="M58.3,56.4h-1.1l-0.6-1l0.6-1h1.1l0.6,1L58.3,56.4z M57.3,56.1h0.8l0.4-0.7l-0.4-0.7h-0.8l-0.4,0.7L57.3,56.1z"/>
		</g>
		<g>
			<path d="M58.3,54.2h-1.1l-0.6-1l0.6-1h1.1l0.6,1L58.3,54.2z M57.3,53.9h0.8l0.4-0.7l-0.4-0.7h-0.8l-0.4,0.7L57.3,53.9z"/>
		</g>
		<g>
			<path d="M58.3,51.9h-1.1l-0.6-1l0.6-1h1.1l0.6,1L58.3,51.9z M57.3,51.7h0.8l0.4-0.7l-0.4-0.7h-0.8L56.9,51L57.3,51.7z"/>
		</g>
		<g>
			<path d="M58.3,49.7h-1.1l-0.6-1l0.6-1h1.1l0.6,1L58.3,49.7z M57.3,49.5h0.8l0.4-0.7L58.1,48h-0.8l-0.4,0.7L57.3,49.5z"/>
		</g>
		<g>
			<path d="M58.3,47.5h-1.1l-0.6-1l0.6-1h1.1l0.6,1L58.3,47.5z M57.3,47.3h0.8l0.4-0.7l-0.4-0.7h-0.8l-0.4,0.7L57.3,47.3z"/>
		</g>
		<g>
			<path d="M58.3,45.3h-1.1l-0.6-1l0.6-1h1.1l0.6,1L58.3,45.3z M57.3,45h0.8l0.4-0.7l-0.4-0.7h-0.8l-0.4,0.7L57.3,45z"/>
		</g>
		<g>
			<path d="M58.3,43.1h-1.1l-0.6-1l0.6-1h1.1l0.6,1L58.3,43.1z M57.3,42.8h0.8l0.4-0.7l-0.4-0.7h-0.8l-0.4,0.7L57.3,42.8z"/>
		</g>
		<g>
			<path d="M58.3,40.8h-1.1l-0.6-1l0.6-1h1.1l0.6,1L58.3,40.8z M57.3,40.6h0.8l0.4-0.7l-0.4-0.7h-0.8l-0.4,0.7L57.3,40.6z"/>
		</g>
		<g>
			<path d="M60.1,61.9h-1.1l-0.6-1l0.6-1h1.1l0.6,1L60.1,61.9z M59.1,61.7h0.8l0.4-0.7l-0.4-0.7h-0.8L58.7,61L59.1,61.7z"/>
		</g>
		<g>
			<path d="M60.1,59.7h-1.1l-0.6-1l0.6-1h1.1l0.6,1L60.1,59.7z M59.1,59.5h0.8l0.4-0.7L59.9,58h-0.8l-0.4,0.7L59.1,59.5z"/>
		</g>
		<g>
			<path d="M60.1,57.5h-1.1l-0.6-1l0.6-1h1.1l0.6,1L60.1,57.5z M59.1,57.2h0.8l0.4-0.7l-0.4-0.7h-0.8l-0.4,0.7L59.1,57.2z"/>
		</g>
		<g>
			<path d="M60.1,55.3h-1.1l-0.6-1l0.6-1h1.1l0.6,1L60.1,55.3z M59.1,55h0.8l0.4-0.7l-0.4-0.7h-0.8l-0.4,0.7L59.1,55z"/>
		</g>
		<g>
			<path d="M60.1,53.1h-1.1l-0.6-1l0.6-1h1.1l0.6,1L60.1,53.1z M59.1,52.8h0.8l0.4-0.7l-0.4-0.7h-0.8l-0.4,0.7L59.1,52.8z"/>
		</g>
		<g>
			<path d="M60.1,50.8h-1.1l-0.6-1l0.6-1h1.1l0.6,1L60.1,50.8z M59.1,50.6h0.8l0.4-0.7l-0.4-0.7h-0.8l-0.4,0.7L59.1,50.6z"/>
		</g>
		<g>
			<path d="M60.1,48.6h-1.1l-0.6-1l0.6-1h1.1l0.6,1L60.1,48.6z M59.1,48.4h0.8l0.4-0.7l-0.4-0.7h-0.8l-0.4,0.7L59.1,48.4z"/>
		</g>
		<g>
			<path d="M60.1,46.4h-1.1l-0.6-1l0.6-1h1.1l0.6,1L60.1,46.4z M59.1,46.1h0.8l0.4-0.7l-0.4-0.7h-0.8l-0.4,0.7L59.1,46.1z"/>
		</g>
		<g>
			<path d="M60.1,44.2h-1.1l-0.6-1l0.6-1h1.1l0.6,1L60.1,44.2z M59.1,43.9h0.8l0.4-0.7l-0.4-0.7h-0.8l-0.4,0.7L59.1,43.9z"/>
		</g>
		<g>
			<path d="M60.1,42h-1.1l-0.6-1l0.6-1h1.1l0.6,1L60.1,42z M59.1,41.7h0.8l0.4-0.7l-0.4-0.7h-0.8L58.7,41L59.1,41.7z"/>
		</g>
		<g>
			<path d="M60.1,39.7h-1.1l-0.6-1l0.6-1h1.1l0.6,1L60.1,39.7z M59.1,39.5h0.8l0.4-0.7L59.9,38h-0.8l-0.4,0.7L59.1,39.5z"/>
		</g>
		<g>
			<path d="M56.4,57.5h-1.1l-0.6-1l0.6-1h1.1l0.6,1L56.4,57.5z M55.4,57.2h0.8l0.4-0.7l-0.4-0.7h-0.8L55,56.5L55.4,57.2z"/>
		</g>
		<g>
			<path d="M56.4,55.3h-1.1l-0.6-1l0.6-1h1.1l0.6,1L56.4,55.3z M55.4,55h0.8l0.4-0.7l-0.4-0.7h-0.8L55,54.3L55.4,55z"/>
		</g>
		<g>
			<path d="M56.4,53.1h-1.1l-0.6-1l0.6-1h1.1l0.6,1L56.4,53.1z M55.4,52.8h0.8l0.4-0.7l-0.4-0.7h-0.8L55,52.1L55.4,52.8z"/>
		</g>
		<g>
			<path d="M56.4,50.8h-1.1l-0.6-1l0.6-1h1.1l0.6,1L56.4,50.8z M55.4,50.6h0.8l0.4-0.7l-0.4-0.7h-0.8L55,49.8L55.4,50.6z"/>
		</g>
		<g>
			<path d="M56.4,48.6h-1.1l-0.6-1l0.6-1h1.1l0.6,1L56.4,48.6z M55.4,48.4h0.8l0.4-0.7l-0.4-0.7h-0.8L55,47.6L55.4,48.4z"/>
		</g>
		<g>
			<path d="M56.4,46.4h-1.1l-0.6-1l0.6-1h1.1l0.6,1L56.4,46.4z M55.4,46.1h0.8l0.4-0.7l-0.4-0.7h-0.8L55,45.4L55.4,46.1z"/>
		</g>
		<g>
			<path d="M56.4,44.2h-1.1l-0.6-1l0.6-1h1.1l0.6,1L56.4,44.2z M55.4,43.9h0.8l0.4-0.7l-0.4-0.7h-0.8L55,43.2L55.4,43.9z"/>
		</g>
		<g>
			<path d="M56.4,42h-1.1l-0.6-1l0.6-1h1.1l0.6,1L56.4,42z M55.4,41.7h0.8l0.4-0.7l-0.4-0.7h-0.8L55,41L55.4,41.7z"/>
		</g>
		<g>
			<path d="M56.4,39.7h-1.1l-0.6-1l0.6-1h1.1l0.6,1L56.4,39.7z M55.4,39.5h0.8l0.4-0.7L56.3,38h-0.8L55,38.8L55.4,39.5z"/>
		</g>
		<g>
			<path d="M63.7,61.9h-1.1L62,61l0.6-1h1.1l0.6,1L63.7,61.9z M62.8,61.7h0.8L64,61l-0.4-0.7h-0.8L62.3,61L62.8,61.7z"/>
		</g>
		<g>
			<path d="M63.7,59.7h-1.1l-0.6-1l0.6-1h1.1l0.6,1L63.7,59.7z M62.8,59.5h0.8l0.4-0.7L63.6,58h-0.8l-0.4,0.7L62.8,59.5z"/>
		</g>
		<g>
			<path d="M63.7,57.5h-1.1l-0.6-1l0.6-1h1.1l0.6,1L63.7,57.5z M62.8,57.2h0.8l0.4-0.7l-0.4-0.7h-0.8l-0.4,0.7L62.8,57.2z"/>
		</g>
		<g>
			<path d="M63.7,55.3h-1.1l-0.6-1l0.6-1h1.1l0.6,1L63.7,55.3z M62.8,55h0.8l0.4-0.7l-0.4-0.7h-0.8l-0.4,0.7L62.8,55z"/>
		</g>
		<g>
			<path d="M63.7,53.1h-1.1l-0.6-1l0.6-1h1.1l0.6,1L63.7,53.1z M62.8,52.8h0.8l0.4-0.7l-0.4-0.7h-0.8l-0.4,0.7L62.8,52.8z"/>
		</g>
		<g>
			<path d="M63.7,50.8h-1.1l-0.6-1l0.6-1h1.1l0.6,1L63.7,50.8z M62.8,50.6h0.8l0.4-0.7l-0.4-0.7h-0.8l-0.4,0.7L62.8,50.6z"/>
		</g>
		<g>
			<path d="M63.7,48.6h-1.1l-0.6-1l0.6-1h1.1l0.6,1L63.7,48.6z M62.8,48.4h0.8l0.4-0.7l-0.4-0.7h-0.8l-0.4,0.7L62.8,48.4z"/>
		</g>
		<g>
			<path d="M63.7,46.4h-1.1l-0.6-1l0.6-1h1.1l0.6,1L63.7,46.4z M62.8,46.1h0.8l0.4-0.7l-0.4-0.7h-0.8l-0.4,0.7L62.8,46.1z"/>
		</g>
		<g>
			<path d="M63.7,44.2h-1.1l-0.6-1l0.6-1h1.1l0.6,1L63.7,44.2z M62.8,43.9h0.8l0.4-0.7l-0.4-0.7h-0.8l-0.4,0.7L62.8,43.9z"/>
		</g>
		<g>
			<path d="M63.7,42h-1.1L62,41l0.6-1h1.1l0.6,1L63.7,42z M62.8,41.7h0.8L64,41l-0.4-0.7h-0.8L62.3,41L62.8,41.7z"/>
		</g>
		<g>
			<path d="M63.7,39.7h-1.1l-0.6-1l0.6-1h1.1l0.6,1L63.7,39.7z M62.8,39.5h0.8l0.4-0.7L63.6,38h-0.8l-0.4,0.7L62.8,39.5z"/>
		</g>
		<g>
			<path d="M58.3,38.6h-1.1l-0.6-1l0.6-1h1.1l0.6,1L58.3,38.6z M57.3,38.3h0.8l0.4-0.7l-0.4-0.7h-0.8l-0.4,0.7L57.3,38.3z"/>
		</g>
		<g>
			<path d="M58.3,36.4h-1.1l-0.6-1l0.6-1h1.1l0.6,1L58.3,36.4z M57.3,36.1h0.8l0.4-0.7l-0.4-0.7h-0.8l-0.4,0.7L57.3,36.1z"/>
		</g>
		<g>
			<path d="M58.3,34.1h-1.1l-0.6-1l0.6-1h1.1l0.6,1L58.3,34.1z M57.3,33.9h0.8l0.4-0.7l-0.4-0.7h-0.8l-0.4,0.7L57.3,33.9z"/>
		</g>
		<g>
			<path d="M58.3,31.9h-1.1l-0.6-1l0.6-1h1.1l0.6,1L58.3,31.9z M57.3,31.7h0.8l0.4-0.7l-0.4-0.7h-0.8l-0.4,0.7L57.3,31.7z"/>
		</g>
		<g>
			<path d="M58.3,29.7h-1.1l-0.6-1l0.6-1h1.1l0.6,1L58.3,29.7z M57.3,29.4h0.8l0.4-0.7L58.1,28h-0.8l-0.4,0.7L57.3,29.4z"/>
		</g>
		<g>
			<path d="M60.1,37.5h-1.1l-0.6-1l0.6-1h1.1l0.6,1L60.1,37.5z M59.1,37.2h0.8l0.4-0.7l-0.4-0.7h-0.8l-0.4,0.7L59.1,37.2z"/>
		</g>
		<g>
			<path d="M60.1,35.2h-1.1l-0.6-1l0.6-1h1.1l0.6,1L60.1,35.2z M59.1,35h0.8l0.4-0.7l-0.4-0.7h-0.8l-0.4,0.7L59.1,35z"/>
		</g>
		<g>
			<path d="M60.1,33h-1.1l-0.6-1l0.6-1h1.1l0.6,1L60.1,33z M59.1,32.8h0.8l0.4-0.7l-0.4-0.7h-0.8L58.7,32L59.1,32.8z"/>
		</g>
		<g>
			<path d="M60.1,30.8h-1.1l-0.6-1l0.6-1h1.1l0.6,1L60.1,30.8z M59.1,30.6h0.8l0.4-0.7l-0.4-0.7h-0.8l-0.4,0.7L59.1,30.6z"/>
		</g>
		<g>
			<path d="M60.1,28.6h-1.1l-0.6-1l0.6-1h1.1l0.6,1L60.1,28.6z M59.1,28.3h0.8l0.4-0.7l-0.4-0.7h-0.8l-0.4,0.7L59.1,28.3z"/>
		</g>
		<g>
			<path d="M60.1,26.4h-1.1l-0.6-1l0.6-1h1.1l0.6,1L60.1,26.4z M59.1,26.1h0.8l0.4-0.7l-0.4-0.7h-0.8l-0.4,0.7L59.1,26.1z"/>
		</g>
		<g>
			<path d="M56.4,37.5h-1.1l-0.6-1l0.6-1h1.1l0.6,1L56.4,37.5z M55.4,37.2h0.8l0.4-0.7l-0.4-0.7h-0.8L55,36.5L55.4,37.2z"/>
		</g>
		<g>
			<path d="M56.4,35.2h-1.1l-0.6-1l0.6-1h1.1l0.6,1L56.4,35.2z M55.4,35h0.8l0.4-0.7l-0.4-0.7h-0.8L55,34.3L55.4,35z"/>
		</g>
		<g>
			<path d="M56.4,33h-1.1l-0.6-1l0.6-1h1.1l0.6,1L56.4,33z M55.4,32.8h0.8l0.4-0.7l-0.4-0.7h-0.8L55,32L55.4,32.8z"/>
		</g>
		<g>
			<path d="M56.4,30.8h-1.1l-0.6-1l0.6-1h1.1l0.6,1L56.4,30.8z M55.4,30.6h0.8l0.4-0.7l-0.4-0.7h-0.8L55,29.8L55.4,30.6z"/>
		</g>
		<g>
			<path d="M61.9,25.3h-1.1l-0.6-1l0.6-1h1.1l0.6,1L61.9,25.3z M60.9,25.1h0.8l0.4-0.7l-0.4-0.7h-0.8l-0.4,0.7L60.9,25.1z"/>
		</g>
		<g>
			<path d="M61.9,23.1h-1.1l-0.6-1l0.6-1h1.1l0.6,1L61.9,23.1z M60.9,22.8h0.8l0.4-0.7l-0.4-0.7h-0.8l-0.4,0.7L60.9,22.8z"/>
		</g>
		<g>
			<path d="M61.9,20.9h-1.1l-0.6-1l0.6-1h1.1l0.6,1L61.9,20.9z M60.9,20.6h0.8l0.4-0.7l-0.4-0.7h-0.8l-0.4,0.7L60.9,20.6z"/>
		</g>
		<g>
			<path d="M61.9,18.6h-1.1l-0.6-1l0.6-1h1.1l0.6,1L61.9,18.6z M60.9,18.4h0.8l0.4-0.7l-0.4-0.7h-0.8l-0.4,0.7L60.9,18.4z"/>
		</g>
		<g>
			<path d="M61.9,16.4h-1.1l-0.6-1l0.6-1h1.1l0.6,1L61.9,16.4z M60.9,16.2h0.8l0.4-0.7l-0.4-0.7h-0.8l-0.4,0.7L60.9,16.2z"/>
		</g>
		<g>
			<polygon points="61.9,14.2 60.8,14.2 60.3,13.3 60.5,13.2 60.9,14 61.8,14 62.3,13.2 62.5,13.3 			"/>
		</g>
		<g>
			<path d="M63.7,24.1h-1.1l-0.6-1l0.6-1h1.1l0.6,1L63.7,24.1z M62.8,23.9h0.8l0.4-0.7l-0.4-0.7h-0.8l-0.4,0.7L62.8,23.9z"/>
		</g>
		<g>
			<path d="M63.7,21.9h-1.1l-0.6-1l0.6-1h1.1l0.6,1L63.7,21.9z M62.8,21.7h0.8l0.4-0.7l-0.4-0.7h-0.8l-0.4,0.7L62.8,21.7z"/>
		</g>
		<g>
			<path d="M63.7,19.7h-1.1l-0.6-1l0.6-1h1.1l0.6,1L63.7,19.7z M62.8,19.5h0.8l0.4-0.7L63.6,18h-0.8l-0.4,0.7L62.8,19.5z"/>
		</g>
		<g>
			<path d="M63.7,17.5h-1.1l-0.6-1l0.6-1h1.1l0.6,1L63.7,17.5z M62.8,17.2h0.8l0.4-0.7l-0.4-0.7h-0.8l-0.4,0.7L62.8,17.2z"/>
		</g>
		<g>
			<path d="M63.7,15.3h-1.1l-0.6-1l0.6-1h1.1l0.6,1L63.7,15.3z M62.8,15h0.8l0.4-0.7l-0.4-0.7h-0.8l-0.4,0.7L62.8,15z"/>
		</g>
		<g>
			<path d="M56.4,28.6h-1.1l-0.6-1l0.6-1h1.1l0.6,1L56.4,28.6z M55.4,28.3h0.8l0.4-0.7l-0.4-0.7h-0.8L55,27.6L55.4,28.3z"/>
		</g>
		<g>
			<path d="M58.3,27.5h-1.1l-0.6-1l0.6-1h1.1l0.6,1L58.3,27.5z M57.3,27.2h0.8l0.4-0.7l-0.4-0.7h-0.8l-0.4,0.7L57.3,27.2z"/>
		</g>
		<g>
			<path d="M58.3,25.3h-1.1l-0.6-1l0.6-1h1.1l0.6,1L58.3,25.3z M57.3,25h0.8l0.4-0.7l-0.4-0.7h-0.8l-0.4,0.7L57.3,25z"/>
		</g>
		<g>
			<path d="M58.3,23h-1.1l-0.6-1l0.6-1h1.1l0.6,1L58.3,23z M57.3,22.8h0.8l0.4-0.7l-0.4-0.7h-0.8l-0.4,0.7L57.3,22.8z"/>
		</g>
		<g>
			<path d="M58.3,20.8h-1.1l-0.6-1l0.6-1h1.1l0.6,1L58.3,20.8z M57.3,20.6h0.8l0.4-0.7l-0.4-0.7h-0.8l-0.4,0.7L57.3,20.6z"/>
		</g>
		<g>
			<path d="M58.3,18.6h-1.1l-0.6-1l0.6-1h1.1l0.6,1L58.3,18.6z M57.3,18.3h0.8l0.4-0.7l-0.4-0.7h-0.8l-0.4,0.7L57.3,18.3z"/>
		</g>
		<g>
			<path d="M58.3,16.4h-1.1l-0.6-1l0.6-1h1.1l0.6,1L58.3,16.4z M57.3,16.1h0.8l0.4-0.7l-0.4-0.7h-0.8l-0.4,0.7L57.3,16.1z"/>
		</g>
		<g>
			<polygon points="58.3,14.2 57.1,14.2 56.6,13.2 56.8,13.1 57.3,13.9 58.1,13.9 58.6,13.1 58.8,13.2 			"/>
		</g>
		<g>
			<path d="M60.1,24.1h-1.1l-0.6-1l0.6-1h1.1l0.6,1L60.1,24.1z M59.1,23.8h0.8l0.4-0.7l-0.4-0.7h-0.8l-0.4,0.7L59.1,23.8z"/>
		</g>
		<g>
			<path d="M60.1,21.9h-1.1l-0.6-1l0.6-1h1.1l0.6,1L60.1,21.9z M59.1,21.6h0.8l0.4-0.7l-0.4-0.7h-0.8l-0.4,0.7L59.1,21.6z"/>
		</g>
		<g>
			<path d="M60.1,19.6h-1.1l-0.6-1l0.6-1h1.1l0.6,1L60.1,19.6z M59.1,19.4h0.8l0.4-0.7l-0.4-0.7h-0.8l-0.4,0.7L59.1,19.4z"/>
		</g>
		<g>
			<path d="M60.1,17.4h-1.1l-0.6-1l0.6-1h1.1l0.6,1L60.1,17.4z M59.1,17.2h0.8l0.4-0.7l-0.4-0.7h-0.8l-0.4,0.7L59.1,17.2z"/>
		</g>
		<g>
			<path d="M60.1,15.2h-1.1l-0.6-1l0.6-1h1.1l0.6,1L60.1,15.2z M59.1,15h0.8l0.4-0.7l-0.4-0.7h-0.8l-0.4,0.7L59.1,15z"/>
		</g>
		<g>
			<path d="M56.4,26.3h-1.1l-0.6-1l0.6-1h1.1l0.6,1L56.4,26.3z M55.4,26.1h0.8l0.4-0.7l-0.4-0.7h-0.8L55,25.3L55.4,26.1z"/>
		</g>
		<g>
			<path d="M56.4,24.1h-1.1l-0.6-1l0.6-1h1.1l0.6,1L56.4,24.1z M55.4,23.8h0.8l0.4-0.7l-0.4-0.7h-0.8L55,23.1L55.4,23.8z"/>
		</g>
		<g>
			<path d="M56.4,21.9h-1.1l-0.6-1l0.6-1h1.1l0.6,1L56.4,21.9z M55.4,21.6h0.8l0.4-0.7l-0.4-0.7h-0.8L55,20.9L55.4,21.6z"/>
		</g>
		<g>
			<path d="M56.4,19.6h-1.1l-0.6-1l0.6-1h1.1l0.6,1L56.4,19.6z M55.4,19.4h0.8l0.4-0.7l-0.4-0.7h-0.8L55,18.7L55.4,19.4z"/>
		</g>
		<g>
			<polygon points="74.5,62.1 74,61.3 73.2,61.3 72.7,62.1 72.5,62 73,61.1 74.2,61.1 74.7,62 			"/>
		</g>
		<g>
			<path d="M74.2,60.8H73l-0.6-1l0.6-1h1.1l0.6,1L74.2,60.8z M73.2,60.6H74l0.4-0.7L74,59.1h-0.8l-0.4,0.7L73.2,60.6z"/>
		</g>
		<g>
			<path d="M74.2,58.6H73l-0.6-1l0.6-1h1.1l0.6,1L74.2,58.6z M73.2,58.4H74l0.4-0.7L74,56.9h-0.8l-0.4,0.7L73.2,58.4z"/>
		</g>
		<g>
			<path d="M74.2,56.4H73l-0.6-1l0.6-1h1.1l0.6,1L74.2,56.4z M73.2,56.1H74l0.4-0.7L74,54.7h-0.8l-0.4,0.7L73.2,56.1z"/>
		</g>
		<g>
			<path d="M74.2,54.2H73l-0.6-1l0.6-1h1.1l0.6,1L74.2,54.2z M73.2,53.9H74l0.4-0.7L74,52.4h-0.8l-0.4,0.7L73.2,53.9z"/>
		</g>
		<g>
			<path d="M74.2,51.9H73l-0.6-1l0.6-1h1.1l0.6,1L74.2,51.9z M73.2,51.7H74l0.4-0.7L74,50.2h-0.8L72.8,51L73.2,51.7z"/>
		</g>
		<g>
			<path d="M74.2,49.7H73l-0.6-1l0.6-1h1.1l0.6,1L74.2,49.7z M73.2,49.5H74l0.4-0.7L74,48h-0.8l-0.4,0.7L73.2,49.5z"/>
		</g>
		<g>
			<path d="M74.2,47.5H73l-0.6-1l0.6-1h1.1l0.6,1L74.2,47.5z M73.2,47.3H74l0.4-0.7L74,45.8h-0.8l-0.4,0.7L73.2,47.3z"/>
		</g>
		<g>
			<path d="M74.2,45.3H73l-0.6-1l0.6-1h1.1l0.6,1L74.2,45.3z M73.2,45H74l0.4-0.7L74,43.6h-0.8l-0.4,0.7L73.2,45z"/>
		</g>
		<g>
			<path d="M74.2,43.1H73l-0.6-1l0.6-1h1.1l0.6,1L74.2,43.1z M73.2,42.8H74l0.4-0.7L74,41.4h-0.8l-0.4,0.7L73.2,42.8z"/>
		</g>
		<g>
			<path d="M74.2,40.8H73l-0.6-1l0.6-1h1.1l0.6,1L74.2,40.8z M73.2,40.6H74l0.4-0.7L74,39.1h-0.8l-0.4,0.7L73.2,40.6z"/>
		</g>
		<g>
			<path d="M74.2,38.6H73l-0.6-1l0.6-1h1.1l0.6,1L74.2,38.6z M73.2,38.4H74l0.4-0.7L74,36.9h-0.8l-0.4,0.7L73.2,38.4z"/>
		</g>
		<g>
			<path d="M74.2,36.4H73l-0.6-1l0.6-1h1.1l0.6,1L74.2,36.4z M73.2,36.2H74l0.4-0.7L74,34.7h-0.8l-0.4,0.7L73.2,36.2z"/>
		</g>
		<g>
			<path d="M74.2,34.2H73l-0.6-1l0.6-1h1.1l0.6,1L74.2,34.2z M73.2,33.9H74l0.4-0.7L74,32.5h-0.8l-0.4,0.7L73.2,33.9z"/>
		</g>
		<g>
			<path d="M74.2,32H73l-0.6-1l0.6-1h1.1l0.6,1L74.2,32z M73.2,31.7H74l0.4-0.7L74,30.3h-0.8L72.8,31L73.2,31.7z"/>
		</g>
		<g>
			<path d="M74.2,29.7H73l-0.6-1l0.6-1h1.1l0.6,1L74.2,29.7z M73.2,29.5H74l0.4-0.7L74,28h-0.8l-0.4,0.7L73.2,29.5z"/>
		</g>
		<g>
			<path d="M74.2,27.5H73l-0.6-1l0.6-1h1.1l0.6,1L74.2,27.5z M73.2,27.3H74l0.4-0.7L74,25.8h-0.8l-0.4,0.7L73.2,27.3z"/>
		</g>
		<g>
			<path d="M76,57.5h-1.1l-0.6-1l0.6-1H76l0.6,1L76,57.5z M75,57.2h0.8l0.4-0.7l-0.4-0.7H75l-0.4,0.7L75,57.2z"/>
		</g>
		<g>
			<path d="M76,55.3h-1.1l-0.6-1l0.6-1H76l0.6,1L76,55.3z M75,55h0.8l0.4-0.7l-0.4-0.7H75l-0.4,0.7L75,55z"/>
		</g>
		<g>
			<path d="M76,53.1h-1.1l-0.6-1l0.6-1H76l0.6,1L76,53.1z M75,52.8h0.8l0.4-0.7l-0.4-0.7H75l-0.4,0.7L75,52.8z"/>
		</g>
		<g>
			<path d="M76,50.8h-1.1l-0.6-1l0.6-1H76l0.6,1L76,50.8z M75,50.6h0.8l0.4-0.7l-0.4-0.7H75l-0.4,0.7L75,50.6z"/>
		</g>
		<g>
			<path d="M76,48.6h-1.1l-0.6-1l0.6-1H76l0.6,1L76,48.6z M75,48.4h0.8l0.4-0.7l-0.4-0.7H75l-0.4,0.7L75,48.4z"/>
		</g>
		<g>
			<path d="M76,46.4h-1.1l-0.6-1l0.6-1H76l0.6,1L76,46.4z M75,46.1h0.8l0.4-0.7l-0.4-0.7H75l-0.4,0.7L75,46.1z"/>
		</g>
		<g>
			<path d="M76,44.2h-1.1l-0.6-1l0.6-1H76l0.6,1L76,44.2z M75,43.9h0.8l0.4-0.7l-0.4-0.7H75l-0.4,0.7L75,43.9z"/>
		</g>
		<g>
			<path d="M76,42h-1.1l-0.6-1l0.6-1H76l0.6,1L76,42z M75,41.7h0.8l0.4-0.7l-0.4-0.7H75L74.6,41L75,41.7z"/>
		</g>
		<g>
			<path d="M76,39.7h-1.1l-0.6-1l0.6-1H76l0.6,1L76,39.7z M75,39.5h0.8l0.4-0.7L75.8,38H75l-0.4,0.7L75,39.5z"/>
		</g>
		<g>
			<path d="M76,37.5h-1.1l-0.6-1l0.6-1H76l0.6,1L76,37.5z M75,37.3h0.8l0.4-0.7l-0.4-0.7H75l-0.4,0.7L75,37.3z"/>
		</g>
		<g>
			<path d="M76,35.3h-1.1l-0.6-1l0.6-1H76l0.6,1L76,35.3z M75,35h0.8l0.4-0.7l-0.4-0.7H75l-0.4,0.7L75,35z"/>
		</g>
		<g>
			<path d="M76,33.1h-1.1l-0.6-1l0.6-1H76l0.6,1L76,33.1z M75,32.8h0.8l0.4-0.7l-0.4-0.7H75l-0.4,0.7L75,32.8z"/>
		</g>
		<g>
			<path d="M76,30.9h-1.1l-0.6-1l0.6-1H76l0.6,1L76,30.9z M75,30.6h0.8l0.4-0.7l-0.4-0.7H75l-0.4,0.7L75,30.6z"/>
		</g>
		<g>
			<path d="M76,28.6h-1.1l-0.6-1l0.6-1H76l0.6,1L76,28.6z M75,28.4h0.8l0.4-0.7l-0.4-0.7H75l-0.4,0.7L75,28.4z"/>
		</g>
		<g>
			<path d="M76,26.4h-1.1l-0.6-1l0.6-1H76l0.6,1L76,26.4z M75,26.2h0.8l0.4-0.7l-0.4-0.7H75l-0.4,0.7L75,26.2z"/>
		</g>
		<g>
			<polygon points="70.8,62.1 70.4,61.3 69.5,61.3 69.1,62.1 68.9,62 69.4,61.1 70.5,61.1 71,62 			"/>
		</g>
		<g>
			<path d="M70.5,60.8h-1.1l-0.6-1l0.6-1h1.1l0.6,1L70.5,60.8z M69.5,60.6h0.8l0.4-0.7l-0.4-0.7h-0.8l-0.4,0.7L69.5,60.6z"/>
		</g>
		<g>
			<path d="M70.5,58.6h-1.1l-0.6-1l0.6-1h1.1l0.6,1L70.5,58.6z M69.5,58.4h0.8l0.4-0.7l-0.4-0.7h-0.8l-0.4,0.7L69.5,58.4z"/>
		</g>
		<g>
			<path d="M70.5,56.4h-1.1l-0.6-1l0.6-1h1.1l0.6,1L70.5,56.4z M69.5,56.1h0.8l0.4-0.7l-0.4-0.7h-0.8l-0.4,0.7L69.5,56.1z"/>
		</g>
		<g>
			<path d="M70.5,54.2h-1.1l-0.6-1l0.6-1h1.1l0.6,1L70.5,54.2z M69.5,53.9h0.8l0.4-0.7l-0.4-0.7h-0.8l-0.4,0.7L69.5,53.9z"/>
		</g>
		<g>
			<path d="M70.5,51.9h-1.1l-0.6-1l0.6-1h1.1l0.6,1L70.5,51.9z M69.5,51.7h0.8l0.4-0.7l-0.4-0.7h-0.8L69.1,51L69.5,51.7z"/>
		</g>
		<g>
			<path d="M70.5,49.7h-1.1l-0.6-1l0.6-1h1.1l0.6,1L70.5,49.7z M69.5,49.5h0.8l0.4-0.7L70.4,48h-0.8l-0.4,0.7L69.5,49.5z"/>
		</g>
		<g>
			<path d="M70.5,47.5h-1.1l-0.6-1l0.6-1h1.1l0.6,1L70.5,47.5z M69.5,47.3h0.8l0.4-0.7l-0.4-0.7h-0.8l-0.4,0.7L69.5,47.3z"/>
		</g>
		<g>
			<path d="M70.5,45.3h-1.1l-0.6-1l0.6-1h1.1l0.6,1L70.5,45.3z M69.5,45h0.8l0.4-0.7l-0.4-0.7h-0.8l-0.4,0.7L69.5,45z"/>
		</g>
		<g>
			<path d="M70.5,43.1h-1.1l-0.6-1l0.6-1h1.1l0.6,1L70.5,43.1z M69.5,42.8h0.8l0.4-0.7l-0.4-0.7h-0.8l-0.4,0.7L69.5,42.8z"/>
		</g>
		<g>
			<path d="M70.5,40.8h-1.1l-0.6-1l0.6-1h1.1l0.6,1L70.5,40.8z M69.5,40.6h0.8l0.4-0.7l-0.4-0.7h-0.8l-0.4,0.7L69.5,40.6z"/>
		</g>
		<g>
			<path d="M72.3,61.9h-1.1l-0.6-1l0.6-1h1.1l0.6,1L72.3,61.9z M71.3,61.7h0.8l0.4-0.7l-0.4-0.7h-0.8L70.9,61L71.3,61.7z"/>
		</g>
		<g>
			<path d="M72.3,59.7h-1.1l-0.6-1l0.6-1h1.1l0.6,1L72.3,59.7z M71.3,59.5h0.8l0.4-0.7L72.2,58h-0.8l-0.4,0.7L71.3,59.5z"/>
		</g>
		<g>
			<path d="M72.3,57.5h-1.1l-0.6-1l0.6-1h1.1l0.6,1L72.3,57.5z M71.3,57.2h0.8l0.4-0.7l-0.4-0.7h-0.8l-0.4,0.7L71.3,57.2z"/>
		</g>
		<g>
			<path d="M72.3,55.3h-1.1l-0.6-1l0.6-1h1.1l0.6,1L72.3,55.3z M71.3,55h0.8l0.4-0.7l-0.4-0.7h-0.8l-0.4,0.7L71.3,55z"/>
		</g>
		<g>
			<path d="M72.3,53.1h-1.1l-0.6-1l0.6-1h1.1l0.6,1L72.3,53.1z M71.3,52.8h0.8l0.4-0.7l-0.4-0.7h-0.8l-0.4,0.7L71.3,52.8z"/>
		</g>
		<g>
			<path d="M72.3,50.8h-1.1l-0.6-1l0.6-1h1.1l0.6,1L72.3,50.8z M71.3,50.6h0.8l0.4-0.7l-0.4-0.7h-0.8l-0.4,0.7L71.3,50.6z"/>
		</g>
		<g>
			<path d="M72.3,48.6h-1.1l-0.6-1l0.6-1h1.1l0.6,1L72.3,48.6z M71.3,48.4h0.8l0.4-0.7l-0.4-0.7h-0.8l-0.4,0.7L71.3,48.4z"/>
		</g>
		<g>
			<path d="M72.3,46.4h-1.1l-0.6-1l0.6-1h1.1l0.6,1L72.3,46.4z M71.3,46.1h0.8l0.4-0.7l-0.4-0.7h-0.8l-0.4,0.7L71.3,46.1z"/>
		</g>
		<g>
			<path d="M72.3,44.2h-1.1l-0.6-1l0.6-1h1.1l0.6,1L72.3,44.2z M71.3,43.9h0.8l0.4-0.7l-0.4-0.7h-0.8l-0.4,0.7L71.3,43.9z"/>
		</g>
		<g>
			<path d="M72.3,42h-1.1l-0.6-1l0.6-1h1.1l0.6,1L72.3,42z M71.3,41.7h0.8l0.4-0.7l-0.4-0.7h-0.8L70.9,41L71.3,41.7z"/>
		</g>
		<g>
			<path d="M72.3,39.7h-1.1l-0.6-1l0.6-1h1.1l0.6,1L72.3,39.7z M71.3,39.5h0.8l0.4-0.7L72.2,38h-0.8l-0.4,0.7L71.3,39.5z"/>
		</g>
		<g>
			<path d="M68.7,57.5h-1.1l-0.6-1l0.6-1h1.1l0.6,1L68.7,57.5z M67.7,57.2h0.8l0.4-0.7l-0.4-0.7h-0.8l-0.4,0.7L67.7,57.2z"/>
		</g>
		<g>
			<path d="M68.7,55.3h-1.1l-0.6-1l0.6-1h1.1l0.6,1L68.7,55.3z M67.7,55h0.8l0.4-0.7l-0.4-0.7h-0.8l-0.4,0.7L67.7,55z"/>
		</g>
		<g>
			<path d="M68.7,53.1h-1.1l-0.6-1l0.6-1h1.1l0.6,1L68.7,53.1z M67.7,52.8h0.8l0.4-0.7l-0.4-0.7h-0.8l-0.4,0.7L67.7,52.8z"/>
		</g>
		<g>
			<path d="M68.7,50.8h-1.1l-0.6-1l0.6-1h1.1l0.6,1L68.7,50.8z M67.7,50.6h0.8l0.4-0.7l-0.4-0.7h-0.8l-0.4,0.7L67.7,50.6z"/>
		</g>
		<g>
			<path d="M68.7,48.6h-1.1l-0.6-1l0.6-1h1.1l0.6,1L68.7,48.6z M67.7,48.4h0.8l0.4-0.7l-0.4-0.7h-0.8l-0.4,0.7L67.7,48.4z"/>
		</g>
		<g>
			<path d="M68.7,46.4h-1.1l-0.6-1l0.6-1h1.1l0.6,1L68.7,46.4z M67.7,46.1h0.8l0.4-0.7l-0.4-0.7h-0.8l-0.4,0.7L67.7,46.1z"/>
		</g>
		<g>
			<path d="M68.7,44.2h-1.1l-0.6-1l0.6-1h1.1l0.6,1L68.7,44.2z M67.7,43.9h0.8l0.4-0.7l-0.4-0.7h-0.8l-0.4,0.7L67.7,43.9z"/>
		</g>
		<g>
			<path d="M68.7,42h-1.1L67,41l0.6-1h1.1l0.6,1L68.7,42z M67.7,41.7h0.8l0.4-0.7l-0.4-0.7h-0.8L67.3,41L67.7,41.7z"/>
		</g>
		<g>
			<path d="M68.7,39.7h-1.1l-0.6-1l0.6-1h1.1l0.6,1L68.7,39.7z M67.7,39.5h0.8l0.4-0.7L68.5,38h-0.8l-0.4,0.7L67.7,39.5z"/>
		</g>
		<g>
			<path d="M76,61.9h-1.1l-0.6-1l0.6-1H76l0.6,1L76,61.9z M75,61.7h0.8l0.4-0.7l-0.4-0.7H75L74.6,61L75,61.7z"/>
		</g>
		<g>
			<path d="M76,59.7h-1.1l-0.6-1l0.6-1H76l0.6,1L76,59.7z M75,59.5h0.8l0.4-0.7L75.8,58H75l-0.4,0.7L75,59.5z"/>
		</g>
		<g>
			<path d="M76,57.5h-1.1l-0.6-1l0.6-1H76l0.6,1L76,57.5z M75,57.2h0.8l0.4-0.7l-0.4-0.7H75l-0.4,0.7L75,57.2z"/>
		</g>
		<g>
			<path d="M76,55.3h-1.1l-0.6-1l0.6-1H76l0.6,1L76,55.3z M75,55h0.8l0.4-0.7l-0.4-0.7H75l-0.4,0.7L75,55z"/>
		</g>
		<g>
			<path d="M76,53.1h-1.1l-0.6-1l0.6-1H76l0.6,1L76,53.1z M75,52.8h0.8l0.4-0.7l-0.4-0.7H75l-0.4,0.7L75,52.8z"/>
		</g>
		<g>
			<path d="M76,50.8h-1.1l-0.6-1l0.6-1H76l0.6,1L76,50.8z M75,50.6h0.8l0.4-0.7l-0.4-0.7H75l-0.4,0.7L75,50.6z"/>
		</g>
		<g>
			<path d="M76,48.6h-1.1l-0.6-1l0.6-1H76l0.6,1L76,48.6z M75,48.4h0.8l0.4-0.7l-0.4-0.7H75l-0.4,0.7L75,48.4z"/>
		</g>
		<g>
			<path d="M76,46.4h-1.1l-0.6-1l0.6-1H76l0.6,1L76,46.4z M75,46.1h0.8l0.4-0.7l-0.4-0.7H75l-0.4,0.7L75,46.1z"/>
		</g>
		<g>
			<path d="M76,44.2h-1.1l-0.6-1l0.6-1H76l0.6,1L76,44.2z M75,43.9h0.8l0.4-0.7l-0.4-0.7H75l-0.4,0.7L75,43.9z"/>
		</g>
		<g>
			<path d="M76,42h-1.1l-0.6-1l0.6-1H76l0.6,1L76,42z M75,41.7h0.8l0.4-0.7l-0.4-0.7H75L74.6,41L75,41.7z"/>
		</g>
		<g>
			<path d="M76,39.7h-1.1l-0.6-1l0.6-1H76l0.6,1L76,39.7z M75,39.5h0.8l0.4-0.7L75.8,38H75l-0.4,0.7L75,39.5z"/>
		</g>
		<g>
			<path d="M70.5,38.6h-1.1l-0.6-1l0.6-1h1.1l0.6,1L70.5,38.6z M69.5,38.3h0.8l0.4-0.7l-0.4-0.7h-0.8l-0.4,0.7L69.5,38.3z"/>
		</g>
		<g>
			<path d="M70.5,36.4h-1.1l-0.6-1l0.6-1h1.1l0.6,1L70.5,36.4z M69.5,36.1h0.8l0.4-0.7l-0.4-0.7h-0.8l-0.4,0.7L69.5,36.1z"/>
		</g>
		<g>
			<path d="M70.5,34.1h-1.1l-0.6-1l0.6-1h1.1l0.6,1L70.5,34.1z M69.5,33.9h0.8l0.4-0.7l-0.4-0.7h-0.8l-0.4,0.7L69.5,33.9z"/>
		</g>
		<g>
			<path d="M70.5,31.9h-1.1l-0.6-1l0.6-1h1.1l0.6,1L70.5,31.9z M69.5,31.7h0.8l0.4-0.7l-0.4-0.7h-0.8l-0.4,0.7L69.5,31.7z"/>
		</g>
		<g>
			<path d="M70.5,29.7h-1.1l-0.6-1l0.6-1h1.1l0.6,1L70.5,29.7z M69.5,29.4h0.8l0.4-0.7L70.4,28h-0.8l-0.4,0.7L69.5,29.4z"/>
		</g>
		<g>
			<path d="M72.3,37.5h-1.1l-0.6-1l0.6-1h1.1l0.6,1L72.3,37.5z M71.3,37.2h0.8l0.4-0.7l-0.4-0.7h-0.8l-0.4,0.7L71.3,37.2z"/>
		</g>
		<g>
			<path d="M72.3,35.2h-1.1l-0.6-1l0.6-1h1.1l0.6,1L72.3,35.2z M71.3,35h0.8l0.4-0.7l-0.4-0.7h-0.8l-0.4,0.7L71.3,35z"/>
		</g>
		<g>
			<path d="M72.3,33h-1.1l-0.6-1l0.6-1h1.1l0.6,1L72.3,33z M71.3,32.8h0.8l0.4-0.7l-0.4-0.7h-0.8L70.9,32L71.3,32.8z"/>
		</g>
		<g>
			<path d="M72.3,30.8h-1.1l-0.6-1l0.6-1h1.1l0.6,1L72.3,30.8z M71.3,30.6h0.8l0.4-0.7l-0.4-0.7h-0.8l-0.4,0.7L71.3,30.6z"/>
		</g>
		<g>
			<path d="M72.3,28.6h-1.1l-0.6-1l0.6-1h1.1l0.6,1L72.3,28.6z M71.3,28.3h0.8l0.4-0.7l-0.4-0.7h-0.8l-0.4,0.7L71.3,28.3z"/>
		</g>
		<g>
			<path d="M72.3,26.4h-1.1l-0.6-1l0.6-1h1.1l0.6,1L72.3,26.4z M71.3,26.1h0.8l0.4-0.7l-0.4-0.7h-0.8l-0.4,0.7L71.3,26.1z"/>
		</g>
		<g>
			<path d="M68.7,37.5h-1.1l-0.6-1l0.6-1h1.1l0.6,1L68.7,37.5z M67.7,37.2h0.8l0.4-0.7l-0.4-0.7h-0.8l-0.4,0.7L67.7,37.2z"/>
		</g>
		<g>
			<path d="M68.7,35.2h-1.1l-0.6-1l0.6-1h1.1l0.6,1L68.7,35.2z M67.7,35h0.8l0.4-0.7l-0.4-0.7h-0.8l-0.4,0.7L67.7,35z"/>
		</g>
		<g>
			<path d="M68.7,33h-1.1L67,32l0.6-1h1.1l0.6,1L68.7,33z M67.7,32.8h0.8l0.4-0.7l-0.4-0.7h-0.8L67.3,32L67.7,32.8z"/>
		</g>
		<g>
			<path d="M68.7,30.8h-1.1l-0.6-1l0.6-1h1.1l0.6,1L68.7,30.8z M67.7,30.6h0.8l0.4-0.7l-0.4-0.7h-0.8l-0.4,0.7L67.7,30.6z"/>
		</g>
		<g>
			<path d="M74.2,25.3H73l-0.6-1l0.6-1h1.1l0.6,1L74.2,25.3z M73.2,25.1H74l0.4-0.7L74,23.6h-0.8l-0.4,0.7L73.2,25.1z"/>
		</g>
		<g>
			<path d="M74.2,23.1H73l-0.6-1l0.6-1h1.1l0.6,1L74.2,23.1z M73.2,22.8H74l0.4-0.7L74,21.4h-0.8l-0.4,0.7L73.2,22.8z"/>
		</g>
		<g>
			<path d="M74.2,20.9H73l-0.6-1l0.6-1h1.1l0.6,1L74.2,20.9z M73.2,20.6H74l0.4-0.7L74,19.2h-0.8l-0.4,0.7L73.2,20.6z"/>
		</g>
		<g>
			<path d="M74.2,18.6H73l-0.6-1l0.6-1h1.1l0.6,1L74.2,18.6z M73.2,18.4H74l0.4-0.7L74,16.9h-0.8l-0.4,0.7L73.2,18.4z"/>
		</g>
		<g>
			<path d="M74.2,16.4H73l-0.6-1l0.6-1h1.1l0.6,1L74.2,16.4z M73.2,16.2H74l0.4-0.7L74,14.7h-0.8l-0.4,0.7L73.2,16.2z"/>
		</g>
		<g>
			<polygon points="74.2,14.2 73,14.2 72.5,13.3 72.7,13.2 73.2,14 74,14 74.5,13.2 74.7,13.3 			"/>
		</g>
		<g>
			<path d="M76,24.1h-1.1l-0.6-1l0.6-1H76l0.6,1L76,24.1z M75,23.9h0.8l0.4-0.7l-0.4-0.7H75l-0.4,0.7L75,23.9z"/>
		</g>
		<g>
			<path d="M76,21.9h-1.1l-0.6-1l0.6-1H76l0.6,1L76,21.9z M75,21.7h0.8l0.4-0.7l-0.4-0.7H75l-0.4,0.7L75,21.7z"/>
		</g>
		<g>
			<path d="M76,19.7h-1.1l-0.6-1l0.6-1H76l0.6,1L76,19.7z M75,19.5h0.8l0.4-0.7L75.8,18H75l-0.4,0.7L75,19.5z"/>
		</g>
		<g>
			<path d="M76,17.5h-1.1l-0.6-1l0.6-1H76l0.6,1L76,17.5z M75,17.2h0.8l0.4-0.7l-0.4-0.7H75l-0.4,0.7L75,17.2z"/>
		</g>
		<g>
			<path d="M76,15.3h-1.1l-0.6-1l0.6-1H76l0.6,1L76,15.3z M75,15h0.8l0.4-0.7l-0.4-0.7H75l-0.4,0.7L75,15z"/>
		</g>
		<g>
			<path d="M68.7,28.6h-1.1l-0.6-1l0.6-1h1.1l0.6,1L68.7,28.6z M67.7,28.3h0.8l0.4-0.7l-0.4-0.7h-0.8l-0.4,0.7L67.7,28.3z"/>
		</g>
		<g>
			<path d="M70.5,27.5h-1.1l-0.6-1l0.6-1h1.1l0.6,1L70.5,27.5z M69.5,27.2h0.8l0.4-0.7l-0.4-0.7h-0.8l-0.4,0.7L69.5,27.2z"/>
		</g>
		<g>
			<path d="M70.5,25.3h-1.1l-0.6-1l0.6-1h1.1l0.6,1L70.5,25.3z M69.5,25h0.8l0.4-0.7l-0.4-0.7h-0.8l-0.4,0.7L69.5,25z"/>
		</g>
		<g>
			<path d="M70.5,23h-1.1l-0.6-1l0.6-1h1.1l0.6,1L70.5,23z M69.5,22.8h0.8l0.4-0.7l-0.4-0.7h-0.8l-0.4,0.7L69.5,22.8z"/>
		</g>
		<g>
			<path d="M70.5,20.8h-1.1l-0.6-1l0.6-1h1.1l0.6,1L70.5,20.8z M69.5,20.6h0.8l0.4-0.7l-0.4-0.7h-0.8l-0.4,0.7L69.5,20.6z"/>
		</g>
		<g>
			<path d="M70.5,18.6h-1.1l-0.6-1l0.6-1h1.1l0.6,1L70.5,18.6z M69.5,18.3h0.8l0.4-0.7l-0.4-0.7h-0.8l-0.4,0.7L69.5,18.3z"/>
		</g>
		<g>
			<path d="M70.5,16.4h-1.1l-0.6-1l0.6-1h1.1l0.6,1L70.5,16.4z M69.5,16.1h0.8l0.4-0.7l-0.4-0.7h-0.8l-0.4,0.7L69.5,16.1z"/>
		</g>
		<g>
			<polygon points="70.5,14.2 69.4,14.2 68.9,13.2 69.1,13.1 69.5,13.9 70.4,13.9 70.8,13.1 71,13.2 			"/>
		</g>
		<g>
			<path d="M72.3,24.1h-1.1l-0.6-1l0.6-1h1.1l0.6,1L72.3,24.1z M71.3,23.8h0.8l0.4-0.7l-0.4-0.7h-0.8l-0.4,0.7L71.3,23.8z"/>
		</g>
		<g>
			<path d="M72.3,21.9h-1.1l-0.6-1l0.6-1h1.1l0.6,1L72.3,21.9z M71.3,21.6h0.8l0.4-0.7l-0.4-0.7h-0.8l-0.4,0.7L71.3,21.6z"/>
		</g>
		<g>
			<path d="M72.3,19.6h-1.1l-0.6-1l0.6-1h1.1l0.6,1L72.3,19.6z M71.3,19.4h0.8l0.4-0.7l-0.4-0.7h-0.8l-0.4,0.7L71.3,19.4z"/>
		</g>
		<g>
			<path d="M72.3,17.4h-1.1l-0.6-1l0.6-1h1.1l0.6,1L72.3,17.4z M71.3,17.2h0.8l0.4-0.7l-0.4-0.7h-0.8l-0.4,0.7L71.3,17.2z"/>
		</g>
		<g>
			<path d="M72.3,15.2h-1.1l-0.6-1l0.6-1h1.1l0.6,1L72.3,15.2z M71.3,15h0.8l0.4-0.7l-0.4-0.7h-0.8l-0.4,0.7L71.3,15z"/>
		</g>
		<g>
			<path d="M68.7,26.3h-1.1l-0.6-1l0.6-1h1.1l0.6,1L68.7,26.3z M67.7,26.1h0.8l0.4-0.7l-0.4-0.7h-0.8l-0.4,0.7L67.7,26.1z"/>
		</g>
		<g>
			<path d="M68.7,24.1h-1.1l-0.6-1l0.6-1h1.1l0.6,1L68.7,24.1z M67.7,23.8h0.8l0.4-0.7l-0.4-0.7h-0.8l-0.4,0.7L67.7,23.8z"/>
		</g>
		<g>
			<path d="M68.7,21.9h-1.1l-0.6-1l0.6-1h1.1l0.6,1L68.7,21.9z M67.7,21.6h0.8l0.4-0.7l-0.4-0.7h-0.8l-0.4,0.7L67.7,21.6z"/>
		</g>
		<g>
			<path d="M68.7,19.6h-1.1l-0.6-1l0.6-1h1.1l0.6,1L68.7,19.6z M67.7,19.4h0.8l0.4-0.7l-0.4-0.7h-0.8l-0.4,0.7L67.7,19.4z"/>
		</g>
		<g>
			<path d="M87,32h-1.1l-0.6-1l0.6-1H87l0.6,1L87,32z M86,31.7h0.8l0.4-0.7l-0.4-0.7H86L85.5,31L86,31.7z"/>
		</g>
		<g>
			<path d="M87,29.7h-1.1l-0.6-1l0.6-1H87l0.6,1L87,29.7z M86,29.5h0.8l0.4-0.7L86.8,28H86l-0.4,0.7L86,29.5z"/>
		</g>
		<g>
			<path d="M87,27.5h-1.1l-0.6-1l0.6-1H87l0.6,1L87,27.5z M86,27.3h0.8l0.4-0.7l-0.4-0.7H86l-0.4,0.7L86,27.3z"/>
		</g>
		<g>
			<path d="M88.8,33.1h-1.1l-0.6-1l0.6-1h1.1l0.6,1L88.8,33.1z M87.8,32.8h0.8l0.4-0.7l-0.4-0.7h-0.8l-0.4,0.7L87.8,32.8z"/>
		</g>
		<g>
			<path d="M88.8,30.9h-1.1l-0.6-1l0.6-1h1.1l0.6,1L88.8,30.9z M87.8,30.6h0.8l0.4-0.7l-0.4-0.7h-0.8l-0.4,0.7L87.8,30.6z"/>
		</g>
		<g>
			<path d="M88.8,28.6h-1.1l-0.6-1l0.6-1h1.1l0.6,1L88.8,28.6z M87.8,28.4h0.8l0.4-0.7l-0.4-0.7h-0.8l-0.4,0.7L87.8,28.4z"/>
		</g>
		<g>
			<path d="M88.8,26.4h-1.1l-0.6-1l0.6-1h1.1l0.6,1L88.8,26.4z M87.8,26.2h0.8l0.4-0.7l-0.4-0.7h-0.8l-0.4,0.7L87.8,26.2z"/>
		</g>
		<g>
			<polygon points="85.4,32.1 85,31.3 84.1,31.3 83.7,32.1 83.4,32 84,31.1 85.1,31.1 85.6,32 			"/>
		</g>
		<g>
			<path d="M85.1,30.8H84l-0.6-1l0.6-1h1.1l0.6,1L85.1,30.8z M84.1,30.6H85l0.4-0.7L85,29.1h-0.8l-0.4,0.7L84.1,30.6z"/>
		</g>
		<g>
			<path d="M85.1,28.6H84l-0.6-1l0.6-1h1.1l0.6,1L85.1,28.6z M84.1,28.3H85l0.4-0.7L85,26.9h-0.8l-0.4,0.7L84.1,28.3z"/>
		</g>
		<g>
			<path d="M85.1,26.4H84l-0.6-1l0.6-1h1.1l0.6,1L85.1,26.4z M84.1,26.1H85l0.4-0.7L85,24.6h-0.8l-0.4,0.7L84.1,26.1z"/>
		</g>
		<g>
			<path d="M87,25.3h-1.1l-0.6-1l0.6-1H87l0.6,1L87,25.3z M86,25.1h0.8l0.4-0.7l-0.4-0.7H86l-0.4,0.7L86,25.1z"/>
		</g>
		<g>
			<path d="M87,23.1h-1.1l-0.6-1l0.6-1H87l0.6,1L87,23.1z M86,22.8h0.8l0.4-0.7l-0.4-0.7H86l-0.4,0.7L86,22.8z"/>
		</g>
		<g>
			<path d="M87,20.9h-1.1l-0.6-1l0.6-1H87l0.6,1L87,20.9z M86,20.6h0.8l0.4-0.7l-0.4-0.7H86l-0.4,0.7L86,20.6z"/>
		</g>
		<g>
			<path d="M87,18.6h-1.1l-0.6-1l0.6-1H87l0.6,1L87,18.6z M86,18.4h0.8l0.4-0.7l-0.4-0.7H86l-0.4,0.7L86,18.4z"/>
		</g>
		<g>
			<path d="M87,16.4h-1.1l-0.6-1l0.6-1H87l0.6,1L87,16.4z M86,16.2h0.8l0.4-0.7l-0.4-0.7H86l-0.4,0.7L86,16.2z"/>
		</g>
		<g>
			<polygon points="87,14.2 85.8,14.2 85.3,13.3 85.5,13.2 86,14 86.8,14 87.3,13.2 87.5,13.3 			"/>
		</g>
		<g>
			<path d="M88.8,24.1h-1.1l-0.6-1l0.6-1h1.1l0.6,1L88.8,24.1z M87.8,23.9h0.8l0.4-0.7l-0.4-0.7h-0.8l-0.4,0.7L87.8,23.9z"/>
		</g>
		<g>
			<path d="M88.8,21.9h-1.1l-0.6-1l0.6-1h1.1l0.6,1L88.8,21.9z M87.8,21.7h0.8l0.4-0.7l-0.4-0.7h-0.8l-0.4,0.7L87.8,21.7z"/>
		</g>
		<g>
			<path d="M88.8,19.7h-1.1l-0.6-1l0.6-1h1.1l0.6,1L88.8,19.7z M87.8,19.5h0.8l0.4-0.7L88.6,18h-0.8l-0.4,0.7L87.8,19.5z"/>
		</g>
		<g>
			<path d="M88.8,17.5h-1.1l-0.6-1l0.6-1h1.1l0.6,1L88.8,17.5z M87.8,17.2h0.8l0.4-0.7l-0.4-0.7h-0.8l-0.4,0.7L87.8,17.2z"/>
		</g>
		<g>
			<path d="M88.8,15.3h-1.1l-0.6-1l0.6-1h1.1l0.6,1L88.8,15.3z M87.8,15h0.8l0.4-0.7l-0.4-0.7h-0.8l-0.4,0.7L87.8,15z"/>
		</g>
		<g>
			<polygon points="81.9,15.5 81.6,15.3 82.2,14.4 83.3,14.4 83.8,15.3 83.6,15.5 83.2,14.7 82.3,14.7 			"/>
		</g>
		<g>
			<polygon points="83.3,14.2 82.2,14.2 81.6,13.2 81.9,13.1 82.3,13.9 83.2,13.9 83.6,13.1 83.8,13.2 			"/>
		</g>
		<g>
			<polygon points="85.1,24.1 84,24.1 84,23.8 85,23.8 85.4,23.1 84.9,22.3 85.1,22.2 85.7,23.1 			"/>
		</g>
		<g>
			<path d="M85.1,17.4H84l-0.6-1l0.6-1h1.1l0.6,1L85.1,17.4z M84.1,17.2H85l0.4-0.7L85,15.7h-0.8l-0.4,0.7L84.1,17.2z"/>
		</g>
		<g>
			<path d="M85.1,15.2H84l-0.6-1l0.6-1h1.1l0.6,1L85.1,15.2z M84.1,15H85l0.4-0.7L85,13.5h-0.8l-0.4,0.7L84.1,15z"/>
		</g>
		<g>
			<path d="M5.2,67.2H0V0h5.2V67.2z M1.4,65.8h2.4V1.4H1.4V65.8z"/>
		</g>
		<g>
			<path d="M94.7,67.2h-5.2V0h5.2V67.2z M90.9,65.8h2.4V1.4h-2.4V65.8z"/>
		</g>
		<g>
			<path d="M29.7,67.2H16V0h13.7V67.2z M17.4,65.8h10.9V1.4H17.4V65.8z"/>
		</g>
		<g>
			<path d="M17.5,67.2H3.8V0h13.7V67.2z M5.2,65.8h10.9V1.4H5.2V65.8z"/>
		</g>
		<g>
			<polygon points="11.6,34.1 11.4,34 11.9,33.1 13,33.1 13.6,34 13.4,34.1 12.9,33.3 12.1,33.3 			"/>
		</g>
		<g>
			<path d="M13,32.8h-1.1l-0.6-1l0.6-1H13l0.6,1L13,32.8z M12.1,32.6h0.8l0.4-0.7l-0.4-0.7h-0.8l-0.4,0.7L12.1,32.6z"/>
		</g>
		<g>
			<polygon points="9.7,34.1 9.2,33.3 8.4,33.3 7.9,34.1 7.7,34 8.2,33.1 9.4,33.1 9.9,34 			"/>
		</g>
		<g>
			<path d="M9.4,32.8H8.2l-0.6-1l0.6-1h1.1l0.6,1L9.4,32.8z M8.4,32.6h0.8l0.4-0.7l-0.4-0.7H8.4L8,31.8L8.4,32.6z"/>
		</g>
		<g>
			<path d="M11.2,33.9h-1.1l-0.6-1l0.6-1h1.1l0.6,1L11.2,33.9z M10.2,33.7H11l0.4-0.7L11,32.2h-0.8l-0.4,0.7L10.2,33.7z"/>
		</g>
		<g>
			<polygon points="11.2,31.7 10.1,31.7 9.5,30.8 9.7,30.7 10.2,31.5 11,31.5 11.5,30.7 11.7,30.8 			"/>
		</g>
		<g>
			<polygon points="7.5,31.7 6.4,31.7 5.9,30.8 6.1,30.7 6.5,31.5 7.4,31.5 7.9,30.7 8.1,30.8 			"/>
		</g>
		<g>
			<path d="M14.8,33.9h-1.1l-0.6-1l0.6-1h1.1l0.6,1L14.8,33.9z M13.9,33.7h0.8l0.4-0.7l-0.4-0.7h-0.8l-0.4,0.7L13.9,33.7z"/>
		</g>
		<g>
			<path d="M7.5,33.9H6.4l-0.6-1l0.6-1h1.1l0.6,1L7.5,33.9z M6.5,33.7h0.8l0.4-0.7l-0.4-0.7H6.5l-0.4,0.7L6.5,33.7z"/>
		</g>
		<g>
			<polygon points="14.8,31.7 13.7,31.7 13.2,30.8 13.4,30.7 13.9,31.5 14.7,31.5 15.2,30.7 15.4,30.8 			"/>
		</g>
		<g>
			<polygon points="25.6,34.1 25.1,33.3 24.3,33.3 23.8,34.1 23.6,34 24.1,33.1 25.3,33.1 25.8,34 			"/>
		</g>
		<g>
			<path d="M25.3,32.8h-1.1l-0.6-1l0.6-1h1.1l0.6,1L25.3,32.8z M24.3,32.6h0.8l0.4-0.7l-0.4-0.7h-0.8l-0.4,0.7L24.3,32.6z"/>
		</g>
		<g>
			<polygon points="21.9,34.1 21.5,33.3 20.6,33.3 20.2,34.1 20,34 20.5,33.1 21.6,33.1 22.1,34 			"/>
		</g>
		<g>
			<path d="M21.6,32.8h-1.1l-0.6-1l0.6-1h1.1l0.6,1L21.6,32.8z M20.6,32.6h0.8l0.4-0.7l-0.4-0.7h-0.8l-0.4,0.7L20.6,32.6z"/>
		</g>
		<g>
			<path d="M23.4,33.9h-1.1l-0.6-1l0.6-1h1.1l0.6,1L23.4,33.9z M22.4,33.7h0.8l0.4-0.7l-0.4-0.7h-0.8L22,32.9L22.4,33.7z"/>
		</g>
		<g>
			<polygon points="23.4,31.7 22.3,31.7 21.8,30.8 22,30.7 22.4,31.5 23.3,31.5 23.7,30.7 24,30.8 			"/>
		</g>
		<g>
			<polygon points="19.8,31.7 18.6,31.7 18.1,30.8 18.3,30.7 18.8,31.5 19.6,31.5 20.1,30.7 20.3,30.8 			"/>
		</g>
		<g>
			<path d="M27.1,33.9h-1.1l-0.6-1l0.6-1h1.1l0.6,1L27.1,33.9z M26.1,33.7h0.8l0.4-0.7l-0.4-0.7h-0.8l-0.4,0.7L26.1,33.7z"/>
		</g>
		<g>
			<path d="M19.8,33.9h-1.1l-0.6-1l0.6-1h1.1l0.6,1L19.8,33.9z M18.8,33.7h0.8l0.4-0.7l-0.4-0.7h-0.8l-0.4,0.7L18.8,33.7z"/>
		</g>
		<g>
			<polygon points="27.1,31.7 25.9,31.7 25.4,30.8 25.6,30.7 26.1,31.5 26.9,31.5 27.4,30.7 27.6,30.8 			"/>
		</g>
		<g>
			<polygon points="11.6,62.1 11.4,62 11.9,61 13,61 13.6,62 13.4,62.1 12.9,61.3 12.1,61.3 			"/>
		</g>
		<g>
			<path d="M14.8,61.9h-1.1l-0.6-1l0.6-1h1.1l0.6,1L14.8,61.9z M13.9,61.6h0.8l0.4-0.7l-0.4-0.7h-0.8l-0.4,0.7L13.9,61.6z"/>
		</g>
		<g>
			<polygon points="9.7,62.1 9.2,61.3 8.4,61.3 7.9,62.1 7.7,62 8.2,61 9.4,61 9.9,62 			"/>
		</g>
		<g>
			<path d="M11.2,61.9h-1.1l-0.6-1l0.6-1h1.1l0.6,1L11.2,61.9z M10.2,61.6H11l0.4-0.7L11,60.2h-0.8l-0.4,0.7L10.2,61.6z"/>
		</g>
		<g>
			<path d="M7.5,61.9H6.4l-0.6-1l0.6-1h1.1l0.6,1L7.5,61.9z M6.5,61.6h0.8l0.4-0.7l-0.4-0.7H6.5l-0.4,0.7L6.5,61.6z"/>
		</g>
		<g>
			<path d="M14.8,61.9h-1.1l-0.6-1l0.6-1h1.1l0.6,1L14.8,61.9z M13.9,61.6h0.8l0.4-0.7l-0.4-0.7h-0.8l-0.4,0.7L13.9,61.6z"/>
		</g>
		<g>
			<polygon points="25.6,62.1 25.1,61.3 24.3,61.3 23.8,62.1 23.6,62 24.1,61 25.3,61 25.8,62 			"/>
		</g>
		<g>
			<path d="M27.1,61.9h-1.1l-0.6-1l0.6-1h1.1l0.6,1L27.1,61.9z M26.1,61.6h0.8l0.4-0.7l-0.4-0.7h-0.8l-0.4,0.7L26.1,61.6z"/>
		</g>
		<g>
			<polygon points="21.9,62.1 21.5,61.3 20.6,61.3 20.2,62.1 20,62 20.5,61 21.6,61 22.1,62 			"/>
		</g>
		<g>
			<path d="M23.4,61.9h-1.1l-0.6-1l0.6-1h1.1l0.6,1L23.4,61.9z M22.4,61.6h0.8l0.4-0.7l-0.4-0.7h-0.8L22,60.9L22.4,61.6z"/>
		</g>
		<g>
			<path d="M19.8,61.9h-1.1l-0.6-1l0.6-1h1.1l0.6,1L19.8,61.9z M18.8,61.6h0.8l0.4-0.7l-0.4-0.7h-0.8l-0.4,0.7L18.8,61.6z"/>
		</g>
		<g>
			<path d="M27.1,61.9h-1.1l-0.6-1l0.6-1h1.1l0.6,1L27.1,61.9z M26.1,61.6h0.8l0.4-0.7l-0.4-0.7h-0.8l-0.4,0.7L26.1,61.6z"/>
		</g>
		<g>
			<path d="M41.9,67.2H28.3V0h13.7V67.2z M29.7,65.8h10.9V1.4H29.7V65.8z"/>
		</g>
		<g>
			<path d="M54.2,67.2H40.5V0h13.7V67.2z M41.9,65.8h10.9V1.4H41.9V65.8z"/>
		</g>
		<g>
			<path d="M66.4,67.2H52.7V0h13.7V67.2z M54.1,65.8H65V1.4H54.1V65.8z"/>
		</g>
		<g>
			<path d="M78.7,67.2H65V0h13.7V67.2z M66.4,65.8h10.9V1.4H66.4V65.8z"/>
		</g>
		<g>
			<path d="M90.9,67.2H77.2V0h13.7V67.2z M78.6,65.8h10.9V1.4H78.6V65.8z"/>
		</g>
		<g>
			<polygon points="11.8,3.9 10.9,3 9.9,3.9 10.4,4.4 8,6.7 9,7.6 9.9,6.7 9.4,6.2 			"/>
		</g>
		<g>
			<rect x="6.6" y="3.9" transform="matrix(0.7071 -0.7071 0.7071 0.7071 -0.8332 7.2054)" width="3.3" height="1.3"/>
		</g>
		<g>
			<rect x="9.9" y="5.3" transform="matrix(0.7071 -0.7071 0.7071 0.7071 -0.8661 9.9215)" width="3.3" height="1.3"/>
		</g>
		<g>
			<polygon points="24.3,3.9 23.4,3 22.5,3.9 22.9,4.4 20.6,6.7 21.5,7.6 22.5,6.7 22,6.2 			"/>
		</g>
		<g>
			<rect x="19.2" y="3.9" transform="matrix(0.7071 -0.7071 0.7071 0.7071 2.8439 16.0742)" width="3.3" height="1.3"/>
		</g>
		<g>
			<rect x="22.4" y="5.3" transform="matrix(0.7071 -0.7071 0.7071 0.7071 2.8069 18.7945)" width="3.3" height="1.3"/>
		</g>
		<g>
			<polygon points="36.5,3.9 35.6,3 34.7,3.9 35.1,4.4 32.8,6.7 33.7,7.6 34.7,6.7 34.2,6.2 			"/>
		</g>
		<g>
			<rect x="31.4" y="3.9" transform="matrix(0.7071 -0.7071 0.7071 0.7071 6.4139 24.6996)" width="3.3" height="1.3"/>
		</g>
		<g>
			<rect x="34.6" y="5.4" transform="matrix(0.7071 -0.7071 0.7071 0.7071 6.3769 27.4198)" width="3.3" height="1.3"/>
		</g>
		<g>
			<polygon points="48.7,3.9 47.8,3 46.9,3.9 47.3,4.4 45,6.7 45.9,7.6 46.8,6.7 46.4,6.2 			"/>
		</g>
		<g>
			<rect x="43.6" y="4" transform="matrix(0.7071 -0.7071 0.7071 0.7071 9.9868 33.332)" width="3.3" height="1.3"/>
		</g>
		<g>
			<rect x="46.8" y="5.4" transform="matrix(0.7071 -0.7071 0.7071 0.7071 9.9469 36.0452)" width="3.3" height="1.3"/>
		</g>
		<g>
			<polygon points="60.9,3.9 60,3 59.1,3.9 59.5,4.4 57.2,6.7 58.1,7.6 59,6.7 58.6,6.2 			"/>
		</g>
		<g>
			<rect x="55.8" y="3.9" transform="matrix(0.7071 -0.7071 0.7071 0.7071 13.5639 41.9544)" width="3.3" height="1.3"/>
		</g>
		<g>
			<rect x="59" y="5.3" transform="matrix(0.7071 -0.7071 0.7071 0.7071 13.5269 44.6746)" width="3.3" height="1.3"/>
		</g>
		<g>
			<polygon points="73.1,3.9 72.2,3 71.3,3.9 71.7,4.4 69.4,6.7 70.3,7.6 71.2,6.7 70.8,6.2 			"/>
		</g>
		<g>
			<rect x="68" y="3.9" transform="matrix(0.7071 -0.7071 0.7071 0.7071 17.1339 50.5797)" width="3.3" height="1.3"/>
		</g>
		<g>
			<rect x="71.2" y="5.4" transform="matrix(0.7071 -0.7071 0.7071 0.7071 17.0969 53.3)" width="3.3" height="1.3"/>
		</g>
		<g>
			<polygon points="85.3,3.9 84.4,3 83.5,3.9 83.9,4.4 81.6,6.7 82.5,7.6 83.4,6.7 83,6.2 			"/>
		</g>
		<g>
			<rect x="80.2" y="4" transform="matrix(0.7071 -0.7071 0.7071 0.7071 20.7068 59.2121)" width="3.3" height="1.3"/>
		</g>
		<g>
			<rect x="83.4" y="5.4" transform="matrix(0.7071 -0.7071 0.7071 0.7071 20.6669 61.9253)" width="3.3" height="1.3"/>
		</g>
		<g>
			<circle cx="10.2" cy="8.8" r="0.5"/>
		</g>
		<g>
			<circle cx="8.7" cy="8.8" r="0.5"/>
		</g>
		<g>
			<circle cx="7.2" cy="8.8" r="0.5"/>
		</g>
		<g>
			<circle cx="13.2" cy="8.8" r="0.5"/>
		</g>
		<g>
			<circle cx="14.2" cy="8.8" r="0.5"/>
		</g>
		<g>
			<circle cx="11.7" cy="8.8" r="0.5"/>
		</g>
		<g>
			<rect x="13.2" y="8.3" width="1" height="1"/>
		</g>
		<g>
			<circle cx="22.4" cy="8.8" r="0.5"/>
		</g>
		<g>
			<circle cx="20.9" cy="8.8" r="0.5"/>
		</g>
		<g>
			<circle cx="19.4" cy="8.8" r="0.5"/>
		</g>
		<g>
			<circle cx="25.4" cy="8.8" r="0.5"/>
		</g>
		<g>
			<circle cx="26.4" cy="8.8" r="0.5"/>
		</g>
		<g>
			<circle cx="23.9" cy="8.8" r="0.5"/>
		</g>
		<g>
			<rect x="25.4" y="8.3" width="1" height="1"/>
		</g>
		<g>
			<circle cx="34.7" cy="8.8" r="0.5"/>
		</g>
		<g>
			<circle cx="33.2" cy="8.8" r="0.5"/>
		</g>
		<g>
			<circle cx="31.6" cy="8.8" r="0.5"/>
		</g>
		<g>
			<circle cx="37.7" cy="8.8" r="0.5"/>
		</g>
		<g>
			<circle cx="38.7" cy="8.8" r="0.5"/>
		</g>
		<g>
			<circle cx="36.2" cy="8.8" r="0.5"/>
		</g>
		<g>
			<rect x="37.7" y="8.3" width="1" height="1"/>
		</g>
		<g>
			<rect x="5.9" y="14.6" width="0.8" height="1.8"/>
		</g>
		<g>
			<rect x="5.9" y="62.3" width="0.8" height="1.8"/>
		</g>
		<g>
			<rect x="30.4" y="12.6" width="0.8" height="1.8"/>
		</g>
		<g>
			<rect x="30.4" y="62.3" width="0.8" height="1.8"/>
		</g>
		<g>
			<polygon points="13.3,24.6 14.5,24.6 14.5,22.3 13.3,22.3 13.3,21.7 11.1,21.7 11.1,25.2 13.3,25.2 			"/>
		</g>
		<g>
			<polygon points="8.1,22.3 6.9,22.3 6.9,24.6 8.1,24.6 8.1,25.2 10.4,25.2 10.4,21.7 8.1,21.7 			"/>
		</g>
		<g>
			<polygon points="13.3,20.4 14.5,20.4 14.5,18.1 13.3,18.1 13.3,17.6 11.1,17.6 11.1,21 13.3,21 			"/>
		</g>
		<g>
			<polygon points="8.1,18.1 6.9,18.1 6.9,20.4 8.1,20.4 8.1,21 10.4,21 10.4,17.6 8.1,17.6 			"/>
		</g>
		<g>
			<rect x="6.9" y="26" width="2.2" height="3.4"/>
		</g>
		<g>
			<rect x="12.3" y="26" width="2.2" height="3.4"/>
		</g>
		<g>
			<rect x="11" y="47.7" width="3.4" height="3.5"/>
		</g>
		<g>
			<rect x="6.9" y="47.7" width="3.4" height="3.5"/>
		</g>
		<g>
			<rect x="11" y="51.7" width="3.4" height="3.5"/>
		</g>
		<g>
			<rect x="6.9" y="51.7" width="3.4" height="3.5"/>
		</g>
		<g>
			<rect x="11" y="55.7" width="3.4" height="3.5"/>
		</g>
		<g>
			<rect x="6.9" y="55.7" width="3.4" height="3.5"/>
		</g>
		<g>
			<rect x="11" y="35.7" width="3.4" height="3.5"/>
		</g>
		<g>
			<rect x="6.9" y="35.7" width="3.4" height="3.5"/>
		</g>
		<g>
			<rect x="11" y="39.7" width="3.4" height="3.5"/>
		</g>
		<g>
			<rect x="6.9" y="39.7" width="3.4" height="3.5"/>
		</g>
		<g>
			<rect x="11" y="43.7" width="3.4" height="3.5"/>
		</g>
		<g>
			<rect x="6.9" y="43.7" width="3.4" height="3.5"/>
		</g>
		<g>
			<rect x="23.2" y="47.7" width="3.4" height="3.5"/>
		</g>
		<g>
			<rect x="19.1" y="47.7" width="3.4" height="3.5"/>
		</g>
		<g>
			<rect x="23.2" y="51.7" width="3.4" height="3.5"/>
		</g>
		<g>
			<rect x="19.1" y="51.7" width="3.4" height="3.5"/>
		</g>
		<g>
			<rect x="23.2" y="55.7" width="3.4" height="3.5"/>
		</g>
		<g>
			<rect x="19.1" y="55.7" width="3.4" height="3.5"/>
		</g>
		<g>
			<rect x="84.2" y="52.7" width="3.4" height="3.5"/>
		</g>
		<g>
			<rect x="80.1" y="52.7" width="3.4" height="3.5"/>
		</g>
		<g>
			<rect x="84.2" y="46.7" width="3.4" height="3.5"/>
		</g>
		<g>
			<rect x="80.1" y="46.7" width="3.4" height="3.5"/>
		</g>
		<g>
			<rect x="84.2" y="38.5" width="3.4" height="5.7"/>
		</g>
		<g>
			<rect x="80.1" y="38.5" width="3.4" height="5.7"/>
		</g>
		<g>
			<rect x="84.2" y="56.7" width="3.4" height="3.5"/>
		</g>
		<g>
			<rect x="80.1" y="56.7" width="3.4" height="3.5"/>
		</g>
		<g>
			<rect x="23.2" y="35.7" width="3.4" height="3.5"/>
		</g>
		<g>
			<rect x="19.1" y="35.7" width="3.4" height="3.5"/>
		</g>
		<g>
			<rect x="23.2" y="39.7" width="3.4" height="3.5"/>
		</g>
		<g>
			<rect x="19.1" y="39.7" width="3.4" height="3.5"/>
		</g>
		<g>
			<rect x="23.2" y="43.7" width="3.4" height="3.5"/>
		</g>
		<g>
			<rect x="19.1" y="43.7" width="3.4" height="3.5"/>
		</g>
		<g>
			<rect x="18.1" y="14.6" width="0.8" height="1.8"/>
		</g>
		<g>
			<rect x="18.1" y="62.3" width="0.8" height="1.8"/>
		</g>
		<g>
			<polygon points="25.5,24.6 26.6,24.6 26.6,22.3 25.5,22.3 25.5,21.7 23.2,21.7 23.2,25.2 25.5,25.2 			"/>
		</g>
		<g>
			<polygon points="20.2,22.3 19.1,22.3 19.1,24.6 20.2,24.6 20.2,25.2 22.5,25.2 22.5,21.7 20.2,21.7 			"/>
		</g>
		<g>
			<polygon points="25.5,20.4 26.6,20.4 26.6,18.1 25.5,18.1 25.5,17.6 23.2,17.6 23.2,21 25.5,21 			"/>
		</g>
		<g>
			<polygon points="20.2,18.1 19.1,18.1 19.1,20.4 20.2,20.4 20.2,21 22.5,21 22.5,17.6 20.2,17.6 			"/>
		</g>
		<g>
			<rect x="19.1" y="26" width="2.2" height="3.4"/>
		</g>
		<g>
			<rect x="24.4" y="26" width="2.2" height="3.4"/>
		</g>
		<g>
			<rect x="32.2" y="63.5" width="7.5" height="1"/>
		</g>
		<g>
			<rect x="31.9" y="62.4" width="9" height="0.2"/>
		</g>
		<g>
			<circle cx="71.4" cy="8.8" r="0.5"/>
		</g>
		<g>
			<circle cx="69.9" cy="8.8" r="0.5"/>
		</g>
		<g>
			<circle cx="68.4" cy="8.8" r="0.5"/>
		</g>
		<g>
			<circle cx="74.4" cy="8.8" r="0.5"/>
		</g>
		<g>
			<circle cx="75.4" cy="8.8" r="0.5"/>
		</g>
		<g>
			<circle cx="72.9" cy="8.8" r="0.5"/>
		</g>
		<g>
			<rect x="74.4" y="8.3" width="1" height="1"/>
		</g>
		<g>
			<rect x="67.1" y="12.6" width="0.8" height="1.8"/>
		</g>
		<g>
			<rect x="67.1" y="62.3" width="0.8" height="1.8"/>
		</g>
		<g>
			<rect x="68.9" y="63.5" width="7.5" height="1"/>
		</g>
		<g>
			<rect x="68.6" y="62.4" width="9" height="0.2"/>
		</g>
		<g>
			<path d="M66.4,67.2H52.7V0h13.7V67.2z M54.1,65.8H65V1.4H54.1V65.8z"/>
		</g>
		<g>
			<circle cx="59.1" cy="8.8" r="0.5"/>
		</g>
		<g>
			<circle cx="57.6" cy="8.8" r="0.5"/>
		</g>
		<g>
			<circle cx="56.1" cy="8.8" r="0.5"/>
		</g>
		<g>
			<circle cx="62.1" cy="8.8" r="0.5"/>
		</g>
		<g>
			<circle cx="63.1" cy="8.8" r="0.5"/>
		</g>
		<g>
			<circle cx="60.6" cy="8.8" r="0.5"/>
		</g>
		<g>
			<rect x="62.1" y="8.3" width="1" height="1"/>
		</g>
		<g>
			<rect x="54.9" y="12.6" width="0.8" height="1.8"/>
		</g>
		<g>
			<rect x="54.9" y="62.3" width="0.8" height="1.8"/>
		</g>
		<g>
			<rect x="56.7" y="63.5" width="7.5" height="1"/>
		</g>
		<g>
			<rect x="56.3" y="62.4" width="9" height="0.2"/>
		</g>
		<g>
			<circle cx="46.9" cy="8.8" r="0.5"/>
		</g>
		<g>
			<circle cx="45.4" cy="8.8" r="0.5"/>
		</g>
		<g>
			<circle cx="43.9" cy="8.8" r="0.5"/>
		</g>
		<g>
			<circle cx="49.9" cy="8.8" r="0.5"/>
		</g>
		<g>
			<circle cx="50.9" cy="8.8" r="0.5"/>
		</g>
		<g>
			<circle cx="48.4" cy="8.8" r="0.5"/>
		</g>
		<g>
			<rect x="49.9" y="8.3" width="1" height="1"/>
		</g>
		<g>
			<rect x="42.7" y="12.6" width="0.8" height="1.8"/>
		</g>
		<g>
			<rect x="42.7" y="62.3" width="0.8" height="1.8"/>
		</g>
		<g>
			<rect x="44.4" y="63.5" width="7.5" height="1"/>
		</g>
		<g>
			<rect x="44.1" y="62.4" width="9" height="0.2"/>
		</g>
		<g>
			<rect x="20" y="63.5" width="7.5" height="1"/>
		</g>
		<g>
			<rect x="19.6" y="62.4" width="9" height="0.2"/>
		</g>
		<g>
			<rect x="7.7" y="63.5" width="7.5" height="1"/>
		</g>
		<g>
			<rect x="7.4" y="62.4" width="9" height="0.2"/>
		</g>
		<g>
			<circle cx="83.6" cy="8.8" r="0.5"/>
		</g>
		<g>
			<circle cx="82.1" cy="8.8" r="0.5"/>
		</g>
		<g>
			<circle cx="80.6" cy="8.8" r="0.5"/>
		</g>
		<g>
			<circle cx="86.6" cy="8.8" r="0.5"/>
		</g>
		<g>
			<circle cx="87.6" cy="8.8" r="0.5"/>
		</g>
		<g>
			<circle cx="85.1" cy="8.8" r="0.5"/>
		</g>
		<g>
			<rect x="86.6" y="8.3" width="1" height="1"/>
		</g>
		<g>
			<circle cx="83.6" cy="10.3" r="0.5"/>
		</g>
		<g>
			<circle cx="82.1" cy="10.3" r="0.5"/>
		</g>
		<g>
			<circle cx="80.6" cy="10.3" r="0.5"/>
		</g>
		<g>
			<rect x="79.4" y="14.6" width="0.8" height="1.8"/>
		</g>
		<g>
			<rect x="79.4" y="62.3" width="0.8" height="1.8"/>
		</g>
		<g>
			<rect x="81.1" y="63.5" width="7.5" height="1"/>
		</g>
		<g>
			<rect x="80.8" y="62.4" width="9" height="0.2"/>
		</g>
		<g>
			<circle cx="92.1" cy="59.6" r="0.5"/>
		</g>
		<g>
			<path d="M84.6,22.5c-1.2,0-2.2-1-2.2-2.2s1-2.2,2.2-2.2s2.2,1,2.2,2.2S85.8,22.5,84.6,22.5z M84.6,19.6c-0.4,0-0.8,0.3-0.8,0.8
				s0.3,0.8,0.8,0.8s0.8-0.3,0.8-0.8S85.1,19.6,84.6,19.6z"/>
		</g>
		<g>
			<polygon points="85.1,25 80.7,25 80.7,15.3 85.1,15.3 85.1,19 83.7,19 83.7,16.7 82.1,16.7 82.1,23.6 83.7,23.6 83.7,22 85.1,22 
							"/>
		</g>
		<g>
			<path d="M82.1,26.5v4.2h-1.9v-4.2H82.1 M82.7,25.9h-3v5.3h3V25.9z"/>
		</g>
		<g>
			<polygon points="81.8,27 81.6,27 81.3,27 81.3,30 81.6,30 81.8,30 			"/>
		</g>
		<g>
			<path d="M82.7,37h-2.1L80,35.6l0-2.2l0.6-1.2h2.1V37z M81.1,36.2H82V33h-0.9l-0.4,0.7v1.8L81.1,36.2z"/>
		</g>
		<g>
			<polygon points="87,35.8 88.2,35.8 88.2,33.4 87,33.4 87,32.8 84.6,32.8 84.6,36.4 87,36.4 			"/>
		</g>
		<g>
			<rect x="84" y="33" width="1.6" height="3.1"/>
		</g>
		<g>
			<rect x="84.6" y="32.3" width="0.8" height="4.7"/>
		</g>
		<g>
			<rect x="83.2" y="33.5" width="0.8" height="2.2"/>
		</g>
	</g>
</g>
</svg>
