<?xml version="1.0" encoding="utf-8"?>
<!-- Generator: Adobe Illustrator 24.0.3, SVG Export Plug-In . SVG Version: 6.00 Build 0)  -->
<svg version="1.1" id="Layer_1" xmlns="http://www.w3.org/2000/svg" xmlns:xlink="http://www.w3.org/1999/xlink" x="0px" y="0px"
	 viewBox="0 0 93.4 33.4" style="enable-background:new 0 0 93.4 33.4;" xml:space="preserve">
<title>PA-5200-series</title>
<g id="Layer_2_1_">
	<g id="Layer_2-2">
		<g>
			<path d="M93.4,33.4H0V0h93.4V33.4z M1.4,32H92V1.4H1.4V32z"/>
		</g>
		<g>
			<path d="M3.7,2.6L2.6,2V0.8l1.1-0.6l1.1,0.6V2L3.7,2.6z M2.9,1.9l0.8,0.5l0.8-0.5V0.9L3.7,0.5L2.9,0.9V1.9z"/>
		</g>
		<g>
			<path d="M6.1,2.6L5.1,2V0.8l1.1-0.6l1.1,0.6V2L6.1,2.6z M5.3,1.9l0.8,0.5L7,1.9V0.9L6.1,0.5L5.3,0.9V1.9z"/>
		</g>
		<g>
			<path d="M8.6,2.6L7.5,2V0.8l1.1-0.6l1.1,0.6V2L8.6,2.6z M7.8,1.9l0.8,0.5l0.8-0.5V0.9L8.6,0.5L7.8,0.9V1.9z"/>
		</g>
		<g>
			<path d="M11.1,2.6L10,2V0.8l1.1-0.6l1.1,0.6V2L11.1,2.6z M10.2,1.9l0.8,0.5l0.8-0.5V0.9l-0.8-0.5l-0.8,0.5V1.9z"/>
		</g>
		<g>
			<path d="M13.5,2.6L12.4,2V0.8l1.1-0.6l1.1,0.6V2L13.5,2.6z M12.7,1.9l0.8,0.5l0.8-0.5V0.9l-0.8-0.5l-0.8,0.5V1.9z"/>
		</g>
		<g>
			<path d="M16,2.6L14.9,2V0.8L16,0.2L17,0.8V2L16,2.6z M15.2,1.9L16,2.4l0.8-0.5V0.9L16,0.5l-0.8,0.5V1.9z"/>
		</g>
		<g>
			<path d="M18.4,2.6L17.4,2V0.8l1.1-0.6l1.1,0.6V2L18.4,2.6z M17.6,1.9l0.8,0.5l0.8-0.5V0.9l-0.8-0.5l-0.8,0.5V1.9z"/>
		</g>
		<g>
			<path d="M20.9,2.6L19.8,2V0.8l1.1-0.6L22,0.8V2L20.9,2.6z M20.1,1.9l0.8,0.5l0.8-0.5V0.9l-0.8-0.5l-0.8,0.5V1.9z"/>
		</g>
		<g>
			<path d="M23.4,2.6L22.3,2V0.8l1.1-0.6l1.1,0.6V2L23.4,2.6z M22.5,1.9l0.8,0.5l0.8-0.5V0.9l-0.8-0.5l-0.8,0.5V1.9z"/>
		</g>
		<g>
			<path d="M25.8,2.6L24.7,2V0.8l1.1-0.6l1.1,0.6V2L25.8,2.6z M25,1.9l0.8,0.5l0.8-0.5V0.9l-0.8-0.5L25,0.9V1.9z"/>
		</g>
		<g>
			<path d="M28.3,2.6L27.2,2V0.8l1.1-0.6l1.1,0.6V2L28.3,2.6z M27.4,1.9l0.8,0.5l0.8-0.5V0.9l-0.8-0.5l-0.8,0.5V1.9z"/>
		</g>
		<g>
			<path d="M30.7,2.6L29.7,2V0.8l1.1-0.6l1.1,0.6V2L30.7,2.6z M29.9,1.9l0.8,0.5l0.8-0.5V0.9l-0.8-0.5l-0.8,0.5V1.9z"/>
		</g>
		<g>
			<path d="M33.2,2.6L32.1,2V0.8l1.1-0.6l1.1,0.6V2L33.2,2.6z M32.4,1.9l0.8,0.5L34,1.9V0.9l-0.8-0.5l-0.8,0.5V1.9z"/>
		</g>
		<g>
			<path d="M35.7,2.6L34.6,2V0.8l1.1-0.6l1.1,0.6V2L35.7,2.6z M34.8,1.9l0.8,0.5l0.8-0.5V0.9l-0.8-0.5l-0.8,0.5V1.9z"/>
		</g>
		<g>
			<path d="M38.1,2.6L37,2V0.8l1.1-0.6l1.1,0.6V2L38.1,2.6z M37.3,1.9l0.8,0.5l0.8-0.5V0.9l-0.8-0.5l-0.8,0.5V1.9z"/>
		</g>
		<g>
			<path d="M40.6,2.6L39.5,2V0.8l1.1-0.6l1.1,0.6V2L40.6,2.6z M39.7,1.9l0.8,0.5l0.8-0.5V0.9l-0.8-0.5l-0.8,0.5V1.9z"/>
		</g>
		<g>
			<path d="M43,2.6L42,2V0.8L43,0.2l1.1,0.6V2L43,2.6z M42.2,1.9L43,2.4l0.8-0.5V0.9L43,0.5l-0.8,0.5V1.9z"/>
		</g>
		<g>
			<path d="M45.5,2.6L44.4,2V0.8l1.1-0.6l1.1,0.6V2L45.5,2.6z M44.7,1.9l0.8,0.5l0.8-0.5V0.9l-0.8-0.5l-0.8,0.5V1.9z"/>
		</g>
		<g>
			<path d="M47.9,2.6L46.9,2V0.8l1.1-0.6L49,0.8V2L47.9,2.6z M47.1,1.9l0.8,0.5l0.8-0.5V0.9l-0.8-0.5l-0.8,0.5V1.9z"/>
		</g>
		<g>
			<path d="M50.4,2.6L49.3,2V0.8l1.1-0.6l1.1,0.6V2L50.4,2.6z M49.6,1.9l0.8,0.5l0.8-0.5V0.9l-0.8-0.5l-0.8,0.5V1.9z"/>
		</g>
		<g>
			<path d="M52.9,2.6L51.8,2V0.8l1.1-0.6l1.1,0.6V2L52.9,2.6z M52,1.9l0.8,0.5l0.8-0.5V0.9l-0.8-0.5L52,0.9V1.9z"/>
		</g>
		<g>
			<path d="M55.3,2.6L54.2,2V0.8l1.1-0.6l1.1,0.6V2L55.3,2.6z M54.5,1.9l0.8,0.5l0.8-0.5V0.9l-0.8-0.5l-0.8,0.5V1.9z"/>
		</g>
		<g>
			<path d="M57.8,2.6L56.7,2V0.8l1.1-0.6l1.1,0.6V2L57.8,2.6z M57,1.9l0.8,0.5l0.8-0.5V0.9l-0.8-0.5L57,0.9V1.9z"/>
		</g>
		<g>
			<path d="M60.2,2.6L59.2,2V0.8l1.1-0.6l1.1,0.6V2L60.2,2.6z M59.4,1.9l0.8,0.5l0.8-0.5V0.9l-0.8-0.5l-0.8,0.5V1.9z"/>
		</g>
		<g>
			<path d="M62.7,2.6L61.6,2V0.8l1.1-0.6l1.1,0.6V2L62.7,2.6z M61.9,1.9l0.8,0.5l0.8-0.5V0.9l-0.8-0.5l-0.8,0.5V1.9z"/>
		</g>
		<g>
			<path d="M65.2,2.6L64.1,2V0.8l1.1-0.6l1.1,0.6V2L65.2,2.6z M64.3,1.9l0.8,0.5L66,1.9V0.9l-0.8-0.5l-0.8,0.5V1.9z"/>
		</g>
		<g>
			<path d="M67.6,2.6L66.5,2V0.8l1.1-0.6l1.1,0.6V2L67.6,2.6z M66.8,1.9l0.8,0.5l0.8-0.5V0.9l-0.8-0.5l-0.8,0.5V1.9z"/>
		</g>
		<g>
			<path d="M70.1,2.6L69,2V0.8l1.1-0.6l1.1,0.6V2L70.1,2.6z M69.2,1.9l0.8,0.5l0.8-0.5V0.9l-0.8-0.5l-0.8,0.5V1.9z"/>
		</g>
		<g>
			<path d="M72.5,2.6L71.5,2V0.8l1.1-0.6l1.1,0.6V2L72.5,2.6z M71.7,1.9l0.8,0.5l0.8-0.5V0.9l-0.8-0.5l-0.8,0.5V1.9z"/>
		</g>
		<g>
			<path d="M75,2.6L73.9,2V0.8L75,0.2l1.1,0.6V2L75,2.6z M74.2,1.9L75,2.4l0.8-0.5V0.9L75,0.5l-0.8,0.5V1.9z"/>
		</g>
		<g>
			<path d="M77.5,2.6L76.4,2V0.8l1.1-0.6l1.1,0.6V2L77.5,2.6z M76.6,1.9l0.8,0.5l0.8-0.5V0.9l-0.8-0.5l-0.8,0.5V1.9z"/>
		</g>
		<g>
			<path d="M79.9,2.6L78.8,2V0.8l1.1-0.6L81,0.8V2L79.9,2.6z M79.1,1.9l0.8,0.5l0.8-0.5V0.9l-0.8-0.5l-0.8,0.5V1.9z"/>
		</g>
		<g>
			<path d="M82.4,2.6L81.3,2V0.8l1.1-0.6l1.1,0.6V2L82.4,2.6z M81.5,1.9l0.8,0.5l0.8-0.5V0.9l-0.8-0.5l-0.8,0.5V1.9z"/>
		</g>
		<g>
			<path d="M84.8,2.6L83.8,2V0.8l1.1-0.6l1.1,0.6V2L84.8,2.6z M84,1.9l0.8,0.5l0.8-0.5V0.9l-0.8-0.5L84,0.9V1.9z"/>
		</g>
		<g>
			<path d="M87.3,2.6L86.2,2V0.8l1.1-0.6l1.1,0.6V2L87.3,2.6z M86.5,1.9l0.8,0.5l0.8-0.5V0.9l-0.8-0.5l-0.8,0.5V1.9z"/>
		</g>
		<g>
			<path d="M89.7,2.6L88.7,2V0.8l1.1-0.6l1.1,0.6V2L89.7,2.6z M88.9,1.9l0.8,0.5l0.8-0.5V0.9l-0.8-0.5l-0.8,0.5V1.9z"/>
		</g>
		<g>
			<path d="M4.9,4.6L3.8,4V2.8l1.1-0.6L6,2.8V4L4.9,4.6z M4.1,3.9l0.8,0.5l0.8-0.5V2.9L4.9,2.5L4.1,2.9V3.9z"/>
		</g>
		<g>
			<path d="M7.4,4.6L6.3,4V2.8l1.1-0.6l1.1,0.6V4L7.4,4.6z M6.5,3.9l0.8,0.5l0.8-0.5V2.9L7.4,2.5L6.5,2.9V3.9z"/>
		</g>
		<g>
			<path d="M9.8,4.6L8.8,4V2.8l1.1-0.6l1.1,0.6V4L9.8,4.6z M9,3.9l0.8,0.5l0.8-0.5V2.9L9.8,2.5L9,2.9V3.9z"/>
		</g>
		<g>
			<path d="M12.3,4.6L11.2,4V2.8l1.1-0.6l1.1,0.6V4L12.3,4.6z M11.5,3.9l0.8,0.5l0.8-0.5V2.9l-0.8-0.5l-0.8,0.5V3.9z"/>
		</g>
		<g>
			<path d="M14.8,4.6L13.7,4V2.8l1.1-0.6l1.1,0.6V4L14.8,4.6z M13.9,3.9l0.8,0.5l0.8-0.5V2.9l-0.8-0.5l-0.8,0.5V3.9z"/>
		</g>
		<g>
			<path d="M17.2,4.6L16.1,4V2.8l1.1-0.6l1.1,0.6V4L17.2,4.6z M16.4,3.9l0.8,0.5L18,3.9V2.9l-0.8-0.5l-0.8,0.5V3.9z"/>
		</g>
		<g>
			<path d="M19.7,4.6L18.6,4V2.8l1.1-0.6l1.1,0.6V4L19.7,4.6z M18.8,3.9l0.8,0.5l0.8-0.5V2.9l-0.8-0.5l-0.8,0.5V3.9z"/>
		</g>
		<g>
			<path d="M22.1,4.6L21,4V2.8l1.1-0.6l1.1,0.6V4L22.1,4.6z M21.3,3.9l0.8,0.5l0.8-0.5V2.9l-0.8-0.5l-0.8,0.5V3.9z"/>
		</g>
		<g>
			<path d="M24.6,4.6L23.5,4V2.8l1.1-0.6l1.1,0.6V4L24.6,4.6z M23.8,3.9l0.8,0.5l0.8-0.5V2.9l-0.8-0.5l-0.8,0.5V3.9z"/>
		</g>
		<g>
			<path d="M27,4.6L26,4V2.8L27,2.2l1.1,0.6V4L27,4.6z M26.2,3.9L27,4.4l0.8-0.5V2.9L27,2.5l-0.8,0.5V3.9z"/>
		</g>
		<g>
			<path d="M29.5,4.6L28.4,4V2.8l1.1-0.6l1.1,0.6V4L29.5,4.6z M28.7,3.9l0.8,0.5l0.8-0.5V2.9l-0.8-0.5l-0.8,0.5V3.9z"/>
		</g>
		<g>
			<path d="M32,4.6L30.9,4V2.8L32,2.2L33,2.8V4L32,4.6z M31.1,3.9L32,4.4l0.8-0.5V2.9L32,2.5l-0.8,0.5V3.9z"/>
		</g>
		<g>
			<path d="M34.4,4.6L33.3,4V2.8l1.1-0.6l1.1,0.6V4L34.4,4.6z M33.6,3.9l0.8,0.5l0.8-0.5V2.9l-0.8-0.5l-0.8,0.5V3.9z"/>
		</g>
		<g>
			<path d="M36.9,4.6L35.8,4V2.8l1.1-0.6l1.1,0.6V4L36.9,4.6z M36.1,3.9l0.8,0.5l0.8-0.5V2.9l-0.8-0.5l-0.8,0.5V3.9z"/>
		</g>
		<g>
			<path d="M39.3,4.6L38.3,4V2.8l1.1-0.6l1.1,0.6V4L39.3,4.6z M38.5,3.9l0.8,0.5l0.8-0.5V2.9l-0.8-0.5l-0.8,0.5V3.9z"/>
		</g>
		<g>
			<path d="M41.8,4.6L40.7,4V2.8l1.1-0.6l1.1,0.6V4L41.8,4.6z M41,3.9l0.8,0.5l0.8-0.5V2.9l-0.8-0.5L41,2.9V3.9z"/>
		</g>
		<g>
			<path d="M44.2,4.6L43.2,4V2.8l1.1-0.6l1.1,0.6V4L44.2,4.6z M43.4,3.9l0.8,0.5l0.8-0.5V2.9l-0.8-0.5l-0.8,0.5V3.9z"/>
		</g>
		<g>
			<path d="M46.7,4.6L45.6,4V2.8l1.1-0.6l1.1,0.6V4L46.7,4.6z M45.9,3.9l0.8,0.5l0.8-0.5V2.9l-0.8-0.5l-0.8,0.5V3.9z"/>
		</g>
		<g>
			<path d="M49.2,4.6L48.1,4V2.8l1.1-0.6l1.1,0.6V4L49.2,4.6z M48.3,3.9l0.8,0.5L50,3.9V2.9l-0.8-0.5l-0.8,0.5V3.9z"/>
		</g>
		<g>
			<path d="M51.6,4.6L50.6,4V2.8l1.1-0.6l1.1,0.6V4L51.6,4.6z M50.8,3.9l0.8,0.5l0.8-0.5V2.9l-0.8-0.5l-0.8,0.5V3.9z"/>
		</g>
		<g>
			<path d="M54.1,4.6L53,4V2.8l1.1-0.6l1.1,0.6V4L54.1,4.6z M53.3,3.9l0.8,0.5l0.8-0.5V2.9l-0.8-0.5l-0.8,0.5V3.9z"/>
		</g>
		<g>
			<path d="M56.5,4.6L55.5,4V2.8l1.1-0.6l1.1,0.6V4L56.5,4.6z M55.7,3.9l0.8,0.5l0.8-0.5V2.9l-0.8-0.5l-0.8,0.5V3.9z"/>
		</g>
		<g>
			<path d="M59,4.6L57.9,4V2.8L59,2.2l1.1,0.6V4L59,4.6z M58.2,3.9L59,4.4l0.8-0.5V2.9L59,2.5l-0.8,0.5V3.9z"/>
		</g>
		<g>
			<path d="M61.5,4.6L60.4,4V2.8l1.1-0.6l1.1,0.6V4L61.5,4.6z M60.6,3.9l0.8,0.5l0.8-0.5V2.9l-0.8-0.5l-0.8,0.5V3.9z"/>
		</g>
		<g>
			<path d="M63.9,4.6L62.9,4V2.8l1.1-0.6L65,2.8V4L63.9,4.6z M63.1,3.9l0.8,0.5l0.8-0.5V2.9l-0.8-0.5l-0.8,0.5V3.9z"/>
		</g>
		<g>
			<path d="M66.4,4.6L65.3,4V2.8l1.1-0.6l1.1,0.6V4L66.4,4.6z M65.6,3.9l0.8,0.5l0.8-0.5V2.9l-0.8-0.5l-0.8,0.5V3.9z"/>
		</g>
		<g>
			<path d="M68.8,4.6L67.8,4V2.8l1.1-0.6l1.1,0.6V4L68.8,4.6z M68,3.9l0.8,0.5l0.8-0.5V2.9l-0.8-0.5L68,2.9V3.9z"/>
		</g>
		<g>
			<path d="M71.3,4.6L70.2,4V2.8l1.1-0.6l1.1,0.6V4L71.3,4.6z M70.5,3.9l0.8,0.5l0.8-0.5V2.9l-0.8-0.5l-0.8,0.5V3.9z"/>
		</g>
		<g>
			<path d="M73.8,4.6L72.7,4V2.8l1.1-0.6l1.1,0.6V4L73.8,4.6z M72.9,3.9l0.8,0.5l0.8-0.5V2.9l-0.8-0.5l-0.8,0.5V3.9z"/>
		</g>
		<g>
			<path d="M76.2,4.6L75.1,4V2.8l1.1-0.6l1.1,0.6V4L76.2,4.6z M75.4,3.9l0.8,0.5L77,3.9V2.9l-0.8-0.5l-0.8,0.5V3.9z"/>
		</g>
		<g>
			<path d="M78.7,4.6L77.6,4V2.8l1.1-0.6l1.1,0.6V4L78.7,4.6z M77.9,3.9l0.8,0.5l0.8-0.5V2.9l-0.8-0.5l-0.8,0.5V3.9z"/>
		</g>
		<g>
			<path d="M81.1,4.6L80.1,4V2.8l1.1-0.6l1.1,0.6V4L81.1,4.6z M80.3,3.9l0.8,0.5L82,3.9V2.9l-0.8-0.5l-0.8,0.5V3.9z"/>
		</g>
		<g>
			<path d="M83.6,4.6L82.5,4V2.8l1.1-0.6l1.1,0.6V4L83.6,4.6z M82.8,3.9l0.8,0.5l0.8-0.5V2.9l-0.8-0.5l-0.8,0.5V3.9z"/>
		</g>
		<g>
			<path d="M86,4.6L85,4V2.8L86,2.2l1.1,0.6V4L86,4.6z M85.2,3.9L86,4.4l0.8-0.5V2.9L86,2.5l-0.8,0.5V3.9z"/>
		</g>
		<g>
			<path d="M88.5,4.6L87.4,4V2.8l1.1-0.6l1.1,0.6V4L88.5,4.6z M87.7,3.9l0.8,0.5l0.8-0.5V2.9l-0.8-0.5l-0.8,0.5V3.9z"/>
		</g>
		<g>
			<path d="M6.1,6.6L5.1,6V4.8l1.1-0.6l1.1,0.6V6L6.1,6.6z M5.3,5.9l0.8,0.5L7,5.9V4.9L6.1,4.5L5.3,4.9V5.9z"/>
		</g>
		<g>
			<path d="M8.6,6.6L7.5,6V4.8l1.1-0.6l1.1,0.6V6L8.6,6.6z M7.8,5.9l0.8,0.5l0.8-0.5V4.9L8.6,4.5L7.8,4.9V5.9z"/>
		</g>
		<g>
			<path d="M11.1,6.6L10,6V4.8l1.1-0.6l1.1,0.6V6L11.1,6.6z M10.2,5.9l0.8,0.5l0.8-0.5V4.9l-0.8-0.5l-0.8,0.5V5.9z"/>
		</g>
		<g>
			<path d="M13.5,6.6L12.4,6V4.8l1.1-0.6l1.1,0.6V6L13.5,6.6z M12.7,5.9l0.8,0.5l0.8-0.5V4.9l-0.8-0.5l-0.8,0.5V5.9z"/>
		</g>
		<g>
			<path d="M16,6.6L14.9,6V4.8L16,4.2L17,4.8V6L16,6.6z M15.2,5.9L16,6.4l0.8-0.5V4.9L16,4.5l-0.8,0.5V5.9z"/>
		</g>
		<g>
			<path d="M18.4,6.6L17.4,6V4.8l1.1-0.6l1.1,0.6V6L18.4,6.6z M17.6,5.9l0.8,0.5l0.8-0.5V4.9l-0.8-0.5l-0.8,0.5V5.9z"/>
		</g>
		<g>
			<path d="M20.9,6.6L19.8,6V4.8l1.1-0.6L22,4.8V6L20.9,6.6z M20.1,5.9l0.8,0.5l0.8-0.5V4.9l-0.8-0.5l-0.8,0.5V5.9z"/>
		</g>
		<g>
			<path d="M23.4,6.6L22.3,6V4.8l1.1-0.6l1.1,0.6V6L23.4,6.6z M22.5,5.9l0.8,0.5l0.8-0.5V4.9l-0.8-0.5l-0.8,0.5V5.9z"/>
		</g>
		<g>
			<path d="M25.8,6.6L24.7,6V4.8l1.1-0.6l1.1,0.6V6L25.8,6.6z M25,5.9l0.8,0.5l0.8-0.5V4.9l-0.8-0.5L25,4.9V5.9z"/>
		</g>
		<g>
			<path d="M28.3,6.6L27.2,6V4.8l1.1-0.6l1.1,0.6V6L28.3,6.6z M27.4,5.9l0.8,0.5l0.8-0.5V4.9l-0.8-0.5l-0.8,0.5V5.9z"/>
		</g>
		<g>
			<path d="M30.7,6.6L29.7,6V4.8l1.1-0.6l1.1,0.6V6L30.7,6.6z M29.9,5.9l0.8,0.5l0.8-0.5V4.9l-0.8-0.5l-0.8,0.5V5.9z"/>
		</g>
		<g>
			<path d="M33.2,6.6L32.1,6V4.8l1.1-0.6l1.1,0.6V6L33.2,6.6z M32.4,5.9l0.8,0.5L34,5.9V4.9l-0.8-0.5l-0.8,0.5V5.9z"/>
		</g>
		<g>
			<path d="M35.7,6.6L34.6,6V4.8l1.1-0.6l1.1,0.6V6L35.7,6.6z M34.8,5.9l0.8,0.5l0.8-0.5V4.9l-0.8-0.5l-0.8,0.5V5.9z"/>
		</g>
		<g>
			<path d="M38.1,6.6L37,6V4.8l1.1-0.6l1.1,0.6V6L38.1,6.6z M37.3,5.9l0.8,0.5l0.8-0.5V4.9l-0.8-0.5l-0.8,0.5V5.9z"/>
		</g>
		<g>
			<path d="M40.6,6.6L39.5,6V4.8l1.1-0.6l1.1,0.6V6L40.6,6.6z M39.7,5.9l0.8,0.5l0.8-0.5V4.9l-0.8-0.5l-0.8,0.5V5.9z"/>
		</g>
		<g>
			<path d="M43,6.6L42,6V4.8L43,4.2l1.1,0.6V6L43,6.6z M42.2,5.9L43,6.4l0.8-0.5V4.9L43,4.5l-0.8,0.5V5.9z"/>
		</g>
		<g>
			<path d="M45.5,6.6L44.4,6V4.8l1.1-0.6l1.1,0.6V6L45.5,6.6z M44.7,5.9l0.8,0.5l0.8-0.5V4.9l-0.8-0.5l-0.8,0.5V5.9z"/>
		</g>
		<g>
			<path d="M47.9,6.6L46.9,6V4.8l1.1-0.6L49,4.8V6L47.9,6.6z M47.1,5.9l0.8,0.5l0.8-0.5V4.9l-0.8-0.5l-0.8,0.5V5.9z"/>
		</g>
		<g>
			<path d="M50.4,6.6L49.3,6V4.8l1.1-0.6l1.1,0.6V6L50.4,6.6z M49.6,5.9l0.8,0.5l0.8-0.5V4.9l-0.8-0.5l-0.8,0.5V5.9z"/>
		</g>
		<g>
			<path d="M52.9,6.6L51.8,6V4.8l1.1-0.6l1.1,0.6V6L52.9,6.6z M52,5.9l0.8,0.5l0.8-0.5V4.9l-0.8-0.5L52,4.9V5.9z"/>
		</g>
		<g>
			<path d="M55.3,6.6L54.2,6V4.8l1.1-0.6l1.1,0.6V6L55.3,6.6z M54.5,5.9l0.8,0.5l0.8-0.5V4.9l-0.8-0.5l-0.8,0.5V5.9z"/>
		</g>
		<g>
			<path d="M57.8,6.6L56.7,6V4.8l1.1-0.6l1.1,0.6V6L57.8,6.6z M57,5.9l0.8,0.5l0.8-0.5V4.9l-0.8-0.5L57,4.9V5.9z"/>
		</g>
		<g>
			<path d="M60.2,6.6L59.2,6V4.8l1.1-0.6l1.1,0.6V6L60.2,6.6z M59.4,5.9l0.8,0.5l0.8-0.5V4.9l-0.8-0.5l-0.8,0.5V5.9z"/>
		</g>
		<g>
			<path d="M62.7,6.6L61.6,6V4.8l1.1-0.6l1.1,0.6V6L62.7,6.6z M61.9,5.9l0.8,0.5l0.8-0.5V4.9l-0.8-0.5l-0.8,0.5V5.9z"/>
		</g>
		<g>
			<path d="M65.2,6.6L64.1,6V4.8l1.1-0.6l1.1,0.6V6L65.2,6.6z M64.3,5.9l0.8,0.5L66,5.9V4.9l-0.8-0.5l-0.8,0.5V5.9z"/>
		</g>
		<g>
			<path d="M67.6,6.6L66.5,6V4.8l1.1-0.6l1.1,0.6V6L67.6,6.6z M66.8,5.9l0.8,0.5l0.8-0.5V4.9l-0.8-0.5l-0.8,0.5V5.9z"/>
		</g>
		<g>
			<path d="M70.1,6.6L69,6V4.8l1.1-0.6l1.1,0.6V6L70.1,6.6z M69.2,5.9l0.8,0.5l0.8-0.5V4.9l-0.8-0.5l-0.8,0.5V5.9z"/>
		</g>
		<g>
			<path d="M72.5,6.6L71.5,6V4.8l1.1-0.6l1.1,0.6V6L72.5,6.6z M71.7,5.9l0.8,0.5l0.8-0.5V4.9l-0.8-0.5l-0.8,0.5V5.9z"/>
		</g>
		<g>
			<path d="M75,6.6L73.9,6V4.8L75,4.2l1.1,0.6V6L75,6.6z M74.2,5.9L75,6.4l0.8-0.5V4.9L75,4.5l-0.8,0.5V5.9z"/>
		</g>
		<g>
			<path d="M77.5,6.6L76.4,6V4.8l1.1-0.6l1.1,0.6V6L77.5,6.6z M76.6,5.9l0.8,0.5l0.8-0.5V4.9l-0.8-0.5l-0.8,0.5V5.9z"/>
		</g>
		<g>
			<path d="M79.9,6.6L78.8,6V4.8l1.1-0.6L81,4.8V6L79.9,6.6z M79.1,5.9l0.8,0.5l0.8-0.5V4.9l-0.8-0.5l-0.8,0.5V5.9z"/>
		</g>
		<g>
			<path d="M82.4,6.6L81.3,6V4.8l1.1-0.6l1.1,0.6V6L82.4,6.6z M81.5,5.9l0.8,0.5l0.8-0.5V4.9l-0.8-0.5l-0.8,0.5V5.9z"/>
		</g>
		<g>
			<path d="M84.8,6.6L83.8,6V4.8l1.1-0.6l1.1,0.6V6L84.8,6.6z M84,5.9l0.8,0.5l0.8-0.5V4.9l-0.8-0.5L84,4.9V5.9z"/>
		</g>
		<g>
			<path d="M87.3,6.6L86.2,6V4.8l1.1-0.6l1.1,0.6V6L87.3,6.6z M86.5,5.9l0.8,0.5l0.8-0.5V4.9l-0.8-0.5l-0.8,0.5V5.9z"/>
		</g>
		<g>
			<path d="M4.9,8.6L3.8,8V6.8l1.1-0.6L6,6.8V8L4.9,8.6z M4.1,7.9l0.8,0.5l0.8-0.5V6.9L4.9,6.5L4.1,6.9V7.9z"/>
		</g>
		<g>
			<path d="M7.4,8.6L6.3,8V6.8l1.1-0.6l1.1,0.6V8L7.4,8.6z M6.5,7.9l0.8,0.5l0.8-0.5V6.9L7.4,6.5L6.5,6.9V7.9z"/>
		</g>
		<g>
			<path d="M9.8,8.6L8.8,8V6.8l1.1-0.6l1.1,0.6V8L9.8,8.6z M9,7.9l0.8,0.5l0.8-0.5V6.9L9.8,6.5L9,6.9V7.9z"/>
		</g>
		<g>
			<path d="M12.3,8.6L11.2,8V6.8l1.1-0.6l1.1,0.6V8L12.3,8.6z M11.5,7.9l0.8,0.5l0.8-0.5V6.9l-0.8-0.5l-0.8,0.5V7.9z"/>
		</g>
		<g>
			<path d="M14.8,8.6L13.7,8V6.8l1.1-0.6l1.1,0.6V8L14.8,8.6z M13.9,7.9l0.8,0.5l0.8-0.5V6.9l-0.8-0.5l-0.8,0.5V7.9z"/>
		</g>
		<g>
			<path d="M17.2,8.6L16.1,8V6.8l1.1-0.6l1.1,0.6V8L17.2,8.6z M16.4,7.9l0.8,0.5L18,7.9V6.9l-0.8-0.5l-0.8,0.5V7.9z"/>
		</g>
		<g>
			<path d="M19.7,8.6L18.6,8V6.8l1.1-0.6l1.1,0.6V8L19.7,8.6z M18.8,7.9l0.8,0.5l0.8-0.5V6.9l-0.8-0.5l-0.8,0.5V7.9z"/>
		</g>
		<g>
			<path d="M22.1,8.6L21,8V6.8l1.1-0.6l1.1,0.6V8L22.1,8.6z M21.3,7.9l0.8,0.5l0.8-0.5V6.9l-0.8-0.5l-0.8,0.5V7.9z"/>
		</g>
		<g>
			<path d="M24.6,8.6L23.5,8V6.8l1.1-0.6l1.1,0.6V8L24.6,8.6z M23.8,7.9l0.8,0.5l0.8-0.5V6.9l-0.8-0.5l-0.8,0.5V7.9z"/>
		</g>
		<g>
			<path d="M27,8.6L26,8V6.8L27,6.2l1.1,0.6V8L27,8.6z M26.2,7.9L27,8.4l0.8-0.5V6.9L27,6.5l-0.8,0.5V7.9z"/>
		</g>
		<g>
			<path d="M29.5,8.6L28.4,8V6.8l1.1-0.6l1.1,0.6V8L29.5,8.6z M28.7,7.9l0.8,0.5l0.8-0.5V6.9l-0.8-0.5l-0.8,0.5V7.9z"/>
		</g>
		<g>
			<path d="M32,8.6L30.9,8V6.8L32,6.2L33,6.8V8L32,8.6z M31.1,7.9L32,8.4l0.8-0.5V6.9L32,6.5l-0.8,0.5V7.9z"/>
		</g>
		<g>
			<path d="M34.4,8.6L33.3,8V6.8l1.1-0.6l1.1,0.6V8L34.4,8.6z M33.6,7.9l0.8,0.5l0.8-0.5V6.9l-0.8-0.5l-0.8,0.5V7.9z"/>
		</g>
		<g>
			<path d="M36.9,8.6L35.8,8V6.8l1.1-0.6l1.1,0.6V8L36.9,8.6z M36.1,7.9l0.8,0.5l0.8-0.5V6.9l-0.8-0.5l-0.8,0.5V7.9z"/>
		</g>
		<g>
			<path d="M39.3,8.6L38.3,8V6.8l1.1-0.6l1.1,0.6V8L39.3,8.6z M38.5,7.9l0.8,0.5l0.8-0.5V6.9l-0.8-0.5l-0.8,0.5V7.9z"/>
		</g>
		<g>
			<path d="M41.8,8.6L40.7,8V6.8l1.1-0.6l1.1,0.6V8L41.8,8.6z M41,7.9l0.8,0.5l0.8-0.5V6.9l-0.8-0.5L41,6.9V7.9z"/>
		</g>
		<g>
			<path d="M44.2,8.6L43.2,8V6.8l1.1-0.6l1.1,0.6V8L44.2,8.6z M43.4,7.9l0.8,0.5l0.8-0.5V6.9l-0.8-0.5l-0.8,0.5V7.9z"/>
		</g>
		<g>
			<path d="M46.7,8.6L45.6,8V6.8l1.1-0.6l1.1,0.6V8L46.7,8.6z M45.9,7.9l0.8,0.5l0.8-0.5V6.9l-0.8-0.5l-0.8,0.5V7.9z"/>
		</g>
		<g>
			<path d="M49.2,8.6L48.1,8V6.8l1.1-0.6l1.1,0.6V8L49.2,8.6z M48.3,7.9l0.8,0.5L50,7.9V6.9l-0.8-0.5l-0.8,0.5V7.9z"/>
		</g>
		<g>
			<path d="M51.6,8.6L50.6,8V6.8l1.1-0.6l1.1,0.6V8L51.6,8.6z M50.8,7.9l0.8,0.5l0.8-0.5V6.9l-0.8-0.5l-0.8,0.5V7.9z"/>
		</g>
		<g>
			<path d="M54.1,8.6L53,8V6.8l1.1-0.6l1.1,0.6V8L54.1,8.6z M53.3,7.9l0.8,0.5l0.8-0.5V6.9l-0.8-0.5l-0.8,0.5V7.9z"/>
		</g>
		<g>
			<path d="M56.5,8.6L55.5,8V6.8l1.1-0.6l1.1,0.6V8L56.5,8.6z M55.7,7.9l0.8,0.5l0.8-0.5V6.9l-0.8-0.5l-0.8,0.5V7.9z"/>
		</g>
		<g>
			<path d="M59,8.6L57.9,8V6.8L59,6.2l1.1,0.6V8L59,8.6z M58.2,7.9L59,8.4l0.8-0.5V6.9L59,6.5l-0.8,0.5V7.9z"/>
		</g>
		<g>
			<path d="M61.5,8.6L60.4,8V6.8l1.1-0.6l1.1,0.6V8L61.5,8.6z M60.6,7.9l0.8,0.5l0.8-0.5V6.9l-0.8-0.5l-0.8,0.5V7.9z"/>
		</g>
		<g>
			<path d="M63.9,8.6L62.9,8V6.8l1.1-0.6L65,6.8V8L63.9,8.6z M63.1,7.9l0.8,0.5l0.8-0.5V6.9l-0.8-0.5l-0.8,0.5V7.9z"/>
		</g>
		<g>
			<path d="M66.4,8.6L65.3,8V6.8l1.1-0.6l1.1,0.6V8L66.4,8.6z M65.6,7.9l0.8,0.5l0.8-0.5V6.9l-0.8-0.5l-0.8,0.5V7.9z"/>
		</g>
		<g>
			<path d="M68.8,8.6L67.8,8V6.8l1.1-0.6l1.1,0.6V8L68.8,8.6z M68,7.9l0.8,0.5l0.8-0.5V6.9l-0.8-0.5L68,6.9V7.9z"/>
		</g>
		<g>
			<path d="M71.3,8.6L70.2,8V6.8l1.1-0.6l1.1,0.6V8L71.3,8.6z M70.5,7.9l0.8,0.5l0.8-0.5V6.9l-0.8-0.5l-0.8,0.5V7.9z"/>
		</g>
		<g>
			<path d="M73.8,8.6L72.7,8V6.8l1.1-0.6l1.1,0.6V8L73.8,8.6z M72.9,7.9l0.8,0.5l0.8-0.5V6.9l-0.8-0.5l-0.8,0.5V7.9z"/>
		</g>
		<g>
			<path d="M76.2,8.6L75.1,8V6.8l1.1-0.6l1.1,0.6V8L76.2,8.6z M75.4,7.9l0.8,0.5L77,7.9V6.9l-0.8-0.5l-0.8,0.5V7.9z"/>
		</g>
		<g>
			<path d="M78.7,8.6L77.6,8V6.8l1.1-0.6l1.1,0.6V8L78.7,8.6z M77.9,7.9l0.8,0.5l0.8-0.5V6.9l-0.8-0.5l-0.8,0.5V7.9z"/>
		</g>
		<g>
			<path d="M81.1,8.6L80.1,8V6.8l1.1-0.6l1.1,0.6V8L81.1,8.6z M80.3,7.9l0.8,0.5L82,7.9V6.9l-0.8-0.5l-0.8,0.5V7.9z"/>
		</g>
		<g>
			<path d="M83.6,8.6L82.5,8V6.8l1.1-0.6l1.1,0.6V8L83.6,8.6z M82.8,7.9l0.8,0.5l0.8-0.5V6.9l-0.8-0.5l-0.8,0.5V7.9z"/>
		</g>
		<g>
			<path d="M86,8.6L85,8V6.8L86,6.2l1.1,0.6V8L86,8.6z M85.2,7.9L86,8.4l0.8-0.5V6.9L86,6.5l-0.8,0.5V7.9z"/>
		</g>
		<g>
			<path d="M88.5,8.6L87.4,8V6.8l1.1-0.6l1.1,0.6V8L88.5,8.6z M87.7,7.9l0.8,0.5l0.8-0.5V6.9l-0.8-0.5l-0.8,0.5V7.9z"/>
		</g>
		<g>
			<polygon points="4.8,10 4.5,10 4.5,8.9 3.7,8.5 2.9,8.9 2.9,10 2.6,10 2.6,8.8 3.7,8.2 4.8,8.8 			"/>
		</g>
		<g>
			<polygon points="7.2,10 7,10 7,8.9 6.1,8.5 5.3,8.9 5.3,10 5.1,10 5.1,8.8 6.1,8.2 7.2,8.8 			"/>
		</g>
		<g>
			<polygon points="9.7,10 9.4,10 9.4,8.9 8.6,8.5 7.8,8.9 7.8,10 7.5,10 7.5,8.8 8.6,8.2 9.7,8.8 			"/>
		</g>
		<g>
			<polygon points="12.1,10 11.9,10 11.9,8.9 11.1,8.5 10.2,8.9 10.2,10 10,10 10,8.8 11.1,8.2 12.1,8.8 			"/>
		</g>
		<g>
			<polygon points="14.6,10 14.3,10 14.3,8.9 13.5,8.5 12.7,8.9 12.7,10 12.4,10 12.4,8.8 13.5,8.2 14.6,8.8 			"/>
		</g>
		<g>
			<polygon points="17,10 16.8,10 16.8,8.9 16,8.5 15.2,8.9 15.2,10 14.9,10 14.9,8.8 16,8.2 17,8.8 			"/>
		</g>
		<g>
			<polygon points="19.5,10 19.3,10 19.3,8.9 18.4,8.5 17.6,8.9 17.6,10 17.4,10 17.4,8.8 18.4,8.2 19.5,8.8 			"/>
		</g>
		<g>
			<polygon points="22,10 21.7,10 21.7,8.9 20.9,8.5 20.1,8.9 20.1,10 19.8,10 19.8,8.8 20.9,8.2 22,8.8 			"/>
		</g>
		<g>
			<polygon points="24.4,10 24.2,10 24.2,8.9 23.4,8.5 22.5,8.9 22.5,10 22.3,10 22.3,8.8 23.4,8.2 24.4,8.8 			"/>
		</g>
		<g>
			<polygon points="26.9,10 26.6,10 26.6,8.9 25.8,8.5 25,8.9 25,10 24.7,10 24.7,8.8 25.8,8.2 26.9,8.8 			"/>
		</g>
		<g>
			<polygon points="29.3,10 29.1,10 29.1,8.9 28.3,8.5 27.4,8.9 27.4,10 27.2,10 27.2,8.8 28.3,8.2 29.3,8.8 			"/>
		</g>
		<g>
			<polygon points="31.8,10 31.6,10 31.6,8.9 30.7,8.5 29.9,8.9 29.9,10 29.7,10 29.7,8.8 30.7,8.2 31.8,8.8 			"/>
		</g>
		<g>
			<polygon points="34.3,10 34,10 34,8.9 33.2,8.5 32.4,8.9 32.4,10 32.1,10 32.1,8.8 33.2,8.2 34.3,8.8 			"/>
		</g>
		<g>
			<polygon points="36.7,10 36.5,10 36.5,8.9 35.6,8.5 34.8,8.9 34.8,10 34.6,10 34.6,8.8 35.7,8.2 36.7,8.8 			"/>
		</g>
		<g>
			<polygon points="39.2,10 38.9,10 38.9,8.9 38.1,8.5 37.3,8.9 37.3,10 37,10 37,8.8 38.1,8.2 39.2,8.8 			"/>
		</g>
		<g>
			<polygon points="41.6,10 41.4,10 41.4,8.9 40.6,8.5 39.7,8.9 39.7,10 39.5,10 39.5,8.8 40.6,8.2 41.6,8.8 			"/>
		</g>
		<g>
			<polygon points="44.1,10 43.8,10 43.8,8.9 43,8.5 42.2,8.9 42.2,10 42,10 42,8.8 43,8.2 44.1,8.8 			"/>
		</g>
		<g>
			<polygon points="46.6,10 46.3,10 46.3,8.9 45.5,8.5 44.7,8.9 44.7,10 44.4,10 44.4,8.8 45.5,8.2 46.6,8.8 			"/>
		</g>
		<g>
			<polygon points="49,10 48.8,10 48.8,8.9 47.9,8.5 47.1,8.9 47.1,10 46.9,10 46.9,8.8 47.9,8.2 49,8.8 			"/>
		</g>
		<g>
			<polygon points="51.5,10 51.2,10 51.2,8.9 50.4,8.5 49.6,8.9 49.6,10 49.3,10 49.3,8.8 50.4,8.2 51.5,8.8 			"/>
		</g>
		<g>
			<polygon points="53.9,10 53.7,10 53.7,8.9 52.9,8.5 52,8.9 52,10 51.8,10 51.8,8.8 52.9,8.2 53.9,8.8 			"/>
		</g>
		<g>
			<polygon points="56.4,10 56.1,10 56.1,8.9 55.3,8.5 54.5,8.9 54.5,10 54.2,10 54.2,8.8 55.3,8.2 56.4,8.8 			"/>
		</g>
		<g>
			<polygon points="58.8,10 58.6,10 58.6,8.9 57.8,8.5 57,8.9 57,10 56.7,10 56.7,8.8 57.8,8.2 58.8,8.8 			"/>
		</g>
		<g>
			<polygon points="61.3,10 61.1,10 61.1,8.9 60.2,8.5 59.4,8.9 59.4,10 59.2,10 59.2,8.8 60.2,8.2 61.3,8.8 			"/>
		</g>
		<g>
			<polygon points="63.8,10 63.5,10 63.5,8.9 62.7,8.5 61.9,8.9 61.9,10 61.6,10 61.6,8.8 62.7,8.2 63.8,8.8 			"/>
		</g>
		<g>
			<polygon points="66.2,10 66,10 66,8.9 65.2,8.5 64.3,8.9 64.3,10 64.1,10 64.1,8.8 65.2,8.2 66.2,8.8 			"/>
		</g>
		<g>
			<polygon points="68.7,10 68.4,10 68.4,8.9 67.6,8.5 66.8,8.9 66.8,10 66.5,10 66.5,8.8 67.6,8.2 68.7,8.8 			"/>
		</g>
		<g>
			<polygon points="71.1,10 70.9,10 70.9,8.9 70.1,8.5 69.2,8.9 69.2,10 69,10 69,8.8 70.1,8.2 71.1,8.8 			"/>
		</g>
		<g>
			<polygon points="73.6,10 73.4,10 73.4,8.9 72.5,8.5 71.7,8.9 71.7,10 71.5,10 71.5,8.8 72.5,8.2 73.6,8.8 			"/>
		</g>
		<g>
			<polygon points="76.1,10 75.8,10 75.8,8.9 75,8.5 74.2,8.9 74.2,10 73.9,10 73.9,8.8 75,8.2 76.1,8.8 			"/>
		</g>
		<g>
			<polygon points="78.5,10 78.3,10 78.3,8.9 77.5,8.5 76.6,8.9 76.6,10 76.4,10 76.4,8.8 77.5,8.2 78.5,8.8 			"/>
		</g>
		<g>
			<polygon points="81,10 80.7,10 80.7,8.9 79.9,8.5 79.1,8.9 79.1,10 78.8,10 78.8,8.8 79.9,8.2 81,8.8 			"/>
		</g>
		<g>
			<polygon points="83.4,10 83.2,10 83.2,8.9 82.4,8.5 81.5,8.9 81.5,10 81.3,10 81.3,8.8 82.4,8.2 83.4,8.8 			"/>
		</g>
		<g>
			<polygon points="85.9,10 85.6,10 85.6,8.9 84.8,8.5 84,8.9 84,10 83.8,10 83.8,8.8 84.8,8.2 85.9,8.8 			"/>
		</g>
		<g>
			<polygon points="88.4,10 88.1,10 88.1,8.9 87.3,8.5 86.5,8.9 86.5,10 86.2,10 86.2,8.8 87.3,8.2 88.4,8.8 			"/>
		</g>
		<g>
			<polygon points="90.8,10 90.6,10 90.6,8.9 89.7,8.5 88.9,8.9 88.9,10 88.7,10 88.7,8.8 89.7,8.2 90.8,8.8 			"/>
		</g>
		<g>
			<polygon points="3.7,25.6 2.6,25 2.6,23.9 2.9,23.9 2.9,24.9 3.7,25.4 4.5,24.9 4.5,23.9 4.8,23.9 4.8,25 			"/>
		</g>
		<g>
			<polygon points="6.1,25.6 5.1,25 5.1,23.9 5.3,23.9 5.3,24.9 6.1,25.4 7,24.9 7,23.9 7.2,23.9 7.2,25 			"/>
		</g>
		<g>
			<polygon points="8.6,25.6 7.5,25 7.5,23.9 7.8,23.9 7.8,24.9 8.6,25.4 9.4,24.9 9.4,23.9 9.7,23.9 9.7,25 			"/>
		</g>
		<g>
			<polygon points="11.1,25.6 10,25 10,23.9 10.2,23.9 10.2,24.9 11.1,25.4 11.9,24.9 11.9,23.9 12.1,23.9 12.1,25 			"/>
		</g>
		<g>
			<polygon points="13.5,25.6 12.4,25 12.4,23.9 12.7,23.9 12.7,24.9 13.5,25.4 14.3,24.9 14.3,23.9 14.6,23.9 14.6,25 			"/>
		</g>
		<g>
			<polygon points="16,25.6 14.9,25 14.9,23.9 15.2,23.9 15.2,24.9 16,25.4 16.8,24.9 16.8,23.9 17,23.9 17,25 			"/>
		</g>
		<g>
			<polygon points="18.4,25.6 17.4,25 17.4,23.9 17.6,23.9 17.6,24.9 18.4,25.4 19.3,24.9 19.3,23.9 19.5,23.9 19.5,25 			"/>
		</g>
		<g>
			<polygon points="20.9,25.6 19.8,25 19.8,23.9 20.1,23.9 20.1,24.9 20.9,25.4 21.7,24.9 21.7,23.9 22,23.9 22,25 			"/>
		</g>
		<g>
			<polygon points="23.4,25.6 22.3,25 22.3,23.9 22.5,23.9 22.5,24.9 23.4,25.4 24.2,24.9 24.2,23.9 24.4,23.9 24.4,25 			"/>
		</g>
		<g>
			<polygon points="25.8,25.6 24.7,25 24.7,23.9 25,23.9 25,24.9 25.8,25.4 26.6,24.9 26.6,23.9 26.9,23.9 26.9,25 			"/>
		</g>
		<g>
			<polygon points="28.3,25.6 27.2,25 27.2,23.9 27.4,23.9 27.4,24.9 28.3,25.4 29.1,24.9 29.1,23.9 29.3,23.9 29.3,25 			"/>
		</g>
		<g>
			<polygon points="30.7,25.6 29.7,25 29.7,23.9 29.9,23.9 29.9,24.9 30.7,25.4 31.6,24.9 31.6,23.9 31.8,23.9 31.8,25 			"/>
		</g>
		<g>
			<polygon points="33.2,25.6 32.1,25 32.1,23.9 32.4,23.9 32.4,24.9 33.2,25.4 34,24.9 34,23.9 34.3,23.9 34.3,25 			"/>
		</g>
		<g>
			<polygon points="35.7,25.6 34.6,25 34.6,23.9 34.8,23.9 34.8,24.9 35.6,25.4 36.5,24.9 36.5,23.9 36.7,23.9 36.7,25 			"/>
		</g>
		<g>
			<polygon points="38.1,25.6 37,25 37,23.9 37.3,23.9 37.3,24.9 38.1,25.4 38.9,24.9 38.9,23.9 39.2,23.9 39.2,25 			"/>
		</g>
		<g>
			<polygon points="40.6,25.6 39.5,25 39.5,23.9 39.7,23.9 39.7,24.9 40.6,25.4 41.4,24.9 41.4,23.9 41.6,23.9 41.6,25 			"/>
		</g>
		<g>
			<polygon points="43,25.6 42,25 42,23.9 42.2,23.9 42.2,24.9 43,25.4 43.8,24.9 43.8,23.9 44.1,23.9 44.1,25 			"/>
		</g>
		<g>
			<polygon points="45.5,25.6 44.4,25 44.4,23.9 44.7,23.9 44.7,24.9 45.5,25.4 46.3,24.9 46.3,23.9 46.6,23.9 46.6,25 			"/>
		</g>
		<g>
			<polygon points="47.9,25.6 46.9,25 46.9,23.9 47.1,23.9 47.1,24.9 47.9,25.4 48.8,24.9 48.8,23.9 49,23.9 49,25 			"/>
		</g>
		<g>
			<polygon points="50.4,25.6 49.3,25 49.3,23.9 49.6,23.9 49.6,24.9 50.4,25.4 51.2,24.9 51.2,23.9 51.5,23.9 51.5,25 			"/>
		</g>
		<g>
			<polygon points="52.9,25.6 51.8,25 51.8,23.9 52,23.9 52,24.9 52.9,25.4 53.7,24.9 53.7,23.9 53.9,23.9 53.9,25 			"/>
		</g>
		<g>
			<polygon points="55.3,25.6 54.2,25 54.2,23.9 54.5,23.9 54.5,24.9 55.3,25.4 56.1,24.9 56.1,23.9 56.4,23.9 56.4,25 			"/>
		</g>
		<g>
			<polygon points="57.8,25.6 56.7,25 56.7,23.9 57,23.9 57,24.9 57.8,25.4 58.6,24.9 58.6,23.9 58.8,23.9 58.8,25 			"/>
		</g>
		<g>
			<polygon points="60.2,25.6 59.2,25 59.2,23.9 59.4,23.9 59.4,24.9 60.2,25.4 61.1,24.9 61.1,23.9 61.3,23.9 61.3,25 			"/>
		</g>
		<g>
			<polygon points="62.7,25.6 61.6,25 61.6,23.9 61.9,23.9 61.9,24.9 62.7,25.4 63.5,24.9 63.5,23.9 63.8,23.9 63.8,25 			"/>
		</g>
		<g>
			<polygon points="65.2,25.6 64.1,25 64.1,23.9 64.3,23.9 64.3,24.9 65.2,25.4 66,24.9 66,23.9 66.2,23.9 66.2,25 			"/>
		</g>
		<g>
			<polygon points="67.6,25.6 66.5,25 66.5,23.9 66.8,23.9 66.8,24.9 67.6,25.4 68.4,24.9 68.4,23.9 68.7,23.9 68.7,25 			"/>
		</g>
		<g>
			<polygon points="70.1,25.6 69,25 69,23.9 69.2,23.9 69.2,24.9 70.1,25.4 70.9,24.9 70.9,23.9 71.1,23.9 71.1,25 			"/>
		</g>
		<g>
			<polygon points="72.5,25.6 71.5,25 71.5,23.9 71.7,23.9 71.7,24.9 72.5,25.4 73.4,24.9 73.4,23.9 73.6,23.9 73.6,25 			"/>
		</g>
		<g>
			<polygon points="75,25.6 73.9,25 73.9,23.9 74.2,23.9 74.2,24.9 75,25.4 75.8,24.9 75.8,23.9 76.1,23.9 76.1,25 			"/>
		</g>
		<g>
			<polygon points="77.5,25.6 76.4,25 76.4,23.9 76.6,23.9 76.6,24.9 77.5,25.4 78.3,24.9 78.3,23.9 78.5,23.9 78.5,25 			"/>
		</g>
		<g>
			<polygon points="79.9,25.6 78.8,25 78.8,23.9 79.1,23.9 79.1,24.9 79.9,25.4 80.7,24.9 80.7,23.9 81,23.9 81,25 			"/>
		</g>
		<g>
			<polygon points="82.4,25.6 81.3,25 81.3,23.9 81.5,23.9 81.5,24.9 82.4,25.4 83.2,24.9 83.2,23.9 83.4,23.9 83.4,25 			"/>
		</g>
		<g>
			<polygon points="84.8,25.6 83.8,25 83.8,23.9 84,23.9 84,24.9 84.8,25.4 85.6,24.9 85.6,23.9 85.9,23.9 85.9,25 			"/>
		</g>
		<g>
			<polygon points="87.3,25.6 86.2,25 86.2,23.9 86.5,23.9 86.5,24.9 87.3,25.4 88.1,24.9 88.1,23.9 88.4,23.9 88.4,25 			"/>
		</g>
		<g>
			<polygon points="89.7,25.6 88.7,25 88.7,23.9 88.9,23.9 88.9,24.9 89.7,25.4 90.6,24.9 90.6,23.9 90.8,23.9 90.8,25 			"/>
		</g>
		<g>
			<path d="M4.9,27.6L3.8,27v-1.2l1.1-0.6L6,25.8V27L4.9,27.6z M4.1,26.9l0.8,0.5l0.8-0.5v-0.9l-0.8-0.5l-0.8,0.5V26.9z"/>
		</g>
		<g>
			<path d="M7.4,27.6L6.3,27v-1.2l1.1-0.6l1.1,0.6V27L7.4,27.6z M6.5,26.9l0.8,0.5l0.8-0.5v-0.9l-0.8-0.5l-0.8,0.5V26.9z"/>
		</g>
		<g>
			<path d="M9.8,27.6L8.8,27v-1.2l1.1-0.6l1.1,0.6V27L9.8,27.6z M9,26.9l0.8,0.5l0.8-0.5v-0.9l-0.8-0.5L9,25.9V26.9z"/>
		</g>
		<g>
			<path d="M12.3,27.6L11.2,27v-1.2l1.1-0.6l1.1,0.6V27L12.3,27.6z M11.5,26.9l0.8,0.5l0.8-0.5v-0.9l-0.8-0.5l-0.8,0.5V26.9z"/>
		</g>
		<g>
			<path d="M14.8,27.6L13.7,27v-1.2l1.1-0.6l1.1,0.6V27L14.8,27.6z M13.9,26.9l0.8,0.5l0.8-0.5v-0.9l-0.8-0.5l-0.8,0.5V26.9z"/>
		</g>
		<g>
			<path d="M17.2,27.6L16.1,27v-1.2l1.1-0.6l1.1,0.6V27L17.2,27.6z M16.4,26.9l0.8,0.5l0.8-0.5v-0.9l-0.8-0.5l-0.8,0.5V26.9z"/>
		</g>
		<g>
			<path d="M19.7,27.6L18.6,27v-1.2l1.1-0.6l1.1,0.6V27L19.7,27.6z M18.8,26.9l0.8,0.5l0.8-0.5v-0.9l-0.8-0.5l-0.8,0.5V26.9z"/>
		</g>
		<g>
			<path d="M22.1,27.6L21,27v-1.2l1.1-0.6l1.1,0.6V27L22.1,27.6z M21.3,26.9l0.8,0.5l0.8-0.5v-0.9l-0.8-0.5l-0.8,0.5V26.9z"/>
		</g>
		<g>
			<path d="M24.6,27.6L23.5,27v-1.2l1.1-0.6l1.1,0.6V27L24.6,27.6z M23.8,26.9l0.8,0.5l0.8-0.5v-0.9l-0.8-0.5l-0.8,0.5V26.9z"/>
		</g>
		<g>
			<path d="M27,27.6L26,27v-1.2l1.1-0.6l1.1,0.6V27L27,27.6z M26.2,26.9l0.8,0.5l0.8-0.5v-0.9L27,25.5l-0.8,0.5V26.9z"/>
		</g>
		<g>
			<path d="M29.5,27.6L28.4,27v-1.2l1.1-0.6l1.1,0.6V27L29.5,27.6z M28.7,26.9l0.8,0.5l0.8-0.5v-0.9l-0.8-0.5l-0.8,0.5V26.9z"/>
		</g>
		<g>
			<path d="M32,27.6L30.9,27v-1.2l1.1-0.6l1.1,0.6V27L32,27.6z M31.1,26.9l0.8,0.5l0.8-0.5v-0.9L32,25.5l-0.8,0.5V26.9z"/>
		</g>
		<g>
			<path d="M34.4,27.6L33.3,27v-1.2l1.1-0.6l1.1,0.6V27L34.4,27.6z M33.6,26.9l0.8,0.5l0.8-0.5v-0.9l-0.8-0.5l-0.8,0.5V26.9z"/>
		</g>
		<g>
			<path d="M36.9,27.6L35.8,27v-1.2l1.1-0.6l1.1,0.6V27L36.9,27.6z M36.1,26.9l0.8,0.5l0.8-0.5v-0.9l-0.8-0.5l-0.8,0.5V26.9z"/>
		</g>
		<g>
			<path d="M39.3,27.6L38.3,27v-1.2l1.1-0.6l1.1,0.6V27L39.3,27.6z M38.5,26.9l0.8,0.5l0.8-0.5v-0.9l-0.8-0.5l-0.8,0.5V26.9z"/>
		</g>
		<g>
			<path d="M41.8,27.6L40.7,27v-1.2l1.1-0.6l1.1,0.6V27L41.8,27.6z M41,26.9l0.8,0.5l0.8-0.5v-0.9l-0.8-0.5L41,25.9V26.9z"/>
		</g>
		<g>
			<path d="M44.2,27.6L43.2,27v-1.2l1.1-0.6l1.1,0.6V27L44.2,27.6z M43.4,26.9l0.8,0.5l0.8-0.5v-0.9l-0.8-0.5l-0.8,0.5V26.9z"/>
		</g>
		<g>
			<path d="M46.7,27.6L45.6,27v-1.2l1.1-0.6l1.1,0.6V27L46.7,27.6z M45.9,26.9l0.8,0.5l0.8-0.5v-0.9l-0.8-0.5l-0.8,0.5V26.9z"/>
		</g>
		<g>
			<path d="M49.2,27.6L48.1,27v-1.2l1.1-0.6l1.1,0.6V27L49.2,27.6z M48.3,26.9l0.8,0.5l0.8-0.5v-0.9l-0.8-0.5l-0.8,0.5V26.9z"/>
		</g>
		<g>
			<path d="M51.6,27.6L50.6,27v-1.2l1.1-0.6l1.1,0.6V27L51.6,27.6z M50.8,26.9l0.8,0.5l0.8-0.5v-0.9l-0.8-0.5l-0.8,0.5V26.9z"/>
		</g>
		<g>
			<path d="M54.1,27.6L53,27v-1.2l1.1-0.6l1.1,0.6V27L54.1,27.6z M53.3,26.9l0.8,0.5l0.8-0.5v-0.9l-0.8-0.5l-0.8,0.5V26.9z"/>
		</g>
		<g>
			<path d="M56.5,27.6L55.5,27v-1.2l1.1-0.6l1.1,0.6V27l-0.1,0L56.5,27.6z M55.7,26.9l0.8,0.5l0.8-0.5v-0.9l-0.8-0.5l-0.8,0.5V26.9z
				"/>
		</g>
		<g>
			<path d="M59,27.6L57.9,27v-1.2l1.1-0.6l1.1,0.6V27l-0.1,0L59,27.6z M58.2,26.9l0.8,0.5l0.8-0.5v-0.9L59,25.5l-0.8,0.5V26.9z"/>
		</g>
		<g>
			<path d="M61.5,27.6L60.4,27v-1.2l1.1-0.6l1.1,0.6V27l-0.1,0L61.5,27.6z M60.6,26.9l0.8,0.5l0.8-0.5v-0.9l-0.8-0.5l-0.8,0.5V26.9z
				"/>
		</g>
		<g>
			<path d="M63.9,27.6L62.9,27v-1.2l1.1-0.6l1.1,0.6V27L63.9,27.6z M63.1,26.9l0.8,0.5l0.8-0.5v-0.9l-0.8-0.5l-0.8,0.5V26.9z"/>
		</g>
		<g>
			<path d="M66.4,27.6L65.3,27v-1.2l1.1-0.6l1.1,0.6V27L66.4,27.6z M65.6,26.9l0.8,0.5l0.8-0.5v-0.9l-0.8-0.5l-0.8,0.5V26.9z"/>
		</g>
		<g>
			<path d="M68.8,27.6L67.8,27v-1.2l1.1-0.6l1.1,0.6V27L68.8,27.6z M68,26.9l0.8,0.5l0.8-0.5v-0.9l-0.8-0.5L68,25.9V26.9z"/>
		</g>
		<g>
			<path d="M71.3,27.6L70.2,27v-1.2l1.1-0.6l1.1,0.6V27L71.3,27.6z M70.5,26.9l0.8,0.5l0.8-0.5v-0.9l-0.8-0.5l-0.8,0.5V26.9z"/>
		</g>
		<g>
			<path d="M73.8,27.6L72.7,27v-1.2l1.1-0.6l1.1,0.6V27L73.8,27.6z M72.9,26.9l0.8,0.5l0.8-0.5v-0.9l-0.8-0.5l-0.8,0.5V26.9z"/>
		</g>
		<g>
			<path d="M76.2,27.6L75.1,27v-1.2l1.1-0.6l1.1,0.6V27L76.2,27.6z M75.4,26.9l0.8,0.5l0.8-0.5v-0.9l-0.8-0.5l-0.8,0.5V26.9z"/>
		</g>
		<g>
			<path d="M78.7,27.6L77.6,27v-1.2l1.1-0.6l1.1,0.6V27L78.7,27.6z M77.9,26.9l0.8,0.5l0.8-0.5v-0.9l-0.8-0.5l-0.8,0.5V26.9z"/>
		</g>
		<g>
			<path d="M81.1,27.6L80.1,27v-1.2l1.1-0.6l1.1,0.6V27l-0.1,0L81.1,27.6z M80.3,26.9l0.8,0.5l0.8-0.5v-0.9l-0.8-0.5l-0.8,0.5V26.9z
				"/>
		</g>
		<g>
			<path d="M83.6,27.6L82.5,27v-1.2l1.1-0.6l1.1,0.6V27L83.6,27.6z M82.8,26.9l0.8,0.5l0.8-0.5v-0.9l-0.8-0.5l-0.8,0.5V26.9z"/>
		</g>
		<g>
			<path d="M86,27.6L85,27v-1.2l1.1-0.6l1.1,0.6V27L86,27.6z M85.2,26.9l0.8,0.5l0.8-0.5v-0.9L86,25.5l-0.8,0.5V26.9z"/>
		</g>
		<g>
			<path d="M88.5,27.6L87.4,27v-1.2l1.1-0.6l1.1,0.6V27L88.5,27.6z M87.7,26.9l0.8,0.5l0.8-0.5v-0.9l-0.8-0.5l-0.8,0.5V26.9z"/>
		</g>
		<g>
			<path d="M6.1,29.6L5.1,29v-1.2l1.1-0.6l1.1,0.6V29L6.1,29.6z M5.3,28.9l0.8,0.5L7,28.9v-0.9l-0.8-0.5l-0.8,0.5V28.9z"/>
		</g>
		<g>
			<path d="M8.6,29.6L7.5,29v-1.2l1.1-0.6l1.1,0.6V29L8.6,29.6z M7.8,28.9l0.8,0.5l0.8-0.5v-0.9l-0.8-0.5l-0.8,0.5V28.9z"/>
		</g>
		<g>
			<path d="M11.1,29.6L10,29v-1.2l1.1-0.6l1.1,0.6V29L11.1,29.6z M10.2,28.9l0.8,0.5l0.8-0.5v-0.9l-0.8-0.5l-0.8,0.5V28.9z"/>
		</g>
		<g>
			<path d="M13.5,29.6L12.4,29v-1.2l1.1-0.6l1.1,0.6V29L13.5,29.6z M12.7,28.9l0.8,0.5l0.8-0.5v-0.9l-0.8-0.5l-0.8,0.5V28.9z"/>
		</g>
		<g>
			<path d="M16,29.6L14.9,29v-1.2l1.1-0.6l1.1,0.6V29L16,29.6z M15.2,28.9l0.8,0.5l0.8-0.5v-0.9L16,27.5l-0.8,0.5V28.9z"/>
		</g>
		<g>
			<path d="M18.4,29.6L17.4,29v-1.2l1.1-0.6l1.1,0.6V29L18.4,29.6z M17.6,28.9l0.8,0.5l0.8-0.5v-0.9l-0.8-0.5l-0.8,0.5V28.9z"/>
		</g>
		<g>
			<path d="M20.9,29.6L19.8,29v-1.2l1.1-0.6l1.1,0.6V29L20.9,29.6z M20.1,28.9l0.8,0.5l0.8-0.5v-0.9l-0.8-0.5l-0.8,0.5V28.9z"/>
		</g>
		<g>
			<path d="M23.4,29.6L22.3,29v-1.2l1.1-0.6l1.1,0.6V29L23.4,29.6z M22.5,28.9l0.8,0.5l0.8-0.5v-0.9l-0.8-0.5l-0.8,0.5V28.9z"/>
		</g>
		<g>
			<path d="M25.8,29.6L24.7,29v-1.2l1.1-0.6l1.1,0.6V29L25.8,29.6z M25,28.9l0.8,0.5l0.8-0.5v-0.9l-0.8-0.5L25,27.9V28.9z"/>
		</g>
		<g>
			<path d="M28.3,29.6L27.2,29v-1.2l1.1-0.6l1.1,0.6V29L28.3,29.6z M27.4,28.9l0.8,0.5l0.8-0.5v-0.9l-0.8-0.5l-0.8,0.5V28.9z"/>
		</g>
		<g>
			<path d="M30.7,29.6L29.7,29v-1.2l1.1-0.6l1.1,0.6V29L30.7,29.6z M29.9,28.9l0.8,0.5l0.8-0.5v-0.9l-0.8-0.5l-0.8,0.5V28.9z"/>
		</g>
		<g>
			<path d="M33.2,29.6L32.1,29v-1.2l1.1-0.6l1.1,0.6V29L33.2,29.6z M32.4,28.9l0.8,0.5l0.8-0.5v-0.9l-0.8-0.5l-0.8,0.5V28.9z"/>
		</g>
		<g>
			<path d="M35.7,29.6L34.6,29v-1.2l1.1-0.6l1.1,0.6V29L35.7,29.6z M34.8,28.9l0.8,0.5l0.8-0.5v-0.9l-0.8-0.5l-0.8,0.5V28.9z"/>
		</g>
		<g>
			<path d="M38.1,29.6L37,29v-1.2l1.1-0.6l1.1,0.6V29L38.1,29.6z M37.3,28.9l0.8,0.5l0.8-0.5v-0.9l-0.8-0.5l-0.8,0.5V28.9z"/>
		</g>
		<g>
			<path d="M40.6,29.6L39.5,29v-1.2l1.1-0.6l1.1,0.6V29L40.6,29.6z M39.7,28.9l0.8,0.5l0.8-0.5v-0.9l-0.8-0.5l-0.8,0.5V28.9z"/>
		</g>
		<g>
			<path d="M43,29.6L42,29v-1.2l1.1-0.6l1.1,0.6V29L43,29.6z M42.2,28.9l0.8,0.5l0.8-0.5v-0.9L43,27.5l-0.8,0.5V28.9z"/>
		</g>
		<g>
			<path d="M45.5,29.6L44.4,29v-1.2l1.1-0.6l1.1,0.6V29L45.5,29.6z M44.7,28.9l0.8,0.5l0.8-0.5v-0.9l-0.8-0.5l-0.8,0.5V28.9z"/>
		</g>
		<g>
			<path d="M47.9,29.6L46.9,29v-1.2l1.1-0.6l1.1,0.6V29L47.9,29.6z M47.1,28.9l0.8,0.5l0.8-0.5v-0.9l-0.8-0.5l-0.8,0.5V28.9z"/>
		</g>
		<g>
			<path d="M50.4,29.6L49.3,29v-1.2l1.1-0.6l1.1,0.6V29L50.4,29.6z M49.6,28.9l0.8,0.5l0.8-0.5v-0.9l-0.8-0.5l-0.8,0.5V28.9z"/>
		</g>
		<g>
			<path d="M52.9,29.6L51.8,29v-1.2l1.1-0.6l1.1,0.6V29L52.9,29.6z M52,28.9l0.8,0.5l0.8-0.5v-0.9l-0.8-0.5L52,27.9V28.9z"/>
		</g>
		<g>
			<path d="M55.3,29.6L54.2,29v-1.2l1.1-0.6l1.1,0.6V29L55.3,29.6z M54.5,28.9l0.8,0.5l0.8-0.5v-0.9l-0.8-0.5l-0.8,0.5V28.9z"/>
		</g>
		<g>
			<path d="M57.8,29.6L56.7,29v-1.2l1.1-0.6l1.1,0.6V29L57.8,29.6z M57,28.9l0.8,0.5l0.8-0.5v-0.9l-0.8-0.5L57,27.9V28.9z"/>
		</g>
		<g>
			<path d="M60.2,29.6L59.2,29v-1.2l1.1-0.6l1.1,0.6V29L60.2,29.6z M59.4,28.9l0.8,0.5l0.8-0.5v-0.9l-0.8-0.5l-0.8,0.5V28.9z"/>
		</g>
		<g>
			<path d="M62.7,29.6L61.6,29v-1.2l1.1-0.6l1.1,0.6V29L62.7,29.6z M61.9,28.9l0.8,0.5l0.8-0.5v-0.9l-0.8-0.5l-0.8,0.5V28.9z"/>
		</g>
		<g>
			<path d="M65.2,29.6L64.1,29v-1.2l1.1-0.6l1.1,0.6V29L65.2,29.6z M64.3,28.9l0.8,0.5l0.8-0.5v-0.9l-0.8-0.5l-0.8,0.5V28.9z"/>
		</g>
		<g>
			<path d="M67.6,29.6L66.5,29v-1.2l1.1-0.6l1.1,0.6V29L67.6,29.6z M66.8,28.9l0.8,0.5l0.8-0.5v-0.9l-0.8-0.5l-0.8,0.5V28.9z"/>
		</g>
		<g>
			<path d="M70.1,29.6L69,29v-1.2l1.1-0.6l1.1,0.6V29L70.1,29.6z M69.2,28.9l0.8,0.5l0.8-0.5v-0.9l-0.8-0.5l-0.8,0.5V28.9z"/>
		</g>
		<g>
			<path d="M72.5,29.6L71.5,29v-1.2l1.1-0.6l1.1,0.6V29L72.5,29.6z M71.7,28.9l0.8,0.5l0.8-0.5v-0.9l-0.8-0.5l-0.8,0.5V28.9z"/>
		</g>
		<g>
			<path d="M75,29.6L73.9,29v-1.2l1.1-0.6l1.1,0.6V29L75,29.6z M74.2,28.9l0.8,0.5l0.8-0.5v-0.9L75,27.5l-0.8,0.5V28.9z"/>
		</g>
		<g>
			<path d="M77.5,29.6L76.4,29v-1.2l1.1-0.6l1.1,0.6V29L77.5,29.6z M76.6,28.9l0.8,0.5l0.8-0.5v-0.9l-0.8-0.5l-0.8,0.5V28.9z"/>
		</g>
		<g>
			<path d="M79.9,29.6L78.8,29v-1.2l1.1-0.6l1.1,0.6V29L79.9,29.6z M79.1,28.9l0.8,0.5l0.8-0.5v-0.9l-0.8-0.5l-0.8,0.5V28.9z"/>
		</g>
		<g>
			<path d="M82.4,29.6L81.3,29v-1.2l1.1-0.6l1.1,0.6V29L82.4,29.6z M81.5,28.9l0.8,0.5l0.8-0.5v-0.9l-0.8-0.5l-0.8,0.5V28.9z"/>
		</g>
		<g>
			<path d="M84.8,29.6L83.8,29v-1.2l1.1-0.6l1.1,0.6V29L84.8,29.6z M84,28.9l0.8,0.5l0.8-0.5v-0.9l-0.8-0.5L84,27.9V28.9z"/>
		</g>
		<g>
			<path d="M87.3,29.6L86.2,29v-1.2l1.1-0.6l1.1,0.6V29L87.3,29.6z M86.5,28.9l0.8,0.5l0.8-0.5v-0.9l-0.8-0.5l-0.8,0.5V28.9z"/>
		</g>
		<g>
			<path d="M4.9,31.6L3.8,31v-1.2l1.1-0.6L6,29.8V31L4.9,31.6z M4.1,30.9l0.8,0.5l0.8-0.5v-0.9l-0.8-0.5l-0.8,0.5V30.9z"/>
		</g>
		<g>
			<path d="M7.4,31.6L6.3,31v-1.2l1.1-0.6l1.1,0.6V31L7.4,31.6z M6.5,30.9l0.8,0.5l0.8-0.5v-0.9l-0.8-0.5l-0.8,0.5V30.9z"/>
		</g>
		<g>
			<path d="M9.8,31.6L8.8,31v-1.2l1.1-0.6l1.1,0.6V31L9.8,31.6z M9,30.9l0.8,0.5l0.8-0.5v-0.9l-0.8-0.5L9,29.9V30.9z"/>
		</g>
		<g>
			<path d="M12.3,31.6L11.2,31v-1.2l1.1-0.6l1.1,0.6V31L12.3,31.6z M11.5,30.9l0.8,0.5l0.8-0.5v-0.9l-0.8-0.5l-0.8,0.5V30.9z"/>
		</g>
		<g>
			<path d="M14.8,31.6L13.7,31v-1.2l1.1-0.6l1.1,0.6V31L14.8,31.6z M13.9,30.9l0.8,0.5l0.8-0.5v-0.9l-0.8-0.5l-0.8,0.5V30.9z"/>
		</g>
		<g>
			<path d="M17.2,31.6L16.1,31v-1.2l1.1-0.6l1.1,0.6V31L17.2,31.6z M16.4,30.9l0.8,0.5l0.8-0.5v-0.9l-0.8-0.5l-0.8,0.5V30.9z"/>
		</g>
		<g>
			<path d="M19.7,31.6L18.6,31v-1.2l1.1-0.6l1.1,0.6V31L19.7,31.6z M18.8,30.9l0.8,0.5l0.8-0.5v-0.9l-0.8-0.5l-0.8,0.5V30.9z"/>
		</g>
		<g>
			<path d="M22.1,31.6L21,31v-1.2l1.1-0.6l1.1,0.6V31L22.1,31.6z M21.3,30.9l0.8,0.5l0.8-0.5v-0.9l-0.8-0.5l-0.8,0.5V30.9z"/>
		</g>
		<g>
			<path d="M24.6,31.6L23.5,31v-1.2l1.1-0.6l1.1,0.6V31L24.6,31.6z M23.8,30.9l0.8,0.5l0.8-0.5v-0.9l-0.8-0.5l-0.8,0.5V30.9z"/>
		</g>
		<g>
			<path d="M27,31.6L26,31v-1.2l1.1-0.6l1.1,0.6V31L27,31.6z M26.2,30.9l0.8,0.5l0.8-0.5v-0.9L27,29.5l-0.8,0.5V30.9z"/>
		</g>
		<g>
			<path d="M29.5,31.6L28.4,31v-1.2l1.1-0.6l1.1,0.6V31L29.5,31.6z M28.7,30.9l0.8,0.5l0.8-0.5v-0.9l-0.8-0.5l-0.8,0.5V30.9z"/>
		</g>
		<g>
			<path d="M32,31.6L30.9,31v-1.2l1.1-0.6l1.1,0.6V31L32,31.6z M31.1,30.9l0.8,0.5l0.8-0.5v-0.9L32,29.5l-0.8,0.5V30.9z"/>
		</g>
		<g>
			<path d="M34.4,31.6L33.3,31v-1.2l1.1-0.6l1.1,0.6V31L34.4,31.6z M33.6,30.9l0.8,0.5l0.8-0.5v-0.9l-0.8-0.5l-0.8,0.5V30.9z"/>
		</g>
		<g>
			<path d="M36.9,31.6L35.8,31v-1.2l1.1-0.6l1.1,0.6V31L36.9,31.6z M36.1,30.9l0.8,0.5l0.8-0.5v-0.9l-0.8-0.5l-0.8,0.5V30.9z"/>
		</g>
		<g>
			<path d="M39.3,31.6L38.3,31v-1.2l1.1-0.6l1.1,0.6V31L39.3,31.6z M38.5,30.9l0.8,0.5l0.8-0.5v-0.9l-0.8-0.5l-0.8,0.5V30.9z"/>
		</g>
		<g>
			<path d="M41.8,31.6L40.7,31v-1.2l1.1-0.6l1.1,0.6V31L41.8,31.6z M41,30.9l0.8,0.5l0.8-0.5v-0.9l-0.8-0.5L41,29.9V30.9z"/>
		</g>
		<g>
			<path d="M44.2,31.6L43.2,31v-1.2l1.1-0.6l1.1,0.6V31L44.2,31.6z M43.4,30.9l0.8,0.5l0.8-0.5v-0.9l-0.8-0.5l-0.8,0.5V30.9z"/>
		</g>
		<g>
			<path d="M46.7,31.6L45.6,31v-1.2l1.1-0.6l1.1,0.6V31L46.7,31.6z M45.9,30.9l0.8,0.5l0.8-0.5v-0.9l-0.8-0.5l-0.8,0.5V30.9z"/>
		</g>
		<g>
			<path d="M49.2,31.6L48.1,31v-1.2l1.1-0.6l1.1,0.6V31L49.2,31.6z M48.3,30.9l0.8,0.5l0.8-0.5v-0.9l-0.8-0.5l-0.8,0.5V30.9z"/>
		</g>
		<g>
			<path d="M51.6,31.6L50.6,31v-1.2l1.1-0.6l1.1,0.6V31L51.6,31.6z M50.8,30.9l0.8,0.5l0.8-0.5v-0.9l-0.8-0.5l-0.8,0.5V30.9z"/>
		</g>
		<g>
			<path d="M54.1,31.6L53,31v-1.2l1.1-0.6l1.1,0.6V31L54.1,31.6z M53.3,30.9l0.8,0.5l0.8-0.5v-0.9l-0.8-0.5l-0.8,0.5V30.9z"/>
		</g>
		<g>
			<path d="M56.5,31.6L55.5,31v-1.2l1.1-0.6l1.1,0.6V31l-0.1,0L56.5,31.6z M55.7,30.9l0.8,0.5l0.8-0.5v-0.9l-0.8-0.5l-0.8,0.5V30.9z
				"/>
		</g>
		<g>
			<path d="M59,31.6L57.9,31v-1.2l1.1-0.6l1.1,0.6V31l-0.1,0L59,31.6z M58.2,30.9l0.8,0.5l0.8-0.5v-0.9L59,29.5l-0.8,0.5V30.9z"/>
		</g>
		<g>
			<path d="M61.5,31.6L60.4,31v-1.2l1.1-0.6l1.1,0.6V31l-0.1,0L61.5,31.6z M60.6,30.9l0.8,0.5l0.8-0.5v-0.9l-0.8-0.5l-0.8,0.5V30.9z
				"/>
		</g>
		<g>
			<path d="M63.9,31.6L62.9,31v-1.2l1.1-0.6l1.1,0.6V31L63.9,31.6z M63.1,30.9l0.8,0.5l0.8-0.5v-0.9l-0.8-0.5l-0.8,0.5V30.9z"/>
		</g>
		<g>
			<path d="M66.4,31.6L65.3,31v-1.2l1.1-0.6l1.1,0.6V31L66.4,31.6z M65.6,30.9l0.8,0.5l0.8-0.5v-0.9l-0.8-0.5l-0.8,0.5V30.9z"/>
		</g>
		<g>
			<path d="M68.8,31.6L67.8,31v-1.2l1.1-0.6l1.1,0.6V31L68.8,31.6z M68,30.9l0.8,0.5l0.8-0.5v-0.9l-0.8-0.5L68,29.9V30.9z"/>
		</g>
		<g>
			<path d="M71.3,31.6L70.2,31v-1.2l1.1-0.6l1.1,0.6V31L71.3,31.6z M70.5,30.9l0.8,0.5l0.8-0.5v-0.9l-0.8-0.5l-0.8,0.5V30.9z"/>
		</g>
		<g>
			<path d="M73.8,31.6L72.7,31v-1.2l1.1-0.6l1.1,0.6V31L73.8,31.6z M72.9,30.9l0.8,0.5l0.8-0.5v-0.9l-0.8-0.5l-0.8,0.5V30.9z"/>
		</g>
		<g>
			<path d="M76.2,31.6L75.1,31v-1.2l1.1-0.6l1.1,0.6V31L76.2,31.6z M75.4,30.9l0.8,0.5l0.8-0.5v-0.9l-0.8-0.5l-0.8,0.5V30.9z"/>
		</g>
		<g>
			<path d="M78.7,31.6L77.6,31v-1.2l1.1-0.6l1.1,0.6V31L78.7,31.6z M77.9,30.9l0.8,0.5l0.8-0.5v-0.9l-0.8-0.5l-0.8,0.5V30.9z"/>
		</g>
		<g>
			<path d="M81.1,31.6L80.1,31v-1.2l1.1-0.6l1.1,0.6V31l-0.1,0L81.1,31.6z M80.3,30.9l0.8,0.5l0.8-0.5v-0.9l-0.8-0.5l-0.8,0.5V30.9z
				"/>
		</g>
		<g>
			<path d="M83.6,31.6L82.5,31v-1.2l1.1-0.6l1.1,0.6V31L83.6,31.6z M82.8,30.9l0.8,0.5l0.8-0.5v-0.9l-0.8-0.5l-0.8,0.5V30.9z"/>
		</g>
		<g>
			<path d="M86,31.6L85,31v-1.2l1.1-0.6l1.1,0.6V31L86,31.6z M85.2,30.9l0.8,0.5l0.8-0.5v-0.9L86,29.5l-0.8,0.5V30.9z"/>
		</g>
		<g>
			<path d="M88.5,31.6L87.4,31v-1.2l1.1-0.6l1.1,0.6V31L88.5,31.6z M87.7,30.9l0.8,0.5l0.8-0.5v-0.9l-0.8-0.5l-0.8,0.5V30.9z"/>
		</g>
		<g>
			<polygon points="4.8,33 4.5,33 4.5,31.9 3.7,31.5 2.9,31.9 2.9,33 2.6,33 2.6,31.8 3.7,31.2 4.8,31.8 			"/>
		</g>
		<g>
			<polygon points="7.2,33 7,33 7,31.9 6.1,31.5 5.3,31.9 5.3,33 5.1,33 5.1,31.8 6.1,31.2 7.2,31.8 			"/>
		</g>
		<g>
			<polygon points="9.7,33 9.4,33 9.4,31.9 8.6,31.5 7.8,31.9 7.8,33 7.5,33 7.5,31.8 8.6,31.2 9.7,31.8 			"/>
		</g>
		<g>
			<polygon points="12.1,33 11.9,33 11.9,31.9 11.1,31.5 10.2,31.9 10.2,33 10,33 10,31.8 11.1,31.2 12.1,31.8 			"/>
		</g>
		<g>
			<polygon points="14.6,33 14.3,33 14.3,31.9 13.5,31.5 12.7,31.9 12.7,33 12.4,33 12.4,31.8 13.5,31.2 14.6,31.8 			"/>
		</g>
		<g>
			<polygon points="17,33 16.8,33 16.8,31.9 16,31.5 15.2,31.9 15.2,33 14.9,33 14.9,31.8 16,31.2 17,31.8 			"/>
		</g>
		<g>
			<polygon points="19.5,33 19.3,33 19.3,31.9 18.4,31.5 17.6,31.9 17.6,33 17.4,33 17.4,31.8 18.4,31.2 19.5,31.8 			"/>
		</g>
		<g>
			<polygon points="22,33 21.7,33 21.7,31.9 20.9,31.5 20.1,31.9 20.1,33 19.8,33 19.8,31.8 20.9,31.2 22,31.8 			"/>
		</g>
		<g>
			<polygon points="24.4,33 24.2,33 24.2,31.9 23.4,31.5 22.5,31.9 22.5,33 22.3,33 22.3,31.8 23.4,31.2 24.4,31.8 			"/>
		</g>
		<g>
			<polygon points="26.9,33 26.6,33 26.6,31.9 25.8,31.5 25,31.9 25,33 24.7,33 24.7,31.8 25.8,31.2 26.9,31.8 			"/>
		</g>
		<g>
			<polygon points="29.3,33 29.1,33 29.1,31.9 28.3,31.5 27.4,31.9 27.4,33 27.2,33 27.2,31.8 28.3,31.2 29.3,31.8 			"/>
		</g>
		<g>
			<polygon points="31.8,33 31.6,33 31.6,31.9 30.7,31.5 29.9,31.9 29.9,33 29.7,33 29.7,31.8 30.7,31.2 31.8,31.8 			"/>
		</g>
		<g>
			<polygon points="34.3,33 34,33 34,31.9 33.2,31.5 32.4,31.9 32.4,33 32.1,33 32.1,31.8 33.2,31.2 34.3,31.8 			"/>
		</g>
		<g>
			<polygon points="36.7,33 36.5,33 36.5,31.9 35.6,31.5 34.8,31.9 34.8,33 34.6,33 34.6,31.8 35.7,31.2 36.7,31.8 			"/>
		</g>
		<g>
			<polygon points="39.2,33 38.9,33 38.9,31.9 38.1,31.5 37.3,31.9 37.3,33 37,33 37,31.8 38.1,31.2 39.2,31.8 			"/>
		</g>
		<g>
			<polygon points="41.6,33 41.4,33 41.4,31.9 40.6,31.5 39.7,31.9 39.7,33 39.5,33 39.5,31.8 40.6,31.2 41.6,31.8 			"/>
		</g>
		<g>
			<polygon points="44.1,33 43.8,33 43.8,31.9 43,31.5 42.2,31.9 42.2,33 42,33 42,31.8 43,31.2 44.1,31.8 			"/>
		</g>
		<g>
			<polygon points="46.6,33 46.3,33 46.3,31.9 45.5,31.5 44.7,31.9 44.7,33 44.4,33 44.4,31.8 45.5,31.2 46.6,31.8 			"/>
		</g>
		<g>
			<polygon points="49,33 48.8,33 48.8,31.9 47.9,31.5 47.1,31.9 47.1,33 46.9,33 46.9,31.8 47.9,31.2 49,31.8 			"/>
		</g>
		<g>
			<polygon points="51.5,33 51.2,33 51.2,31.9 50.4,31.5 49.6,31.9 49.6,33 49.3,33 49.3,31.8 50.4,31.2 51.5,31.8 			"/>
		</g>
		<g>
			<polygon points="53.9,33 53.7,33 53.7,31.9 52.9,31.5 52,31.9 52,33 51.8,33 51.8,31.8 52.9,31.2 53.9,31.8 			"/>
		</g>
		<g>
			<polygon points="56.4,33 56.1,33 56.1,31.9 55.3,31.5 54.5,31.9 54.5,33 54.2,33 54.2,31.8 55.3,31.2 56.4,31.8 			"/>
		</g>
		<g>
			<polygon points="58.8,33 58.6,33 58.6,31.9 57.8,31.5 57,31.9 57,33 56.7,33 56.7,31.8 57.8,31.2 58.8,31.8 			"/>
		</g>
		<g>
			<polygon points="61.3,33 61.1,33 61.1,31.9 60.2,31.5 59.4,31.9 59.4,33 59.2,33 59.2,31.8 60.2,31.2 61.3,31.8 			"/>
		</g>
		<g>
			<polygon points="63.8,33 63.5,33 63.5,31.9 62.7,31.5 61.9,31.9 61.9,33 61.6,33 61.6,31.8 62.7,31.2 63.8,31.8 			"/>
		</g>
		<g>
			<polygon points="66.2,33 66,33 66,31.9 65.2,31.5 64.3,31.9 64.3,33 64.1,33 64.1,31.8 65.2,31.2 66.2,31.8 			"/>
		</g>
		<g>
			<polygon points="68.7,33 68.4,33 68.4,31.9 67.6,31.5 66.8,31.9 66.8,33 66.5,33 66.5,31.8 67.6,31.2 68.7,31.8 			"/>
		</g>
		<g>
			<polygon points="71.1,33 70.9,33 70.9,31.9 70.1,31.5 69.2,31.9 69.2,33 69,33 69,31.8 70.1,31.2 71.1,31.8 			"/>
		</g>
		<g>
			<polygon points="73.6,33 73.4,33 73.4,31.9 72.5,31.5 71.7,31.9 71.7,33 71.5,33 71.5,31.8 72.5,31.2 73.6,31.8 			"/>
		</g>
		<g>
			<polygon points="76.1,33 75.8,33 75.8,31.9 75,31.5 74.2,31.9 74.2,33 73.9,33 73.9,31.8 75,31.2 76.1,31.8 			"/>
		</g>
		<g>
			<polygon points="78.5,33 78.3,33 78.3,31.9 77.5,31.5 76.6,31.9 76.6,33 76.4,33 76.4,31.8 77.5,31.2 78.5,31.8 			"/>
		</g>
		<g>
			<polygon points="81,33 80.7,33 80.7,31.9 79.9,31.5 79.1,31.9 79.1,33 78.8,33 78.8,31.8 79.9,31.2 81,31.8 			"/>
		</g>
		<g>
			<polygon points="83.4,33 83.2,33 83.2,31.9 82.4,31.5 81.5,31.9 81.5,33 81.3,33 81.3,31.8 82.4,31.2 83.4,31.8 			"/>
		</g>
		<g>
			<polygon points="85.9,33 85.6,33 85.6,31.9 84.8,31.5 84,31.9 84,33 83.8,33 83.8,31.8 84.8,31.2 85.9,31.8 			"/>
		</g>
		<g>
			<polygon points="88.4,33 88.1,33 88.1,31.9 87.3,31.5 86.5,31.9 86.5,33 86.2,33 86.2,31.8 87.3,31.2 88.4,31.8 			"/>
		</g>
		<g>
			<polygon points="90.8,33 90.6,33 90.6,31.9 89.7,31.5 88.9,31.9 88.9,33 88.7,33 88.7,31.8 89.7,31.2 90.8,31.8 			"/>
		</g>
		<g>
			<circle cx="90.5" cy="5.6" r="0.9"/>
		</g>
		<g>
			<circle cx="3.5" cy="5.6" r="0.9"/>
		</g>
		<g>
			<circle cx="90.5" cy="28.6" r="0.9"/>
		</g>
		<g>
			<circle cx="3.5" cy="28.6" r="0.9"/>
		</g>
		<g>
			<rect x="16.9" y="14.6" width="5.6" height="5.7"/>
		</g>
		<g>
			<rect x="55.3" y="14.6" width="5.6" height="5.7"/>
		</g>
		<g>
			<rect x="63" y="16.9" width="3" height="3.5"/>
		</g>
		<g>
			<rect x="83.4" y="16.9" width="3" height="3.5"/>
		</g>
		<g>
			<rect x="68.1" y="14.3" width="3" height="6.1"/>
		</g>
		<g>
			<rect x="73.2" y="14.3" width="3" height="6.1"/>
		</g>
		<g>
			<rect x="78.3" y="15.7" width="3.1" height="4.7"/>
		</g>
		<g>
			<rect x="24.6" y="14.6" width="13.9" height="5.7"/>
		</g>
		<g>
			<rect x="39.9" y="14.6" width="13.9" height="5.7"/>
		</g>
		<g>
			<polygon points="12.1,14.8 10.5,13.2 8.9,14.8 9.7,15.6 5.8,19.5 7.4,21 8.9,19.5 8.1,18.7 			"/>
		</g>
		<g>
			<rect x="3.4" y="14.8" transform="matrix(0.7071 -0.7071 0.7071 0.7071 -9.4612 9.0543)" width="5.6" height="2.2"/>
		</g>
		<g>
			<rect x="8.9" y="17.2" transform="matrix(0.7071 -0.7071 0.7071 0.7071 -9.5165 13.6201)" width="5.6" height="2.2"/>
		</g>
	</g>
</g>
</svg>
