<?xml version="1.0" encoding="utf-8"?>
<!-- Generator: Adobe Illustrator 24.2.3, SVG Export Plug-In . SVG Version: 6.00 Build 0)  -->
<svg version="1.1" id="Layer_1" xmlns="http://www.w3.org/2000/svg" xmlns:xlink="http://www.w3.org/1999/xlink" x="0px" y="0px"
	 viewBox="0 0 83.6 86.4" style="enable-background:new 0 0 83.6 86.4;" xml:space="preserve">
<g id="Layer_2_1_">
	<g id="Layer_2-2">
		<g>
			<path d="M17.6,6.1C13,6,8.6,4.1,5.4,0.7v14.4c3.2-3.4,7.6-5.3,12.2-5.4C23,9.6,67.4,9.6,78.2,9.6V6.2C67.4,6.2,23,6.2,17.6,6.1z
				 M9.8,9.9L9,9.1L8.2,9.9L7.4,9.1l2-2L9,6.7l-2,2L6.2,7.9l2-2L9,6.7l0.8-0.8l0.8,0.8l-2,2L9,9.1l2-2l0.8,0.8L9.8,9.9z"/>
		</g>
		<g>
			<path d="M78.9,15.8H4.7V0h74.3V15.8z M6.1,14.4h71.4v-13H6.1V14.4z"/>
		</g>
		<g>
			<path d="M78.9,23.8H4.7v-9.4h74.3V23.8z M6.1,22.4h71.4v-6.6H6.1V22.4z"/>
		</g>
		<g>
			<rect x="5.4" y="21.1" width="8.8" height="0.8"/>
		</g>
		<g>
			<rect x="69.9" y="21.1" width="8.4" height="0.8"/>
		</g>
		<g>
			<polygon points="27.8,17.6 27.8,17 26.4,17 26.4,17.6 26.1,17.6 26.1,19 28.1,19 28.1,17.6 			"/>
		</g>
		<g>
			<polygon points="26.4,21.2 26.4,21.9 27.8,21.9 27.8,21.2 28.1,21.2 28.1,19.8 26.1,19.8 26.1,21.2 			"/>
		</g>
		<g>
			<polygon points="25.3,17.6 25.3,17 24,17 24,17.6 23.6,17.6 23.6,19 25.7,19 25.7,17.6 			"/>
		</g>
		<g>
			<polygon points="24,21.2 24,21.9 25.3,21.9 25.3,21.2 25.7,21.2 25.7,19.8 23.6,19.8 23.6,21.2 			"/>
		</g>
		<g>
			<polygon points="22.9,17.6 22.9,17 21.5,17 21.5,17.6 21.1,17.6 21.1,19 23.2,19 23.2,17.6 			"/>
		</g>
		<g>
			<polygon points="21.5,21.2 21.5,21.9 22.9,21.9 22.9,21.2 23.2,21.2 23.2,19.8 21.1,19.8 21.1,21.2 			"/>
		</g>
		<g>
			<polygon points="20.4,17.6 20.4,17 19,17 19,17.6 18.7,17.6 18.7,19 20.7,19 20.7,17.6 			"/>
		</g>
		<g>
			<polygon points="19,21.2 19,21.9 20.4,21.9 20.4,21.2 20.7,21.2 20.7,19.8 18.7,19.8 18.7,21.2 			"/>
		</g>
		<g>
			<path d="M34.4,21.8h-4.8v-3.1h4.8V21.8z M30.4,21h3.3v-1.6h-3.3V21z"/>
		</g>
		<g>
			<polygon points="30.6,19.6 30.6,20 30.6,20.4 33.4,20.4 33.4,20 33.4,19.6 			"/>
		</g>
		<g>
			<polygon points="34.7,19.6 34.7,20 34.7,20.4 37.4,20.4 37.4,20 37.4,19.6 			"/>
		</g>
		<g>
			<polygon points="38.7,19.6 38.7,20 38.7,20.4 41.4,20.4 41.4,20 41.4,19.6 			"/>
		</g>
		<g>
			<polygon points="42.7,19.6 42.7,20 42.7,20.4 45.4,20.4 45.4,20 45.4,19.6 			"/>
		</g>
		<g>
			<path d="M38.4,21.8h-4.8v-3.1h4.8V21.8z M34.4,21h3.3v-1.6h-3.3V21z"/>
		</g>
		<g>
			<path d="M42.4,21.8h-4.8v-3.1h4.8V21.8z M38.4,21h3.3v-1.6h-3.3V21z"/>
		</g>
		<g>
			<path d="M46.4,21.8h-4.8v-3.1h4.8V21.8z M42.4,21h3.3v-1.6h-3.3V21z"/>
		</g>
		<g>
			<path d="M78.9,31.8H4.7v-9.4h74.3V31.8z M6.1,30.4h71.4v-6.6H6.1V30.4z"/>
		</g>
		<g>
			<rect x="5.4" y="29.1" width="8.8" height="0.8"/>
		</g>
		<g>
			<rect x="69.9" y="29.1" width="8.4" height="0.8"/>
		</g>
		<g>
			<path d="M78.9,39.8H4.7v-9.4h74.3V39.8z M6.1,38.4h71.4v-6.6H6.1V38.4z"/>
		</g>
		<g>
			<rect x="5.4" y="37.1" width="8.8" height="0.8"/>
		</g>
		<g>
			<rect x="69.9" y="37.1" width="8.4" height="0.8"/>
		</g>
		<g>
			<path d="M78.9,55.8H4.7v-9.4h74.3V55.8z M6.1,54.4h71.4v-6.6H6.1V54.4z"/>
		</g>
		<g>
			<rect x="5.4" y="53.1" width="8.8" height="0.8"/>
		</g>
		<g>
			<rect x="69.9" y="53.1" width="8.4" height="0.8"/>
		</g>
		<g>
			<path d="M78.9,63.8H4.7v-9.4h74.3V63.8z M6.1,62.4h71.4v-6.6H6.1V62.4z"/>
		</g>
		<g>
			<rect x="5.4" y="61.1" width="8.8" height="0.8"/>
		</g>
		<g>
			<rect x="69.9" y="61.1" width="8.4" height="0.8"/>
		</g>
		<g>
			<polygon points="27.8,57.7 27.8,57 26.4,57 26.4,57.7 26.1,57.7 26.1,59 28.1,59 28.1,57.7 			"/>
		</g>
		<g>
			<polygon points="26.4,61.2 26.4,61.9 27.8,61.9 27.8,61.2 28.1,61.2 28.1,59.8 26.1,59.8 26.1,61.2 			"/>
		</g>
		<g>
			<polygon points="25.3,57.7 25.3,57 24,57 24,57.7 23.6,57.7 23.6,59 25.7,59 25.7,57.7 			"/>
		</g>
		<g>
			<polygon points="24,61.2 24,61.9 25.3,61.9 25.3,61.2 25.7,61.2 25.7,59.8 23.6,59.8 23.6,61.2 			"/>
		</g>
		<g>
			<polygon points="32.8,57.7 32.8,57 31.4,57 31.4,57.7 31.1,57.7 31.1,59 33.2,59 33.2,57.7 			"/>
		</g>
		<g>
			<polygon points="31.4,61.2 31.4,61.9 32.8,61.9 32.8,61.2 33.2,61.2 33.2,59.8 31.1,59.8 31.1,61.2 			"/>
		</g>
		<g>
			<polygon points="30.3,57.7 30.3,57 29,57 29,57.7 28.6,57.7 28.6,59 30.7,59 30.7,57.7 			"/>
		</g>
		<g>
			<polygon points="29,61.2 29,61.9 30.3,61.9 30.3,61.2 30.7,61.2 30.7,59.8 28.6,59.8 28.6,61.2 			"/>
		</g>
		<g>
			<polygon points="22.9,57.7 22.9,57 21.5,57 21.5,57.7 21.1,57.7 21.1,59 23.2,59 23.2,57.7 			"/>
		</g>
		<g>
			<polygon points="21.5,61.2 21.5,61.9 22.9,61.9 22.9,61.2 23.2,61.2 23.2,59.8 21.1,59.8 21.1,61.2 			"/>
		</g>
		<g>
			<polygon points="20.4,57.7 20.4,57 19,57 19,57.7 18.7,57.7 18.7,59 20.7,59 20.7,57.7 			"/>
		</g>
		<g>
			<polygon points="19,61.2 19,61.9 20.4,61.9 20.4,61.2 20.7,61.2 20.7,59.8 18.7,59.8 18.7,61.2 			"/>
		</g>
		<g>
			<path d="M51.4,61.8h-4.8v-3.1h4.8V61.8z M47.4,61h3.3v-1.6h-3.3V61z"/>
		</g>
		<g>
			<polygon points="47.7,59.6 47.7,60 47.7,60.4 50.4,60.4 50.4,60 50.4,59.6 			"/>
		</g>
		<g>
			<polygon points="53.7,59.6 53.7,60 53.7,60.4 56.4,60.4 56.4,60 56.4,59.6 			"/>
		</g>
		<g>
			<path d="M57.4,61.8h-4.8v-3.1h4.8V61.8z M53.4,61h3.3v-1.6h-3.3V61z"/>
		</g>
		<g>
			<path d="M78.9,71.8H4.7v-9.4h74.3V71.8z M6.1,70.4h71.4v-6.6H6.1V70.4z"/>
		</g>
		<g>
			<rect x="5.4" y="69.1" width="8.8" height="0.8"/>
		</g>
		<g>
			<rect x="69.9" y="69.1" width="8.4" height="0.8"/>
		</g>
		<g>
			<path d="M78.9,47.8H4.7v-9.4h74.3V47.8z M6.1,46.4h71.4v-6.6H6.1V46.4z"/>
		</g>
		<g>
			<rect x="5.4" y="45.1" width="8.8" height="0.8"/>
		</g>
		<g>
			<rect x="69.9" y="45.1" width="8.4" height="0.8"/>
		</g>
		<g>
			<path d="M25.7,44.9h-3v-2.8h3V44.9z M23.5,44.2H25v-1.3h-1.5V44.2z"/>
		</g>
		<g>
			<path d="M23.5,44.9h-3v-2.8h3V44.9z M21.3,44.2h1.5v-1.3h-1.5V44.2z"/>
		</g>
		<g>
			<path d="M30.2,44.9h-3v-2.8h3V44.9z M28,44.2h1.5v-1.3H28V44.2z"/>
		</g>
		<g>
			<rect x="60.3" y="44.2" width="1.4" height="0.8"/>
		</g>
		<g>
			<path d="M63.4,45H59v-2.5h4.5V45z M59.7,44.3h3v-1h-3V44.3z"/>
		</g>
		<g>
			<path d="M28,44.9h-3v-2.8h3V44.9z M25.7,44.2h1.5v-1.3h-1.5V44.2z"/>
		</g>
		<g>
			<rect x="59.7" y="43.7" width="3.1" height="0.3"/>
		</g>
		<g>
			<path d="M50.9,45.1h-4.8V42h4.8V45.1z M46.8,44.3h3.3v-1.6h-3.3V44.3z"/>
		</g>
		<g>
			<path d="M43.9,45.1h-3.8V42h3.8V45.1z M40.8,44.3h2.3v-1.6h-2.3V44.3z"/>
		</g>
		<g>
			<path d="M56.9,45.1h-4.8V42h4.8V45.1z M52.8,44.3h3.3v-1.6h-3.3V44.3z"/>
		</g>
		<g>
			<path d="M78.9,79.8H4.7v-9.4h74.3V79.8z M6.1,78.4h71.4v-6.6H6.1V78.4z"/>
		</g>
		<g>
			<rect x="5.4" y="77.1" width="8.8" height="0.8"/>
		</g>
		<g>
			<rect x="69.9" y="77.1" width="8.4" height="0.8"/>
		</g>
		<g>
			<rect x="6.1" y="74.9" width="71.5" height="0.8"/>
		</g>
		<g>
			<path d="M83.6,86.4H0V79h83.6V86.4z M1.4,85h80.8v-4.6H1.4V85z"/>
		</g>
		<g>
			<path d="M83.6,79.8h-5.8V0h5.8V79.8z M79.2,78.4h3v-77h-3V78.4z"/>
		</g>
		<g>
			<path d="M5.8,79.8H0V0h5.8V79.8z M1.4,78.4h3v-77h-3V78.4z"/>
		</g>
		<g>
			<rect x="80.4" y="24.6" width="0.8" height="7.1"/>
		</g>
		<g>
			<rect x="80.4" y="55.7" width="0.8" height="7.1"/>
		</g>
		<g>
			<rect x="2.6" y="24.6" width="0.8" height="7.1"/>
		</g>
		<g>
			<rect x="2.6" y="55.7" width="0.8" height="7.1"/>
		</g>
		<g>
			<rect x="20.5" y="79.2" width="1.4" height="6.5"/>
		</g>
		<g>
			<rect x="41" y="79.2" width="1.4" height="6.5"/>
		</g>
		<g>
			<rect x="61.5" y="79.2" width="1.4" height="6.5"/>
		</g>
		<g>
			<circle cx="7.2" cy="83" r="1.8"/>
		</g>
		<g>
			<circle cx="14.8" cy="83" r="1.8"/>
		</g>
		<g>
			<circle cx="27.8" cy="83" r="1.8"/>
		</g>
		<g>
			<circle cx="35.4" cy="83" r="1.8"/>
		</g>
		<g>
			<circle cx="48.3" cy="83" r="1.8"/>
		</g>
		<g>
			<circle cx="55.9" cy="83" r="1.8"/>
		</g>
		<g>
			<circle cx="68.9" cy="83" r="1.8"/>
		</g>
		<g>
			<circle cx="76.5" cy="83" r="1.8"/>
		</g>
		<g>
			<circle cx="80.7" cy="7.4" r="0.9"/>
		</g>
		<g>
			<circle cx="80.7" cy="10.4" r="0.9"/>
		</g>
		<g>
			<path d="M80.7,4.8c-0.7,0-1.3-0.6-1.3-1.3c0-0.7,0.6-1.3,1.3-1.3c0.7,0,1.3,0.6,1.3,1.3C82,4.2,81.4,4.8,80.7,4.8z M80.7,3
				c-0.3,0-0.5,0.2-0.5,0.5c0,0.3,0.2,0.5,0.5,0.5s0.5-0.2,0.5-0.5C81.2,3.3,81,3,80.7,3z"/>
		</g>
		<g>
			<path d="M80.7,77.8c-0.7,0-1.3-0.6-1.3-1.3c0-0.7,0.6-1.3,1.3-1.3c0.7,0,1.3,0.6,1.3,1.3C82,77.2,81.4,77.8,80.7,77.8z M80.7,76
				c-0.3,0-0.5,0.2-0.5,0.5s0.2,0.5,0.5,0.5s0.5-0.2,0.5-0.5S81,76,80.7,76z"/>
		</g>
		<g>
			<circle cx="3" cy="7.4" r="0.9"/>
		</g>
		<g>
			<circle cx="3" cy="10.4" r="0.9"/>
		</g>
		<g>
			<path d="M3,4.8c-0.7,0-1.3-0.6-1.3-1.3c0-0.7,0.6-1.3,1.3-1.3c0.7,0,1.3,0.6,1.3,1.3C4.2,4.2,3.7,4.8,3,4.8z M3,3
				C2.7,3,2.5,3.3,2.5,3.5c0,0.3,0.2,0.5,0.5,0.5c0.3,0,0.5-0.2,0.5-0.5C3.5,3.3,3.3,3,3,3z"/>
		</g>
		<g>
			<path d="M3,77.8c-0.7,0-1.3-0.6-1.3-1.3c0-0.7,0.6-1.3,1.3-1.3c0.7,0,1.3,0.6,1.3,1.3C4.2,77.2,3.7,77.8,3,77.8z M3,76
				c-0.3,0-0.5,0.2-0.5,0.5s0.2,0.5,0.5,0.5c0.3,0,0.5-0.2,0.5-0.5S3.3,76,3,76z"/>
		</g>
		<g>
			<rect x="20.2" y="71.1" width="0.8" height="4.2"/>
		</g>
		<g>
			<rect x="34.2" y="71.1" width="0.8" height="4.2"/>
		</g>
		<g>
			<rect x="48.2" y="71.1" width="0.8" height="4.2"/>
		</g>
		<g>
			<rect x="62.2" y="71.1" width="0.8" height="4.2"/>
		</g>
		<g>
			<rect x="18.6" y="72.4" width="1" height="2"/>
		</g>
		<g>
			<rect x="32.6" y="72.4" width="1" height="2"/>
		</g>
		<g>
			<rect x="46.6" y="72.4" width="1" height="2"/>
		</g>
		<g>
			<rect x="60.6" y="72.4" width="1" height="2"/>
		</g>
		<g>
			<rect x="72.6" y="72.4" width="1" height="2"/>
		</g>
		<g>
			<rect x="8.6" y="71.1" width="0.8" height="4.3"/>
		</g>
		<g>
			<rect x="74.6" y="71.1" width="0.8" height="4.3"/>
		</g>
	</g>
</g>
</svg>
