<?xml version="1.0" encoding="utf-8"?>
<!-- Generator: Adobe Illustrator 24.0.3, SVG Export Plug-In . SVG Version: 6.00 Build 0)  -->
<svg version="1.1" id="Layer_1" xmlns="http://www.w3.org/2000/svg" xmlns:xlink="http://www.w3.org/1999/xlink" x="0px" y="0px"
	 viewBox="0 0 93.4 13.9" style="enable-background:new 0 0 93.4 13.9;" xml:space="preserve">
<title>PA-800-Series</title>
<g id="Layer_2_1_">
	<g id="Layer_2-2">
		<g>
			<path d="M2.1,12l-1.1-0.6v-1.2l1.1-0.6l1.1,0.6v1.2L2.1,12z M1.3,11.3l0.8,0.5l0.8-0.5v-0.9L2.1,9.8l-0.8,0.5V11.3z"/>
		</g>
		<g>
			<path d="M4.5,9.6l-1.1,0.6v1.2L4.5,12l1.1-0.6v-1.2L4.5,9.6z M5.4,11.3l-0.8,0.5l-0.8-0.5v-0.9l0.8-0.5l0.8,0.5V11.3z"/>
		</g>
		<g>
			<path d="M7.9,10.1L7.7,10L7,9.6l-1.1,0.6v1.2L7,12l0.7-0.4l0.2-0.1L8,11.4v-1.2L7.9,10.1z M7.8,11.3l-0.1,0.1L7,11.7l-0.8-0.5
				v-0.9L7,9.8l0.7,0.4l0.1,0.1V11.3z"/>
		</g>
		<g>
			<path d="M66.2,10.1l-0.2-0.1l-0.2-0.2v0.3l0.2,0.1l0.2,0.1v0.9l-0.2,0.1l-0.2,0.1v0.3l0.2-0.2l0.2-0.1l0.2-0.1v-1.2L66.2,10.1z"
				/>
		</g>
		<g>
			<path d="M67.7,9.6l-1.1,0.6v1.2l1.1,0.6l1.1-0.6v-1.2L67.7,9.6z M68.5,11.3l-0.8,0.5l-0.8-0.5v-0.9l0.8-0.5l0.8,0.5V11.3z"/>
		</g>
		<g>
			<path d="M70.1,9.6l-1.1,0.6v1.2l1.1,0.6l1.1-0.6v-1.2L70.1,9.6z M71,11.3l-0.8,0.5l-0.8-0.5v-0.9l0.8-0.5l0.8,0.5V11.3z"/>
		</g>
		<path d="M73,9.8l-0.2-0.1l-0.2-0.1h-0.1l-0.2,0.1l-0.1,0.1l-0.8,0.4v1.2l1.1,0.6l1.1-0.6v-1.2L73,9.8z M73.4,11.3l-0.8,0.5
			l-0.8-0.5v-0.9l0.8-0.5l0.8,0.5V11.3z"/>
		<path d="M75.5,9.8l-0.2-0.1L75,9.6H75l-0.2,0.1l-0.2,0.1l-0.6,0.3v1.2L75,12l1.1-0.6v-1.2L75.5,9.8z M75.8,11.3L75,11.7l-0.8-0.5
			v-0.9L75,9.8l0.8,0.5V11.3z"/>
		<path d="M77.9,9.8l-0.2-0.1l-0.2-0.1h-0.1l-0.2,0.1L77,9.8l-0.6,0.3v1.2l1.1,0.6l1.1-0.6v-1.2L77.9,9.8z M78.2,11.3l-0.8,0.5
			l-0.8-0.5v-0.9l0.8-0.5l0.8,0.5V11.3z"/>
		<path d="M80.3,9.8l-0.2-0.1l-0.2-0.1h-0.1l-0.2,0.1l-0.2,0.1l-0.6,0.3v1.2l1.1,0.6l1.1-0.6v-1.2L80.3,9.8z M80.7,11.3l-0.8,0.5
			L79,11.3v-0.9l0.8-0.5l0.8,0.5V11.3z"/>
		<path d="M82.8,9.8l-0.2-0.1l-0.2-0.1h-0.1L82,9.7l-0.2,0.1l-0.6,0.3v1.2l1.1,0.6l1.1-0.6v-1.2L82.8,9.8z M83.1,11.3l-0.8,0.5
			l-0.8-0.5v-0.9l0.8-0.5l0.8,0.5V11.3z"/>
		<path d="M85.2,9.8L85,9.7l-0.2-0.1h-0.1l-0.2,0.1l-0.2,0.1l-0.6,0.3v1.2l1.1,0.6l1.1-0.6v-1.2L85.2,9.8z M85.5,11.3l-0.8,0.5
			l-0.8-0.5v-0.9l0.8-0.5l0.8,0.5V11.3z"/>
		<path d="M87.6,9.8l-0.2-0.1l-0.2-0.1h-0.1l-0.2,0.1l-0.2,0.1l-0.6,0.3v1.2l1.1,0.6l1.1-0.6v-1.2L87.6,9.8z M88,11.3l-0.8,0.5
			l-0.8-0.5v-0.9l0.8-0.5l0.8,0.5V11.3z"/>
		<g>
			<polygon points="4.4,13.3 4.1,13.3 4.1,12.3 3.3,11.8 2.5,12.3 2.5,13.3 2.3,13.3 2.3,12.1 3.3,11.5 4.4,12.1 			"/>
		</g>
		<g>
			<polygon points="6.8,13.3 6.6,13.3 6.6,12.3 5.8,11.8 5,12.3 5,13.3 4.7,13.3 4.7,12.1 5.8,11.5 6.8,12.1 			"/>
		</g>
		<g>
			<polygon points="8.2,11.6 8.2,11.8 7.7,12.1 7.4,12.3 7.4,13.3 7.1,13.3 7.1,12.1 7.7,11.8 			"/>
			<rect x="9" y="12.9" width="0.2" height="0.4"/>
		</g>
		<g>
			<rect x="9.6" y="12.9" width="0.2" height="0.4"/>
			<rect x="11.4" y="12.9" width="0.2" height="0.4"/>
		</g>
		<g>
			<rect x="12" y="12.9" width="0.2" height="0.4"/>
			<rect x="13.9" y="12.9" width="0.2" height="0.4"/>
		</g>
		<g>
			<rect x="14.4" y="12.9" width="0.2" height="0.4"/>
			<rect x="16.3" y="12.9" width="0.2" height="0.4"/>
		</g>
		<g>
			<rect x="16.8" y="12.9" width="0.2" height="0.4"/>
			<rect x="18.7" y="12.9" width="0.2" height="0.4"/>
		</g>
		<g>
			<rect x="19.3" y="12.9" width="0.2" height="0.4"/>
			<rect x="21.2" y="12.9" width="0.2" height="0.4"/>
		</g>
		<g>
			<rect x="21.7" y="12.9" width="0.2" height="0.4"/>
			<rect x="23.6" y="12.9" width="0.2" height="0.4"/>
		</g>
		<g>
			<rect x="24.1" y="12.9" width="0.2" height="0.4"/>
			<rect x="26" y="12.9" width="0.2" height="0.4"/>
		</g>
		<g>
			<rect x="26.6" y="12.9" width="0.2" height="0.4"/>
			<rect x="28.4" y="12.9" width="0.2" height="0.4"/>
		</g>
		<g>
			<rect x="29" y="12.9" width="0.2" height="0.4"/>
			<rect x="30.9" y="12.9" width="0.2" height="0.4"/>
		</g>
		<g>
			<rect x="31.4" y="12.9" width="0.2" height="0.4"/>
			<rect x="33.3" y="12.9" width="0.2" height="0.4"/>
		</g>
		<g>
			<rect x="33.8" y="12.9" width="0.2" height="0.4"/>
			<rect x="35.7" y="12.9" width="0.2" height="0.4"/>
		</g>
		<g>
			<rect x="36.3" y="12.9" width="0.2" height="0.4"/>
			<rect x="38.2" y="12.9" width="0.2" height="0.4"/>
		</g>
		<g>
			<rect x="38.7" y="12.9" width="0.2" height="0.4"/>
			<rect x="40.6" y="12.9" width="0.2" height="0.4"/>
		</g>
		<g>
			<rect x="41.2" y="12.9" width="0.2" height="0.4"/>
			<rect x="43" y="12.9" width="0.2" height="0.4"/>
		</g>
		<g>
			<rect x="43.6" y="12.9" width="0.2" height="0.4"/>
			<rect x="45.4" y="12.9" width="0.2" height="0.4"/>
		</g>
		<g>
			<rect x="46" y="12.9" width="0.2" height="0.4"/>
			<rect x="47.9" y="12.9" width="0.2" height="0.4"/>
		</g>
		<g>
			<rect x="48.4" y="12.9" width="0.2" height="0.4"/>
			<rect x="50.3" y="12.9" width="0.2" height="0.4"/>
		</g>
		<g>
			<rect x="50.9" y="12.9" width="0.2" height="0.4"/>
			<rect x="52.7" y="12.9" width="0.2" height="0.4"/>
		</g>
		<g>
			<rect x="53.3" y="12.9" width="0.2" height="0.4"/>
			<rect x="55.2" y="12.9" width="0.2" height="0.4"/>
		</g>
		<g>
			<rect x="55.7" y="12.9" width="0.2" height="0.4"/>
			<rect x="57.6" y="12.9" width="0.2" height="0.4"/>
		</g>
		<g>
			<rect x="58.1" y="12.9" width="0.2" height="0.4"/>
			<rect x="60" y="12.9" width="0.2" height="0.4"/>
		</g>
		<g>
			<rect x="60.6" y="12.9" width="0.2" height="0.4"/>
			<rect x="62.5" y="12.9" width="0.2" height="0.4"/>
		</g>
		<g>
			<rect x="63" y="12.9" width="0.2" height="0.4"/>
			<rect x="64.9" y="12.9" width="0.2" height="0.4"/>
		</g>
		<g>
			<polygon points="67.5,12.1 67.5,13.3 67.3,13.3 67.3,12.3 66.5,11.8 66.2,12 65.7,12.3 65.7,13.3 65.4,13.3 65.4,12.9 65.7,12.9 
				65.7,12 66.2,11.7 66.5,11.5 			"/>
		</g>
		<g>
			<polygon points="70,13.3 69.7,13.3 69.7,12.3 68.9,11.8 68.1,12.3 68.1,13.3 67.9,13.3 67.9,12.1 68.9,11.5 70,12.1 			"/>
		</g>
		<g>
			<polygon points="72.4,13.3 72.2,13.3 72.2,12.3 71.4,11.8 70.5,12.3 70.5,13.3 70.3,13.3 70.3,12.1 71.4,11.5 72.4,12.1 			"/>
		</g>
		<g>
			<polygon points="74.8,13.3 74.6,13.3 74.6,12.3 73.8,11.8 73,12.3 73,13.3 72.7,13.3 72.7,12.1 73.8,11.5 74.8,12.1 			"/>
		</g>
		<g>
			<polygon points="77.3,13.3 77,13.3 77,12.3 76.2,11.8 75.4,12.3 75.4,13.3 75.2,13.3 75.2,12.1 76.2,11.5 77.3,12.1 			"/>
		</g>
		<g>
			<polygon points="79.7,13.3 79.5,13.3 79.5,12.3 78.6,11.8 77.8,12.3 77.8,13.3 77.6,13.3 77.6,12.1 78.6,11.5 79.7,12.1 			"/>
		</g>
		<g>
			<polygon points="82.1,13.3 81.9,13.3 81.9,12.3 81.1,11.8 80.3,12.3 80.3,13.3 80,13.3 80,12.1 81.1,11.5 82.1,12.1 			"/>
		</g>
		<g>
			<polygon points="84.6,13.3 84.3,13.3 84.3,12.3 83.5,11.8 82.7,12.3 82.7,13.3 82.4,13.3 82.4,12.1 83.5,11.5 84.6,12.1 			"/>
		</g>
		<g>
			<polygon points="87,13.3 86.7,13.3 86.7,12.3 85.9,11.8 85.1,12.3 85.1,13.3 84.9,13.3 84.9,12.1 85.9,11.5 87,12.1 			"/>
		</g>
		<g>
			<path d="M2.1,5.6L1.1,6.2v1.2L2.1,8l1.1-0.6V6.2L2.1,5.6z M2.9,7.3L2.1,7.7L1.3,7.3V6.3l0.8-0.5l0.8,0.5V7.3z"/>
		</g>
		<g>
			<path d="M4.5,5.6L3.5,6.2v1.2L4.5,8l1.1-0.6V6.2L4.5,5.6z M5.4,7.3L4.5,7.7L3.7,7.3V6.3l0.8-0.5l0.8,0.5V7.3z"/>
		</g>
		<g>
			<path d="M7.9,6.1L7.7,6L7,5.6L5.9,6.2v1.2L7,8l0.7-0.4l0.2-0.1L8,7.4V6.2L7.9,6.1z M7.8,7.3L7.7,7.3L7,7.7L6.2,7.3V6.3L7,5.9
				l0.7,0.4l0.1,0.1V7.3z"/>
		</g>
		<g>
			<path d="M66.2,6.1l-0.2-0.1l-0.2-0.1v0.3l0.2,0.1l0.2,0.1v0.9l-0.2,0.1l-0.2,0.1v0.3l0.2-0.2l0.2-0.1l0.2-0.1V6.2L66.2,6.1z"/>
		</g>
		<g>
			<path d="M67.7,5.6l-1.1,0.6v1.2L67.7,8l1.1-0.6V6.2L67.7,5.6z M68.5,7.3l-0.8,0.5l-0.8-0.5V6.3l0.8-0.5l0.8,0.5V7.3z"/>
		</g>
		<g>
			<path d="M70.1,5.6l-1.1,0.6v1.2L70.1,8l1.1-0.6V6.2L70.1,5.6z M71,7.3l-0.8,0.5l-0.8-0.5V6.3l0.8-0.5L71,6.3V7.3z"/>
		</g>
		<g>
			<path d="M72.6,5.6L72.6,5.6h-0.1l-0.1,0.1l-0.1,0.1l-0.8,0.4v1.2l0.8,0.4l0.1,0.1L72.5,8V7.7l-0.1-0.1l-0.1-0.1l-0.5-0.3V6.3
				L72.2,6L72.4,6l0.1-0.1V5.7h0.4L72.6,5.6z"/>
		</g>
		<g>
			<path d="M75.1,5.6L75.1,5.6h-0.1l-0.2,0.1h0.6L75.1,5.6z"/>
		</g>
		<g>
			<path d="M77.5,5.6L77.5,5.6h-0.1l-0.2,0.1h0.6L77.5,5.6z"/>
		</g>
		<g>
			<path d="M79.9,5.6L79.9,5.6h-0.1l-0.2,0.1h0.6L79.9,5.6z"/>
		</g>
		<g>
			<path d="M82.4,5.6L82.4,5.6h-0.1L82,5.7h0.6L82.4,5.6z"/>
		</g>
		<g>
			<path d="M84.8,5.6L84.8,5.6h-0.1l-0.2,0.1H85L84.8,5.6z"/>
		</g>
		<g>
			<path d="M87.1,5.6L87.1,5.6l-0.3,0.2h0.6L87.1,5.6L87.1,5.6z M88,6.1L87.9,6l-0.1-0.1v0.3l0.1,0.1l0.1,0v0.9l-0.1,0.1l-0.1,0.1
				v0.3l0.1-0.1L88,7.5l0.2-0.1V6.2L88,6.1z"/>
		</g>
		<g>
			<path d="M3.3,7.5L2.3,8.1v1.2L3.3,10l1.1-0.6V8.1L3.3,7.5z M4.2,9.2L3.3,9.7L2.5,9.2V8.3l0.8-0.5l0.8,0.5V9.2z"/>
		</g>
		<g>
			<path d="M5.8,7.5l-1,0.6v1.2l1,0.6l1.1-0.6V8.1L5.8,7.5z M6.6,9.2L5.8,9.7L5,9.2V8.3l0.8-0.5l0.8,0.5V9.2z"/>
		</g>
		<g>
			<path d="M7.7,8.1L7.9,8l0.2-0.2V7.6L7.9,7.7L7.7,7.8L7.1,8.1v1.2l0.5,0.3l0.2,0.1L8.2,10V9.7L7.9,9.5L7.7,9.4L7.4,9.2V8.3
				L7.7,8.1z"/>
		</g>
		<g>
			<path d="M67.3,9.2l-0.8,0.5l-0.3-0.2l-0.2-0.1l-0.2-0.1V8.3l0.2-0.1L66.2,8l0.3-0.2l0.8,0.5V9.2z M66.5,7.5l-0.3,0.2l-0.2,0.1
				L65.7,8v1.5l0.5,0.3l0.3,0.2l1-0.6V8.1L66.5,7.5z"/>
		</g>
		<g>
			<path d="M68.9,7.5l-1.1,0.6v1.2l1.1,0.6L70,9.4V8.1L68.9,7.5z M69.7,9.2l-0.8,0.5l-0.8-0.5V8.3l0.8-0.5l0.8,0.5V9.2z"/>
		</g>
		<g>
			<path d="M72.4,8.1l-0.1-0.1l-0.9-0.5l-1.1,0.6v1.2l1.1,0.6l0.9-0.5l0.1-0.1l0,0L72.4,8.1L72.4,8.1z M72.2,9.2l-0.8,0.5l-0.8-0.5
				V8.3l0.8-0.5l0.8,0.5V9.2z"/>
		</g>
		<g>
			<path d="M74,9.6l-0.2,0.1l-0.2-0.1h-0.5l0.2,0.1l0.2,0.1l0.3,0.2L74,9.8l0.2-0.1l0.2-0.1H74z"/>
		</g>
		<g>
			<path d="M76.4,9.6l-0.2,0.1L76,9.6h-0.5l0.2,0.1L76,9.8l0.3,0.2l0.3-0.2l0.2-0.1l0.2-0.1H76.4z"/>
		</g>
		<g>
			<path d="M78.8,9.6l-0.2,0.1l-0.2-0.1h-0.5l0.2,0.1l0.2,0.1l0.3,0.2l0.3-0.2l0.2-0.1l0.2-0.1H78.8z"/>
		</g>
		<g>
			<path d="M81.3,9.6l-0.2,0.1l-0.2-0.1h-0.5l0.2,0.1l0.2,0.1l0.3,0.2l0.3-0.2l0.2-0.1l0.2-0.1H81.3z"/>
		</g>
		<g>
			<path d="M83.7,9.6l-0.2,0.1l-0.2-0.1h-0.5L83,9.7l0.2,0.1l0.3,0.2l0.3-0.2L84,9.7l0.2-0.1H83.7z"/>
		</g>
		<g>
			<path d="M86.1,9.6l-0.2,0.1l-0.2-0.1h-0.5l0.2,0.1l0.2,0.1l0.3,0.2l0.3-0.2l0.2-0.1l0.2-0.1H86.1z"/>
		</g>
		<g>
			<path d="M2.1,4L1.1,3.4V2.2l1.1-0.6l1.1,0.6v1.2L2.1,4z M1.3,3.3l0.8,0.5l0.8-0.5V2.3L2.1,1.8L1.3,2.3V3.3z"/>
		</g>
		<g>
			<path d="M4.5,4L3.5,3.4V2.2l1.1-0.6l1.1,0.6v1.2L4.5,4z M3.7,3.3l0.8,0.5l0.8-0.5V2.3L4.5,1.8L3.7,2.3V3.3z"/>
		</g>
		<g>
			<path d="M7,4L5.9,3.4V2.2L7,1.6L8,2.2v1.2L7,4z M6.2,3.3L7,3.7l0.8-0.5V2.3L7,1.8L6.2,2.3V3.3z"/>
		</g>
		<g>
			<path d="M10.1,1.9L9.4,1.6L8.7,1.9L8.3,2.2v0.3h0.2V2.3l0.6-0.4l0.2-0.1l0.2,0.1l0.6,0.4v0.1h0.2V2.2L10.1,1.9z"/>
		</g>
		<g>
			<path d="M12.5,1.9l-0.7-0.4l-0.7,0.4l-0.4,0.2v0.3H11V2.3l0.6-0.4l0.2-0.1L12,1.9l0.6,0.4v0.1h0.2V2.2L12.5,1.9z"/>
		</g>
		<g>
			<path d="M14.9,1.9l-0.7-0.4l-0.7,0.4l-0.4,0.2v0.3h0.2V2.3l0.6-0.4l0.2-0.1l0.2,0.1l0.6,0.4v0.1h0.2V2.2L14.9,1.9z"/>
		</g>
		<g>
			<path d="M17.4,1.9l-0.7-0.4L16,1.9l-0.4,0.2v0.3h0.2V2.3l0.7-0.4l0.2-0.1l0.2,0.1l0.6,0.4v0.1h0.2V2.2L17.4,1.9z"/>
		</g>
		<g>
			<path d="M19.8,1.9l-0.7-0.4l-0.7,0.4l-0.4,0.2v0.3h0.2V2.3L19,1.9l0.2-0.1l0.2,0.1l0.6,0.4v0.1h0.2V2.2L19.8,1.9z"/>
		</g>
		<g>
			<path d="M22.2,1.9l-0.7-0.4l-0.7,0.4l-0.4,0.2v0.3h0.2V2.3l0.6-0.4l0.2-0.1l0.2,0.1l0.7,0.4v0.1h0.2V2.2L22.2,1.9z"/>
		</g>
		<g>
			<path d="M24.7,1.9L24,1.6l-0.7,0.4l-0.4,0.2v0.3h0.2V2.3l0.6-0.4L24,1.9l0.2,0.1l0.6,0.4v0.1H25V2.2L24.7,1.9z"/>
		</g>
		<g>
			<path d="M27.1,1.9l-0.7-0.4l-0.7,0.4l-0.4,0.2v0.3h0.2V2.3l0.6-0.4l0.2-0.1l0.2,0.1l0.6,0.4v0.1h0.2V2.2L27.1,1.9z"/>
		</g>
		<g>
			<path d="M29.5,1.9l-0.7-0.4l-0.7,0.4l-0.4,0.2v0.3H28V2.3l0.6-0.4l0.2-0.1L29,1.9l0.6,0.4v0.1h0.2V2.2L29.5,1.9z"/>
		</g>
		<g>
			<path d="M31.9,1.9l-0.7-0.4l-0.7,0.4l-0.4,0.2v0.3h0.2V2.3l0.6-0.4l0.2-0.1l0.2,0.1l0.6,0.4v0.1h0.2V2.2L31.9,1.9z"/>
		</g>
		<g>
			<path d="M34.4,1.9l-0.7-0.4L33,1.9l-0.4,0.2v0.3h0.2V2.3l0.6-0.4l0.2-0.1l0.2,0.1l0.7,0.4v0.1h0.2V2.2L34.4,1.9z"/>
		</g>
		<g>
			<path d="M36.8,1.9l-0.7-0.4l-0.7,0.4l-0.4,0.2v0.3h0.2V2.3L36,1.9l0.2-0.1l0.2,0.1l0.6,0.4v0.1h0.2V2.2L36.8,1.9z"/>
		</g>
		<g>
			<path d="M39.2,1.9l-0.7-0.4l-0.7,0.4l-0.4,0.2v0.3h0.2V2.3l0.6-0.4l0.2-0.1l0.2,0.1l0.7,0.4v0.1h0.2V2.2L39.2,1.9z"/>
		</g>
		<g>
			<path d="M41.7,1.9L41,1.6l-0.7,0.4l-0.4,0.2v0.3h0.2V2.3l0.7-0.4L41,1.9l0.2,0.1l0.7,0.4v0.1h0.2V2.2L41.7,1.9z"/>
		</g>
		<g>
			<path d="M44.1,1.9l-0.7-0.4l-0.7,0.4l-0.4,0.2v0.3h0.2V2.3l0.7-0.4l0.2-0.1l0.2,0.1l0.6,0.4v0.1h0.2V2.2L44.1,1.9z"/>
		</g>
		<g>
			<path d="M46.5,1.9l-0.7-0.4l-0.7,0.4l-0.4,0.2v0.3H45V2.3l0.6-0.4l0.2-0.1L46,1.9l0.6,0.4v0.1h0.2V2.2L46.5,1.9z"/>
		</g>
		<g>
			<path d="M48.9,1.9l-0.7-0.4l-0.7,0.4l-0.4,0.2v0.3h0.2V2.3l0.6-0.4l0.2-0.1l0.2,0.1l0.6,0.4v0.1h0.2V2.2L48.9,1.9z"/>
		</g>
		<g>
			<path d="M51.4,1.9l-0.7-0.4L50,1.9l-0.4,0.2v0.3h0.2V2.3l0.6-0.4l0.2-0.1l0.2,0.1l0.6,0.4v0.1h0.2V2.2L51.4,1.9z"/>
		</g>
		<g>
			<path d="M53.8,1.9l-0.7-0.4l-0.7,0.4l-0.4,0.2v0.3h0.2V2.3L53,1.9l0.2-0.1l0.2,0.1L54,2.3v0.1h0.2V2.2L53.8,1.9z"/>
		</g>
		<g>
			<path d="M56.2,1.9l-0.7-0.4l-0.7,0.4l-0.4,0.2v0.3h0.2V2.3l0.6-0.4l0.2-0.1l0.2,0.1l0.7,0.4v0.1h0.2V2.2L56.2,1.9z"/>
		</g>
		<g>
			<path d="M58.7,1.9L58,1.6l-0.7,0.4l-0.4,0.2v0.3h0.2V2.3l0.6-0.4L58,1.9l0.2,0.1l0.6,0.4v0.1H59V2.2L58.7,1.9z"/>
		</g>
		<g>
			<path d="M61.1,1.9l-0.7-0.4l-0.7,0.4l-0.4,0.2v0.3h0.2V2.3l0.6-0.4l0.2-0.1l0.2,0.1l0.6,0.4v0.1h0.2V2.2L61.1,1.9z"/>
		</g>
		<g>
			<path d="M63.5,1.9l-0.7-0.4l-0.7,0.4l-0.4,0.2v0.3H62V2.3l0.6-0.4l0.2-0.1L63,1.9l0.6,0.4v0.1h0.2V2.2L63.5,1.9z"/>
		</g>
		<g>
			<path d="M66.2,2.1L66,1.9l-0.7-0.4l-0.7,0.4l-0.4,0.2v0.3h0.2V2.3l0.6-0.4l0.2-0.1l0.2,0.1l0.6,0.4v0.9l-0.4,0.2v0.3l0.5-0.3
				l0.2-0.1V2.2L66.2,2.1z"/>
		</g>
		<g>
			<path d="M67.7,4l-1.1-0.6V2.2l1.1-0.6l1.1,0.6v1.2L67.7,4z M66.9,3.3l0.8,0.5l0.8-0.5V2.3l-0.8-0.5l-0.8,0.5V3.3z"/>
		</g>
		<g>
			<path d="M70.1,4l-1.1-0.6V2.2l1.1-0.6l1.1,0.6v1.2L70.1,4z M69.3,3.3l0.8,0.5L71,3.3V2.3l-0.8-0.5l-0.8,0.5V3.3z"/>
		</g>
		<g>
			<path d="M72.6,4l-1.1-0.6V2.2l1.1-0.6l1.1,0.6v1.2L72.6,4z M71.8,3.3l0.8,0.5l0.8-0.5V2.3l-0.8-0.5l-0.8,0.5V3.3z"/>
		</g>
		<g>
			<path d="M75,4l-1.1-0.6V2.2L75,1.6l1.1,0.6v1.2L75,4z M74.2,3.3L75,3.7l0.8-0.5V2.3L75,1.8l-0.8,0.5V3.3z"/>
		</g>
		<g>
			<path d="M77.4,4l-1.1-0.6V2.2l1.1-0.6l1.1,0.6v1.2L77.4,4z M76.6,3.3l0.8,0.5l0.8-0.5V2.3l-0.8-0.5l-0.8,0.5V3.3z"/>
		</g>
		<g>
			<path d="M79.9,4l-1.1-0.6V2.2l1.1-0.6l1.1,0.6v1.2L79.9,4z M79,3.3l0.8,0.5l0.8-0.5V2.3l-0.8-0.5L79,2.3V3.3z"/>
		</g>
		<g>
			<path d="M82.3,4l-1.1-0.6V2.2l1.1-0.6l1.1,0.6v1.2L82.3,4z M81.5,3.3l0.8,0.5l0.8-0.5V2.3l-0.8-0.5l-0.8,0.5V3.3z"/>
		</g>
		<g>
			<path d="M84.7,4l-1.1-0.6V2.2l1.1-0.6l1.1,0.6v1.2L84.7,4z M83.9,3.3l0.8,0.5l0.8-0.5V2.3l-0.8-0.5l-0.8,0.5V3.3z"/>
		</g>
		<g>
			<path d="M87.1,4l-1.1-0.6V2.2l1.1-0.6l1.1,0.6v1.2L87.1,4z M86.3,3.3l0.8,0.5L88,3.3V2.3l-0.8-0.5l-0.8,0.5V3.3z"/>
		</g>
		<g>
			<path d="M3.3,3.5L2.3,4.1v1.2L3.3,6l1.1-0.6V4.1L3.3,3.5z M4.2,5.2L3.3,5.7L2.5,5.2V4.3l0.8-0.5l0.8,0.5V5.2z"/>
		</g>
		<g>
			<path d="M5.8,3.5l-1,0.6v1.2l1,0.6l1.1-0.6V4.1L5.8,3.5z M6.6,5.2L5.8,5.7L5,5.2V4.3l0.8-0.5l0.8,0.5V5.2z"/>
		</g>
		<g>
			<path d="M7.7,4.1L7.9,4l0.2-0.2V3.6L7.9,3.7L7.7,3.8L7.1,4.1v1.2l0.5,0.3l0.2,0.1L8.2,6V5.7L7.9,5.5L7.7,5.4L7.4,5.2V4.3L7.7,4.1
				z"/>
		</g>
		<g>
			<path d="M66.5,3.5l-0.3,0.2l-0.2,0.1L65.7,4v1.5l0.5,0.3L66.5,6l1-0.6V4.1L66.5,3.5z M67.3,5.2l-0.8,0.5l-0.3-0.2l-0.2-0.1
				l-0.2-0.1V4.3l0.2-0.1L66.2,4l0.3-0.2l0.8,0.5V5.2z"/>
		</g>
		<g>
			<path d="M68.9,3.5l-1.1,0.6v1.2L68.9,6L70,5.4V4.1L68.9,3.5z M69.7,5.2l-0.8,0.5l-0.8-0.5V4.3l0.8-0.5l0.8,0.5V5.2z"/>
		</g>
		<g>
			<path d="M71.4,3.5l-1.1,0.6v1.2L71.4,6l1.1-0.6V4.1L71.4,3.5z M72.2,5.2l-0.8,0.5l-0.8-0.5V4.3l0.8-0.5l0.8,0.5V5.2z"/>
		</g>
		<g>
			<path d="M74,5.6l-0.2,0.1l-0.2-0.1l-0.2-0.1L73,5.2V4.3l0.8-0.5l0.8,0.5v0.9l-0.4,0.2L74,5.6z M73.8,3.5l-1.1,0.6v1.2l0.2,0.1
				l0.2,0.1l0.2,0.1h0.9l0.2-0.1l0.2-0.1l0.2-0.1V4.1L73.8,3.5z"/>
		</g>
		<g>
			<path d="M76.2,3.5l-1.1,0.6v1.2l0.2,0.1l0.2,0.1l0.2,0.1h0.9l0.2-0.1l0.2-0.1l0.2-0.1V4.1L76.2,3.5z M76.4,5.6l-0.2,0.1L76,5.6
				l-0.2-0.1l-0.4-0.2V4.3l0.8-0.5L77,4.3v0.9l-0.4,0.2L76.4,5.6z"/>
		</g>
		<g>
			<path d="M78.6,3.5l-1.1,0.6v1.2l0.2,0.1L78,5.6l0.2,0.1h0.9l0.2-0.1l0.2-0.1l0.2-0.1V4.1L78.6,3.5z M78.8,5.6l-0.2,0.1l-0.2-0.1
				l-0.2-0.1l-0.4-0.2V4.3l0.8-0.5l0.8,0.5v0.9L79,5.5L78.8,5.6z"/>
		</g>
		<g>
			<path d="M81.1,3.5L80,4.1v1.2l0.2,0.1l0.2,0.1l0.2,0.1h0.9l0.2-0.1l0.2-0.1l0.2-0.1V4.1L81.1,3.5z M81.2,5.6l-0.2,0.1l-0.2-0.1
				l-0.2-0.1l-0.4-0.2V4.3l0.8-0.5l0.8,0.5v0.9l-0.4,0.2L81.2,5.6z"/>
		</g>
		<g>
			<path d="M83.5,3.5l-1.1,0.6v1.2l0.2,0.1l0.2,0.1l0.2,0.1h0.9l0.2-0.1l0.2-0.1l0.2-0.1V4.1L83.5,3.5z M83.7,5.6l-0.2,0.1l-0.2-0.1
				l-0.2-0.1l-0.4-0.2V4.3l0.8-0.5l0.8,0.5v0.9l-0.4,0.2L83.7,5.6z"/>
		</g>
		<g>
			<path d="M85.9,3.5l-1.1,0.6v1.2l0.2,0.1l0.2,0.1l0.2,0.1h0.9l0.2-0.1l0.2-0.1L87,5.4V4.1L85.9,3.5z M86.1,5.6l-0.2,0.1l-0.2-0.1
				l-0.2-0.1l-0.4-0.2V4.3l0.8-0.5l0.8,0.5v0.9l-0.4,0.2L86.1,5.6z"/>
		</g>
		<g>
			<polygon points="3.3,2 2.3,1.4 2.3,0.2 2.5,0.2 2.5,1.2 3.3,1.7 4.1,1.2 4.1,0.2 4.4,0.2 4.4,1.4 			"/>
		</g>
		<g>
			<polygon points="5.8,2 4.7,1.4 4.7,0.2 5,0.2 5,1.2 5.8,1.7 6.6,1.2 6.6,0.2 6.8,0.2 6.8,1.4 			"/>
		</g>
		<g>
			<polygon points="8.2,2 7.1,1.4 7.1,0.2 7.4,0.2 7.4,1.2 8.2,1.7 9,1.2 9,0.2 9.3,0.2 9.3,1.4 			"/>
		</g>
		<g>
			<polygon points="10.6,2 9.6,1.4 9.6,0.2 9.8,0.2 9.8,1.2 10.6,1.7 11.4,1.2 11.4,0.2 11.7,0.2 11.7,1.4 			"/>
		</g>
		<g>
			<polygon points="13,2 12,1.4 12,0.2 12.2,0.2 12.2,1.2 13.1,1.7 13.9,1.2 13.9,0.2 14.1,0.2 14.1,1.4 			"/>
		</g>
		<g>
			<polygon points="15.5,2 14.4,1.4 14.4,0.2 14.7,0.2 14.7,1.2 15.5,1.7 16.3,1.2 16.3,0.2 16.5,0.2 16.5,1.4 			"/>
		</g>
		<g>
			<polygon points="17.9,2 16.9,1.4 16.9,0.2 17.1,0.2 17.1,1.2 17.9,1.7 18.7,1.2 18.7,0.2 19,0.2 19,1.4 			"/>
		</g>
		<g>
			<polygon points="20.3,2 19.3,1.4 19.3,0.2 19.5,0.2 19.5,1.2 20.3,1.7 21.2,1.2 21.2,0.2 21.4,0.2 21.4,1.4 			"/>
		</g>
		<g>
			<polygon points="22.8,2 21.7,1.4 21.7,0.2 22,0.2 22,1.2 22.8,1.7 23.6,1.2 23.6,0.2 23.8,0.2 23.8,1.4 			"/>
		</g>
		<g>
			<polygon points="25.2,2 24.1,1.4 24.1,0.2 24.4,0.2 24.4,1.2 25.2,1.7 26,1.2 26,0.2 26.3,0.2 26.3,1.4 			"/>
		</g>
		<g>
			<polygon points="27.6,2 26.6,1.4 26.6,0.2 26.8,0.2 26.8,1.2 27.6,1.7 28.4,1.2 28.4,0.2 28.7,0.2 28.7,1.4 			"/>
		</g>
		<g>
			<polygon points="30.1,2 29,1.4 29,0.2 29.2,0.2 29.2,1.2 30.1,1.7 30.9,1.2 30.9,0.2 31.1,0.2 31.1,1.4 			"/>
		</g>
		<g>
			<polygon points="32.5,2 31.4,1.4 31.4,0.2 31.7,0.2 31.7,1.2 32.5,1.7 33.3,1.2 33.3,0.2 33.5,0.2 33.5,1.4 			"/>
		</g>
		<g>
			<polygon points="34.9,2 33.9,1.4 33.9,0.2 34.1,0.2 34.1,1.2 34.9,1.7 35.7,1.2 35.7,0.2 36,0.2 36,1.4 			"/>
		</g>
		<g>
			<polygon points="37.3,2 36.3,1.4 36.3,0.2 36.5,0.2 36.5,1.2 37.3,1.7 38.2,1.2 38.2,0.2 38.4,0.2 38.4,1.4 			"/>
		</g>
		<g>
			<polygon points="39.8,2 38.7,1.4 38.7,0.2 39,0.2 39,1.2 39.8,1.7 40.6,1.2 40.6,0.2 40.8,0.2 40.8,1.4 			"/>
		</g>
		<g>
			<polygon points="42.2,2 41.1,1.4 41.1,0.2 41.4,0.2 41.4,1.2 42.2,1.7 43,1.2 43,0.2 43.3,0.2 43.3,1.4 			"/>
		</g>
		<g>
			<polygon points="44.6,2 43.6,1.4 43.6,0.2 43.8,0.2 43.8,1.2 44.6,1.7 45.4,1.2 45.4,0.2 45.7,0.2 45.7,1.4 			"/>
		</g>
		<g>
			<polygon points="47.1,2 46,1.4 46,0.2 46.3,0.2 46.3,1.2 47.1,1.7 47.9,1.2 47.9,0.2 48.1,0.2 48.1,1.4 			"/>
		</g>
		<g>
			<polygon points="49.5,2 48.4,1.4 48.4,0.2 48.7,0.2 48.7,1.2 49.5,1.7 50.3,1.2 50.3,0.2 50.6,0.2 50.6,1.4 			"/>
		</g>
		<g>
			<polygon points="51.9,2 50.9,1.4 50.9,0.2 51.1,0.2 51.1,1.2 51.9,1.7 52.7,1.2 52.7,0.2 53,0.2 53,1.4 			"/>
		</g>
		<g>
			<polygon points="54.3,2 53.3,1.4 53.3,0.2 53.5,0.2 53.5,1.2 54.3,1.7 55.2,1.2 55.2,0.2 55.4,0.2 55.4,1.4 			"/>
		</g>
		<g>
			<polygon points="56.8,2 55.7,1.4 55.7,0.2 56,0.2 56,1.2 56.8,1.7 57.6,1.2 57.6,0.2 57.8,0.2 57.8,1.4 			"/>
		</g>
		<g>
			<polygon points="59.2,2 58.1,1.4 58.1,0.2 58.4,0.2 58.4,1.2 59.2,1.7 60,1.2 60,0.2 60.3,0.2 60.3,1.4 			"/>
		</g>
		<g>
			<polygon points="61.6,2 60.6,1.4 60.6,0.2 60.8,0.2 60.8,1.2 61.6,1.7 62.5,1.2 62.5,0.2 62.7,0.2 62.7,1.4 			"/>
		</g>
		<g>
			<polygon points="64.1,2 63,1.4 63,0.2 63.3,0.2 63.3,1.2 64.1,1.7 64.9,1.2 64.9,0.2 65.1,0.2 65.1,1.4 			"/>
		</g>
		<g>
			<polygon points="66.5,2 65.4,1.4 65.4,0.2 65.7,0.2 65.7,1.2 66.5,1.7 67.3,1.2 67.3,0.2 67.6,0.2 67.6,1.4 			"/>
		</g>
		<g>
			<polygon points="68.9,2 67.9,1.4 67.9,0.2 68.1,0.2 68.1,1.2 68.9,1.7 69.7,1.2 69.7,0.2 70,0.2 70,1.4 			"/>
		</g>
		<g>
			<polygon points="71.4,2 70.3,1.4 70.3,0.2 70.5,0.2 70.5,1.2 71.4,1.7 72.2,1.2 72.2,0.2 72.4,0.2 72.4,1.4 			"/>
		</g>
		<g>
			<polygon points="73.8,2 72.7,1.4 72.7,0.2 73,0.2 73,1.2 73.8,1.7 74.6,1.2 74.6,0.2 74.8,0.2 74.8,1.4 			"/>
		</g>
		<g>
			<polygon points="76.2,2 75.2,1.4 75.2,0.2 75.4,0.2 75.4,1.2 76.2,1.7 77,1.2 77,0.2 77.3,0.2 77.3,1.4 			"/>
		</g>
		<g>
			<polygon points="78.6,2 77.6,1.4 77.6,0.2 77.8,0.2 77.8,1.2 78.6,1.7 79.5,1.2 79.5,0.2 79.7,0.2 79.7,1.4 			"/>
		</g>
		<g>
			<polygon points="81.1,2 80,1.4 80,0.2 80.3,0.2 80.3,1.2 81.1,1.7 81.9,1.2 81.9,0.2 82.1,0.2 82.1,1.4 			"/>
		</g>
		<g>
			<polygon points="83.5,2 82.4,1.4 82.4,0.2 82.7,0.2 82.7,1.2 83.5,1.7 84.3,1.2 84.3,0.2 84.6,0.2 84.6,1.4 			"/>
		</g>
		<g>
			<polygon points="85.9,2 84.9,1.4 84.9,0.2 85.1,0.2 85.1,1.2 85.9,1.7 86.7,1.2 86.7,0.2 87,0.2 87,1.4 			"/>
		</g>
		<g>
			<path d="M89.5,9.6l-1.1,0.6v1.2l1.1,0.6l1.1-0.6v-1.2L89.5,9.6z M90.4,11.3l-0.8,0.5l-0.8-0.5v-0.9l0.8-0.5l0.8,0.5V11.3z"/>
		</g>
		<g>
			<path d="M92,9.6l-1.1,0.6v1.2L92,12l1.1-0.6v-1.2L92,9.6z M92.8,11.3L92,11.7l-0.8-0.5v-0.9L92,9.8l0.8,0.5V11.3z"/>
		</g>
		<g>
			<polygon points="89.4,13.3 89.1,13.3 89.1,12.3 88.3,11.8 87.5,12.3 87.5,13.3 87.3,13.3 87.3,12.1 88.3,11.5 89.4,12.1 			"/>
		</g>
		<g>
			<polygon points="91.8,13.3 91.6,13.3 91.6,12.3 90.8,11.8 90,12.3 90,13.3 89.7,13.3 89.7,12.1 90.8,11.5 91.8,12.1 			"/>
		</g>
		<g>
			<path d="M89.5,5.6l-1.1,0.6v1.2L89.5,8l1.1-0.6V6.2L89.5,5.6z M90.4,7.3l-0.8,0.5l-0.8-0.5V6.3l0.8-0.5l0.8,0.5V7.3z"/>
		</g>
		<g>
			<path d="M92,5.6l-1.1,0.6v1.2L92,8L93,7.4V6.2L92,5.6z M92.8,7.3L92,7.7l-0.8-0.5V6.3L92,5.9l0.8,0.5V7.3z"/>
		</g>
		<g>
			<path d="M88.3,7.5L88,7.7l-0.1,0.1l-0.1,0.1v0.3l0.1-0.1L88,8l0.3-0.2l0.8,0.5v0.9l-0.8,0.5L88,9.5l-0.1-0.1l-0.1-0.1v0.2h-0.1
				l0.2,0.1L88,9.8l0.3,0.2l1-0.6V8.1L88.3,7.5z"/>
		</g>
		<g>
			<path d="M90.8,7.5l-1.1,0.6v1.2l1.1,0.6l1.1-0.6V8.1L90.8,7.5z M91.6,9.2l-0.8,0.5L90,9.2V8.3l0.8-0.5l0.8,0.5V9.2z"/>
		</g>
		<g>
			<path d="M89.5,4l-1.1-0.6V2.2l1.1-0.6l1.1,0.6v1.2L89.5,4z M88.7,3.3l0.8,0.5l0.8-0.5V2.3l-0.8-0.5l-0.8,0.5V3.3z"/>
		</g>
		<g>
			<path d="M92,4l-1.1-0.6V2.2L92,1.6L93,2.2v1.2L92,4z M91.2,3.3L92,3.7l0.8-0.5V2.3L92,1.8l-0.8,0.5V3.3z"/>
		</g>
		<g>
			<path d="M88.3,3.5l-1.1,0.6v1.2l0.2,0.1l0.2,0.1l0.2,0.1L88,5.8L88.3,6l1-0.6V4.1L88.3,3.5z M89.1,5.2l-0.8,0.5L88,5.5l0,0
				l-0.4-0.2V4.3l0.8-0.5l0.8,0.5V5.2z"/>
		</g>
		<g>
			<path d="M90.8,3.5l-1.1,0.6v1.2L90.8,6l1.1-0.6V4.1L90.8,3.5z M91.6,5.2l-0.8,0.5L90,5.2V4.3l0.8-0.5l0.8,0.5V5.2z"/>
		</g>
		<g>
			<polygon points="88.3,2 87.3,1.4 87.3,0.2 87.5,0.2 87.5,1.2 88.3,1.7 89.1,1.2 89.1,0.2 89.4,0.2 89.4,1.4 			"/>
		</g>
		<g>
			<polygon points="90.8,2 89.7,1.4 89.7,0.2 90,0.2 90,1.2 90.8,1.7 91.6,1.2 91.6,0.2 91.8,0.2 91.8,1.4 			"/>
		</g>
		<path d="M72.2,5.5v4.3H88V5.5H72.2z M87.8,9.6H72.5V5.7h15.2V9.6z"/>
		<path d="M65.5,1.9h-0.3H63h-0.3h-2.1h-0.3h-2.1h-0.3h-2.1h-0.3h-2.1H53h-2.1h-0.3h-2.1h-0.3H46h-0.3h-2.1h-0.3h-2.1h-0.3h-2.1
			h-0.3h-2.1H36h-2.1h-0.3h-2.1h-0.3H29h-0.3h-2.1h-0.3h-2.1h-0.3h-2.1h-0.3h-2.1H19h-2.1h-0.3h-2.1h-0.3H12h-0.3H9.6H9.2H7.7v11.5
			h58.5V1.9H65.5z M65.7,12.9H8.2V2.4h0.4h1.6H11h1.6h0.8h1.6h0.8h1.6h0.8h1.6h0.8h1.6h0.8h1.6h0.8h1.6H28h1.6h0.8h1.6h0.8h1.6h0.8
			h1.6h0.8h1.6h0.8h1.6h0.8h1.6H45h1.6h0.8h1.6h0.8h1.6h0.8H54h0.8h1.6h0.8h1.6h0.8h1.6H62h1.6h0.8h1.2v1.1V12.9z"/>
		<g>
			<circle cx="62.1" cy="6.4" r="0.7"/>
		</g>
		<g>
			<circle cx="62.1" cy="8.4" r="0.7"/>
		</g>
		<g>
			<circle cx="62.1" cy="10.4" r="0.7"/>
		</g>
		<g>
			<circle cx="64.1" cy="6.4" r="0.7"/>
		</g>
		<g>
			<circle cx="64.1" cy="8.4" r="0.7"/>
		</g>
		<g>
			<circle cx="64.1" cy="10.4" r="0.7"/>
		</g>
		<g>
			<polygon points="16.5,4.7 16.5,3.5 14.2,3.5 14.2,4.7 13.6,4.7 13.6,6.9 17.1,6.9 17.1,4.7 			"/>
		</g>
		<g>
			<polygon points="14.2,9.9 14.2,11.1 16.5,11.1 16.5,9.9 17.1,9.9 17.1,7.6 13.6,7.6 13.6,9.9 			"/>
		</g>
		<g>
			<polygon points="12.3,4.7 12.3,3.5 10,3.5 10,4.7 9.5,4.7 9.5,6.9 12.9,6.9 12.9,4.7 			"/>
		</g>
		<g>
			<polygon points="10,9.9 10,11.1 12.3,11.1 12.3,9.9 12.9,9.9 12.9,7.6 9.5,7.6 9.5,9.9 			"/>
		</g>
		<g>
			<polygon points="39.8,4.7 39.8,3.5 37.6,3.5 37.6,4.7 37,4.7 37,6.9 40.4,6.9 40.4,4.7 			"/>
		</g>
		<g>
			<polygon points="37.6,9.9 37.6,11.1 39.8,11.1 39.8,9.9 40.4,9.9 40.4,7.6 37,7.6 37,9.9 			"/>
		</g>
		<g>
			<polygon points="44.8,4.7 44.8,3.5 42.6,3.5 42.6,4.7 42,4.7 42,6.9 45.4,6.9 45.4,4.7 			"/>
		</g>
		<g>
			<polygon points="42.6,9.9 42.6,11.1 44.8,11.1 44.8,9.9 45.4,9.9 45.4,7.6 42,7.6 42,9.9 			"/>
		</g>
		<g>
			<rect x="18.9" y="3.5" width="3.5" height="3.4"/>
		</g>
		<g>
			<rect x="18.9" y="7.6" width="3.5" height="3.4"/>
		</g>
		<g>
			<rect x="22.9" y="3.5" width="3.5" height="3.4"/>
		</g>
		<g>
			<rect x="22.9" y="7.6" width="3.5" height="3.4"/>
		</g>
		<g>
			<rect x="27.9" y="3.5" width="3.5" height="3.4"/>
		</g>
		<g>
			<rect x="27.9" y="7.6" width="3.5" height="3.4"/>
		</g>
		<g>
			<rect x="31.9" y="3.5" width="3.5" height="3.4"/>
		</g>
		<g>
			<rect x="31.9" y="7.6" width="3.5" height="3.4"/>
		</g>
		<g>
			<path d="M52,11.1h-4.8V5.3H52V11.1z M48,10.3h3.2V6.1H48V10.3z"/>
		</g>
		<g>
			<polygon points="50.6,6.6 50.1,6.6 49.6,6.6 49.6,9.8 50.1,9.8 50.6,9.8 			"/>
		</g>
		<g>
			<path d="M57.6,11.1l-3,0l-1.1-0.6V8.5h5.2v2L57.6,11.1z M54.9,10.3h2.5L58,10V9.3h-3.8V10L54.9,10.3z"/>
		</g>
		<g>
			<path d="M93.4,13.9H0V0h93.4V13.9z M1.4,12.5H92V1.4H1.4V12.5z"/>
		</g>
		<g>
			<polygon points="81.8,6.7 81.1,5.9 80.4,6.7 80.8,7 79,8.8 79.7,9.4 80.4,8.8 80.1,8.4 			"/>
		</g>
		<g>
			<rect x="78" y="6.7" transform="matrix(0.7071 -0.7071 0.7071 0.7071 18.1157 58.1105)" width="2.5" height="1"/>
		</g>
		<g>
			<rect x="80.4" y="7.7" transform="matrix(0.7071 -0.7071 0.7071 0.7071 18.1022 60.1439)" width="2.5" height="1"/>
		</g>
	</g>
</g>
</svg>
