<?xml version="1.0" encoding="UTF-8"?><svg id="Layer_2" xmlns="http://www.w3.org/2000/svg" viewBox="0 0 56.15 56.15"><defs><style>.cls-1{stroke-width:0px;}</style></defs><g id="Layer_2-2"><path class="cls-1" d="m9.94,16.07h2.75l3.42,10.26h.38l3.42-10.26h2.75l-4.56,13.3h-3.61l-4.56-13.3Z"/><path class="cls-1" d="m23.71,16.07h3.99l3.13,9.31h.38l3.13-9.31h3.99v13.3h-2.47v-9.21h-.38l-3.13,9.21h-2.66l-3.13-9.21h-.38v9.21h-2.47v-13.3Z"/><path class="cls-1" d="m40.15,22.81h6.46v2.19h-6.46v-2.19Z"/><path class="cls-1" d="m50.11,56.15H6.04c-3.33,0-6.04-2.71-6.04-6.04V6.04C0,2.71,2.71,0,6.04,0h44.07c3.33,0,6.04,2.71,6.04,6.04v44.07c0,3.33-2.71,6.04-6.04,6.04ZM6.04,2c-2.23,0-4.04,1.81-4.04,4.04v44.07c0,2.23,1.81,4.04,4.04,4.04h44.07c2.23,0,4.04-1.81,4.04-4.04V6.04c0-2.23-1.81-4.04-4.04-4.04H6.04Z"/><path class="cls-1" d="m45.14,50.23c-.28,0-.5-.22-.5-.5s.22-.5.5-.5h.99c.28,0,.52.22.52.5s-.2.5-.48.5v-.5l-.02.5h-1.01Zm-2.98,0h-.99c-.28,0-.5-.22-.5-.5s.22-.5.5-.5h.99c.28,0,.5.22.5.5s-.22.5-.5.5Zm-3.98,0h-.99c-.28,0-.5-.22-.5-.5s.22-.5.5-.5h.99c.28,0,.5.22.5.5s-.22.5-.5.5Zm-3.98,0h-.99c-.28,0-.5-.22-.5-.5s.22-.5.5-.5h.99c.28,0,.5.22.5.5s-.22.5-.5.5Zm-3.98,0h-.99c-.28,0-.5-.22-.5-.5s.22-.5.5-.5h.99c.28,0,.5.22.5.5s-.22.5-.5.5Zm-3.98,0h-.99c-.28,0-.5-.22-.5-.5s.22-.5.5-.5h.99c.28,0,.5.22.5.5s-.22.5-.5.5Zm-3.98,0h-.99c-.28,0-.5-.22-.5-.5s.22-.5.5-.5h.99c.28,0,.5.22.5.5s-.22.5-.5.5Zm-3.98,0h-.99c-.28,0-.5-.22-.5-.5s.22-.5.5-.5h.99c.28,0,.5.22.5.5s-.22.5-.5.5Zm-3.98,0h-.99c-.28,0-.5-.22-.5-.5s.22-.5.5-.5h.99c.28,0,.5.22.5.5s-.22.5-.5.5Zm-3.98,0h-.32c-.26,0-.51-.02-.76-.07-.27-.05-.45-.31-.4-.58.05-.27.32-.45.58-.4.19.04.38.05.58.05h.32c.28,0,.5.22.5.5s-.22.5-.5.5Zm38.48-1.2c-.12,0-.24-.04-.33-.13-.21-.18-.22-.5-.04-.71.19-.21.35-.45.48-.71.12-.25.42-.35.67-.23.25.12.35.42.23.67-.17.34-.38.65-.63.94-.1.11-.24.17-.37.17Zm-41.86-.5c-.17,0-.33-.08-.43-.24-.2-.32-.35-.67-.46-1.03-.08-.27.08-.54.34-.62.27-.07.54.08.62.34.08.27.19.54.35.78.15.23.07.54-.16.69-.08.05-.17.08-.26.08Zm42.78-3.24c-.28,0-.5-.22-.5-.5v-.99c0-.28.22-.5.5-.5s.5.22.5.5v.99c0,.28-.22.5-.5.5Zm-43.32-.63c-.28,0-.5-.22-.5-.5v-.99c0-.28.22-.5.5-.5s.5.22.5.5v.99c0,.28-.22.5-.5.5Zm43.32-3.35c-.28,0-.5-.22-.5-.5v-.99c0-.28.22-.5.5-.5s.5.22.5.5v.99c0,.28-.22.5-.5.5Zm-43.32-.63c-.28,0-.5-.22-.5-.5v-.99c0-.28.22-.5.5-.5s.5.22.5.5v.99c0,.28-.22.5-.5.5Zm43.32-3.35c-.28,0-.5-.22-.5-.5v-.99c0-.28.22-.5.5-.5s.5.22.5.5v.99c0,.28-.22.5-.5.5Zm-43.32-.63c-.28,0-.5-.22-.5-.5v-.99c0-.28.22-.5.5-.5s.5.22.5.5v.99c0,.28-.22.5-.5.5Zm43.32-3.35c-.28,0-.5-.22-.5-.5v-.99c0-.28.22-.5.5-.5s.5.22.5.5v.99c0,.28-.22.5-.5.5Zm-43.32-.63c-.28,0-.5-.22-.5-.5v-.99c0-.28.22-.5.5-.5s.5.22.5.5v.99c0,.28-.22.5-.5.5Zm43.32-3.35c-.28,0-.5-.22-.5-.5v-.99c0-.28.22-.5.5-.5s.5.22.5.5v.99c0,.28-.22.5-.5.5Zm-43.32-.63c-.28,0-.5-.22-.5-.5v-.99c0-.28.22-.5.5-.5s.5.22.5.5v.99c0,.28-.22.5-.5.5Zm43.32-3.35c-.28,0-.5-.22-.5-.5v-.99c0-.28.22-.5.5-.5s.5.22.5.5v.99c0,.28-.22.5-.5.5Zm-43.32-.63c-.28,0-.5-.22-.5-.5v-.99c0-.28.22-.5.5-.5s.5.22.5.5v.99c0,.28-.22.5-.5.5Zm43.32-3.35c-.28,0-.5-.22-.5-.5v-.99c0-.28.22-.5.5-.5s.5.22.5.5v.99c0,.28-.22.5-.5.5Zm-43.32-.63c-.28,0-.5-.22-.5-.5v-.99c0-.28.22-.5.5-.5s.5.22.5.5v.99c0,.28-.22.5-.5.5Zm43.32-3.35c-.28,0-.5-.22-.5-.5v-.99c0-.28.22-.5.5-.5s.5.22.5.5v.99c0,.28-.22.5-.5.5Zm-43.32-.63c-.28,0-.5-.22-.5-.5v-.99c0-.28.22-.5.5-.5s.5.22.5.5v.99c0,.28-.22.5-.5.5Zm43.32-3.35c-.28,0-.5-.22-.5-.5v-.99c0-.28.22-.5.5-.5s.5.22.5.5v.99c0,.28-.22.5-.5.5Zm-43.32-.63c-.28,0-.5-.22-.5-.5v-.99c0-.28.22-.5.5-.5s.5.22.5.5v.99c0,.28-.22.5-.5.5Zm43.18-3.33c-.22,0-.42-.14-.48-.36-.08-.27-.2-.53-.35-.78-.15-.23-.08-.54.16-.69.23-.15.54-.08.69.16.2.32.36.67.46,1.03.08.26-.07.54-.34.62-.05.01-.09.02-.14.02Zm-42.8-.59c-.07,0-.15-.02-.22-.05-.25-.12-.35-.42-.23-.67.17-.34.38-.65.64-.93.19-.2.5-.22.71-.03.2.19.22.5.03.71-.19.21-.35.45-.48.7-.09.18-.26.28-.45.28Zm40-1.94s-.06,0-.09,0c-.18-.03-.37-.05-.56-.05h-.34c-.28,0-.5-.22-.5-.5s.22-.5.5-.5h.34c.25,0,.5.02.74.07.27.05.45.31.4.58-.04.24-.25.41-.49.41Zm-3.97-.06h-.99c-.28,0-.5-.22-.5-.5s.22-.5.5-.5h.99c.28,0,.5.22.5.5s-.22.5-.5.5Zm-3.98,0h-.99c-.28,0-.5-.22-.5-.5s.22-.5.5-.5h.99c.28,0,.5.22.5.5s-.22.5-.5.5Zm-3.98,0h-.99c-.28,0-.5-.22-.5-.5s.22-.5.5-.5h.99c.28,0,.5.22.5.5s-.22.5-.5.5Zm-3.98,0h-.99c-.28,0-.5-.22-.5-.5s.22-.5.5-.5h.99c.28,0,.5.22.5.5s-.22.5-.5.5Zm-3.98,0h-.99c-.28,0-.5-.22-.5-.5s.22-.5.5-.5h.99c.28,0,.5.22.5.5s-.22.5-.5.5Zm-3.98,0h-.99c-.28,0-.5-.22-.5-.5s.22-.5.5-.5h.99c.28,0,.5.22.5.5s-.22.5-.5.5Zm-3.98,0h-.99c-.28,0-.5-.22-.5-.5s.22-.5.5-.5h.99c.28,0,.5.22.5.5s-.22.5-.5.5Zm-3.98,0h-.99c-.28,0-.5-.22-.5-.5s.22-.5.5-.5h.99c.28,0,.5.22.5.5s-.22.5-.5.5Zm-3.98,0h-.97c-.28,0-.51-.22-.51-.5s.21-.5.49-.5h.99c.28,0,.5.22.5.5s-.22.5-.5.5Z"/><path class="cls-1" d="m13.44,38.28c0,.74.73,1.33,1.88,1.33,1.21,0,1.7-.47,1.7-1.09,0-.5-.3-.9-1.4-1.09l-1.46-.24c-1.47-.24-2.12-1.09-2.12-2.3,0-1.41,1.15-2.55,3.15-2.55,2.18,0,3.27,1.2,3.27,2.79h-1.58c0-.73-.59-1.33-1.7-1.33s-1.58.47-1.58,1.09c0,.49.24.81,1.15.97l1.33.24c1.71.3,2.49,1.02,2.49,2.43s-1.09,2.55-3.28,2.55-3.46-1.2-3.46-2.79h1.58Z"/><path class="cls-1" d="m25.33,39.13c-.13.49-.9,1.94-2.85,1.94-1.82,0-3.15-1.33-3.15-3.21s1.33-3.21,3.15-3.21c1.7,0,3.03,1.33,3.03,3.09,0,.18-.02.33-.04.44l-.02.17h-4.61c.13.86.78,1.46,1.64,1.46.72,0,1.15-.41,1.27-.67h1.58Zm-1.33-1.82c-.13-.79-.66-1.4-1.52-1.4-.92,0-1.46.61-1.64,1.4h3.15Z"/><path class="cls-1" d="m26.48,34.76h1.27l.12.55h.06c.07-.1.16-.18.27-.27.18-.13.45-.28.82-.28h1.21v1.46h-1.09c-.76,0-1.15.39-1.15,1.15v3.58h-1.52v-6.19Z"/><path class="cls-1" d="m30.79,32.33h1.64v1.46h-1.64v-1.46Zm.06,2.43h1.52v6.19h-1.52v-6.19Z"/><path class="cls-1" d="m39.34,39.13c-.13.49-.9,1.94-2.85,1.94-1.82,0-3.15-1.33-3.15-3.21s1.33-3.21,3.15-3.21c1.7,0,3.03,1.33,3.03,3.09,0,.18-.02.33-.04.44l-.02.17h-4.61c.13.86.78,1.46,1.64,1.46.72,0,1.15-.41,1.27-.67h1.58Zm-1.33-1.82c-.13-.79-.66-1.4-1.52-1.4-.92,0-1.46.61-1.64,1.4h3.15Z"/><path class="cls-1" d="m41.52,39.07c0,.3.38.79,1.21.79s1.15-.29,1.15-.67-.17-.58-.85-.69l-.97-.16c-1.27-.21-2-.73-2-1.76s.91-1.94,2.61-1.94c1.81,0,2.61,1.27,2.61,2h-1.46c0-.38-.42-.79-1.15-.79s-1.09.35-1.09.73c0,.29.28.49.85.57l1.03.16c1.27.19,1.94.78,1.94,1.88,0,1.02-.86,1.88-2.67,1.88-2.3,0-2.67-1.58-2.67-2h1.46Z"/></g></svg>