<?xml version="1.0" encoding="UTF-8"?><svg id="Layer_2" xmlns="http://www.w3.org/2000/svg" viewBox="0 0 56.15 56.15"><defs><style>.cls-1{stroke-width:0px;}</style></defs><g id="Layer_2-2"><path class="cls-1" d="m14.62,19.14h7.03c2.92,0,4.91,2.03,4.91,5.25s-1.99,5.25-4.91,5.25h-4.13v5.13h-2.9v-15.63Zm6.92,7.7c1.25,0,2.12-.87,2.12-2.46s-.87-2.46-2.12-2.46h-4.02v4.91h4.02Z"/><path class="cls-1" d="m28.58,19.14h3.91l5.69,10.83h.45v-10.83h2.9v15.63h-3.91l-5.69-10.83h-.45v10.83h-2.9v-15.63Z"/><path class="cls-1" d="m50.11,56.15H6.04c-3.33,0-6.04-2.71-6.04-6.04V6.04C0,2.71,2.71,0,6.04,0h44.07c3.33,0,6.04,2.71,6.04,6.04v44.07c0,3.33-2.71,6.04-6.04,6.04ZM6.04,2c-2.23,0-4.04,1.81-4.04,4.04v44.07c0,2.23,1.81,4.04,4.04,4.04h44.07c2.23,0,4.04-1.81,4.04-4.04V6.04c0-2.23-1.81-4.04-4.04-4.04H6.04Z"/><path class="cls-1" d="m46.18,50.23h-1.04c-.28,0-.5-.22-.5-.5s.22-.5.5-.5h.99c.28,0,.52.22.52.5s-.2.5-.48.5Zm-4.02,0h-.99c-.28,0-.5-.22-.5-.5s.22-.5.5-.5h.99c.28,0,.5.22.5.5s-.22.5-.5.5Zm-3.98,0h-.99c-.28,0-.5-.22-.5-.5s.22-.5.5-.5h.99c.28,0,.5.22.5.5s-.22.5-.5.5Zm-3.98,0h-.99c-.28,0-.5-.22-.5-.5s.22-.5.5-.5h.99c.28,0,.5.22.5.5s-.22.5-.5.5Zm-3.98,0h-.99c-.28,0-.5-.22-.5-.5s.22-.5.5-.5h.99c.28,0,.5.22.5.5s-.22.5-.5.5Zm-3.98,0h-.99c-.28,0-.5-.22-.5-.5s.22-.5.5-.5h.99c.28,0,.5.22.5.5s-.22.5-.5.5Zm-3.98,0h-.99c-.28,0-.5-.22-.5-.5s.22-.5.5-.5h.99c.28,0,.5.22.5.5s-.22.5-.5.5Zm-3.98,0h-.99c-.28,0-.5-.22-.5-.5s.22-.5.5-.5h.99c.28,0,.5.22.5.5s-.22.5-.5.5Zm-3.98,0h-.99c-.28,0-.5-.22-.5-.5s.22-.5.5-.5h.99c.28,0,.5.22.5.5s-.22.5-.5.5Zm-3.98,0h-.32c-.26,0-.51-.02-.76-.07-.27-.05-.45-.31-.4-.58.05-.27.32-.45.58-.4.19.04.38.05.58.05h.32c.28,0,.5.22.5.5s-.22.5-.5.5Zm38.48-1.2c-.12,0-.24-.04-.33-.13-.21-.18-.22-.5-.04-.71.19-.21.35-.45.48-.71.12-.25.42-.35.67-.23.25.12.35.42.23.67-.17.34-.38.65-.63.94-.1.11-.24.17-.37.17Zm-41.86-.51c-.17,0-.33-.08-.43-.24-.2-.32-.35-.67-.46-1.03-.08-.27.08-.54.34-.62.27-.07.54.08.62.34.08.27.19.54.35.78.15.23.07.54-.16.69-.08.05-.17.08-.26.08Zm42.78-3.24c-.28,0-.5-.22-.5-.5v-.99c0-.28.22-.5.5-.5s.5.22.5.5v.99c0,.28-.22.5-.5.5Zm-43.32-.63c-.28,0-.5-.22-.5-.5v-.99c0-.28.22-.5.5-.5s.5.22.5.5v.99c0,.28-.22.5-.5.5Zm43.32-3.34c-.28,0-.5-.22-.5-.5v-.99c0-.28.22-.5.5-.5s.5.22.5.5v.99c0,.28-.22.5-.5.5Zm-43.32-.63c-.28,0-.5-.22-.5-.5v-.99c0-.28.22-.5.5-.5s.5.22.5.5v.99c0,.28-.22.5-.5.5Zm43.32-3.34c-.28,0-.5-.22-.5-.5v-.99c0-.28.22-.5.5-.5s.5.22.5.5v.99c0,.28-.22.5-.5.5Zm-43.32-.63c-.28,0-.5-.22-.5-.5v-.99c0-.28.22-.5.5-.5s.5.22.5.5v.99c0,.28-.22.5-.5.5Zm43.32-3.34c-.28,0-.5-.22-.5-.5v-.99c0-.28.22-.5.5-.5s.5.22.5.5v.99c0,.28-.22.5-.5.5Zm-43.32-.63c-.28,0-.5-.22-.5-.5v-.99c0-.28.22-.5.5-.5s.5.22.5.5v.99c0,.28-.22.5-.5.5Zm43.32-3.34c-.28,0-.5-.22-.5-.5v-.99c0-.28.22-.5.5-.5s.5.22.5.5v.99c0,.28-.22.5-.5.5Zm-43.32-.63c-.28,0-.5-.22-.5-.5v-.99c0-.28.22-.5.5-.5s.5.22.5.5v.99c0,.28-.22.5-.5.5Zm43.32-3.34c-.28,0-.5-.22-.5-.5v-.99c0-.28.22-.5.5-.5s.5.22.5.5v.99c0,.28-.22.5-.5.5Zm-43.32-.63c-.28,0-.5-.22-.5-.5v-.99c0-.28.22-.5.5-.5s.5.22.5.5v.99c0,.28-.22.5-.5.5Zm43.32-3.34c-.28,0-.5-.22-.5-.5v-.99c0-.28.22-.5.5-.5s.5.22.5.5v.99c0,.28-.22.5-.5.5Zm-43.32-.63c-.28,0-.5-.22-.5-.5v-.99c0-.28.22-.5.5-.5s.5.22.5.5v.99c0,.28-.22.5-.5.5Zm43.32-3.34c-.28,0-.5-.22-.5-.5v-.99c0-.28.22-.5.5-.5s.5.22.5.5v.99c0,.28-.22.5-.5.5Zm-43.32-.63c-.28,0-.5-.22-.5-.5v-.99c0-.28.22-.5.5-.5s.5.22.5.5v.99c0,.28-.22.5-.5.5Zm43.32-3.34c-.28,0-.5-.22-.5-.5v-.99c0-.28.22-.5.5-.5s.5.22.5.5v.99c0,.28-.22.5-.5.5Zm-43.32-.63c-.28,0-.5-.22-.5-.5v-.99c0-.28.22-.5.5-.5s.5.22.5.5v.99c0,.28-.22.5-.5.5Zm43.18-3.33c-.22,0-.42-.14-.48-.36-.08-.27-.2-.54-.35-.78-.15-.23-.08-.54.16-.69.23-.15.54-.08.69.16.2.32.36.67.46,1.03.08.27-.07.54-.34.62-.05.01-.09.02-.14.02Zm-42.8-.59c-.07,0-.15-.02-.22-.05-.25-.12-.35-.42-.23-.67.17-.34.38-.65.64-.93.19-.2.5-.22.71-.03.2.19.22.5.03.71-.19.21-.35.45-.48.7-.09.18-.26.28-.45.28Zm40-1.94s-.06,0-.09,0c-.18-.03-.37-.05-.56-.05h-.34c-.28,0-.5-.22-.5-.5s.22-.5.5-.5h.34c.25,0,.5.02.74.07.27.05.45.31.4.58-.04.24-.25.41-.49.41Zm-3.97-.06h-.99c-.28,0-.5-.22-.5-.5s.22-.5.5-.5h.99c.28,0,.5.22.5.5s-.22.5-.5.5Zm-3.98,0h-.99c-.28,0-.5-.22-.5-.5s.22-.5.5-.5h.99c.28,0,.5.22.5.5s-.22.5-.5.5Zm-3.98,0h-.99c-.28,0-.5-.22-.5-.5s.22-.5.5-.5h.99c.28,0,.5.22.5.5s-.22.5-.5.5Zm-3.98,0h-.99c-.28,0-.5-.22-.5-.5s.22-.5.5-.5h.99c.28,0,.5.22.5.5s-.22.5-.5.5Zm-3.98,0h-.99c-.28,0-.5-.22-.5-.5s.22-.5.5-.5h.99c.28,0,.5.22.5.5s-.22.5-.5.5Zm-3.98,0h-.99c-.28,0-.5-.22-.5-.5s.22-.5.5-.5h.99c.28,0,.5.22.5.5s-.22.5-.5.5Zm-3.98,0h-.99c-.28,0-.5-.22-.5-.5s.22-.5.5-.5h.99c.28,0,.5.22.5.5s-.22.5-.5.5Zm-3.98,0h-.99c-.28,0-.5-.22-.5-.5s.22-.5.5-.5h.99c.28,0,.5.22.5.5s-.22.5-.5.5Zm-3.98,0h-.97c-.28,0-.51-.22-.51-.5s.21-.5.49-.5h.99c.28,0,.5.22.5.5s-.22.5-.5.5Z"/></g></svg>